<?xml version="1.0" encoding="utf-8" ?>
<svg xmlns="http://www.w3.org/2000/svg" xmlns:cc="http://creativecommons.org/ns" xmlns:dc="http://purl.org/dc/elements/1.1/" xmlns:ev="http://www.w3.org/2001/xml-events" xmlns:inkscape="http://www.inkscape.org/namespaces/inkscape" xmlns:rdf="http://www.w3.org/1999/02/22-rdf-syntax-ns" xmlns:sodipodi="http://sodipodi.sourceforge.net/DTD/sodipodi-0.dtd" xmlns:xlink="http://www.w3.org/1999/xlink" baseProfile="tiny" height="26.61626383cm" version="1.2" viewBox="0 0 797.2445045905511 1005.9690267505514" width="21.09376085cm">
  <metadata>
    <rdf:RDF>
      <cc:Work>
        <dc:format>image/svg+xml</dc:format>
        <dc:source/>
        <dc:date>2026-01-19T22:49:07.524457</dc:date>
      </cc:Work>
    </rdf:RDF>
  </metadata>
  <defs/>
  <g fill="none" id="layer1" inkscape:groupmode="layer" inkscape:label="1" stroke="#0000ff" stroke-width="1.0" style="display:inline">
    <line x1="5.9375" x2="5.9375" y1="63.4719" y2="63.7812"/>
    <line x1="13.125" x2="13.4375" y1="74.3" y2="74.6094"/>
    <polyline fill="none" stroke="#000000" points="13.4375,74.3 13.75,73.9906 14.0625,73.9906 14.375,74.3 14.6875,74.3 15.0,74.6094 14.0625,75.5375 14.0625,75.8469"/>
    <line x1="14.0625" x2="13.75" y1="75.5375" y2="75.5375"/>
    <line x1="29.0625" x2="29.375" y1="78.3219" y2="78.0125"/>
    <polyline fill="none" stroke="#000000" points="29.375,78.3219 29.375,78.0125 29.6875,77.7031 29.6875,77.3937 30.3125,76.775 30.625,76.775 31.25,76.1562 31.875,76.1562 32.1875,75.8469 32.5,75.8469 33.125,75.2281 33.4375,75.2281 33.75,74.9187 34.0625,74.9187 34.375,74.6094 35.0,74.6094"/>
    <line x1="40.625" x2="40.9375" y1="87.9125" y2="88.2219"/>
    <polyline fill="none" stroke="#000000" points="40.625,88.2219 40.3125,88.5312 40.3125,89.4594 40.9375,90.0781"/>
    <polyline fill="none" stroke="#000000" points="40.9375,91.625 40.3125,92.2437 40.3125,92.8625 40.625,93.1719 40.9375,93.1719"/>
    <line x1="40.625" x2="40.625" y1="93.1719" y2="93.4812"/>
    <polyline fill="none" stroke="#000000" points="17.1875,53.8812 17.8125,53.2625 17.8125,52.3344 18.125,52.025 18.125,51.7156 18.4375,51.4062 18.4375,51.0969 18.75,50.7875 19.0625,50.7875 20.9375,48.9312 21.25,48.9312 21.875,48.3125 22.1875,48.3125 22.5,48.0031 22.8125,48.0031 23.125,47.6937 23.75,47.6937 24.375,47.075 24.6875,47.075 25.0,46.7656 25.625,46.7656 25.9375,46.4562 26.25,46.4562 26.5625,46.1469 26.875,46.1469"/>
    <polyline fill="none" stroke="#000000" points="35.9375,26.9656 34.6875,28.2031 34.0625,28.2031 33.75,28.5125 33.125,28.5125 32.8125,28.8219 32.1875,28.8219 31.875,29.1312 31.25,29.1312 30.9375,29.4406 30.625,29.4406 30.3125,29.75 30.0,29.75 29.6875,30.0594 29.375,30.0594 29.0625,30.3687 28.75,30.3687 28.4375,30.6781 28.125,30.6781 27.8125,30.9875 27.5,30.9875 27.1875,31.2969 26.875,31.2969 26.5625,31.6062 26.25,31.6062 25.625,32.225 25.3125,32.225 24.6875,32.8437 24.375,32.8437 23.75,33.4625 23.4375,33.4625 22.1875,34.7 21.875,34.7 17.1875,39.3406 17.1875,39.65 16.25,40.5781 16.25,40.8875 14.375,42.7437 14.375,43.3625 14.0625,43.6719 14.0625,44.6 13.125,45.5281 13.125,47.3844 12.8125,47.6937 12.8125,48.9312 12.5,49.2406 12.5,49.8594 12.1875,50.1687 12.1875,50.4781 11.875,50.7875 11.875,51.0969 11.5625,51.4062 11.5625,51.7156 10.9375,52.3344 10.9375,52.6437 10.625,52.9531 10.625,53.2625 10.0,53.8812 10.0,54.1906 7.8125,56.3562 7.8125,56.6656 6.5625,57.9031 6.5625,58.5219 5.625,59.45 5.625,60.0687 5.3125,60.3781 5.3125,60.9969 5.0,61.3062 5.0,61.925 5.3125,62.2344 5.3125,62.5437 5.625,62.8531 5.625,63.1625 5.9375,63.4719 6.25,63.4719 5.9375,63.7812 5.9375,65.6375 6.25,65.9469 6.25,66.2562 6.5625,66.5656 6.5625,67.1844 6.875,67.4937 6.875,68.4219 7.5,69.0406 7.5,69.35 7.8125,69.6594 7.8125,69.9687 10.625,72.7531 10.9375,72.7531 11.5625,73.3719 11.875,73.3719 12.5,73.9906 12.8125,73.9906 13.125,74.3 13.4375,74.3 13.4375,75.2281 15.625,77.3937 15.9375,77.3937 16.5625,78.0125 16.875,78.0125 17.1875,78.3219 18.125,78.3219 18.4375,78.6312 19.0625,78.6312 19.375,78.9406 20.625,78.9406 20.9375,79.25 25.0,79.25 25.3125,78.9406 26.25,78.9406 26.5625,78.6312 28.75,78.6312 29.0625,78.3219 29.375,78.3219 30.0,78.9406 33.125,78.9406 33.4375,79.25 34.0625,79.25 34.375,79.5594 35.0,79.5594 35.625,80.1781 35.9375,80.1781 36.25,80.4875 36.5625,80.4875 37.1875,81.1062 37.5,81.1062 38.4375,82.0344 38.4375,82.3437 38.75,82.6531 38.75,83.2719 39.375,83.8906 39.375,84.2 39.6875,84.5094 39.6875,84.8187 40.0,85.1281 40.0,85.7469 40.3125,86.0562 40.3125,86.675 40.625,86.9844 40.625,88.2219 40.9375,88.2219 41.25,88.5312 41.25,89.7687 40.9375,90.0781 40.9375,91.625 41.25,91.9344 41.25,92.8625 40.625,93.4812 40.625,95.3375 40.3125,95.6469 40.3125,96.575 40.0,96.8844 40.0,98.122 39.6875,98.4313 39.6875,99.0501 39.375,99.3595 39.375,100.2876 39.0625,100.597 39.0625,101.2157 38.75,101.5251 38.75,102.4532 38.4375,102.7626 38.4375,103.3813 38.125,103.6907 38.125,104.6188 37.8125,104.9282 37.8125,105.547 37.5,105.8563 37.5,106.4751 37.1875,106.7845 37.1875,107.4032 36.875,107.7126 36.875,108.6407 36.5625,108.9501 36.5625,109.8782 36.25,110.1876 36.25,111.4251 35.9375,111.7345 35.9375,112.3532 36.25,112.6626 36.25,112.972 35.9375,113.2813 35.9375,113.9001 35.625,114.2095 35.625,117.6126 35.3125,117.922 35.3125,124.4188 35.625,124.7282 35.625,126.8938 35.9375,127.2032 35.9375,129.0595 36.25,129.3688 36.25,130.297 36.5625,130.6063 36.5625,131.8438 36.875,132.1532 36.875,133.0813 37.1875,133.3907 37.1875,133.7001 37.5,134.0095 37.5,134.9376 37.8125,135.247 37.8125,135.8657 38.125,136.1751 38.125,136.7938 38.4375,137.1032 38.4375,137.4126 38.75,137.722 38.75,138.3407 39.0625,138.6501 39.0625,138.9595 39.375,139.2688 39.375,139.8876 39.6875,140.197 39.6875,140.5063 40.0,140.8157 40.0,141.1251 40.3125,141.4345 40.3125,141.7438 40.625,142.0532 40.625,142.672 40.9375,142.9813 40.9375,143.2907 41.25,143.6001 41.25,143.9095 41.5625,144.2188 41.5625,144.5282 42.1875,145.147 42.1875,145.7657 42.8125,146.3845 42.8125,147.0032 43.4375,147.622 43.4375,147.9313 44.0625,148.5501 44.0625,148.8595 44.375,149.1688 44.375,149.4782 44.6875,149.7876 44.6875,150.097 45.0,150.4063 45.0,150.7157 45.625,151.3345 45.625,151.6438 45.9375,151.9532 45.9375,152.2626 46.25,152.572 46.25,152.8813 46.5625,153.1907 46.5625,153.5001 46.875,153.8095 46.875,154.1188 47.1875,154.4282 47.1875,154.7376 47.8125,155.3563 47.8125,155.6657 48.125,155.9751 48.125,156.2845 48.4375,156.5938 48.4375,156.9032 48.75,157.2126 48.75,157.522 49.375,158.1407 49.375,158.4501 49.6875,158.7595 49.6875,159.3782 50.3125,159.997 50.3125,160.9251 50.625,161.2345 50.625,161.5438 50.9375,161.8532 50.9375,162.1626 51.25,162.472 51.25,162.7813 51.5625,163.0907 51.5625,163.7095 51.875,164.0188 51.875,164.6376 52.1875,164.947 52.1875,165.5657 52.5,165.8751 52.5,166.4938 52.8125,166.8032 52.8125,167.7313 53.125,168.0407 53.125,168.9688 53.4375,169.2782 53.4375,170.2063 53.75,170.5157 53.75,172.6813 54.0625,172.9907 54.0625,176.3938 54.375,176.7032 54.375,177.6313 54.6875,177.9407 54.6875,178.5595 54.375,178.8688 54.6875,179.1782 54.6875,180.1063 54.375,180.4157 54.6875,180.7251 54.6875,181.6532 54.375,181.9626 54.6875,182.272 54.6875,182.5813 54.0625,183.2001 54.0625,183.8188 54.375,184.1282 54.375,186.9126 54.0625,187.222 54.0625,189.0782 53.75,189.3876 53.75,192.4813 53.4375,192.7907 53.4375,194.647 53.125,194.9563 53.125,198.3595 52.8125,198.6688 52.8125,199.597 52.5,199.9063 52.5,201.7626 52.1875,202.072 52.1875,203.0001 51.875,203.3095 51.875,204.547 51.5625,204.8563 51.5625,205.7845 51.875,206.0938 52.5,206.0938 52.8125,206.4032 53.125,206.4032 53.125,207.3313 52.8125,207.6407 52.8125,209.1876 52.5,209.497"/>
    <polyline fill="none" stroke="#000000" points="51.5625,209.1876 51.25,208.8782 51.25,207.3313 51.5625,207.022 51.5625,206.4032 51.875,206.0938"/>
    <polyline fill="none" stroke="#000000" points="51.5625,206.7126 52.5,207.6407 52.8125,207.6407"/>
    <line x1="52.8125" x2="52.5" y1="207.9501" y2="207.6407"/>
    <line x1="51.875" x2="51.5625" y1="207.022" y2="207.022"/>
    <line x1="52.8125" x2="53.125" y1="206.4032" y2="206.7126"/>
    <polyline fill="none" stroke="#000000" points="53.125,206.4032 53.4375,206.0938 53.4375,204.8563 53.75,204.547 53.75,203.3095 54.0625,203.0001 54.0625,201.7626 54.375,201.4532 54.375,200.5251 54.6875,200.2157 54.6875,198.3595 55.0,198.0501 55.0,196.5032 55.3125,196.1938 55.3125,194.0282 55.625,193.7188 55.625,191.2438 55.9375,190.9345 55.9375,187.222 56.25,186.9126 56.25,175.7751 55.9375,175.4657 55.9375,172.6813 55.625,172.372 55.625,171.4438 55.3125,171.1345 55.3125,170.2063 55.0,169.897 55.0,168.9688 54.6875,168.6595 54.6875,167.7313 54.375,167.422 54.375,166.8032 54.0625,166.4938 54.0625,165.2563 53.75,164.947 53.75,164.3282 53.4375,164.0188 53.4375,163.0907 53.125,162.7813 53.125,162.472 52.8125,162.1626 52.8125,161.8532 52.5,161.5438 52.5,161.2345 52.1875,160.9251 52.1875,160.6157 51.875,160.3063 51.875,159.6876"/>
    <line x1="85.9375" x2="86.25" y1="181.3438" y2="181.6532"/>
    <polyline fill="none" stroke="#000000" points="85.9375,181.6532 85.625,181.9626 85.625,183.5095 85.3125,183.8188 85.625,184.1282 85.625,184.4376"/>
    <line x1="85.625" x2="85.9375" y1="184.1282" y2="184.1282"/>
    <polyline fill="none" stroke="#000000" points="87.1875,182.8907 87.8125,182.272 87.8125,181.6532 88.125,181.3438 88.125,181.0345 88.4375,180.7251 88.4375,180.4157 88.75,180.1063 88.75,179.797 89.0625,179.4876 89.0625,179.1782 89.375,178.8688 89.375,178.5595 90.0,177.9407 90.0,177.6313 90.625,177.0126 90.625,176.7032 91.25,176.0845 91.25,175.7751 91.875,175.1563 91.875,174.847 93.125,173.6095 93.125,173.3001 95.0,171.4438 95.0,171.1345 97.5,168.6595 97.8126,168.6595 99.3751,167.1126 99.6876,167.1126 100.9376,165.8751 101.2501,165.8751 101.8751,165.2563 102.1876,165.2563 102.8126,164.6376 103.1251,164.6376 103.4376,164.3282 103.7501,164.3282 104.3751,163.7095 104.6876,163.7095 105.0001,163.4001 105.6251,163.4001 106.2501,162.7813 106.8751,162.7813 107.5001,162.1626 108.1251,162.1626 108.4376,161.8532 108.7501,161.8532 109.0626,161.5438 109.6876,161.5438 110.0001,161.2345 110.3126,161.2345 110.6251,160.9251 111.2501,160.9251 111.5626,160.6157 112.1876,160.6157 112.5001,160.3063 113.1251,160.3063 113.4376,159.997 114.0626,159.997 114.3751,159.6876 115.0001,159.6876 115.3126,159.3782 116.5626,159.3782 116.8751,159.0688 117.8126,159.0688 118.1251,158.7595 119.3751,158.7595 119.6876,158.4501 120.9376,158.4501 121.2501,158.1407 123.1251,158.1407"/>
    <polyline fill="none" stroke="#000000" points="97.8126,154.4282 97.8126,154.7376 97.5,155.047 97.5,155.3563 97.1875,155.6657 97.1875,156.2845 96.875,156.5938 96.875,157.522 96.5625,157.8313 96.5625,158.4501 96.25,158.7595 96.25,159.3782 95.9375,159.6876 95.9375,160.3063 95.625,160.6157 95.625,160.9251 95.3125,161.2345 95.3125,161.5438 95.0,161.8532 95.0,162.472 94.6875,162.7813 94.6875,163.0907 94.375,163.4001 94.375,163.7095 94.0625,164.0188 94.0625,164.6376 93.4375,165.2563 93.4375,165.8751 92.8125,166.4938 92.8125,166.8032 92.5,167.1126 92.5,167.422 92.1875,167.7313 92.1875,168.0407 91.875,168.3501 91.875,168.6595 91.5625,168.9688 91.5625,169.2782 91.25,169.5876 91.25,170.2063 90.625,170.8251 90.625,171.1345 90.3125,171.4438 90.3125,171.7532 90.0,172.0626 90.0,172.372 89.375,172.9907 89.375,173.3001 89.0625,173.6095 89.0625,174.2282 88.4375,174.847 88.4375,175.4657 88.125,175.7751 88.125,176.0845 87.5,176.7032 87.5,177.322 87.1875,177.6313 87.1875,178.5595 86.5625,179.1782 86.5625,180.1063 86.25,180.4157 86.25,181.0345 85.9375,181.3438 85.9375,181.6532 86.25,181.6532 87.1875,182.5813 87.1875,183.2001 86.25,184.1282 85.9375,184.1282 85.625,184.4376 85.625,185.0563 85.3125,185.3657 85.3125,185.6751 85.0,185.9845 85.0,186.6032 84.6875,186.9126 84.6875,187.5313 84.375,187.8407 84.375,188.7688 84.0625,189.0782 84.0625,190.6251 83.75,190.9345 83.75,191.8626 84.0625,192.172 83.75,192.4813 83.75,192.7907 84.0625,193.1001 83.75,193.4095 83.75,193.7188 83.4375,194.0282 83.4375,194.3376 83.125,194.647 83.125,199.2876 82.8125,199.597 82.8125,199.9063 81.875,200.8345 81.875,202.072 82.1875,202.3813 82.1875,203.9282 82.5,204.2376 82.5,204.547 82.8125,204.8563 82.5,205.1657 82.5,205.7845 82.8125,206.0938 83.125,206.0938 82.8125,206.4032 82.8125,207.022 84.0625,208.2595 84.0625,208.5688 84.375,208.8782 84.375,209.1876 85.3125,210.1157 85.3125,211.0438 85.625,211.3532 85.625,211.972 85.9375,212.2813 85.9375,213.2095 86.25,213.5188 86.25,213.8282 86.5625,214.1376 86.5625,215.0657 87.1875,215.6845 87.1875,215.9938 87.5,216.3032 87.5,216.6126 87.8125,216.922 87.8125,217.2313 88.125,217.5407 88.125,217.8501 88.4375,218.1595 88.4375,218.4688 88.75,218.7782 88.75,219.397 89.375,220.0157 89.375,220.3251 90.0,220.9438 90.0,221.2532 90.625,221.872 90.625,222.1813 90.9375,222.4907 90.9375,222.8001 91.875,223.7282 91.875,224.0376 92.5,224.6563 92.5,224.9657 95.3125,227.7501 95.3125,228.0595 98.4376,231.1532 98.7501,231.1532 100.0001,232.3907 100.3126,232.3907 101.2501,233.3188 101.5626,233.3188 102.5001,234.247 102.8126,234.247 103.4376,234.8657 103.7501,234.8657 104.3751,235.4845 104.6876,235.4845 105.0001,235.7938 105.3126,235.7938 105.9376,236.4126 106.2501,236.4126 106.8751,237.0313 106.8751,237.3407 107.1876,237.6501 107.5001,237.6501 107.8126,237.9595 108.4376,237.9595 108.7501,238.2688 109.3751,238.2688 109.6876,238.5782 110.3126,238.5782 110.6251,238.8876 110.9376,238.8876 111.2501,239.197 112.1876,239.197 112.5001,239.5063 113.1251,239.5063 113.4376,239.8157 113.4376,240.1251 114.0626,240.7438 114.3751,240.7438 114.6876,241.0532 115.3126,241.0532 115.9376,241.672 116.2501,241.672 116.5626,241.9813 117.8126,241.9813"/>
    <polyline fill="none" stroke="#000000" points="106.8751,237.3407 106.2501,237.9595 105.9376,237.9595 105.3126,237.3407"/>
    <polyline fill="none" stroke="#000000" points="105.9376,236.4126 105.3126,237.0313 105.3126,237.3407 105.0001,237.6501 104.6876,237.6501 104.3751,237.3407 102.5001,237.3407 101.8751,236.722 101.2501,236.722 100.9376,237.0313 100.6251,236.722 100.0001,236.722 99.3751,236.1032 98.7501,236.1032 98.4376,236.4126 98.1251,236.4126 97.8126,236.1032 97.1875,236.1032 96.875,235.7938 94.375,235.7938 94.0625,235.4845 93.125,235.4845 92.8125,235.1751 88.75,235.1751 88.4375,235.4845 87.1875,235.4845 86.875,235.7938 86.25,235.7938 85.9375,236.1032 85.0,236.1032 84.6875,236.4126 84.0625,236.4126 83.75,236.722 83.125,236.722 82.8125,237.0313 82.5,237.0313 81.25,238.2688 80.9375,238.2688 80.0,239.197 80.0,239.5063 79.375,240.1251 79.375,240.7438 79.6875,240.7438 80.3125,241.3626 80.3125,241.672 80.0,241.9813 79.375,241.9813 79.0625,241.672 77.8125,242.9095 77.8125,243.8376 78.125,244.147 78.125,245.6938 77.5,246.3126 77.1875,246.3126 76.875,246.0032 75.3125,246.0032 75.0,245.6938 73.4375,245.6938 73.125,245.3845 71.5625,245.3845 71.25,245.0751 70.3125,245.0751 70.0,244.7657 68.75,244.7657 68.4375,244.4563 67.1875,244.4563 66.875,244.147 66.5625,244.147 66.25,243.8376 65.3125,243.8376 65.0,243.5282 64.6875,243.5282 64.375,243.2188 62.8125,243.2188 62.1875,242.6001 61.25,242.6001 60.9375,242.2907 59.6875,242.2907 59.375,241.9813 56.25,241.9813 55.9375,242.2907 55.0,242.2907 54.6875,242.6001 54.0625,242.6001 53.75,242.9095 53.4375,242.9095 53.125,243.2188 52.8125,243.2188 52.5,243.5282 52.5,243.8376 51.5625,244.7657 51.5625,245.0751 51.25,245.3845 51.25,246.0032 50.9375,246.3126 50.9375,246.9313 50.625,247.2407 50.625,248.7876 50.9375,249.097 50.9375,249.4063 51.25,249.7157 51.25,250.6438 51.5625,250.9532"/>
    <line x1="51.25" x2="51.25" y1="250.9532" y2="250.6438"/>
    <polyline fill="none" stroke="#000000" points="62.1875,239.5063 62.8125,238.8876 62.8125,238.5782 63.4375,237.9595 63.4375,237.6501 63.75,237.3407 63.75,237.0313 64.0625,236.722 64.0625,236.4126 64.375,236.1032 64.375,235.7938 65.0,235.1751 65.0,234.8657 65.3125,234.5563 65.3125,234.247 65.625,233.9376 65.625,233.6282 65.9375,233.3188 65.9375,233.0095 66.25,232.7001 66.25,232.3907 66.5625,232.0813 66.5625,231.772 66.875,231.4626 66.875,231.1532 67.1875,230.8438 67.1875,230.5345 67.5,230.2251 67.5,229.9157 67.8125,229.6063 67.8125,229.297 68.125,228.9876 68.125,228.6782 68.4375,228.3688 68.4375,228.0595 68.75,227.7501 68.75,227.4407 69.0625,227.1313 69.0625,226.822 69.375,226.5126 69.375,226.2032 69.6875,225.8938 69.6875,225.5845 70.0,225.2751 70.0,224.9657 70.3125,224.6563 70.3125,224.347 70.625,224.0376 70.625,223.7282 70.9375,223.4188 70.9375,223.1095 71.25,222.8001 71.25,222.1813 71.875,221.5626 71.875,220.9438 72.1875,220.6345 72.1875,220.3251 72.5,220.0157 72.5,219.7063 72.8125,219.397 72.8125,219.0876 73.4375,218.4688 73.4375,217.8501 73.75,217.5407 73.75,217.2313 74.0625,216.922 74.0625,216.6126 74.375,216.3032 74.375,215.9938 75.0,215.3751 75.0,214.7563 75.3125,214.447 75.3125,214.1376 75.625,213.8282 75.625,213.5188 75.9375,213.2095 75.9375,212.9001 76.25,212.5907 76.25,212.2813 76.5625,211.972 76.5625,211.3532 76.875,211.0438 76.875,210.7345 77.1875,210.4251 77.1875,210.1157 77.8125,209.497"/>
    <line x1="77.8125" x2="78.125" y1="209.1876" y2="209.497"/>
    <polyline fill="none" stroke="#000000" points="78.75,210.1157 78.125,209.497 77.8125,209.497 77.8125,208.8782 78.125,208.5688"/>
    <polyline fill="none" stroke="#000000" points="78.125,208.2595 78.125,208.5688 78.4375,208.5688"/>
    <polyline fill="none" stroke="#000000" points="79.0625,209.1876 78.125,208.2595 78.125,207.9501 78.75,207.3313 79.0625,207.3313"/>
    <line x1="82.8125" x2="82.8125" y1="206.4032" y2="206.0938"/>
    <line x1="83.125" x2="83.4375" y1="206.0938" y2="206.0938"/>
    <line x1="82.8125" x2="83.4375" y1="204.8563" y2="204.2376"/>
    <polyline fill="none" stroke="#000000" points="83.4375,202.072 83.125,202.072 83.4375,201.7626"/>
    <polyline fill="none" stroke="#000000" points="83.125,202.072 82.5,202.072 82.1875,202.3813"/>
    <line x1="81.875" x2="81.5625" y1="202.072" y2="202.072"/>
    <polyline fill="none" stroke="#000000" points="81.875,201.7626 81.5625,202.072 81.25,202.072 80.9375,202.3813 80.9375,203.0001 80.625,203.3095 80.625,203.6188 80.3125,203.9282 80.3125,204.2376 80.0,204.547 80.0,204.8563 79.6875,205.1657 79.6875,205.7845 79.375,206.0938 79.375,207.022 79.0625,207.3313 79.375,207.6407 79.375,208.8782 79.0625,209.1876 79.0625,209.8063 78.75,210.1157 78.75,211.3532 78.4375,211.6626 78.4375,212.5907 78.125,212.9001 78.125,214.1376 78.4375,214.447 78.4375,215.0657 77.5,215.9938 77.5,216.922 77.1875,217.2313 77.1875,218.1595 76.875,218.4688 76.875,219.7063 76.5625,220.0157 76.5625,221.2532 76.25,221.5626 76.25,222.4907 75.9375,222.8001 75.9375,223.4188 75.625,223.7282 75.625,224.6563 75.3125,224.9657 75.3125,225.8938 75.0,226.2032 75.0,226.5126 74.6875,226.822 74.6875,227.7501 74.375,228.0595 74.375,228.9876 74.0625,229.297 74.0625,229.9157 73.75,230.2251 73.75,230.8438 73.4375,231.1532 73.4375,231.4626 73.125,231.772 73.125,232.7001 72.8125,233.0095 72.8125,233.9376 72.5,234.247 72.5,234.8657 72.1875,235.1751 72.1875,236.1032 71.875,236.4126 71.875,236.722 71.5625,237.0313 71.5625,237.3407 71.25,237.6501 71.25,238.2688 70.9375,238.5782 70.9375,238.8876 70.625,239.197 70.625,240.7438"/>
    <polyline fill="none" stroke="#000000" points="79.0625,241.672 79.0625,241.0532 79.375,240.7438"/>
    <line x1="79.375" x2="79.6875" y1="240.4345" y2="240.7438"/>
    <polyline fill="none" stroke="#000000" points="78.125,245.6938 78.75,246.3126 80.3125,246.3126 80.625,246.622 82.8125,246.622 83.125,246.9313 103.7501,246.9313 104.0626,246.622 105.0001,246.622 105.3126,246.9313 105.6251,246.622 106.2501,246.622 106.5626,246.9313 106.8751,246.622 110.0001,246.622 110.3126,246.9313 110.6251,246.622 111.2501,246.622 111.5626,246.9313 111.8751,246.9313 112.1876,246.622 114.6876,246.622 115.0001,246.9313 115.3126,246.622 115.6251,246.622 115.9376,246.3126 117.8126,246.3126 118.1251,246.622 118.4376,246.3126 119.3751,246.3126 119.6876,246.622 119.6876,246.9313 120.0001,246.9313 119.6876,246.622 120.0001,246.3126 122.5001,246.3126 122.8126,246.0032 129.0626,246.0032 129.3751,245.6938 130.0001,245.6938 130.3126,246.0032 130.6251,245.6938 135.6251,245.6938 135.9376,245.3845 136.2501,245.3845 136.5626,245.6938"/>
    <polyline fill="none" stroke="#000000" points="135.6251,245.6938 135.6251,246.0032 135.3126,245.6938"/>
    <polyline fill="none" stroke="#000000" points="137.8126,245.6938 138.1251,245.3845 138.4376,245.3845 138.7501,245.6938"/>
    <line x1="139.3751" x2="139.6876" y1="245.3845" y2="245.6938"/>
    <polyline fill="none" stroke="#000000" points="139.6876,245.3845 140.0001,245.0751 140.3126,245.0751 140.6251,245.3845 140.3126,245.6938"/>
    <polyline fill="none" stroke="#000000" points="140.3126,246.0032 140.6251,246.3126 140.9376,246.3126 141.2501,246.0032 141.2501,245.3845 140.6251,245.3845"/>
    <line x1="140.9376" x2="141.2501" y1="245.3845" y2="245.6938"/>
    <polyline fill="none" stroke="#000000" points="141.2501,245.3845 141.5626,245.0751 142.5001,245.0751 142.8126,245.3845 144.3751,245.3845"/>
    <polyline fill="none" stroke="#000000" points="145.6251,245.3845 145.3126,245.0751 144.6876,245.0751 144.3751,245.3845 145.0001,246.0032 145.6251,245.3845 146.8751,245.3845 147.1876,245.0751 148.1251,245.0751 148.1251,245.3845 148.7501,246.0032 149.0626,246.0032 149.3751,245.6938"/>
    <polyline fill="none" stroke="#000000" points="149.3751,245.3845 149.3751,245.0751 149.0626,244.7657 148.4376,244.7657 148.1251,245.0751"/>
    <line x1="148.1251" x2="147.8126" y1="245.3845" y2="245.0751"/>
    <polyline fill="none" stroke="#000000" points="149.3751,245.0751 149.6876,244.7657 150.9376,244.7657 151.2501,245.0751"/>
    <polyline fill="none" stroke="#000000" points="152.1876,244.7657 152.5001,244.7657 152.5001,245.0751"/>
    <polyline fill="none" stroke="#000000" points="152.5001,244.7657 152.8126,244.4563 153.7501,244.4563 154.0626,244.7657"/>
    <polyline fill="none" stroke="#000000" points="155.0001,244.7657 154.6876,244.4563 154.3751,244.4563 154.0626,244.7657 154.0626,245.3845 153.7501,245.6938 153.1251,245.6938 152.1876,244.7657 151.5626,244.7657 150.3126,246.0032 150.0001,245.6938 149.6876,245.6938 149.3751,245.3845 149.3751,245.6938 149.6876,245.6938"/>
    <line x1="155.9376" x2="156.2501" y1="244.4563" y2="244.4563"/>
    <polyline fill="none" stroke="#000000" points="156.2501,244.7657 155.9376,244.4563 155.3126,244.4563 155.0001,244.7657 155.6251,245.3845 155.9376,245.3845 156.2501,245.0751 156.2501,244.7657 156.2501,244.4563 156.2501,244.4563 156.5626,244.147 157.5001,244.147 158.4376,245.0751 158.7501,245.0751 159.6876,244.147 160.9376,244.147 161.2501,243.8376 161.8751,243.8376 162.1876,244.147 162.1876,244.4563 162.5001,244.147 163.1251,244.147 163.4376,243.8376 164.3751,243.8376 164.6876,244.147 165.0001,244.147 165.3126,243.8376 167.5001,243.8376 167.8126,243.5282 170.3126,243.5282 170.6251,243.2188 172.5001,243.2188 172.8126,242.9095 173.7501,242.9095 174.0626,242.6001 175.0001,242.6001 175.3126,242.2907 176.8751,242.2907 177.1876,241.9813 177.8126,241.9813 178.1251,241.672 179.0626,241.672 179.3751,241.3626 180.0001,241.3626 180.3126,241.0532 180.9376,241.0532 181.2501,240.7438 182.1876,240.7438 182.5001,240.4345 183.1251,240.4345 183.4376,240.1251 184.0626,240.1251 184.3751,239.8157 184.6876,239.8157 185.0001,239.5063 185.6251,239.5063 185.9376,239.197 186.2501,239.197 186.8751,238.5782 187.5001,238.5782"/>
    <line x1="162.5001" x2="162.1876" y1="244.147" y2="244.147"/>
    <polyline fill="none" stroke="#000000" points="140.0001,246.0032 140.3126,245.6938 140.3126,246.0032 140.0001,246.0032 139.6876,245.6938 139.6876,245.3845 139.0626,245.3845 138.7501,245.6938 138.7501,246.0032 138.4376,246.3126 138.1251,246.3126 137.8126,246.0032 137.1876,246.622 136.8751,246.3126 136.8751,246.0032 136.5626,245.6938 136.8751,245.3845 137.5001,245.3845 137.8126,245.6938 137.8126,246.0032"/>
    <polyline fill="none" stroke="#000000" points="83.75,207.9501 84.0625,207.6407 84.0625,206.7126 83.4375,206.0938 83.75,205.7845 83.75,204.547 83.4375,204.2376 83.75,203.9282 83.75,202.3813 83.4375,202.072 83.4375,200.5251 82.8125,199.9063"/>
    <polyline fill="none" stroke="#000000" points="84.0625,193.1001 85.0,193.1001 85.3125,192.7907 85.3125,192.4813 85.0,192.172 85.3125,191.8626 85.3125,191.5532 85.625,191.2438 85.625,190.9345 85.9375,190.6251 85.9375,190.3157 86.25,190.0063 86.25,189.697 86.5625,189.3876 86.5625,188.7688 86.875,188.4595"/>
    <line x1="84.375" x2="84.0625" y1="190.6251" y2="190.6251"/>
    <line x1="84.0625" x2="85.3125" y1="190.3157" y2="191.5532"/>
    <line x1="85.0" x2="84.0625" y1="192.172" y2="192.172"/>
    <line x1="87.1875" x2="87.5" y1="182.5813" y2="182.5813"/>
    <polyline fill="none" stroke="#000000" points="78.125,213.8282 77.5,214.447 77.5,215.3751 77.8125,215.6845"/>
    <line x1="77.8125" x2="78.125" y1="214.1376" y2="214.1376"/>
    <polyline fill="none" stroke="#000000" points="51.5625,211.0438 51.25,210.7345 51.25,209.497 51.5625,209.1876 52.1875,209.1876 52.5,209.497 52.5,210.1157 51.875,210.7345 51.5625,211.0438 51.25,211.3532 51.25,212.2813 50.9375,212.5907 50.9375,213.5188 50.625,213.8282 50.625,214.7563 50.3125,215.0657 50.3125,215.9938 50.0,216.3032 50.0,217.5407 49.6875,217.8501 49.6875,218.7782 49.375,219.0876 49.375,219.7063 49.0625,220.0157 49.0625,220.9438 48.75,221.2532 48.75,222.1813 48.4375,222.4907 48.4375,223.7282 48.125,224.0376 48.125,224.6563 47.8125,224.9657 47.8125,225.8938 47.5,226.2032 47.5,227.1313 47.1875,227.4407 47.1875,229.297 46.5625,229.9157 46.5625,230.8438 46.25,231.1532 46.25,231.4626 45.9375,231.772 45.9375,232.7001 45.625,233.0095 45.625,234.247 45.3125,234.5563 45.0,234.5563 44.375,235.1751 44.0625,235.1751 43.125,236.1032 42.8125,236.1032 42.5,236.4126 42.1875,236.4126 41.5625,237.0313 41.25,237.0313 40.9375,237.3407 39.0625,237.3407 38.75,237.0313 36.875,237.0313 36.5625,237.3407 35.625,237.3407 35.3125,237.6501 34.6875,237.6501 34.375,237.9595 34.0625,237.9595 33.75,238.2688 32.8125,238.2688 32.1875,238.8876 31.875,238.8876 31.5625,239.197 31.5625,239.5063 30.9375,240.1251 30.9375,240.7438 30.625,241.0532 30.625,241.672 30.3125,241.9813 30.3125,242.2907 30.0,242.6001 30.0,242.9095 29.6875,243.2188 29.6875,243.8376 29.375,244.147 29.375,247.8595 29.6875,248.1688 29.6875,248.7876 30.0,249.097 30.0,249.7157 30.3125,250.0251 30.3125,250.3345 31.25,251.2626 31.5625,251.2626 32.1875,251.8813 32.5,251.8813 32.8125,252.1907 35.625,252.1907 35.9375,252.5001 38.4375,252.5001 38.75,252.8095 45.9375,252.8095 46.25,252.5001 48.4375,252.5001 48.75,252.1907 49.375,252.1907 49.6875,251.8813 50.3125,251.8813 51.25,250.9532 51.5625,250.9532 51.875,251.2626 51.875,251.572 52.5,252.1907 52.5,252.5001 53.125,253.1188 53.125,253.4282 54.0625,254.3563 54.375,254.3563 55.9375,255.9032 56.25,255.9032 56.5625,256.2126 56.875,256.2126 57.1875,256.522 57.5,256.522 57.8125,256.8313 58.4375,256.8313 58.75,257.1407 59.375,257.1407 59.6875,257.4501 60.3125,257.4501 60.9375,258.0688 61.875,258.0688 62.1875,258.3782 62.8125,258.3782 63.125,258.6876 64.0625,258.6876 64.375,258.997 65.625,258.997 65.9375,259.3063 68.4375,259.3063 68.75,259.6157 70.625,259.6157 70.9375,259.9251 73.75,259.9251 74.0625,260.2345 79.0625,260.2345 79.375,260.5438 83.75,260.5438 84.0625,260.2345 85.625,260.2345 85.9375,260.5438 93.4375,260.5438 93.75,260.2345 96.5625,260.2345 96.875,260.5438 98.4376,260.5438 98.7501,260.2345 105.3126,260.2345 105.6251,260.5438 106.8751,260.5438 107.1876,260.2345 109.0626,260.2345 109.3751,260.5438 121.5626,260.5438 121.8751,260.8532 140.3126,260.8532 140.6251,261.1626 159.3751,261.1626 159.6876,260.8532 164.6876,260.8532 165.0001,260.5438 168.1251,260.5438 168.4376,260.2345 170.9376,260.2345 171.2501,259.9251 174.3751,259.9251 174.6876,259.6157 176.2501,259.6157 176.5626,259.3063 178.1251,259.3063 178.4376,258.997 180.3126,258.997 180.6251,258.6876 181.5626,258.6876 181.8751,258.3782 182.5001,258.3782 182.8126,258.0688 183.7501,258.0688 184.0626,257.7595 185.3126,257.7595 185.6251,257.4501 185.9376,257.4501 186.2501,257.1407 186.8751,257.1407 187.1876,256.8313 187.5001,256.8313 187.8126,256.522 188.7501,256.522 189.0626,256.2126 190.0001,256.2126 190.3126,255.9032 190.9376,255.9032 191.2501,255.5938 191.8751,255.5938 192.1876,255.2845 192.8126,255.2845 193.1251,254.9751 193.4376,254.9751 193.7501,254.6657 194.3751,254.6657 194.6876,254.3563 195.0001,254.3563 195.3126,254.047 195.6251,254.047 196.2501,253.4282 196.5626,253.4282 196.8751,253.1188 197.1876,253.1188 197.5001,252.8095 197.8126,252.8095 198.4376,252.1907 198.7501,252.1907 199.3751,251.572 199.6876,251.572 200.6251,250.6438 200.9376,250.6438 203.1251,248.4782 203.1251,248.1688 203.4376,247.8595 203.4376,247.5501 204.0626,246.9313 204.0626,246.622 204.3751,246.3126 204.3751,246.0032 204.6876,245.6938 204.6876,245.3845 205.0001,245.0751 205.0001,244.147 205.3126,243.8376 205.3126,243.2188 205.6251,242.9095 205.6251,241.672 205.9376,241.3626 205.9376,237.9595 205.6251,237.6501 205.6251,237.0313 205.3126,236.722 205.3126,235.1751 205.0001,234.8657 205.0001,233.9376 204.6876,233.6282 204.6876,232.7001 204.3751,232.3907 204.3751,231.4626 204.0626,231.1532 204.0626,230.2251 203.7501,229.9157 203.7501,228.6782 203.4376,228.3688 203.4376,227.1313 203.1251,226.822 203.1251,226.2032 202.8126,225.8938 202.8126,224.6563 202.5001,224.347 202.5001,220.3251 202.1876,220.0157 202.1876,218.4688 202.5001,218.1595 202.5001,216.3032 202.8126,215.9938 202.8126,212.9001 203.1251,212.5907 203.1251,209.1876 203.4376,208.8782 203.4376,204.2376 203.7501,203.9282 203.7501,199.2876 204.0626,198.9782 204.0626,181.9626 203.7501,181.6532 203.7501,175.4657 203.4376,175.1563 203.4376,171.7532 203.1251,171.4438 203.1251,169.2782 202.8126,168.9688 202.8126,166.1845 202.5001,165.8751 202.5001,163.7095 202.1876,163.4001 202.1876,160.9251 201.8751,160.6157 201.8751,159.6876 201.5626,159.3782 201.5626,158.1407 201.2501,157.8313 201.2501,155.9751 200.9376,155.6657 200.9376,155.047 200.6251,154.7376 200.6251,153.5001 200.3126,153.1907 200.3126,152.572 200.0001,152.2626 200.0001,151.3345 199.6876,151.0251 199.6876,149.7876 199.3751,149.4782 199.3751,148.5501 199.0626,148.2407 199.0626,147.622 198.7501,147.3126 198.7501,146.6938 198.4376,146.3845 198.4376,146.0751 198.1251,145.7657 198.1251,145.147 197.8126,144.8376 197.8126,144.5282 197.5001,144.2188 197.5001,143.2907 197.1876,142.9813 197.1876,142.3626 196.8751,142.0532 196.8751,141.4345 196.5626,141.1251 196.5626,140.8157 196.2501,140.5063 196.2501,139.8876 195.9376,139.5782 195.9376,138.9595 195.6251,138.6501 195.6251,138.0313 195.0001,137.4126 195.0001,136.7938 194.6876,136.4845 194.6876,135.8657 194.3751,135.5563 194.3751,135.247 194.0626,134.9376 194.0626,134.3188 193.7501,134.0095 193.7501,133.7001 193.1251,133.0813 193.1251,132.4626 192.8126,132.1532 192.8126,131.8438 192.1876,131.2251 192.1876,130.9157 191.8751,130.6063 191.8751,130.297 191.5626,129.9876 191.5626,129.6782 191.2501,129.3688 191.2501,128.7501 190.6251,128.1313 190.6251,127.822 190.3126,127.5126 190.3126,127.2032 190.0001,126.8938 190.0001,126.5845 189.3751,125.9657 189.3751,125.6563 189.0626,125.347 189.0626,125.0376 188.4376,124.4188 188.4376,124.1095 188.1251,123.8001 188.1251,123.4907 187.5001,122.872 187.5001,122.5626 186.8751,121.9438 186.8751,121.6345 186.2501,121.0157 186.2501,120.7063 185.6251,120.0876 185.6251,119.7782 185.0001,119.1595 185.0001,118.8501 184.3751,118.2313 184.3751,117.922 183.7501,117.3032 183.7501,116.9938 182.1876,115.447 182.1876,115.1376 180.9376,113.9001 180.9376,113.5907 179.3751,112.0438 179.3751,111.7345 176.5626,108.9501 176.5626,108.6407 176.2501,108.3313 175.9376,108.3313 172.1876,104.6188 171.8751,104.6188 170.3126,103.072 170.0001,103.072 168.7501,101.8345 168.4376,101.8345 167.5001,100.9063 167.1876,100.9063 165.9376,99.6688 165.6251,99.6688 165.0001,99.0501 164.6876,99.0501 164.0626,98.4313 163.7501,98.4313 163.1251,97.8126 162.8126,97.8126 162.1876,97.1937 161.8751,97.1937 161.5626,96.8844 161.2501,96.8844 160.9376,96.575 160.6251,96.575 160.0001,95.9562 159.6876,95.9562 159.3751,95.6469 159.0626,95.6469 158.7501,95.3375 158.4376,95.3375 157.8126,94.7187 157.5001,94.7187 157.1876,94.4094 156.5626,94.4094 155.9376,93.7906 155.6251,93.7906 155.3126,93.4812 154.6876,93.4812 154.3751,93.1719 153.7501,93.1719 153.4376,92.8625 153.1251,92.8625 152.8126,92.5531 152.5001,92.5531 152.1876,92.2437 151.2501,92.2437 150.9376,91.9344 150.6251,91.9344 150.3126,91.625 149.3751,91.625 149.0626,91.3156 148.4376,91.3156 148.1251,91.0062 147.1876,91.0062 146.8751,90.6969 146.2501,90.6969 145.9376,90.3875 145.0001,90.3875 144.6876,90.0781 143.4376,90.0781 143.1251,89.7687 140.0001,89.7687 139.6876,89.4594 130.6251,89.4594 130.3126,89.7687 126.8751,89.7687 126.5626,90.0781 125.3126,90.0781 125.0001,89.7687 120.9376,89.7687 120.6251,89.4594 119.6876,89.4594 119.3751,89.15 118.4376,89.15 118.1251,88.8406 117.5001,88.8406 117.1876,88.5312 116.8751,88.5312 116.5626,88.2219 116.2501,88.2219 115.9376,87.9125 115.6251,87.9125 115.0001,87.2937 114.6876,87.2937 114.3751,86.9844 114.0626,86.9844 112.1876,85.1281 112.1876,84.8187 111.2501,83.8906 111.2501,83.5812 110.3126,82.6531 110.3126,82.3437 110.0001,82.0344 110.0001,81.725 109.6876,81.4156 109.6876,80.7969 109.0626,80.1781 109.0626,79.8687 108.1251,78.9406 108.1251,78.6312 107.1876,77.7031 107.1876,77.3937 102.5001,72.7531 102.1876,72.7531 101.2501,71.825 100.9376,71.825 99.6876,70.5875 99.3751,70.5875 99.0626,70.2781 98.7501,70.2781 98.4376,69.9687 98.1251,69.9687 97.5,69.35 96.875,69.35 96.5625,69.0406 95.9375,69.0406 95.3125,68.4219 95.0,68.4219 94.375,67.8031 93.75,67.8031 92.8125,66.875 92.5,66.875 91.25,65.6375 91.25,65.3281 90.9375,65.0187 90.9375,64.7094 90.625,64.4 90.625,64.0906 90.3125,63.7812 90.3125,63.4719 90.0,63.1625 90.0,62.8531 89.6875,62.5437 89.6875,62.2344 89.375,61.925 89.375,61.6156 89.0625,61.3062 89.0625,60.9969 88.75,60.6875 88.75,60.3781 88.4375,60.0687 88.4375,59.7594 88.125,59.45 88.125,59.1406 87.8125,58.8312 87.8125,58.2125 87.1875,57.5937 87.1875,57.2844 86.875,56.975 86.875,56.3562 86.5625,56.0469 86.5625,55.7375 86.25,55.4281 86.25,55.1187 85.9375,54.8094 85.9375,54.1906 85.625,53.8812 85.625,53.5719 85.0,52.9531 85.0,52.3344 84.6875,52.025 84.6875,51.7156 84.375,51.4062 84.375,51.0969 84.0625,50.7875 84.0625,50.1687 83.4375,49.55 83.4375,48.9312 83.125,48.6219 83.125,48.0031 82.5,47.3844 82.5,46.7656 82.1875,46.4562 82.1875,46.1469 81.875,45.8375 81.875,45.5281 81.5625,45.2187 81.5625,44.6 81.25,44.2906 81.25,43.9812 80.625,43.3625 80.625,42.7437 80.3125,42.4344 80.3125,42.125 79.6875,41.5062 79.6875,40.8875 79.0625,40.2687 79.0625,39.9594 78.75,39.65 78.75,39.3406 78.125,38.7219 78.125,38.4125 77.5,37.7937 77.5,37.4844 74.0625,34.0812 73.75,34.0812 73.4375,33.7719 73.125,33.7719 72.8125,33.4625 72.5,33.4625 72.1875,33.1531 71.875,33.1531 71.5625,32.8437 71.25,32.8437 70.9375,32.5344 70.625,32.5344 70.3125,32.225 70.0,32.225 69.6875,32.5344 69.375,32.225 69.0625,32.225 68.75,31.9156 68.75,31.6062 67.5,30.3687 67.5,30.0594 66.5625,29.1312 66.5625,28.8219 65.9375,28.2031 65.9375,27.8937 65.0,26.9656 65.0,26.6562 64.0625,25.7281 64.0625,25.4187 63.4375,24.8 63.4375,24.4906 61.875,22.9437 61.875,22.6344 60.625,21.3969 60.625,21.0875 59.0625,19.5406 59.0625,19.2312 56.875,17.0656 56.875,16.7562 55.0,14.9 55.0,14.5906 54.0625,13.6625 53.4375,13.0437 52.8125,13.0437 52.5,12.7344"/>
    <polyline fill="none" stroke="#000000" points="52.1875,12.7344 52.5,12.7344 52.1875,13.0437"/>
    <polyline fill="none" stroke="#000000" points="43.75,10.5687 43.75,8.7125 44.0625,8.4031 44.0625,7.1656 44.375,6.8562 44.375,6.5469 45.3125,5.6187"/>
    <line x1="46.5625" x2="46.5625" y1="5.6187" y2="5.9281"/>
    <polyline fill="none" stroke="#000000" points="46.875,5.9281 46.5625,5.9281 46.25,6.2375 45.9375,5.9281 45.625,5.9281 45.3125,5.6187 45.9375,5.0 46.875,5.9281 47.8125,6.8562 48.125,6.8562 48.4375,7.1656 48.4375,7.475 49.6875,8.7125 49.6875,9.0219 50.3125,9.6406 50.3125,9.95 50.625,10.2594 50.625,10.5687 51.25,11.1875 51.25,11.8062 52.1875,12.7344 52.1875,14.2812 52.5,14.5906 52.5,15.5187 52.8125,15.8281 52.8125,16.1375 53.125,16.4469 53.125,17.0656 53.4375,17.375 53.4375,18.3031 53.75,18.6125 53.75,19.85 54.0625,20.1594 54.0625,21.0875 54.375,21.3969 54.375,23.2531 54.6875,23.5625 54.6875,26.0375 55.0,26.3469 55.0,28.5125 54.6875,28.8219 54.6875,30.9875 54.375,31.2969 54.375,32.5344 54.0625,32.8437 54.0625,33.7719 53.75,34.0812 53.75,35.0094 53.4375,35.3187 53.4375,35.9375 53.125,36.2469 53.125,36.5562 52.8125,36.8656 52.8125,37.175 52.5,37.4844 52.5,37.7937 51.875,38.4125 51.5625,38.4125 51.25,38.7219 50.9375,38.7219 50.625,39.0312 50.3125,39.0312"/>
    <polyline fill="none" stroke="#000000" points="38.75,27.275 38.4375,27.275 38.75,27.5844 38.75,27.275 39.0625,26.9656 39.375,26.9656 39.6875,26.6562 39.6875,26.3469 40.3125,25.7281 40.3125,25.4187 40.625,25.1094 40.625,24.8 40.9375,24.4906 40.9375,24.1812 41.25,23.8719 41.25,23.5625 41.5625,23.2531 41.5625,22.6344 41.875,22.325 41.875,21.7062 42.1875,21.3969 42.1875,19.2312 42.5,18.9219 42.5,18.6125 42.8125,18.3031 42.8125,17.0656 43.125,16.7562 43.125,12.425"/>
    <line x1="42.1875" x2="41.875" y1="19.2312" y2="19.2312"/>
    <polyline fill="none" stroke="#000000" points="42.1875,19.5406 41.875,19.2312 41.5625,19.2312 40.3125,17.9937 40.3125,17.6844 38.75,16.1375 38.75,15.8281 37.1875,14.2812 36.875,14.2812 35.9375,13.3531 35.625,13.6625 35.0,13.6625 34.6875,13.9719 34.6875,14.2812 34.375,14.5906 34.375,15.8281 35.0,16.4469 35.0,16.7562 35.3125,17.0656 35.3125,17.6844 35.625,17.9937 35.625,20.7781 35.9375,21.0875 35.9375,23.5625 35.625,23.8719 35.625,26.6562 35.9375,26.9656 36.875,26.9656 37.1875,27.275 38.4375,27.275"/>
  </g>
</svg>
