<?xml version="1.0" encoding="utf-8" ?>
<!--
  Generated by txt2plotter
  Prompt: Line drawing of a sitting cat silhouette, simple curves, minimalist style, black ink on white paper.
  Enhanced: Minimalistic line drawing of a sitting cat silhouette, rendered with simple and elegant curves that capture its relaxed posture, black ink on white paper with clean precise lines, monochrome pen and ink illustration style, side profile view focusing on the form and contour.
-->

<svg xmlns="http://www.w3.org/2000/svg" xmlns:cc="http://creativecommons.org/ns" xmlns:dc="http://purl.org/dc/elements/1.1/" xmlns:ev="http://www.w3.org/2001/xml-events" xmlns:inkscape="http://www.inkscape.org/namespaces/inkscape" xmlns:rdf="http://www.w3.org/1999/02/22-rdf-syntax-ns" xmlns:sodipodi="http://sodipodi.sourceforge.net/DTD/sodipodi-0.dtd" xmlns:xlink="http://www.w3.org/1999/xlink" baseProfile="tiny" height="29.7cm" version="1.2" viewBox="0 0 1587.4015748031497 1122.5196850393702" width="42.0cm">
  <metadata>
    <rdf:RDF>
      <cc:Work>
        <dc:format>image/svg+xml</dc:format>
        <dc:source/>
        <dc:date>2026-01-19T20:57:23.698626</dc:date>
      </cc:Work>
    </rdf:RDF>
  </metadata>
  <defs/>
  <g fill="none" id="layer1" inkscape:groupmode="layer" inkscape:label="1" stroke="#0000ff" style="display:inline">
    <line x1="694.1695" x2="694.1695" y1="491.6505" y2="491.9598"/>
    <line x1="701.357" x2="701.6695" y1="502.4786" y2="502.788"/>
    <polyline fill="none" stroke="#000000" points="701.6695,502.4786 701.982,502.1692 702.2945,502.1692 702.607,502.4786 702.9195,502.4786 703.232,502.788 702.2945,503.7161 702.2945,504.0255"/>
    <line x1="702.2945" x2="701.982" y1="503.7161" y2="503.7161"/>
    <line x1="717.2945" x2="717.607" y1="506.5005" y2="506.1911"/>
    <polyline fill="none" stroke="#000000" points="717.607,506.5005 717.607,506.1911 717.9195,505.8817 717.9195,505.5723 718.5445,504.9536 718.857,504.9536 719.482,504.3348 720.107,504.3348 720.4195,504.0255 720.732,504.0255 721.357,503.4067 721.6695,503.4067 721.982,503.0973 722.2945,503.0973 722.607,502.788 723.232,502.788"/>
    <line x1="728.857" x2="729.1695" y1="516.0911" y2="516.4005"/>
    <polyline fill="none" stroke="#000000" points="728.857,516.4005 728.5445,516.7098 728.5445,517.638 729.1695,518.2567"/>
    <polyline fill="none" stroke="#000000" points="729.1695,519.8036 728.5445,520.4223 728.5445,521.0411 728.857,521.3505 729.1695,521.3505"/>
    <line x1="728.857" x2="728.857" y1="521.3505" y2="521.6598"/>
    <polyline fill="none" stroke="#000000" points="705.4195,482.0598 706.0445,481.4411 706.0445,480.513 706.357,480.2036 706.357,479.8942 706.6695,479.5848 706.6695,479.2755 706.982,478.9661 707.2945,478.9661 709.1695,477.1098 709.482,477.1098 710.107,476.4911 710.4195,476.4911 710.732,476.1817 711.0445,476.1817 711.357,475.8723 711.982,475.8723 712.607,475.2536 712.9195,475.2536 713.232,474.9442 713.857,474.9442 714.1695,474.6348 714.482,474.6348 714.7945,474.3255 715.107,474.3255"/>
    <polyline fill="none" stroke="#000000" points="724.1695,455.1442 722.9195,456.3817 722.2945,456.3817 721.982,456.6911 721.357,456.6911 721.0445,457.0005 720.4195,457.0005 720.107,457.3098 719.482,457.3098 719.1695,457.6192 718.857,457.6192 718.5445,457.9286 718.232,457.9286 717.9195,458.238 717.607,458.238 717.2945,458.5473 716.982,458.5473 716.6695,458.8567 716.357,458.8567 716.0445,459.1661 715.732,459.1661 715.4195,459.4755 715.107,459.4755 714.7945,459.7848 714.482,459.7848 713.857,460.4036 713.5445,460.4036 712.9195,461.0223 712.607,461.0223 711.982,461.6411 711.6695,461.6411 710.4195,462.8786 710.107,462.8786 705.4195,467.5192 705.4195,467.8286 704.482,468.7567 704.482,469.0661 702.607,470.9223 702.607,471.5411 702.2945,471.8505 702.2945,472.7786 701.357,473.7067 701.357,475.563 701.0445,475.8723 701.0445,477.1098 700.732,477.4192 700.732,478.038 700.4195,478.3473 700.4195,478.6567 700.107,478.9661 700.107,479.2755 699.7945,479.5848 699.7945,479.8942 699.1695,480.513 699.1695,480.8223 698.857,481.1317 698.857,481.4411 698.232,482.0598 698.232,482.3692 696.0445,484.5348 696.0445,484.8442 694.7945,486.0817 694.7945,486.7005 693.857,487.6286 693.857,488.2473 693.5445,488.5567 693.5445,489.1755 693.232,489.4848 693.232,490.1036 693.5445,490.413 693.5445,490.7223 693.857,491.0317 693.857,491.3411 694.1695,491.6505 694.482,491.6505 694.1695,491.9598 694.1695,493.8161 694.482,494.1255 694.482,494.4348 694.7945,494.7442 694.7945,495.363 695.107,495.6723 695.107,496.6005 695.732,497.2192 695.732,497.5286 696.0445,497.838 696.0445,498.1473 698.857,500.9317 699.1695,500.9317 699.7945,501.5505 700.107,501.5505 700.732,502.1692 701.0445,502.1692 701.357,502.4786 701.6695,502.4786 701.6695,503.4067 703.857,505.5723 704.1695,505.5723 704.7945,506.1911 705.107,506.1911 705.4195,506.5005 706.357,506.5005 706.6695,506.8098 707.2945,506.8098 707.607,507.1192 708.857,507.1192 709.1695,507.4286 713.232,507.4286 713.5445,507.1192 714.482,507.1192 714.7945,506.8098 716.982,506.8098 717.2945,506.5005 717.607,506.5005 718.232,507.1192 721.357,507.1192 721.6695,507.4286 722.2945,507.4286 722.607,507.738 723.232,507.738 723.857,508.3567 724.1695,508.3567 724.482,508.6661 724.7945,508.6661 725.4195,509.2848 725.732,509.2848 726.6695,510.213 726.6695,510.5223 726.982,510.8317 726.982,511.4505 727.607,512.0692 727.607,512.3786 727.9195,512.688 727.9195,512.9973 728.232,513.3067 728.232,513.9255 728.5445,514.2348 728.5445,514.8536 728.857,515.163 728.857,516.4005 729.1695,516.4005 729.482,516.7098 729.482,517.9473 729.1695,518.2567 729.1695,519.8036 729.482,520.113 729.482,521.0411 728.857,521.6598 728.857,523.5161 728.5445,523.8255 728.5445,524.7536 728.232,525.063 728.232,526.3005 727.9195,526.6098 727.9195,527.2286 727.607,527.538 727.607,528.4661 727.2945,528.7755 727.2945,529.3942 726.982,529.7036 726.982,530.6317 726.6695,530.9411 726.6695,531.5598 726.357,531.8692 726.357,532.7973 726.0445,533.1067 726.0445,533.7255 725.732,534.0348 725.732,534.6536 725.4195,534.963 725.4195,535.5817 725.107,535.8911 725.107,536.8192 724.7945,537.1286 724.7945,538.0567 724.482,538.3661 724.482,539.6036 724.1695,539.913 724.1695,540.5317 724.482,540.8411 724.482,541.1505 724.1695,541.4598 724.1695,542.0786 723.857,542.388 723.857,545.7911 723.5445,546.1005 723.5445,552.5973 723.857,552.9067 723.857,555.0723 724.1695,555.3817 724.1695,557.238 724.482,557.5473 724.482,558.4755 724.7945,558.7848 724.7945,560.0223 725.107,560.3317 725.107,561.2598 725.4195,561.5692 725.4195,561.8786 725.732,562.188 725.732,563.1161 726.0445,563.4255 726.0445,564.0442 726.357,564.3536 726.357,564.9723 726.6695,565.2817 726.6695,565.5911 726.982,565.9005 726.982,566.5192 727.2945,566.8286 727.2945,567.138 727.607,567.4473 727.607,568.0661 727.9195,568.3755 727.9195,568.6848 728.232,568.9942 728.232,569.3036 728.5445,569.613 728.5445,569.9223 728.857,570.2317 728.857,570.8505 729.1695,571.1598 729.1695,571.4692 729.482,571.7786 729.482,572.088 729.7945,572.3973 729.7945,572.7067 730.4195,573.3255 730.4195,573.9442 731.0445,574.563 731.0445,575.1817 731.6695,575.8005 731.6695,576.1098 732.2945,576.7286 732.2945,577.038 732.607,577.3473 732.607,577.6567 732.9195,577.9661 732.9195,578.2755 733.232,578.5848 733.232,578.8942 733.857,579.513 733.857,579.8223 734.1695,580.1317 734.1695,580.4411 734.482,580.7505 734.482,581.0598 734.7945,581.3692 734.7945,581.6786 735.107,581.988 735.107,582.2973 735.4195,582.6067 735.4195,582.9161 736.0445,583.5348 736.0445,583.8442 736.357,584.1536 736.357,584.463 736.6695,584.7723 736.6695,585.0817 736.982,585.3911 736.982,585.7005 737.607,586.3192 737.607,586.6286 737.9195,586.938 737.9195,587.5567 738.5445,588.1755 738.5445,589.1036 738.857,589.413 738.857,589.7223 739.1695,590.0317 739.1695,590.3411 739.482,590.6505 739.482,590.9598 739.7945,591.2692 739.7945,591.888 740.107,592.1973 740.107,592.8161 740.4195,593.1255 740.4195,593.7442 740.732,594.0536 740.732,594.6723 741.0445,594.9817 741.0445,595.9098 741.357,596.2192 741.357,597.1473 741.6695,597.4567 741.6695,598.3848 741.982,598.6942 741.982,600.8598 742.2945,601.1692 742.2945,604.5723 742.607,604.8817 742.607,605.8098 742.9195,606.1192 742.9195,606.738 742.607,607.0473 742.9195,607.3567 742.9195,608.2848 742.607,608.5942 742.9195,608.9036 742.9195,609.8317 742.607,610.1411 742.9195,610.4505 742.9195,610.7598 742.2945,611.3786 742.2945,611.9973 742.607,612.3067 742.607,615.0911 742.2945,615.4005 742.2945,617.2567 741.982,617.5661 741.982,620.6598 741.6695,620.9692 741.6695,622.8255 741.357,623.1348 741.357,626.538 741.0445,626.8473 741.0445,627.7755 740.732,628.0848 740.732,629.9411 740.4195,630.2505 740.4195,631.1786 740.107,631.488 740.107,632.7255 739.7945,633.0348 739.7945,633.963 740.107,634.2723 740.732,634.2723 741.0445,634.5817 741.357,634.5817 741.357,635.5098 741.0445,635.8192 741.0445,637.3661 740.732,637.6755"/>
    <polyline fill="none" stroke="#000000" points="739.7945,637.3661 739.482,637.0567 739.482,635.5098 739.7945,635.2005 739.7945,634.5817 740.107,634.2723"/>
    <polyline fill="none" stroke="#000000" points="739.7945,634.8911 740.732,635.8192 741.0445,635.8192"/>
    <line x1="741.0445" x2="740.732" y1="636.1286" y2="635.8192"/>
    <line x1="740.107" x2="739.7945" y1="635.2005" y2="635.2005"/>
    <line x1="741.0445" x2="741.357" y1="634.5817" y2="634.8911"/>
    <polyline fill="none" stroke="#000000" points="741.357,634.5817 741.6695,634.2723 741.6695,633.0348 741.982,632.7255 741.982,631.488 742.2945,631.1786 742.2945,629.9411 742.607,629.6317 742.607,628.7036 742.9195,628.3942 742.9195,626.538 743.232,626.2286 743.232,624.6817 743.5445,624.3723 743.5445,622.2067 743.857,621.8973 743.857,619.4223 744.1695,619.113 744.1695,615.4005 744.482,615.0911 744.482,603.9536 744.1695,603.6442 744.1695,600.8598 743.857,600.5505 743.857,599.6223 743.5445,599.313 743.5445,598.3848 743.232,598.0755 743.232,597.1473 742.9195,596.838 742.9195,595.9098 742.607,595.6005 742.607,594.9817 742.2945,594.6723 742.2945,593.4348 741.982,593.1255 741.982,592.5067 741.6695,592.1973 741.6695,591.2692 741.357,590.9598 741.357,590.6505 741.0445,590.3411 741.0445,590.0317 740.732,589.7223 740.732,589.413 740.4195,589.1036 740.4195,588.7942 740.107,588.4848 740.107,587.8661"/>
    <line x1="774.1695" x2="774.482" y1="609.5223" y2="609.8317"/>
    <polyline fill="none" stroke="#000000" points="774.1695,609.8317 773.857,610.1411 773.857,611.688 773.5445,611.9973 773.857,612.3067 773.857,612.6161"/>
    <line x1="773.857" x2="774.1695" y1="612.3067" y2="612.3067"/>
    <polyline fill="none" stroke="#000000" points="775.4195,611.0692 776.0445,610.4505 776.0445,609.8317 776.357,609.5223 776.357,609.213 776.6695,608.9036 776.6695,608.5942 776.982,608.2848 776.982,607.9755 777.2945,607.6661 777.2945,607.3567 777.607,607.0473 777.607,606.738 778.232,606.1192 778.232,605.8098 778.857,605.1911 778.857,604.8817 779.482,604.263 779.482,603.9536 780.107,603.3348 780.107,603.0255 781.357,601.788 781.357,601.4786 783.232,599.6223 783.232,599.313 785.732,596.838 786.0445,596.838 787.607,595.2911 787.9195,595.2911 789.1695,594.0536 789.482,594.0536 790.107,593.4348 790.4195,593.4348 791.0445,592.8161 791.357,592.8161 791.6695,592.5067 791.982,592.5067 792.607,591.888 792.9195,591.888 793.232,591.5786 793.857,591.5786 794.482,590.9598 795.107,590.9598 795.732,590.3411 796.357,590.3411 796.6695,590.0317 796.982,590.0317 797.2945,589.7223 797.9195,589.7223 798.232,589.413 798.5445,589.413 798.857,589.1036 799.482,589.1036 799.7945,588.7942 800.4195,588.7942 800.732,588.4848 801.357,588.4848 801.6695,588.1755 802.2945,588.1755 802.607,587.8661 803.232,587.8661 803.5445,587.5567 804.7945,587.5567 805.107,587.2473 806.0445,587.2473 806.357,586.938 807.607,586.938 807.9195,586.6286 809.1695,586.6286 809.482,586.3192 811.357,586.3192"/>
    <polyline fill="none" stroke="#000000" points="786.0445,582.6067 786.0445,582.9161 785.732,583.2255 785.732,583.5348 785.4195,583.8442 785.4195,584.463 785.107,584.7723 785.107,585.7005 784.7945,586.0098 784.7945,586.6286 784.482,586.938 784.482,587.5567 784.1695,587.8661 784.1695,588.4848 783.857,588.7942 783.857,589.1036 783.5445,589.413 783.5445,589.7223 783.232,590.0317 783.232,590.6505 782.9195,590.9598 782.9195,591.2692 782.607,591.5786 782.607,591.888 782.2945,592.1973 782.2945,592.8161 781.6695,593.4348 781.6695,594.0536 781.0445,594.6723 781.0445,594.9817 780.732,595.2911 780.732,595.6005 780.4195,595.9098 780.4195,596.2192 780.107,596.5286 780.107,596.838 779.7945,597.1473 779.7945,597.4567 779.482,597.7661 779.482,598.3848 778.857,599.0036 778.857,599.313 778.5445,599.6223 778.5445,599.9317 778.232,600.2411 778.232,600.5505 777.607,601.1692 777.607,601.4786 777.2945,601.788 777.2945,602.4067 776.6695,603.0255 776.6695,603.6442 776.357,603.9536 776.357,604.263 775.732,604.8817 775.732,605.5005 775.4195,605.8098 775.4195,606.738 774.7945,607.3567 774.7945,608.2848 774.482,608.5942 774.482,609.213 774.1695,609.5223 774.1695,609.8317 774.482,609.8317 775.4195,610.7598 775.4195,611.3786 774.482,612.3067 774.1695,612.3067 773.857,612.6161 773.857,613.2348 773.5445,613.5442 773.5445,613.8536 773.232,614.163 773.232,614.7817 772.9195,615.0911 772.9195,615.7098 772.607,616.0192 772.607,616.9473 772.2945,617.2567 772.2945,618.8036 771.982,619.113 771.982,620.0411 772.2945,620.3505 771.982,620.6598 771.982,620.9692 772.2945,621.2786 771.982,621.588 771.982,621.8973 771.6695,622.2067 771.6695,622.5161 771.357,622.8255 771.357,627.4661 771.0445,627.7755 771.0445,628.0848 770.107,629.013 770.107,630.2505 770.4195,630.5598 770.4195,632.1067 770.732,632.4161 770.732,632.7255 771.0445,633.0348 770.732,633.3442 770.732,633.963 771.0445,634.2723 771.357,634.2723 771.0445,634.5817 771.0445,635.2005 772.2945,636.438 772.2945,636.7473 772.607,637.0567 772.607,637.3661 773.5445,638.2942 773.5445,639.2223 773.857,639.5317 773.857,640.1505 774.1695,640.4598 774.1695,641.388 774.482,641.6973 774.482,642.0067 774.7945,642.3161 774.7945,643.2442 775.4195,643.863 775.4195,644.1723 775.732,644.4817 775.732,644.7911 776.0445,645.1005 776.0445,645.4098 776.357,645.7192 776.357,646.0286 776.6695,646.338 776.6695,646.6473 776.982,646.9567 776.982,647.5755 777.607,648.1942 777.607,648.5036 778.232,649.1223 778.232,649.4317 778.857,650.0505 778.857,650.3598 779.1695,650.6692 779.1695,650.9786 780.107,651.9067 780.107,652.2161 780.732,652.8348 780.732,653.1442 783.5445,655.9286 783.5445,656.238 786.6695,659.3317 786.982,659.3317 788.232,660.5692 788.5445,660.5692 789.482,661.4973 789.7945,661.4973 790.732,662.4255 791.0445,662.4255 791.6695,663.0442 791.982,663.0442 792.607,663.663 792.9195,663.663 793.232,663.9723 793.5445,663.9723 794.1695,664.5911 794.482,664.5911 795.107,665.2098 795.107,665.5192 795.4195,665.8286 795.732,665.8286 796.0445,666.138 796.6695,666.138 796.982,666.4473 797.607,666.4473 797.9195,666.7567 798.5445,666.7567 798.857,667.0661 799.1695,667.0661 799.482,667.3755 800.4195,667.3755 800.732,667.6848 801.357,667.6848 801.6695,667.9942 801.6695,668.3036 802.2945,668.9223 802.607,668.9223 802.9195,669.2317 803.5445,669.2317 804.1695,669.8505 804.482,669.8505 804.7945,670.1598 806.0445,670.1598"/>
    <polyline fill="none" stroke="#000000" points="795.107,665.5192 794.482,666.138 794.1695,666.138 793.5445,665.5192"/>
    <polyline fill="none" stroke="#000000" points="794.1695,664.5911 793.5445,665.2098 793.5445,665.5192 793.232,665.8286 792.9195,665.8286 792.607,665.5192 790.732,665.5192 790.107,664.9005 789.482,664.9005 789.1695,665.2098 788.857,664.9005 788.232,664.9005 787.607,664.2817 786.982,664.2817 786.6695,664.5911 786.357,664.5911 786.0445,664.2817 785.4195,664.2817 785.107,663.9723 782.607,663.9723 782.2945,663.663 781.357,663.663 781.0445,663.3536 776.982,663.3536 776.6695,663.663 775.4195,663.663 775.107,663.9723 774.482,663.9723 774.1695,664.2817 773.232,664.2817 772.9195,664.5911 772.2945,664.5911 771.982,664.9005 771.357,664.9005 771.0445,665.2098 770.732,665.2098 769.482,666.4473 769.1695,666.4473 768.232,667.3755 768.232,667.6848 767.607,668.3036 767.607,668.9223 767.9195,668.9223 768.5445,669.5411 768.5445,669.8505 768.232,670.1598 767.607,670.1598 767.2945,669.8505 766.0445,671.088 766.0445,672.0161 766.357,672.3255 766.357,673.8723 765.732,674.4911 765.4195,674.4911 765.107,674.1817 763.5445,674.1817 763.232,673.8723 761.6695,673.8723 761.357,673.563 759.7945,673.563 759.482,673.2536 758.5445,673.2536 758.232,672.9442 756.982,672.9442 756.6695,672.6348 755.4195,672.6348 755.107,672.3255 754.7945,672.3255 754.482,672.0161 753.5445,672.0161 753.232,671.7067 752.9195,671.7067 752.607,671.3973 751.0445,671.3973 750.4195,670.7786 749.482,670.7786 749.1695,670.4692 747.9195,670.4692 747.607,670.1598 744.482,670.1598 744.1695,670.4692 743.232,670.4692 742.9195,670.7786 742.2945,670.7786 741.982,671.088 741.6695,671.088 741.357,671.3973 741.0445,671.3973 740.732,671.7067 740.732,672.0161 739.7945,672.9442 739.7945,673.2536 739.482,673.563 739.482,674.1817 739.1695,674.4911 739.1695,675.1098 738.857,675.4192 738.857,676.9661 739.1695,677.2755 739.1695,677.5848 739.482,677.8942 739.482,678.8223 739.7945,679.1317"/>
    <line x1="739.482" x2="739.482" y1="679.1317" y2="678.8223"/>
    <polyline fill="none" stroke="#000000" points="750.4195,667.6848 751.0445,667.0661 751.0445,666.7567 751.6695,666.138 751.6695,665.8286 751.982,665.5192 751.982,665.2098 752.2945,664.9005 752.2945,664.5911 752.607,664.2817 752.607,663.9723 753.232,663.3536 753.232,663.0442 753.5445,662.7348 753.5445,662.4255 753.857,662.1161 753.857,661.8067 754.1695,661.4973 754.1695,661.188 754.482,660.8786 754.482,660.5692 754.7945,660.2598 754.7945,659.9505 755.107,659.6411 755.107,659.3317 755.4195,659.0223 755.4195,658.713 755.732,658.4036 755.732,658.0942 756.0445,657.7848 756.0445,657.4755 756.357,657.1661 756.357,656.8567 756.6695,656.5473 756.6695,656.238 756.982,655.9286 756.982,655.6192 757.2945,655.3098 757.2945,655.0005 757.607,654.6911 757.607,654.3817 757.9195,654.0723 757.9195,653.763 758.232,653.4536 758.232,653.1442 758.5445,652.8348 758.5445,652.5255 758.857,652.2161 758.857,651.9067 759.1695,651.5973 759.1695,651.288 759.482,650.9786 759.482,650.3598 760.107,649.7411 760.107,649.1223 760.4195,648.813 760.4195,648.5036 760.732,648.1942 760.732,647.8848 761.0445,647.5755 761.0445,647.2661 761.6695,646.6473 761.6695,646.0286 761.982,645.7192 761.982,645.4098 762.2945,645.1005 762.2945,644.7911 762.607,644.4817 762.607,644.1723 763.232,643.5536 763.232,642.9348 763.5445,642.6255 763.5445,642.3161 763.857,642.0067 763.857,641.6973 764.1695,641.388 764.1695,641.0786 764.482,640.7692 764.482,640.4598 764.7945,640.1505 764.7945,639.5317 765.107,639.2223 765.107,638.913 765.4195,638.6036 765.4195,638.2942 766.0445,637.6755"/>
    <line x1="766.0445" x2="766.357" y1="637.3661" y2="637.6755"/>
    <polyline fill="none" stroke="#000000" points="766.982,638.2942 766.357,637.6755 766.0445,637.6755 766.0445,637.0567 766.357,636.7473"/>
    <polyline fill="none" stroke="#000000" points="766.357,636.438 766.357,636.7473 766.6695,636.7473"/>
    <polyline fill="none" stroke="#000000" points="767.2945,637.3661 766.357,636.438 766.357,636.1286 766.982,635.5098 767.2945,635.5098"/>
    <line x1="771.0445" x2="771.0445" y1="634.5817" y2="634.2723"/>
    <line x1="771.357" x2="771.6695" y1="634.2723" y2="634.2723"/>
    <line x1="771.0445" x2="771.6695" y1="633.0348" y2="632.4161"/>
    <polyline fill="none" stroke="#000000" points="771.6695,630.2505 771.357,630.2505 771.6695,629.9411"/>
    <polyline fill="none" stroke="#000000" points="771.357,630.2505 770.732,630.2505 770.4195,630.5598"/>
    <line x1="770.107" x2="769.7945" y1="630.2505" y2="630.2505"/>
    <polyline fill="none" stroke="#000000" points="770.107,629.9411 769.7945,630.2505 769.482,630.2505 769.1695,630.5598 769.1695,631.1786 768.857,631.488 768.857,631.7973 768.5445,632.1067 768.5445,632.4161 768.232,632.7255 768.232,633.0348 767.9195,633.3442 767.9195,633.963 767.607,634.2723 767.607,635.2005 767.2945,635.5098 767.607,635.8192 767.607,637.0567 767.2945,637.3661 767.2945,637.9848 766.982,638.2942 766.982,639.5317 766.6695,639.8411 766.6695,640.7692 766.357,641.0786 766.357,642.3161 766.6695,642.6255 766.6695,643.2442 765.732,644.1723 765.732,645.1005 765.4195,645.4098 765.4195,646.338 765.107,646.6473 765.107,647.8848 764.7945,648.1942 764.7945,649.4317 764.482,649.7411 764.482,650.6692 764.1695,650.9786 764.1695,651.5973 763.857,651.9067 763.857,652.8348 763.5445,653.1442 763.5445,654.0723 763.232,654.3817 763.232,654.6911 762.9195,655.0005 762.9195,655.9286 762.607,656.238 762.607,657.1661 762.2945,657.4755 762.2945,658.0942 761.982,658.4036 761.982,659.0223 761.6695,659.3317 761.6695,659.6411 761.357,659.9505 761.357,660.8786 761.0445,661.188 761.0445,662.1161 760.732,662.4255 760.732,663.0442 760.4195,663.3536 760.4195,664.2817 760.107,664.5911 760.107,664.9005 759.7945,665.2098 759.7945,665.5192 759.482,665.8286 759.482,666.4473 759.1695,666.7567 759.1695,667.0661 758.857,667.3755 758.857,668.9223"/>
    <polyline fill="none" stroke="#000000" points="767.2945,669.8505 767.2945,669.2317 767.607,668.9223"/>
    <line x1="767.607" x2="767.9195" y1="668.613" y2="668.9223"/>
    <polyline fill="none" stroke="#000000" points="766.357,673.8723 766.982,674.4911 768.5445,674.4911 768.857,674.8005 771.0445,674.8005 771.357,675.1098 791.982,675.1098 792.2945,674.8005 793.232,674.8005 793.5445,675.1098 793.857,674.8005 794.482,674.8005 794.7945,675.1098 795.107,674.8005 798.232,674.8005 798.5445,675.1098 798.857,674.8005 799.482,674.8005 799.7945,675.1098 800.107,675.1098 800.4195,674.8005 802.9195,674.8005 803.232,675.1098 803.5445,674.8005 803.857,674.8005 804.1695,674.4911 806.0445,674.4911 806.357,674.8005 806.6695,674.4911 807.607,674.4911 807.9195,674.8005 807.9195,675.1098 808.232,675.1098 807.9195,674.8005 808.232,674.4911 810.732,674.4911 811.0445,674.1817 817.2945,674.1817 817.607,673.8723 818.232,673.8723 818.5445,674.1817 818.857,673.8723 823.857,673.8723 824.1695,673.563 824.482,673.563 824.7945,673.8723"/>
    <polyline fill="none" stroke="#000000" points="823.857,673.8723 823.857,674.1817 823.5445,673.8723"/>
    <polyline fill="none" stroke="#000000" points="826.0445,673.8723 826.357,673.563 826.6695,673.563 826.982,673.8723"/>
    <line x1="827.607" x2="827.9195" y1="673.563" y2="673.8723"/>
    <polyline fill="none" stroke="#000000" points="827.9195,673.563 828.232,673.2536 828.5445,673.2536 828.857,673.563 828.5445,673.8723"/>
    <polyline fill="none" stroke="#000000" points="828.5445,674.1817 828.857,674.4911 829.1695,674.4911 829.482,674.1817 829.482,673.563 828.857,673.563"/>
    <line x1="829.1695" x2="829.482" y1="673.563" y2="673.8723"/>
    <polyline fill="none" stroke="#000000" points="829.482,673.563 829.7945,673.2536 830.732,673.2536 831.0445,673.563 832.607,673.563"/>
    <polyline fill="none" stroke="#000000" points="833.857,673.563 833.5445,673.2536 832.9195,673.2536 832.607,673.563 833.232,674.1817 833.857,673.563 835.107,673.563 835.4195,673.2536 836.357,673.2536 836.357,673.563 836.982,674.1817 837.2945,674.1817 837.607,673.8723"/>
    <polyline fill="none" stroke="#000000" points="837.607,673.563 837.607,673.2536 837.2945,672.9442 836.6695,672.9442 836.357,673.2536"/>
    <line x1="836.357" x2="836.0445" y1="673.563" y2="673.2536"/>
    <polyline fill="none" stroke="#000000" points="837.607,673.2536 837.9195,672.9442 839.1695,672.9442 839.482,673.2536"/>
    <polyline fill="none" stroke="#000000" points="840.4195,672.9442 840.732,672.9442 840.732,673.2536"/>
    <polyline fill="none" stroke="#000000" points="840.732,672.9442 841.0445,672.6348 841.982,672.6348 842.2945,672.9442"/>
    <polyline fill="none" stroke="#000000" points="843.232,672.9442 842.9195,672.6348 842.607,672.6348 842.2945,672.9442 842.2945,673.563 841.982,673.8723 841.357,673.8723 840.4195,672.9442 839.7945,672.9442 838.5445,674.1817 838.232,673.8723 837.9195,673.8723 837.607,673.563 837.607,673.8723 837.9195,673.8723"/>
    <line x1="844.1695" x2="844.482" y1="672.6348" y2="672.6348"/>
    <polyline fill="none" stroke="#000000" points="844.482,672.9442 844.1695,672.6348 843.5445,672.6348 843.232,672.9442 843.857,673.563 844.1695,673.563 844.482,673.2536 844.482,672.9442 844.482,672.6348 844.482,672.6348 844.7945,672.3255 845.732,672.3255 846.6695,673.2536 846.982,673.2536 847.9195,672.3255 849.1695,672.3255 849.482,672.0161 850.107,672.0161 850.4195,672.3255 850.4195,672.6348 850.732,672.3255 851.357,672.3255 851.6695,672.0161 852.607,672.0161 852.9195,672.3255 853.232,672.3255 853.5445,672.0161 855.732,672.0161 856.0445,671.7067 858.5445,671.7067 858.857,671.3973 860.732,671.3973 861.0445,671.088 861.982,671.088 862.2945,670.7786 863.232,670.7786 863.5445,670.4692 865.107,670.4692 865.4195,670.1598 866.0445,670.1598 866.357,669.8505 867.2945,669.8505 867.607,669.5411 868.232,669.5411 868.5445,669.2317 869.1695,669.2317 869.482,668.9223 870.4195,668.9223 870.732,668.613 871.357,668.613 871.6695,668.3036 872.2945,668.3036 872.607,667.9942 872.9195,667.9942 873.232,667.6848 873.857,667.6848 874.1695,667.3755 874.482,667.3755 875.107,666.7567 875.732,666.7567"/>
    <line x1="850.732" x2="850.4195" y1="672.3255" y2="672.3255"/>
    <polyline fill="none" stroke="#000000" points="828.232,674.1817 828.5445,673.8723 828.5445,674.1817 828.232,674.1817 827.9195,673.8723 827.9195,673.563 827.2945,673.563 826.982,673.8723 826.982,674.1817 826.6695,674.4911 826.357,674.4911 826.0445,674.1817 825.4195,674.8005 825.107,674.4911 825.107,674.1817 824.7945,673.8723 825.107,673.563 825.732,673.563 826.0445,673.8723 826.0445,674.1817"/>
    <polyline fill="none" stroke="#000000" points="771.982,636.1286 772.2945,635.8192 772.2945,634.8911 771.6695,634.2723 771.982,633.963 771.982,632.7255 771.6695,632.4161 771.982,632.1067 771.982,630.5598 771.6695,630.2505 771.6695,628.7036 771.0445,628.0848"/>
    <polyline fill="none" stroke="#000000" points="772.2945,621.2786 773.232,621.2786 773.5445,620.9692 773.5445,620.6598 773.232,620.3505 773.5445,620.0411 773.5445,619.7317 773.857,619.4223 773.857,619.113 774.1695,618.8036 774.1695,618.4942 774.482,618.1848 774.482,617.8755 774.7945,617.5661 774.7945,616.9473 775.107,616.638"/>
    <line x1="772.607" x2="772.2945" y1="618.8036" y2="618.8036"/>
    <line x1="772.2945" x2="773.5445" y1="618.4942" y2="619.7317"/>
    <line x1="773.232" x2="772.2945" y1="620.3505" y2="620.3505"/>
    <line x1="775.4195" x2="775.732" y1="610.7598" y2="610.7598"/>
    <polyline fill="none" stroke="#000000" points="766.357,642.0067 765.732,642.6255 765.732,643.5536 766.0445,643.863"/>
    <line x1="766.0445" x2="766.357" y1="642.3161" y2="642.3161"/>
    <polyline fill="none" stroke="#000000" points="739.7945,639.2223 739.482,638.913 739.482,637.6755 739.7945,637.3661 740.4195,637.3661 740.732,637.6755 740.732,638.2942 740.107,638.913 739.7945,639.2223 739.482,639.5317 739.482,640.4598 739.1695,640.7692 739.1695,641.6973 738.857,642.0067 738.857,642.9348 738.5445,643.2442 738.5445,644.1723 738.232,644.4817 738.232,645.7192 737.9195,646.0286 737.9195,646.9567 737.607,647.2661 737.607,647.8848 737.2945,648.1942 737.2945,649.1223 736.982,649.4317 736.982,650.3598 736.6695,650.6692 736.6695,651.9067 736.357,652.2161 736.357,652.8348 736.0445,653.1442 736.0445,654.0723 735.732,654.3817 735.732,655.3098 735.4195,655.6192 735.4195,657.4755 734.7945,658.0942 734.7945,659.0223 734.482,659.3317 734.482,659.6411 734.1695,659.9505 734.1695,660.8786 733.857,661.188 733.857,662.4255 733.5445,662.7348 733.232,662.7348 732.607,663.3536 732.2945,663.3536 731.357,664.2817 731.0445,664.2817 730.732,664.5911 730.4195,664.5911 729.7945,665.2098 729.482,665.2098 729.1695,665.5192 727.2945,665.5192 726.982,665.2098 725.107,665.2098 724.7945,665.5192 723.857,665.5192 723.5445,665.8286 722.9195,665.8286 722.607,666.138 722.2945,666.138 721.982,666.4473 721.0445,666.4473 720.4195,667.0661 720.107,667.0661 719.7945,667.3755 719.7945,667.6848 719.1695,668.3036 719.1695,668.9223 718.857,669.2317 718.857,669.8505 718.5445,670.1598 718.5445,670.4692 718.232,670.7786 718.232,671.088 717.9195,671.3973 717.9195,672.0161 717.607,672.3255 717.607,676.038 717.9195,676.3473 717.9195,676.9661 718.232,677.2755 718.232,677.8942 718.5445,678.2036 718.5445,678.513 719.482,679.4411 719.7945,679.4411 720.4195,680.0598 720.732,680.0598 721.0445,680.3692 723.857,680.3692 724.1695,680.6786 726.6695,680.6786 726.982,680.988 734.1695,680.988 734.482,680.6786 736.6695,680.6786 736.982,680.3692 737.607,680.3692 737.9195,680.0598 738.5445,680.0598 739.482,679.1317 739.7945,679.1317 740.107,679.4411 740.107,679.7505 740.732,680.3692 740.732,680.6786 741.357,681.2973 741.357,681.6067 742.2945,682.5348 742.607,682.5348 744.1695,684.0817 744.482,684.0817 744.7945,684.3911 745.107,684.3911 745.4195,684.7005 745.732,684.7005 746.0445,685.0098 746.6695,685.0098 746.982,685.3192 747.607,685.3192 747.9195,685.6286 748.5445,685.6286 749.1695,686.2473 750.107,686.2473 750.4195,686.5567 751.0445,686.5567 751.357,686.8661 752.2945,686.8661 752.607,687.1755 753.857,687.1755 754.1695,687.4848 756.6695,687.4848 756.982,687.7942 758.857,687.7942 759.1695,688.1036 761.982,688.1036 762.2945,688.413 767.2945,688.413 767.607,688.7223 771.982,688.7223 772.2945,688.413 773.857,688.413 774.1695,688.7223 781.6695,688.7223 781.982,688.413 784.7945,688.413 785.107,688.7223 786.6695,688.7223 786.982,688.413 793.5445,688.413 793.857,688.7223 795.107,688.7223 795.4195,688.413 797.2945,688.413 797.607,688.7223 809.7945,688.7223 810.107,689.0317 828.5445,689.0317 828.857,689.3411 847.607,689.3411 847.9195,689.0317 852.9195,689.0317 853.232,688.7223 856.357,688.7223 856.6695,688.413 859.1695,688.413 859.482,688.1036 862.607,688.1036 862.9195,687.7942 864.482,687.7942 864.7945,687.4848 866.357,687.4848 866.6695,687.1755 868.5445,687.1755 868.857,686.8661 869.7945,686.8661 870.107,686.5567 870.732,686.5567 871.0445,686.2473 871.982,686.2473 872.2945,685.938 873.5445,685.938 873.857,685.6286 874.1695,685.6286 874.482,685.3192 875.107,685.3192 875.4195,685.0098 875.732,685.0098 876.0445,684.7005 876.982,684.7005 877.2945,684.3911 878.232,684.3911 878.5445,684.0817 879.1695,684.0817 879.482,683.7723 880.107,683.7723 880.4195,683.463 881.0445,683.463 881.357,683.1536 881.6695,683.1536 881.982,682.8442 882.607,682.8442 882.9195,682.5348 883.232,682.5348 883.5445,682.2255 883.857,682.2255 884.482,681.6067 884.7945,681.6067 885.107,681.2973 885.4195,681.2973 885.732,680.988 886.0445,680.988 886.6695,680.3692 886.982,680.3692 887.607,679.7505 887.9195,679.7505 888.857,678.8223 889.1695,678.8223 891.357,676.6567 891.357,676.3473 891.6695,676.038 891.6695,675.7286 892.2945,675.1098 892.2945,674.8005 892.607,674.4911 892.607,674.1817 892.9195,673.8723 892.9195,673.563 893.232,673.2536 893.232,672.3255 893.5445,672.0161 893.5445,671.3973 893.857,671.088 893.857,669.8505 894.1695,669.5411 894.1695,666.138 893.857,665.8286 893.857,665.2098 893.5445,664.9005 893.5445,663.3536 893.232,663.0442 893.232,662.1161 892.9195,661.8067 892.9195,660.8786 892.607,660.5692 892.607,659.6411 892.2945,659.3317 892.2945,658.4036 891.982,658.0942 891.982,656.8567 891.6695,656.5473 891.6695,655.3098 891.357,655.0005 891.357,654.3817 891.0445,654.0723 891.0445,652.8348 890.732,652.5255 890.732,648.5036 890.4195,648.1942 890.4195,646.6473 890.732,646.338 890.732,644.4817 891.0445,644.1723 891.0445,641.0786 891.357,640.7692 891.357,637.3661 891.6695,637.0567 891.6695,632.4161 891.982,632.1067 891.982,627.4661 892.2945,627.1567 892.2945,610.1411 891.982,609.8317 891.982,603.6442 891.6695,603.3348 891.6695,599.9317 891.357,599.6223 891.357,597.4567 891.0445,597.1473 891.0445,594.363 890.732,594.0536 890.732,591.888 890.4195,591.5786 890.4195,589.1036 890.107,588.7942 890.107,587.8661 889.7945,587.5567 889.7945,586.3192 889.482,586.0098 889.482,584.1536 889.1695,583.8442 889.1695,583.2255 888.857,582.9161 888.857,581.6786 888.5445,581.3692 888.5445,580.7505 888.232,580.4411 888.232,579.513 887.9195,579.2036 887.9195,577.9661 887.607,577.6567 887.607,576.7286 887.2945,576.4192 887.2945,575.8005 886.982,575.4911 886.982,574.8723 886.6695,574.563 886.6695,574.2536 886.357,573.9442 886.357,573.3255 886.0445,573.0161 886.0445,572.7067 885.732,572.3973 885.732,571.4692 885.4195,571.1598 885.4195,570.5411 885.107,570.2317 885.107,569.613 884.7945,569.3036 884.7945,568.9942 884.482,568.6848 884.482,568.0661 884.1695,567.7567 884.1695,567.138 883.857,566.8286 883.857,566.2098 883.232,565.5911 883.232,564.9723 882.9195,564.663 882.9195,564.0442 882.607,563.7348 882.607,563.4255 882.2945,563.1161 882.2945,562.4973 881.982,562.188 881.982,561.8786 881.357,561.2598 881.357,560.6411 881.0445,560.3317 881.0445,560.0223 880.4195,559.4036 880.4195,559.0942 880.107,558.7848 880.107,558.4755 879.7945,558.1661 879.7945,557.8567 879.482,557.5473 879.482,556.9286 878.857,556.3098 878.857,556.0005 878.5445,555.6911 878.5445,555.3817 878.232,555.0723 878.232,554.763 877.607,554.1442 877.607,553.8348 877.2945,553.5255 877.2945,553.2161 876.6695,552.5973 876.6695,552.288 876.357,551.9786 876.357,551.6692 875.732,551.0505 875.732,550.7411 875.107,550.1223 875.107,549.813 874.482,549.1942 874.482,548.8848 873.857,548.2661 873.857,547.9567 873.232,547.338 873.232,547.0286 872.607,546.4098 872.607,546.1005 871.982,545.4817 871.982,545.1723 870.4195,543.6255 870.4195,543.3161 869.1695,542.0786 869.1695,541.7692 867.607,540.2223 867.607,539.913 864.7945,537.1286 864.7945,536.8192 864.482,536.5098 864.1695,536.5098 860.4195,532.7973 860.107,532.7973 858.5445,531.2505 858.232,531.2505 856.982,530.013 856.6695,530.013 855.732,529.0848 855.4195,529.0848 854.1695,527.8473 853.857,527.8473 853.232,527.2286 852.9195,527.2286 852.2945,526.6098 851.982,526.6098 851.357,525.9911 851.0445,525.9911 850.4195,525.3723 850.107,525.3723 849.7945,525.063 849.482,525.063 849.1695,524.7536 848.857,524.7536 848.232,524.1348 847.9195,524.1348 847.607,523.8255 847.2945,523.8255 846.982,523.5161 846.6695,523.5161 846.0445,522.8973 845.732,522.8973 845.4195,522.588 844.7945,522.588 844.1695,521.9692 843.857,521.9692 843.5445,521.6598 842.9195,521.6598 842.607,521.3505 841.982,521.3505 841.6695,521.0411 841.357,521.0411 841.0445,520.7317 840.732,520.7317 840.4195,520.4223 839.482,520.4223 839.1695,520.113 838.857,520.113 838.5445,519.8036 837.607,519.8036 837.2945,519.4942 836.6695,519.4942 836.357,519.1848 835.4195,519.1848 835.107,518.8755 834.482,518.8755 834.1695,518.5661 833.232,518.5661 832.9195,518.2567 831.6695,518.2567 831.357,517.9473 828.232,517.9473 827.9195,517.638 818.857,517.638 818.5445,517.9473 815.107,517.9473 814.7945,518.2567 813.5445,518.2567 813.232,517.9473 809.1695,517.9473 808.857,517.638 807.9195,517.638 807.607,517.3286 806.6695,517.3286 806.357,517.0192 805.732,517.0192 805.4195,516.7098 805.107,516.7098 804.7945,516.4005 804.482,516.4005 804.1695,516.0911 803.857,516.0911 803.232,515.4723 802.9195,515.4723 802.607,515.163 802.2945,515.163 800.4195,513.3067 800.4195,512.9973 799.482,512.0692 799.482,511.7598 798.5445,510.8317 798.5445,510.5223 798.232,510.213 798.232,509.9036 797.9195,509.5942 797.9195,508.9755 797.2945,508.3567 797.2945,508.0473 796.357,507.1192 796.357,506.8098 795.4195,505.8817 795.4195,505.5723 790.732,500.9317 790.4195,500.9317 789.482,500.0036 789.1695,500.0036 787.9195,498.7661 787.607,498.7661 787.2945,498.4567 786.982,498.4567 786.6695,498.1473 786.357,498.1473 785.732,497.5286 785.107,497.5286 784.7945,497.2192 784.1695,497.2192 783.5445,496.6005 783.232,496.6005 782.607,495.9817 781.982,495.9817 781.0445,495.0536 780.732,495.0536 779.482,493.8161 779.482,493.5067 779.1695,493.1973 779.1695,492.888 778.857,492.5786 778.857,492.2692 778.5445,491.9598 778.5445,491.6505 778.232,491.3411 778.232,491.0317 777.9195,490.7223 777.9195,490.413 777.607,490.1036 777.607,489.7942 777.2945,489.4848 777.2945,489.1755 776.982,488.8661 776.982,488.5567 776.6695,488.2473 776.6695,487.938 776.357,487.6286 776.357,487.3192 776.0445,487.0098 776.0445,486.3911 775.4195,485.7723 775.4195,485.463 775.107,485.1536 775.107,484.5348 774.7945,484.2255 774.7945,483.9161 774.482,483.6067 774.482,483.2973 774.1695,482.988 774.1695,482.3692 773.857,482.0598 773.857,481.7505 773.232,481.1317 773.232,480.513 772.9195,480.2036 772.9195,479.8942 772.607,479.5848 772.607,479.2755 772.2945,478.9661 772.2945,478.3473 771.6695,477.7286 771.6695,477.1098 771.357,476.8005 771.357,476.1817 770.732,475.563 770.732,474.9442 770.4195,474.6348 770.4195,474.3255 770.107,474.0161 770.107,473.7067 769.7945,473.3973 769.7945,472.7786 769.482,472.4692 769.482,472.1598 768.857,471.5411 768.857,470.9223 768.5445,470.613 768.5445,470.3036 767.9195,469.6848 767.9195,469.0661 767.2945,468.4473 767.2945,468.138 766.982,467.8286 766.982,467.5192 766.357,466.9005 766.357,466.5911 765.732,465.9723 765.732,465.663 762.2945,462.2598 761.982,462.2598 761.6695,461.9505 761.357,461.9505 761.0445,461.6411 760.732,461.6411 760.4195,461.3317 760.107,461.3317 759.7945,461.0223 759.482,461.0223 759.1695,460.713 758.857,460.713 758.5445,460.4036 758.232,460.4036 757.9195,460.713 757.607,460.4036 757.2945,460.4036 756.982,460.0942 756.982,459.7848 755.732,458.5473 755.732,458.238 754.7945,457.3098 754.7945,457.0005 754.1695,456.3817 754.1695,456.0723 753.232,455.1442 753.232,454.8348 752.2945,453.9067 752.2945,453.5973 751.6695,452.9786 751.6695,452.6692 750.107,451.1223 750.107,450.813 748.857,449.5755 748.857,449.2661 747.2945,447.7192 747.2945,447.4098 745.107,445.2442 745.107,444.9348 743.232,443.0786 743.232,442.7692 742.2945,441.8411 741.6695,441.2223 741.0445,441.2223 740.732,440.913"/>
    <polyline fill="none" stroke="#000000" points="740.4195,440.913 740.732,440.913 740.4195,441.2223"/>
    <polyline fill="none" stroke="#000000" points="731.982,438.7473 731.982,436.8911 732.2945,436.5817 732.2945,435.3442 732.607,435.0348 732.607,434.7255 733.5445,433.7973"/>
    <line x1="734.7945" x2="734.7945" y1="433.7973" y2="434.1067"/>
    <polyline fill="none" stroke="#000000" points="735.107,434.1067 734.7945,434.1067 734.482,434.4161 734.1695,434.1067 733.857,434.1067 733.5445,433.7973 734.1695,433.1786 735.107,434.1067 736.0445,435.0348 736.357,435.0348 736.6695,435.3442 736.6695,435.6536 737.9195,436.8911 737.9195,437.2005 738.5445,437.8192 738.5445,438.1286 738.857,438.438 738.857,438.7473 739.482,439.3661 739.482,439.9848 740.4195,440.913 740.4195,442.4598 740.732,442.7692 740.732,443.6973 741.0445,444.0067 741.0445,444.3161 741.357,444.6255 741.357,445.2442 741.6695,445.5536 741.6695,446.4817 741.982,446.7911 741.982,448.0286 742.2945,448.338 742.2945,449.2661 742.607,449.5755 742.607,451.4317 742.9195,451.7411 742.9195,454.2161 743.232,454.5255 743.232,456.6911 742.9195,457.0005 742.9195,459.1661 742.607,459.4755 742.607,460.713 742.2945,461.0223 742.2945,461.9505 741.982,462.2598 741.982,463.188 741.6695,463.4973 741.6695,464.1161 741.357,464.4255 741.357,464.7348 741.0445,465.0442 741.0445,465.3536 740.732,465.663 740.732,465.9723 740.107,466.5911 739.7945,466.5911 739.482,466.9005 739.1695,466.9005 738.857,467.2098 738.5445,467.2098"/>
    <polyline fill="none" stroke="#000000" points="726.982,455.4536 726.6695,455.4536 726.982,455.763 726.982,455.4536 727.2945,455.1442 727.607,455.1442 727.9195,454.8348 727.9195,454.5255 728.5445,453.9067 728.5445,453.5973 728.857,453.288 728.857,452.9786 729.1695,452.6692 729.1695,452.3598 729.482,452.0505 729.482,451.7411 729.7945,451.4317 729.7945,450.813 730.107,450.5036 730.107,449.8848 730.4195,449.5755 730.4195,447.4098 730.732,447.1005 730.732,446.7911 731.0445,446.4817 731.0445,445.2442 731.357,444.9348 731.357,440.6036"/>
    <line x1="730.4195" x2="730.107" y1="447.4098" y2="447.4098"/>
    <polyline fill="none" stroke="#000000" points="730.4195,447.7192 730.107,447.4098 729.7945,447.4098 728.5445,446.1723 728.5445,445.863 726.982,444.3161 726.982,444.0067 725.4195,442.4598 725.107,442.4598 724.1695,441.5317 723.857,441.8411 723.232,441.8411 722.9195,442.1505 722.9195,442.4598 722.607,442.7692 722.607,444.0067 723.232,444.6255 723.232,444.9348 723.5445,445.2442 723.5445,445.863 723.857,446.1723 723.857,448.9567 724.1695,449.2661 724.1695,451.7411 723.857,452.0505 723.857,454.8348 724.1695,455.1442 725.107,455.1442 725.4195,455.4536 726.6695,455.4536"/>
  </g>
</svg>
