<?xml version="1.0" encoding="utf-8" ?>
<!--
  Generated by txt2plotter
  Prompt: Steaming coffee cup seen from side, curling steam wisps, simple cafe sketch style, black lines on white.
  Enhanced: Minimalistic line drawing of a steaming coffee cup viewed from the side, with delicate, curling wisps of steam rising elegantly, rendered in a simple cafe sketch style using clean, precise black ink lines on white paper, monochrome illustration with a soft, contemplative atmosphere, technical line art with a focus on form and subtle motion.
-->

<svg xmlns="http://www.w3.org/2000/svg" xmlns:cc="http://creativecommons.org/ns" xmlns:dc="http://purl.org/dc/elements/1.1/" xmlns:ev="http://www.w3.org/2001/xml-events" xmlns:inkscape="http://www.inkscape.org/namespaces/inkscape" xmlns:rdf="http://www.w3.org/1999/02/22-rdf-syntax-ns" xmlns:sodipodi="http://sodipodi.sourceforge.net/DTD/sodipodi-0.dtd" xmlns:xlink="http://www.w3.org/1999/xlink" baseProfile="tiny" height="29.7cm" version="1.2" viewBox="0 0 1587.4015748031497 1122.5196850393702" width="42.0cm">
  <metadata>
    <rdf:RDF>
      <cc:Work>
        <dc:format>image/svg+xml</dc:format>
        <dc:source/>
        <dc:date>2026-01-19T22:30:06.151787</dc:date>
      </cc:Work>
    </rdf:RDF>
  </metadata>
  <defs/>
  <g fill="none" id="layer1" inkscape:groupmode="layer" inkscape:label="1" stroke="#0000ff" style="display:inline">
    <polyline points="765.8883,456.3817 765.8883,456.6911 765.5758,457.0005 765.5758,459.1661 765.2633,459.4755 765.5758,459.7848 765.5758,461.0223 765.8883,461.3317 765.8883,461.9505 766.2008,462.2598 766.2008,463.188 766.5133,463.4973 766.5133,463.8067 766.8258,464.1161 766.8258,464.7348 767.4508,465.3536 767.4508,465.663 767.7633,465.9723 767.7633,466.2817 768.0758,466.5911 768.0758,466.9005 769.0133,467.8286 769.0133,468.138 769.3258,468.4473 769.3258,468.7567 770.2633,469.6848 770.2633,469.9942 771.5133,471.2317 771.5133,471.5411 774.0133,474.0161 774.0133,474.3255 774.6383,474.9442 774.9508,474.9442 775.8883,475.8723 775.8883,476.1817 777.4508,477.7286 777.7633,477.7286 780.5758,480.513 780.8883,480.513 782.4508,482.0598 782.7633,482.0598 783.3883,482.6786 783.7008,482.6786 784.9508,483.9161 785.2633,483.9161 785.8883,484.5348 786.2008,484.5348 786.8258,485.1536 786.5133,485.463 786.5133,485.7723 787.1383,486.3911 787.4508,486.3911 788.3883,487.3192 788.7008,487.3192 789.0133,487.6286 789.3258,487.6286 789.9508,488.2473 790.2633,488.2473 790.2633,488.5567 790.5758,488.8661 790.8883,488.8661 791.8258,489.7942 792.1383,489.7942 794.0133,491.6505 794.3258,491.6505 799.3258,496.6005 799.3258,496.9098 801.2008,498.7661 801.5133,499.0755 801.8258,499.0755 801.5133,499.3848 801.5133,500.0036 801.2008,500.0036 800.2633,500.9317 800.2633,501.2411 798.7008,502.788 798.7008,503.0973 795.2633,506.5005 795.2633,506.8098 794.9508,507.1192 794.6383,507.1192 792.1383,509.5942 791.8258,509.5942 790.8883,510.5223 790.5758,510.5223 789.6383,511.4505 789.3258,511.4505 786.5133,514.2348 786.2008,514.2348 785.8883,514.5442 785.8883,514.8536 785.5758,515.163 785.2633,515.163 782.7633,517.638"/>
    <polyline points="780.5758,517.9473 781.8258,516.7098 782.1383,516.7098 783.0758,515.7817 783.3883,515.7817 784.0133,515.163 784.3258,515.163 785.2633,514.2348 785.5758,514.2348 786.5133,513.3067 786.8258,513.3067"/>
    <polyline points="787.1383,513.6161 786.8258,513.3067 787.4508,512.688"/>
    <polyline points="787.7633,512.9973 787.4508,512.688 787.7633,512.3786 788.0758,512.688"/>
    <line x1="787.4508" x2="787.1383" y1="513.3067" y2="512.9973"/>
    <line x1="786.2008" x2="785.8883" y1="514.2348" y2="513.9255"/>
    <line x1="785.5758" x2="785.8883" y1="514.2348" y2="514.5442"/>
    <polyline points="789.6383,516.0911 788.7008,517.0192 788.3883,517.0192 786.2008,519.1848 785.8883,519.1848 783.3883,521.6598 783.0758,521.6598 781.5133,523.2067 781.5133,523.5161 782.1383,524.1348"/>
    <line x1="781.5133" x2="781.2008" y1="523.5161" y2="523.5161"/>
    <polyline points="781.5133,523.2067 780.8883,523.8255 780.8883,524.1348 781.2008,524.4442"/>
    <polyline points="780.8883,524.1348 780.5758,524.4442 780.8883,524.7536"/>
    <polyline points="780.5758,524.4442 780.2633,524.4442 779.3258,525.3723 779.3258,525.6817 773.3883,531.5598 773.3883,531.8692 771.2008,534.0348 771.2008,534.3442 770.8883,534.6536 770.8883,534.963 770.2633,535.5817"/>
    <polyline points="769.9508,535.2723 769.9508,534.963 770.2633,534.963 770.5758,535.2723"/>
    <polyline points="770.8883,534.6536 770.5758,534.3442 770.8883,534.0348 771.2008,534.3442"/>
    <line x1="771.2008" x2="770.5758" y1="534.0348" y2="534.0348"/>
    <polyline points="770.2633,534.6536 769.6383,535.2723 769.9508,535.2723 769.6383,535.5817 769.6383,535.8911 769.0133,536.5098 769.0133,537.1286 769.3258,537.438 769.3258,537.7473"/>
    <line x1="769.3258" x2="769.6383" y1="537.438" y2="537.438"/>
    <line x1="769.9508" x2="770.5758" y1="537.1286" y2="537.7473"/>
    <polyline points="769.0133,538.3661 768.7008,538.0567 768.3883,538.0567 768.3883,537.438 769.0133,536.8192"/>
    <line x1="769.0133" x2="768.7008" y1="537.1286" y2="537.1286"/>
    <line x1="768.3883" x2="768.7008" y1="537.7473" y2="538.0567"/>
    <polyline points="768.3883,538.0567 768.0758,538.3661 768.7008,538.9848"/>
    <polyline points="768.3883,538.6755 768.0758,538.6755 768.0758,538.3661"/>
    <polyline points="768.0758,538.6755 767.7633,538.9848 767.7633,539.2942 768.0758,539.6036"/>
    <line x1="769.6383" x2="769.6383" y1="535.5817" y2="535.2723"/>
    <polyline points="763.3883,538.0567 763.7008,537.7473 763.7008,535.8911 764.0133,535.5817 764.0133,534.3442 764.3258,534.0348 764.3258,533.4161 764.6383,533.1067 764.6383,532.488 764.9508,532.1786 764.9508,531.8692 765.2633,531.5598 765.2633,531.2505 765.5758,530.9411 765.5758,530.6317 765.8883,530.3223 765.8883,530.013 766.2008,529.7036 766.2008,529.3942 766.5133,529.0848 766.5133,528.7755 766.8258,528.4661 766.8258,528.1567 767.1383,527.8473 767.1383,527.538 768.0758,526.6098 768.0758,526.3005 768.3883,525.9911 768.3883,525.6817 769.6383,524.4442 769.6383,523.5161 773.3883,519.8036 773.3883,519.4942 774.9508,517.9473 774.9508,517.638 776.2008,516.4005 776.2008,516.0911 777.7633,514.5442 777.7633,514.2348 778.7008,513.3067 779.0133,513.3067 779.3258,512.9973 779.3258,512.688 779.6383,512.3786 779.6383,512.0692 779.9508,511.7598 779.9508,511.4505 780.2633,511.1411 780.2633,510.8317 780.5758,510.5223 780.5758,509.9036 780.8883,509.5942 780.8883,509.2848 781.2008,508.9755 781.2008,508.3567 781.5133,508.0473 781.5133,507.1192 781.8258,506.8098 781.8258,502.788 781.5133,502.4786 781.5133,501.8598 781.2008,501.5505 781.2008,501.2411 780.8883,500.9317 780.8883,500.6223 779.6383,499.3848 779.3258,499.3848 778.3883,498.4567 778.0758,498.4567 777.7633,498.1473 777.4508,498.1473 777.1383,497.838 776.2008,497.838 775.8883,497.5286 774.9508,497.5286 774.6383,497.2192 774.0133,497.2192 773.7008,496.9098 772.4508,496.9098 772.1383,496.6005 771.5133,496.6005 771.5133,496.9098 771.2008,497.2192 769.6383,497.2192 769.3258,497.5286 768.7008,497.5286 768.3883,497.838 768.0758,497.838 767.7633,498.1473 767.4508,498.1473 767.1383,498.4567 766.8258,498.4567 766.5133,498.7661 766.2008,498.7661 765.2633,499.6942 764.9508,499.6942 764.6383,500.0036"/>
    <polyline points="764.0133,500.9317 763.3883,501.5505 763.3883,501.8598 763.0758,502.1692 763.0758,502.4786 762.7633,502.788 762.7633,503.7161"/>
    <polyline points="762.7633,505.8817 762.7633,506.1911 763.0758,506.5005 763.0758,507.1192 763.7008,507.738 766.2008,507.738 766.5133,507.4286 767.1383,507.4286 767.4508,507.1192 767.7633,507.1192 768.3883,506.5005 768.7008,506.8098 769.0133,506.5005 768.7008,506.1911 768.3883,506.5005"/>
    <line x1="771.5133" x2="771.8258" y1="496.9098" y2="496.6005"/>
    <polyline points="775.5758,487.6286 775.2633,487.6286 774.9508,487.3192 774.6383,487.3192 774.3258,487.0098 773.7008,487.0098 773.0758,486.3911 772.7633,486.3911 772.4508,486.0817 772.1383,486.0817 771.8258,485.7723 771.5133,485.7723"/>
    <polyline points="774.0133,477.1098 774.3258,477.1098 775.2633,478.038 775.5758,478.038 776.5133,478.9661 776.8258,478.9661 777.7633,479.8942 778.0758,479.8942 778.7008,480.513 779.0133,480.513 779.9508,481.4411 780.2633,481.4411 780.8883,482.0598 781.2008,482.0598 781.8258,482.6786 782.1383,482.6786 782.7633,483.2973 783.0758,483.2973 784.0133,484.2255 784.3258,484.2255 784.6383,484.5348 784.9508,484.5348 785.8883,485.463 786.5133,485.463"/>
    <line x1="786.5133" x2="786.2008" y1="485.7723" y2="485.463"/>
    <polyline points="786.8258,485.1536 787.1383,485.1536 787.4508,485.463 787.7633,485.463 788.7008,486.3911 789.0133,486.3911 789.9508,487.3192 790.2633,487.3192 790.5758,487.6286 790.5758,487.938 790.2633,488.2473"/>
    <line x1="790.2633" x2="789.9508" y1="488.5567" y2="488.2473"/>
    <polyline points="789.6383,487.938 789.6383,487.6286 789.9508,487.3192"/>
    <line x1="789.6383" x2="789.3258" y1="487.6286" y2="487.6286"/>
    <polyline points="790.5758,487.6286 790.8883,487.6286 790.5758,487.938"/>
    <polyline points="790.8883,487.6286 791.8258,488.5567 791.8258,488.8661 791.5133,489.1755 791.5133,489.4848"/>
    <line x1="791.5133" x2="791.2008" y1="489.1755" y2="489.1755"/>
    <line x1="790.8883" x2="790.8883" y1="488.8661" y2="488.5567"/>
    <polyline points="790.5758,488.8661 791.2008,488.2473 791.2008,487.938"/>
    <line x1="791.2008" x2="791.5133" y1="488.2473" y2="488.2473"/>
    <polyline points="791.8258,488.5567 793.0758,489.7942 793.3883,489.7942 795.5758,491.9598 795.2633,492.2692 795.2633,492.5786"/>
    <line x1="795.2633" x2="794.9508" y1="492.2692" y2="492.2692"/>
    <polyline points="795.5758,491.9598 795.8883,491.9598 801.5133,497.5286 801.5133,497.838 802.1383,498.4567 802.1383,498.7661 802.7633,499.3848 802.7633,500.0036 803.0758,500.313 803.0758,500.9317 803.3883,501.2411"/>
    <polyline points="802.7633,501.8598 802.4508,501.5505 802.4508,501.8598"/>
    <polyline points="802.1383,502.1692 802.1383,502.4786 801.8258,502.4786 802.1383,502.1692 802.4508,501.8598 802.7633,501.8598 807.4508,497.2192 807.4508,496.9098 808.7008,495.6723 808.7008,495.363 809.3258,494.7442 809.3258,494.4348 809.6383,494.1255 809.6383,493.8161 809.9508,493.5067 809.9508,493.1973 810.2633,492.888 810.2633,491.9598 810.5758,491.6505 810.5758,490.1036 810.8883,489.7942 810.8883,486.0817 810.5758,485.7723 810.5758,485.1536 810.2633,484.8442 810.2633,484.5348 809.9508,484.2255 809.9508,483.9161 809.6383,483.6067 809.6383,483.2973 807.4508,481.1317 807.1383,481.1317 806.8258,480.8223 806.5133,480.8223"/>
    <polyline points="807.4508,482.6786 805.5758,480.8223 805.5758,480.513 805.2633,480.2036 804.6383,480.2036 804.3258,479.8942 803.7008,479.8942 803.3883,479.5848 803.0758,479.5848 802.7633,479.2755 801.8258,479.2755 801.5133,478.9661 800.8883,478.9661 800.5758,478.6567 798.0758,478.6567"/>
    <polyline points="793.7008,488.5567 794.0133,488.5567 794.3258,488.8661 794.6383,488.8661 794.9508,489.1755 795.5758,489.1755 795.8883,489.4848 796.2008,489.4848 796.5133,489.7942 797.1383,489.7942 797.4508,490.1036 797.7633,490.1036 798.3883,490.7223 798.7008,490.7223 799.0133,491.0317 799.3258,491.0317 799.6383,491.3411 799.9508,491.3411 800.5758,491.9598 801.2008,491.9598 801.5133,492.2692 801.8258,492.2692 802.4508,492.888 802.7633,492.888 803.0758,493.1973"/>
    <line x1="805.2633" x2="805.2633" y1="494.4348" y2="494.7442"/>
    <polyline points="807.7633,491.0317 808.0758,490.7223 808.0758,490.1036 808.3883,489.7942 808.3883,489.1755 808.7008,488.8661 808.7008,485.463"/>
    <polyline points="807.4508,489.4848 807.4508,490.1036 807.1383,490.413 807.1383,491.0317 806.8258,491.3411 806.8258,491.9598 806.2008,492.5786 806.2008,493.1973 805.8883,493.5067 805.8883,493.8161 805.2633,494.4348 805.5758,494.7442 805.2633,494.7442 804.6383,495.363 804.6383,495.6723 804.0133,496.2911 804.0133,496.6005 803.3883,497.2192 803.3883,497.5286 801.8258,499.0755"/>
    <line x1="801.5133" x2="801.5133" y1="499.0755" y2="499.3848"/>
    <line x1="801.5133" x2="801.2008" y1="499.6942" y2="500.0036"/>
    <line x1="802.1383" x2="802.4508" y1="498.4567" y2="498.4567"/>
    <polyline points="801.8258,502.4786 801.5133,502.788 801.2008,502.788 800.2633,503.7161 799.9508,503.7161 799.0133,504.6442 798.7008,504.6442 798.0758,505.263 797.7633,505.263 796.8258,506.1911 796.5133,505.8817 796.2008,506.1911 796.2008,506.5005 795.5758,507.1192 795.2633,506.8098"/>
    <line x1="795.8883" x2="796.2008" y1="505.8817" y2="506.1911"/>
    <line x1="796.5133" x2="796.2008" y1="505.8817" y2="505.5723"/>
    <polyline points="799.0133,509.2848 798.0758,510.213 798.3883,510.5223"/>
    <line x1="798.7008" x2="798.3883" y1="510.213" y2="509.9036"/>
    <line x1="798.7008" x2="799.0133" y1="509.5942" y2="509.9036"/>
    <polyline points="799.3258,509.5942 799.0133,509.2848 799.0133,508.6661 799.3258,508.3567 799.6383,508.3567 802.7633,505.263 802.7633,504.9536 803.7008,504.0255 803.7008,503.0973 804.0133,502.788 804.3258,502.788 804.0133,502.4786 804.0133,502.788"/>
    <polyline points="803.7008,503.4067 803.3883,503.0973 803.3883,502.788 803.7008,503.0973 803.3883,503.0973"/>
    <polyline points="801.2008,504.6442 798.0758,507.738 797.7633,507.738 796.2008,509.2848 795.8883,509.2848 794.9508,510.213 794.6383,510.213 794.0133,510.8317 793.7008,510.8317 792.7633,511.7598 792.4508,511.7598 792.1383,512.0692 791.8258,512.0692 790.8883,512.9973 790.5758,512.688 790.5758,512.3786 790.2633,512.688 790.5758,512.688"/>
    <polyline points="790.2633,512.688 788.3883,514.5442 788.0758,514.5442 786.5133,516.0911 786.2008,516.0911 783.3883,518.8755 783.0758,518.8755 782.7633,519.1848 780.5758,521.3505 780.5758,521.6598 780.2633,521.9692 779.9508,521.9692 776.5133,525.3723 776.5133,525.6817 774.3258,527.8473 774.3258,528.1567 773.0758,529.3942 773.0758,529.7036 772.1383,530.6317 772.1383,530.9411 771.5133,531.5598 771.5133,531.8692 770.8883,532.488 770.8883,532.7973 770.5758,533.1067 770.5758,533.4161 770.2633,533.7255 770.5758,534.0348 770.5758,534.3442 770.2633,534.6536 770.2633,534.963 769.9508,535.2723 770.2633,535.5817 770.2633,536.5098 769.9508,536.8192 769.9508,537.1286 769.3258,537.7473 769.3258,538.0567 769.0133,538.3661 769.0133,538.6755 768.7008,538.9848 768.7008,539.2942 768.3883,539.6036 768.0758,539.6036 767.7633,539.913 767.7633,540.2223 767.4508,540.5317 767.4508,540.8411 767.1383,541.1505 767.1383,541.7692 766.8258,542.0786 766.8258,542.388 766.5133,542.6973 766.5133,543.6255 766.2008,543.9348 766.2008,545.1723 765.8883,545.4817 765.8883,546.1005 764.9508,547.0286 764.9508,547.338 765.2633,547.6473 765.8883,547.6473 766.2008,547.9567 766.2008,548.2661 766.5133,548.5755 766.8258,548.8848 767.1383,548.8848 771.2008,552.9067 771.5133,552.9067 772.7633,554.1442 773.0758,554.1442 775.2633,556.3098 775.5758,556.3098 775.5758,556.6192 776.8258,557.8567 776.8258,558.1661 776.5133,558.4755 776.5133,558.7848 776.8258,559.0942 777.1383,559.0942 777.4508,559.4036 777.4508,559.713 778.0758,560.3317 778.3883,560.0223 778.7008,560.3317 778.7008,560.6411 780.5758,562.4973 780.5758,563.1161 780.8883,563.4255 780.8883,563.7348 781.5133,564.3536 781.5133,564.663 781.8258,564.9723 781.8258,565.9005 782.1383,565.9005 782.4508,566.2098 782.4508,566.5192 782.1383,566.8286 782.4508,567.138 782.4508,567.7567 782.1383,568.0661 782.4508,568.3755 782.1383,568.6848 782.7633,569.3036 783.3883,568.6848 782.7633,568.0661 782.4508,568.3755"/>
    <line x1="782.7633" x2="782.4508" y1="568.0661" y2="567.7567"/>
    <polyline points="782.1383,566.8286 778.3883,563.1161 778.0758,563.1161"/>
    <polyline points="777.4508,563.7348 776.2008,562.4973 775.8883,562.4973 774.6383,561.2598 774.3258,561.2598"/>
    <polyline points="774.9508,560.6411 773.3883,559.0942 773.0758,559.0942 772.1383,558.1661 771.8258,558.1661 771.5133,557.8567 771.5133,557.5473 771.2008,557.238 770.8883,557.238 768.0758,554.4536 768.0758,554.1442 767.4508,553.5255 767.4508,553.2161 767.1383,552.9067 767.1383,552.5973 766.8258,552.288 766.8258,551.9786 766.2008,551.3598 766.2008,550.1223 765.8883,549.813 765.8883,549.1942 766.5133,548.5755"/>
    <polyline points="765.8883,547.6473 765.8883,546.7192 764.9508,545.7911 764.9508,545.1723 764.0133,544.2442 764.0133,543.9348 763.7008,543.6255 763.7008,543.0067 763.3883,542.6973 763.3883,542.388 763.0758,542.0786 763.0758,541.4598 762.7633,541.1505 762.7633,540.5317 762.4508,540.2223 762.4508,539.913 762.1383,539.6036 762.1383,538.9848 761.5133,538.3661 761.5133,538.0567 761.2008,537.7473 761.2008,535.8911 761.5133,535.5817 761.5133,534.3442 761.8258,534.0348 761.8258,532.7973 762.1383,532.488 762.1383,532.1786 762.4508,531.8692 762.4508,531.2505 762.7633,530.9411 762.7633,530.6317 763.0758,530.3223 763.0758,530.013 763.7008,529.3942 763.7008,529.0848 764.3258,528.4661 764.3258,528.1567 767.7633,524.7536 768.0758,524.7536 769.3258,523.5161"/>
    <polyline points="769.6383,523.5161 769.3258,523.5161 769.6383,523.8255"/>
    <polyline points="775.5758,521.9692 776.8258,520.7317 777.1383,520.7317 779.3258,518.5661 779.6383,518.5661 779.9508,518.2567"/>
    <polyline points="778.7008,513.3067 778.3883,512.9973 779.0133,512.3786"/>
    <polyline points="779.3258,512.688 778.7008,512.0692 779.0133,511.7598 779.0133,511.1411 779.3258,510.8317 779.3258,509.9036 779.6383,509.5942"/>
    <polyline points="789.6383,523.5161 789.3258,523.5161 788.3883,524.4442 788.0758,524.4442 787.4508,525.063 787.1383,525.063 786.2008,525.9911 785.8883,525.9911 785.5758,526.3005"/>
    <polyline points="791.2008,522.2786 791.5133,522.2786 791.8258,521.9692 792.1383,522.2786 792.4508,521.9692 793.0758,521.9692 793.3883,521.6598 794.0133,521.6598 794.3258,521.3505 794.6383,521.3505 794.9508,521.6598 795.2633,521.6598 795.5758,521.3505 798.3883,521.3505 798.7008,521.6598 799.0133,521.3505 799.3258,521.6598 800.5758,521.6598 800.8883,521.9692 801.8258,521.9692 802.1383,522.2786 802.7633,522.2786 803.0758,522.588 803.7008,522.588 804.0133,522.8973 804.3258,522.8973 804.9508,523.5161 805.2633,523.5161 806.5133,524.7536 806.5133,525.063 806.8258,525.3723 806.8258,525.9911 807.1383,526.3005 807.1383,526.6098 807.4508,526.9192 807.4508,528.7755 807.7633,529.0848 807.7633,529.7036 807.4508,530.013 807.7633,530.3223 807.7633,531.2505 807.4508,531.5598 807.4508,531.8692 806.5133,532.7973 806.2008,532.7973 805.2633,533.7255 804.9508,533.7255 804.6383,534.0348 804.3258,534.0348 804.0133,534.3442 803.7008,534.3442 803.3883,534.6536 803.0758,534.6536 802.4508,534.0348 801.8258,534.6536 801.5133,534.6536 801.2008,534.963 800.2633,534.963 799.9508,535.2723 799.3258,535.2723 799.0133,535.5817 797.1383,535.5817 796.8258,535.8911 793.0758,535.8911 792.7633,536.2005 792.4508,536.2005 792.1383,535.8911 791.2008,535.8911 790.8883,536.2005 787.7633,536.2005 787.4508,536.5098 787.1383,536.5098 786.8258,536.2005 786.5133,536.5098 785.5758,536.5098 785.2633,536.8192 784.9508,536.8192 784.6383,536.5098 784.0133,537.1286 783.7008,536.8192 783.0758,537.438 782.7633,537.1286 782.7633,537.438 782.4508,537.7473 782.1383,537.7473 781.8258,537.7473 781.8258,537.438 782.1383,537.7473"/>
    <polyline points="781.8258,537.7473 781.5133,538.0567 781.2008,537.7473 781.2008,537.438 781.5133,537.1286"/>
    <polyline points="781.8258,537.1286 781.5133,537.1286 781.8258,537.438 781.8258,537.1286 782.1383,536.8192 782.4508,536.8192 782.7633,536.5098 783.3883,536.5098 783.7008,536.2005 784.3258,536.2005 784.6383,535.8911 784.9508,535.8911 785.2633,535.5817 786.2008,535.5817 786.5133,535.2723 787.7633,535.2723 788.0758,534.963 790.2633,534.963 790.5758,534.6536 792.4508,534.6536 792.7633,534.3442 793.0758,534.6536 793.3883,534.3442 794.9508,534.3442 795.2633,534.0348 797.4508,534.0348 797.7633,533.7255 798.3883,534.3442 798.7008,534.3442 799.0133,534.0348 799.3258,534.0348 799.9508,533.4161 800.2633,533.7255 800.8883,533.7255 801.2008,533.4161 801.8258,533.4161 802.1383,533.1067 802.7633,533.1067 803.3883,532.488 804.3258,532.488"/>
    <line x1="804.3258" x2="804.0133" y1="532.7973" y2="532.488"/>
    <line x1="803.3883" x2="804.0133" y1="533.7255" y2="534.3442"/>
    <line x1="803.7008" x2="803.7008" y1="534.3442" y2="534.0348"/>
    <line x1="802.7633" x2="802.4508" y1="534.0348" y2="534.0348"/>
    <polyline points="802.1383,534.3442 802.4508,534.6536 802.7633,534.3442 802.7633,534.0348 803.0758,533.7255 803.3883,533.7255 804.3258,532.7973 804.3258,532.488 804.6383,532.1786 804.9508,532.1786 805.8883,531.2505 806.2008,531.2505 806.8258,530.6317 806.8258,530.3223 807.1383,530.013 806.8258,529.7036 806.8258,529.3942 807.4508,528.7755"/>
    <line x1="807.4508" x2="807.1383" y1="530.013" y2="530.013"/>
    <line x1="813.7008" x2="814.0133" y1="533.7255" y2="533.4161"/>
    <polyline points="816.5133,519.4942 816.5133,520.7317 816.8258,521.0411 816.8258,521.9692 817.1383,522.2786 817.1383,523.2067 817.4508,523.5161 817.4508,525.063 817.7633,525.3723 817.7633,525.9911 817.4508,526.3005 817.7633,526.6098 817.7633,526.9192 817.4508,527.2286 817.4508,528.7755 817.1383,529.0848 817.1383,529.7036 816.8258,530.013 816.8258,530.3223 815.8883,531.2505 815.8883,531.5598 814.0133,533.4161 814.0133,533.7255 813.7008,533.7255 813.0758,534.3442 812.7633,534.3442 812.1383,534.963 811.8258,534.963 811.2008,535.5817 810.8883,535.5817 810.5758,535.8911 809.9508,535.8911 809.6383,536.2005 809.3258,536.2005 809.0133,536.5098 808.3883,536.5098 808.0758,536.8192 806.8258,536.8192 806.5133,537.1286 804.3258,537.1286 804.0133,537.438 797.4508,537.438 797.1383,537.1286 789.9508,537.1286 789.6383,537.438 787.1383,537.438 786.8258,537.7473 785.8883,537.7473 785.5758,538.0567 784.6383,538.0567 784.3258,538.3661 783.7008,538.3661 783.3883,538.6755 783.0758,538.6755 782.7633,538.9848 782.4508,538.9848 782.1383,539.2942 781.8258,539.2942 781.5133,539.6036 781.2008,539.6036 780.5758,540.2223 780.2633,540.2223 777.4508,543.0067"/>
    <polyline points="776.2008,544.5536 776.2008,544.863 776.5133,545.1723 776.5133,546.1005 776.2008,546.4098 776.5133,546.7192 776.5133,547.0286"/>
    <polyline points="776.2008,547.338 776.5133,547.0286 776.8258,547.338 776.8258,548.2661 776.5133,548.5755 775.8883,547.9567 775.8883,547.6473 776.2008,547.338 775.5758,546.7192 775.8883,546.4098 775.5758,546.1005 775.2633,546.1005 775.5758,545.7911 775.5758,545.1723 776.2008,544.5536 776.2008,543.6255 776.5133,543.3161 776.5133,542.0786 776.8258,541.7692 776.8258,541.4598 777.4508,540.8411 777.4508,540.5317 779.0133,538.9848 779.3258,538.6755 779.6383,538.6755 779.9508,538.3661 780.2633,538.3661 780.8883,537.7473"/>
    <polyline points="781.2008,537.7473 780.8883,537.7473 781.2008,537.438"/>
    <line x1="782.4508" x2="782.7633" y1="536.8192" y2="537.1286"/>
    <line x1="782.7633" x2="783.0758" y1="537.438" y2="537.438"/>
    <line x1="783.7008" x2="783.3883" y1="536.8192" y2="536.5098"/>
    <line x1="784.3258" x2="784.6383" y1="536.2005" y2="536.5098"/>
    <line x1="776.2008" x2="775.8883" y1="544.863" y2="544.863"/>
    <line x1="775.5758" x2="775.5758" y1="545.7911" y2="546.1005"/>
    <line x1="775.8883" x2="776.2008" y1="546.4098" y2="546.4098"/>
    <polyline points="768.0758,547.9567 768.0758,544.2442 768.3883,543.9348 768.3883,542.388 768.7008,542.0786 768.7008,541.4598 769.0133,541.1505 769.0133,540.8411 769.3258,540.5317 769.3258,539.913 769.9508,539.2942 769.9508,538.9848 770.2633,538.6755 770.2633,538.3661 770.5758,538.0567 770.5758,537.7473 771.2008,537.1286 771.2008,536.5098 772.4508,535.2723 772.4508,534.963 773.0758,534.3442 773.0758,534.0348 774.0133,533.1067 774.0133,532.7973 775.5758,531.2505 775.5758,530.9411 776.8258,529.7036 776.8258,529.3942 780.8883,525.3723 780.8883,524.7536 781.2008,524.4442 781.5133,524.7536 785.5758,520.7317 785.8883,520.7317 788.0758,518.5661 788.3883,518.5661 790.5758,516.4005 790.8883,516.4005 793.7008,513.6161 794.0133,513.6161 795.8883,511.7598 796.2008,511.7598 797.7633,510.213 798.0758,510.213"/>
    <line x1="797.7633" x2="797.4508" y1="510.8317" y2="510.5223"/>
    <polyline points="797.7633,511.1411 797.4508,511.4505 797.1383,511.4505 796.8258,511.1411"/>
    <polyline points="798.0758,511.1411 797.7633,511.1411 797.7633,510.8317 798.0758,511.1411 798.3883,510.8317 798.3883,510.5223 799.3258,509.5942 799.6383,509.9036 800.5758,508.9755 800.8883,508.9755 801.8258,508.0473 802.1383,508.0473 803.0758,507.1192 803.3883,507.1192 803.7008,506.8098 804.0133,506.8098 804.3258,506.5005 804.6383,506.5005 804.9508,506.1911 805.2633,506.1911 806.2008,505.263 806.5133,505.263 806.8258,504.9536 807.1383,504.9536 808.0758,504.0255 808.3883,504.0255 809.9508,502.4786 810.2633,502.4786 810.8883,501.8598 814.9508,497.838 814.9508,497.5286 815.8883,496.6005"/>
    <polyline points="804.0133,506.8098 803.7008,506.5005 803.7008,506.8098"/>
    <line x1="792.1383" x2="791.8258" y1="488.8661" y2="488.8661"/>
    <polyline points="768.0758,471.5411 767.4508,470.9223 767.4508,470.613 766.5133,469.6848 766.5133,469.3755 765.8883,468.7567 765.8883,468.4473 765.5758,468.138"/>
    <polyline points="761.5133,538.3661 761.2008,538.6755 761.2008,540.2223 761.5133,540.5317 761.5133,541.4598 761.8258,541.7692 761.8258,542.388"/>
    <polyline points="762.4508,543.3161 762.4508,543.6255 762.7633,543.9348 762.7633,544.2442 763.0758,544.5536 763.0758,544.863 763.7008,545.4817 763.7008,545.7911 764.0133,546.1005 764.0133,546.4098 764.9508,547.338"/>
    <line x1="764.9508" x2="764.6383" y1="547.0286" y2="547.0286"/>
    <line x1="765.5758" x2="765.8883" y1="547.6473" y2="547.338"/>
    <polyline points="766.5133,551.6692 766.2008,551.9786 766.2008,553.5255 766.5133,553.8348 766.5133,554.1442 766.8258,554.4536"/>
    <polyline points="771.5133,558.4755 771.2008,558.4755 771.5133,558.7848 771.5133,558.4755 771.8258,558.1661"/>
    <line x1="775.2633" x2="775.5758" y1="556.3098" y2="556.6192"/>
    <polyline points="776.2008,557.238 776.2008,557.5473 776.5133,557.5473"/>
    <polyline points="776.2008,557.5473 775.8883,557.8567 776.5133,558.4755"/>
    <polyline points="776.8258,558.1661 777.4508,558.7848 777.1383,559.0942"/>
    <polyline points="777.4508,558.7848 778.3883,559.713 778.3883,560.0223"/>
    <line x1="777.7633" x2="777.4508" y1="559.0942" y2="559.4036"/>
    <polyline points="782.4508,563.1161 783.0758,563.7348 783.0758,564.0442 784.0133,564.9723 784.0133,565.2817 785.2633,566.5192 785.2633,567.138 785.5758,567.4473 785.5758,567.7567 786.2008,568.3755 786.2008,568.9942 786.5133,569.3036 786.5133,570.2317"/>
    <polyline points="782.1383,570.2317 782.1383,571.7786 781.8258,572.088 781.8258,573.0161 781.5133,573.3255 781.5133,573.6348 781.2008,573.9442 781.2008,574.2536 780.5758,574.8723 780.5758,575.4911 780.2633,575.8005 780.2633,576.1098 779.9508,576.4192"/>
    <polyline points="781.2008,578.2755 781.5133,578.2755 781.8258,577.9661 781.8258,577.3473 782.1383,577.038 782.1383,576.1098 782.4508,575.8005 782.4508,575.4911"/>
    <line x1="785.5758" x2="785.5758" y1="575.8005" y2="576.1098"/>
    <polyline points="785.8883,576.1098 786.2008,575.8005 786.2008,575.1817 785.8883,574.8723 785.5758,575.1817 785.5758,575.8005 785.8883,576.1098 785.5758,576.1098 785.2633,576.4192 785.2633,576.7286 784.9508,577.038 784.9508,577.3473 783.0758,579.2036 783.7008,579.8223 783.3883,580.1317 783.0758,579.8223 782.1383,580.7505 782.1383,581.3692 782.4508,581.6786 791.5133,581.6786 791.8258,581.988 792.1383,581.6786 793.0758,581.6786 793.3883,581.988 800.8883,581.988 801.2008,582.2973 801.5133,581.988 803.0758,581.988 803.3883,582.2973 806.5133,582.2973 806.8258,582.6067 811.8258,582.6067 812.1383,582.9161 815.2633,582.9161 815.5758,583.2255 818.3883,583.2255 818.7008,583.5348 821.2008,583.5348 821.5133,583.8442 823.7008,583.8442 824.0133,584.1536 825.8883,584.1536 826.2008,584.463 827.7633,584.463 828.0758,584.7723 829.3258,584.7723 829.6383,585.0817 830.5758,585.0817 831.2008,585.7005 832.4508,585.7005 832.7633,586.0098 833.0758,586.0098 833.3883,586.3192 833.7008,586.3192 834.0133,586.6286 834.3258,586.6286 834.6383,586.938 834.9508,586.938 836.2008,588.1755 836.2008,588.4848 836.5133,588.7942 836.5133,589.1036 836.2008,589.413 836.2008,590.3411 835.8883,590.6505 835.2633,590.6505 834.9508,590.9598 834.6383,590.9598 834.0133,591.5786 833.0758,591.5786 832.7633,591.888 832.7633,592.1973 832.4508,591.888 832.1383,591.888 831.8258,592.1973 831.5133,592.1973 831.2008,592.5067 830.2633,592.5067 829.9508,592.8161 828.3883,592.8161 828.0758,593.1255 826.8258,593.1255 826.5133,593.4348 824.9508,593.4348 824.6383,593.7442 823.0758,593.7442 822.7633,594.0536 821.8258,594.0536 821.5133,594.363 819.9508,594.363 819.6383,594.6723 819.3258,594.6723 819.3258,594.363 819.6383,594.6723"/>
    <polyline points="819.3258,594.6723 819.0133,594.9817 818.7008,594.9817 818.3883,594.6723 818.3883,594.363"/>
    <line x1="818.3883" x2="818.0758" y1="594.6723" y2="594.6723"/>
    <polyline points="819.3258,594.363 819.0133,594.0536 818.7008,594.0536 818.0758,594.6723 817.7633,594.6723 817.4508,594.9817 816.5133,594.9817 816.2008,595.2911 815.8883,595.2911 815.5758,594.9817 815.2633,595.2911 813.0758,595.2911 812.7633,595.6005 812.4508,595.6005 812.1383,595.2911 811.8258,595.2911 811.5133,595.6005 809.6383,595.6005 809.3258,595.9098 807.1383,595.9098 806.8258,596.2192 806.5133,595.9098 806.2008,595.9098 805.8883,596.2192 803.7008,596.2192 803.3883,596.5286 803.0758,596.2192 802.7633,596.5286 799.6383,596.5286 799.3258,596.838 791.8258,596.838"/>
    <polyline points="791.8258,594.0536 792.1383,593.7442 792.1383,593.4348 792.4508,593.7442 793.0758,593.7442 793.3883,594.0536"/>
    <line x1="792.4508" x2="792.1383" y1="593.7442" y2="593.7442"/>
    <polyline points="793.0758,591.2692 793.3883,590.9598 793.7008,590.9598 794.0133,590.6505 794.6383,590.6505 794.9508,590.9598 794.9508,591.5786"/>
    <line x1="794.9508" x2="795.2633" y1="591.2692" y2="590.9598"/>
    <polyline points="794.9508,590.9598 798.0758,590.9598 798.3883,591.2692 799.0133,591.2692 799.9508,592.1973 800.2633,592.1973"/>
    <line x1="799.9508" x2="799.9508" y1="592.1973" y2="592.5067"/>
    <polyline points="798.3883,593.4348 798.0758,593.4348 798.0758,593.1255 798.3883,593.4348 799.0133,593.4348 800.2633,592.1973 800.5758,592.1973 800.8883,591.888 801.2008,592.1973 808.0758,592.1973 808.3883,592.5067 809.3258,592.5067 809.6383,592.1973 811.2008,592.1973 811.5133,592.5067 812.4508,592.5067 812.7633,592.1973 813.0758,592.1973 813.3883,592.5067 815.2633,592.5067 815.5758,592.1973 818.3883,592.1973 818.7008,591.888 820.2633,591.888 820.5758,591.5786 822.7633,591.5786 823.0758,591.2692 824.3258,591.2692 824.6383,590.9598 826.2008,590.9598 826.5133,590.6505 827.4508,590.6505 827.7633,590.3411 828.7008,590.3411 829.0133,590.0317 829.3258,590.0317 829.6383,589.7223 829.9508,590.0317 830.5758,589.413 830.2633,589.1036 830.2633,588.4848 829.6383,588.4848 829.3258,588.1755 829.3258,587.8661 829.0133,587.5567 828.7008,587.5567 828.7008,587.2473 828.3883,586.938 827.7633,586.938 827.4508,586.6286 826.5133,586.6286 826.2008,586.3192 824.6383,586.3192 824.3258,586.0098 823.3883,586.0098 823.0758,586.3192 822.7633,586.0098 822.4508,586.0098 822.1383,585.7005 819.0133,585.7005 818.7008,585.3911 816.5133,585.3911 816.2008,585.0817 813.3883,585.0817 813.0758,584.7723 811.5133,584.7723 811.2008,584.463 810.8883,584.7723 810.2633,584.7723 809.9508,584.463 809.0133,584.463"/>
    <polyline points="808.3883,584.463 807.4508,584.463 807.1383,584.1536 806.8258,584.463 806.5133,584.463 806.2008,584.1536 803.0758,584.1536 802.7633,583.8442 801.5133,583.8442"/>
    <polyline points="798.0758,583.8442 797.7633,583.5348 795.2633,583.5348"/>
    <line x1="790.8883" x2="785.2633" y1="583.2255" y2="583.2255"/>
    <polyline points="782.1383,581.3692 781.5133,581.988 781.8258,582.2973 781.8258,582.9161 781.5133,583.2255 781.2008,582.9161 780.8883,582.9161 780.5758,583.2255 780.2633,583.5348 779.9508,583.8442 779.9508,583.5348 780.2633,583.5348"/>
    <polyline points="779.9508,583.5348 779.3258,582.9161 779.3258,582.2973 779.0133,581.988 778.7008,581.988 778.3883,581.6786 776.8258,581.6786 776.5133,581.988 776.2008,581.6786 775.5758,581.6786 775.2633,581.988 770.2633,581.988 769.9508,581.6786 769.3258,581.6786 769.0133,581.988 768.7008,581.988 768.3883,581.6786 768.0758,581.6786 767.7633,581.988 759.6383,581.988 758.7008,582.9161 758.3883,582.6067 758.3883,582.2973 758.7008,581.988 759.0133,581.988 759.3258,582.2973"/>
    <polyline points="758.3883,582.2973 757.4508,582.2973 757.1383,582.6067 756.8258,582.2973 755.8883,582.2973 755.5758,582.6067 752.4508,582.6067 752.1383,582.9161 751.8258,582.6067 751.2008,582.6067 750.8883,582.9161 746.5133,582.9161 746.2008,583.2255 742.4508,583.2255 742.1383,583.5348 740.5758,583.5348 740.2633,583.8442 737.7633,583.8442 737.4508,584.1536 736.2008,584.1536 735.8883,584.463 733.3883,584.463 733.0758,584.7723 731.8258,584.7723 731.5133,585.0817 730.2633,585.0817 729.9508,585.3911 728.7008,585.3911 728.3883,585.7005 727.4508,585.7005 727.1383,586.0098 726.2008,586.0098 725.8883,586.3192 725.2633,586.3192 724.9508,586.6286 724.0133,586.6286 723.7008,586.938 723.0758,586.938 722.4508,587.5567 722.1383,587.5567 721.8258,587.8661 721.8258,588.1755 721.5133,588.4848 721.5133,589.1036 721.2008,589.413 721.2008,590.0317 721.5133,590.3411 721.2008,590.6505 721.8258,591.2692 721.5133,591.5786 721.5133,593.1255 721.8258,593.4348 721.8258,595.9098 722.1383,596.2192 722.1383,598.3848 722.4508,598.6942 722.4508,600.5505 722.7633,600.8598 722.7633,601.788 723.0758,602.0973 723.3883,602.0973 723.0758,602.4067 723.0758,603.0255 723.3883,603.3348 723.0758,603.6442 723.0758,604.5723 723.3883,604.8817 723.7008,604.8817 723.3883,605.1911 723.3883,605.8098 723.7008,606.1192 723.3883,606.4286 723.3883,606.738 723.7008,607.0473 723.7008,607.3567 724.0133,607.6661 724.0133,608.5942 724.9508,609.5223 724.9508,609.8317 724.3258,610.4505 724.3258,611.3786 724.6383,611.688 724.6383,613.5442 724.9508,613.8536 724.9508,614.7817 725.2633,615.0911 725.2633,616.3286 725.5758,616.638 725.5758,617.8755 725.8883,618.1848 725.8883,619.4223 726.2008,619.7317 726.2008,620.0411 725.8883,620.3505 725.8883,621.2786 726.2008,621.588 726.2008,622.2067 726.5133,622.5161 726.5133,623.4442 726.8258,623.7536 727.1383,623.7536 726.8258,624.063 726.8258,624.3723 727.1383,624.6817 727.4508,624.6817 727.1383,624.9911 727.1383,625.6098 727.4508,625.9192 727.7633,625.9192 727.4508,626.2286 727.7633,626.538 727.7633,626.8473 728.0758,627.1567 728.0758,627.7755 728.3883,628.0848 728.7008,628.0848 728.3883,628.3942 728.3883,628.7036 728.7008,629.013 729.0133,629.013 728.7008,629.3223 728.7008,629.9411 729.3258,630.5598 729.6383,630.5598 729.3258,630.8692 729.3258,631.1786 729.6383,631.488 729.9508,631.488 729.6383,631.7973 729.9508,632.1067 729.9508,632.4161 730.2633,632.7255 730.2633,633.3442 730.5758,633.6536 730.8883,633.6536 730.5758,633.963 730.8883,634.2723 731.2008,634.2723 730.8883,634.5817 730.8883,634.8911 731.5133,635.5098 731.5133,636.1286 731.8258,636.438 731.8258,636.7473 732.1383,637.0567 732.1383,637.3661 732.4508,637.6755 732.4508,637.9848 732.7633,638.2942 732.7633,638.6036 733.3883,639.2223 733.7008,639.2223 733.3883,639.5317 733.7008,639.8411 734.0133,639.8411 734.3258,640.1505 734.0133,640.4598 734.0133,640.7692 734.6383,641.388 734.6383,641.6973 735.8883,642.9348 735.8883,643.5536 736.5133,644.1723 736.5133,644.4817 736.8258,644.7911 736.8258,645.1005 737.4508,645.7192 737.4508,646.0286 738.0758,646.6473 738.0758,646.9567 739.0133,647.8848 739.0133,648.1942 740.5758,649.7411 740.5758,650.0505 741.5133,650.9786 741.5133,651.288 741.8258,651.5973 742.1383,651.5973 742.4508,651.9067 742.4508,652.2161 743.3883,653.1442 743.7008,653.1442 744.0133,653.4536 744.6383,653.4536 744.9508,653.763 744.6383,654.0723 744.6383,654.6911 745.2633,655.3098 745.5758,655.3098 746.2008,655.9286 746.2008,656.238 746.5133,656.5473 747.7633,657.7848 748.0758,657.7848 749.0133,658.713 749.0133,659.0223 749.3258,659.3317 749.3258,660.5692 750.5758,661.8067 751.8258,661.8067 752.4508,662.4255 753.0758,662.4255 753.3883,662.1161 753.7008,662.4255 754.0133,662.4255 754.3258,662.7348 755.5758,662.7348 755.8883,663.0442 756.8258,663.0442 757.1383,663.3536 759.9508,663.3536 760.2633,663.663 761.2008,663.663 761.5133,663.9723 761.8258,663.663 763.0758,663.663 763.3883,663.9723 765.2633,663.9723 765.5758,664.2817 769.6383,664.2817 769.9508,664.5911 780.8883,664.5911 781.2008,664.2817 782.4508,664.2817 782.7633,664.5911 783.0758,664.2817 784.3258,664.2817 784.6383,664.5911 784.9508,664.2817 790.2633,664.2817 790.5758,663.9723 793.0758,663.9723 793.3883,663.663 796.2008,663.663 796.5133,663.3536 798.3883,663.3536 798.7008,663.0442 801.2008,663.0442 801.5133,662.7348 804.6383,662.7348 805.2633,662.1161 806.5133,662.1161 807.1383,661.4973 808.0758,661.4973 808.3883,661.188 808.7008,661.4973 809.0133,661.188 810.5758,661.188 810.8883,661.4973 810.8883,662.7348 810.5758,663.0442 810.2633,662.7348 809.9508,663.0442 810.2633,663.3536 810.5758,663.0442"/>
    <polyline points="810.8883,662.7348 811.2008,662.7348 811.5133,663.0442 813.3883,661.188 813.7008,661.188 814.0133,660.8786 818.7008,660.8786 819.0133,660.5692 819.9508,660.5692"/>
    <polyline points="821.8258,660.5692 822.1383,660.2598 824.6383,660.2598 824.9508,660.5692"/>
    <line x1="825.2633" x2="825.5758" y1="661.188" y2="661.4973"/>
    <polyline points="825.2633,661.4973 824.9508,661.8067 824.6383,661.8067 824.3258,661.4973 824.0133,661.8067 822.4508,661.8067 821.8258,661.188 821.8258,660.5692 821.5133,660.2598 820.2633,660.2598 819.9508,660.5692 821.2008,661.8067 821.8258,661.188"/>
    <polyline points="823.7008,663.9723 824.0133,664.2817 824.0133,664.2817 824.3258,664.5911 824.3258,664.2817 824.3258,664.2817 824.0133,664.5911 824.0133,664.2817 824.3258,664.2817 824.6383,663.9723 824.9508,663.9723"/>
    <polyline points="824.9508,664.5911 824.9508,663.9723 825.5758,663.3536 825.2633,663.0442 824.9508,663.0442 824.6383,663.3536 824.3258,663.3536 824.0133,663.663 824.3258,663.663 824.6383,663.3536"/>
    <polyline points="825.2633,664.5911 824.9508,664.5911 824.6383,664.9005 824.3258,664.5911 824.0133,664.5911 823.7008,664.9005 823.3883,664.9005 823.0758,664.5911 823.0758,664.2817 823.3883,663.9723 823.7008,663.9723 824.0133,663.663 823.7008,663.3536 824.0133,663.0442 824.3258,663.3536 824.3258,663.663 825.2633,664.5911 825.8883,664.5911 826.2008,664.2817 826.8258,664.2817 827.1383,663.9723 828.0758,663.9723 828.3883,663.663 828.7008,663.663 829.0133,663.3536 829.3258,663.663 829.9508,663.663 829.9508,663.9723 830.2633,663.9723 830.5758,663.663 830.2633,663.3536 829.9508,663.663 830.2633,663.9723"/>
    <polyline points="830.5758,663.663 830.8883,663.3536 831.2008,663.3536 831.5133,663.0442 831.8258,663.0442 832.1383,663.3536"/>
    <polyline points="832.1383,663.663 831.8258,663.9723 831.5133,663.9723 830.8883,663.3536"/>
    <line x1="831.2008" x2="831.2008" y1="663.3536" y2="663.663"/>
    <polyline points="832.4508,663.3536 832.1383,663.3536 832.1383,663.663 832.4508,663.3536 833.0758,663.3536 833.3883,663.0442 833.3883,662.7348 834.0133,663.3536 834.3258,663.0442 835.5758,663.0442 835.8883,662.7348 835.8883,662.4255 836.8258,661.4973 836.8258,661.188 837.1383,660.8786 836.8258,660.5692 836.2008,660.5692 835.8883,660.2598 835.8883,659.9505 835.5758,659.9505"/>
    <line x1="835.8883" x2="836.2008" y1="660.5692" y2="660.5692"/>
    <polyline points="837.1383,660.8786 837.4508,660.5692 838.0758,660.5692 838.3883,660.8786 839.0133,660.8786 839.3258,660.5692 841.5133,660.5692 841.8258,660.8786 841.8258,661.188 842.1383,661.4973 841.8258,661.8067 841.8258,662.1161 842.1383,662.4255 841.8258,662.4255 841.5133,662.7348 841.2008,662.4255 840.8883,662.7348 840.5758,662.4255 838.7008,662.4255 838.3883,662.7348 838.0758,662.7348 837.7633,663.0442 836.5133,663.0442 835.8883,662.4255"/>
    <line x1="835.8883" x2="836.2008" y1="662.7348" y2="662.7348"/>
    <polyline points="834.9508,660.8786 835.5758,660.8786 835.8883,660.5692 835.8883,660.2598 835.5758,659.9505 835.2633,659.9505 834.6383,660.5692 834.9508,660.8786 834.6383,660.8786 834.6383,660.8786 834.6383,660.5692 834.6383,660.2598 834.9508,660.2598"/>
    <polyline points="834.6383,660.8786 834.3258,661.188 834.0133,660.8786 833.0758,660.8786 832.7633,661.188 832.1383,661.188 831.8258,660.8786 830.8883,660.8786 830.5758,661.188 830.2633,661.188 829.9508,660.8786 829.6383,661.188 829.0133,661.188 828.7008,660.8786 828.3883,660.8786 828.0758,661.188 828.0758,660.8786 827.7633,660.5692 828.0758,660.2598 827.7633,659.9505 827.1383,659.9505 826.8258,660.2598 825.2633,660.2598 824.9508,660.5692 824.9508,660.8786 825.2633,661.188 825.2633,661.4973 825.5758,661.4973 825.8883,661.8067 826.2008,661.4973 826.8258,661.4973 827.1383,661.188 827.4508,661.188 827.7633,661.4973 828.0758,661.188"/>
    <line x1="828.0758" x2="828.3883" y1="660.8786" y2="660.8786"/>
    <polyline points="828.0758,660.2598 828.7008,659.6411 829.0133,659.9505 829.9508,659.9505 830.2633,660.2598 830.5758,660.2598 830.8883,660.5692 830.8883,660.8786"/>
    <line x1="830.8883" x2="831.2008" y1="660.5692" y2="660.8786"/>
    <polyline points="831.5133,660.8786 831.8258,660.5692 831.8258,660.8786"/>
    <polyline points="830.2633,660.2598 829.9508,660.5692 829.9508,660.8786"/>
    <polyline points="827.7633,660.5692 827.4508,660.8786 827.4508,661.188"/>
    <polyline points="827.1383,661.188 827.4508,660.8786 826.8258,660.2598"/>
    <polyline points="829.3258,663.663 829.3258,663.9723 829.6383,664.2817 829.9508,663.9723 829.6383,663.663 829.3258,663.9723"/>
    <line x1="833.3883" x2="833.7008" y1="663.0442" y2="663.0442"/>
    <polyline points="841.2008,662.4255 841.2008,662.1161 841.5133,661.8067 841.8258,661.8067"/>
    <polyline points="841.5133,661.8067 841.8258,662.1161 841.8258,662.4255"/>
    <polyline points="842.1383,662.4255 842.7633,662.4255 843.0758,662.1161 843.3883,662.4255 844.0133,662.4255 844.3258,662.1161 844.3258,661.8067"/>
    <line x1="844.3258" x2="844.6383" y1="662.1161" y2="662.1161"/>
    <polyline points="843.3883,660.8786 843.3883,660.5692 843.0758,660.8786 843.3883,660.8786 844.6383,662.1161 847.1383,662.1161 847.4508,662.4255 847.7633,662.1161 849.0133,662.1161 849.3258,662.4255 849.9508,662.4255 850.2633,662.1161 853.3883,662.1161 853.7008,661.8067 854.6383,661.8067"/>
    <polyline points="850.5758,658.4036 850.2633,658.0942 846.8258,658.0942 846.5133,657.7848 845.8883,657.7848 845.5758,658.0942 845.2633,657.7848 843.3883,657.7848"/>
    <polyline points="842.4508,657.4755 840.2633,657.4755 839.9508,657.1661 838.7008,657.1661"/>
    <polyline points="841.8258,660.8786 842.1383,660.5692 842.4508,660.8786 842.4508,661.188 842.1383,661.4973"/>
    <line x1="842.4508" x2="842.7633" y1="661.188" y2="661.188"/>
    <polygon points="842.4508,660.8786 842.7633,660.5692 843.0758,660.8786 842.7633,661.188"/>
    <polyline points="829.3258,656.238 829.0133,656.5473 828.3883,656.5473 828.0758,656.238 824.0133,656.238 823.7008,656.5473 823.3883,656.238 821.2008,656.238 820.8883,656.5473 820.5758,656.238 816.8258,656.238 816.5133,655.9286 816.2008,655.9286 815.8883,656.238 813.0758,656.238"/>
    <polyline points="811.8258,655.0005 811.5133,654.6911 811.5133,654.0723 812.1383,653.4536 812.4508,653.4536 812.7633,653.763 812.7633,652.8348 813.3883,652.2161 814.0133,652.2161"/>
    <line x1="814.0133" x2="813.7008" y1="652.5255" y2="652.2161"/>
    <polygon points="812.7633,653.1442 812.4508,653.4536 813.0758,653.4536"/>
    <polyline points="810.8883,651.288 811.2008,650.9786 811.2008,650.3598 810.8883,650.0505 810.5758,650.3598"/>
    <line x1="810.5758" x2="810.2633" y1="650.6692" y2="650.3598"/>
    <line x1="809.9508" x2="809.6383" y1="650.0505" y2="650.0505"/>
    <polyline points="809.9508,649.7411 809.3258,650.3598 809.3258,650.6692 809.0133,650.9786 809.0133,651.288 808.0758,652.2161 808.0758,652.5255 806.5133,654.0723 806.5133,654.3817 805.8883,655.0005 805.8883,655.3098 805.5758,655.6192 805.5758,655.9286 805.2633,656.238 804.9508,656.238 803.0758,658.0942 803.0758,658.4036 802.7633,658.713 802.4508,658.713"/>
    <polyline points="800.5758,660.8786 799.9508,660.8786 799.6383,661.188 797.4508,661.188"/>
    <polyline points="796.5133,665.8286 799.6383,665.8286 799.9508,665.5192 800.2633,665.8286 808.7008,665.8286 809.0133,665.5192 809.3258,665.8286 809.6383,665.8286 809.9508,665.5192 810.5758,666.138 810.8883,666.138 811.2008,665.8286 815.8883,665.8286 816.2008,665.5192 818.3883,665.5192 819.0133,664.9005 819.0133,664.5911 818.7008,664.2817 817.4508,664.2817 817.1383,663.9723 816.8258,664.2817 815.8883,664.2817 815.5758,664.5911 814.9508,664.5911 814.6383,664.9005 814.3258,664.5911 814.0133,664.5911 814.0133,664.2817 813.7008,663.9723 813.3883,663.9723 812.7633,664.5911 813.0758,664.9005 813.7008,664.9005 814.0133,664.5911 814.0133,664.5911 814.3258,664.2817 814.3258,664.5911 814.3258,664.5911 814.0133,664.2817 814.3258,664.2817"/>
    <polyline points="812.7633,664.5911 811.5133,664.5911 811.2008,664.9005 810.8883,664.5911 810.2633,664.5911"/>
    <polyline points="809.6383,665.2098 809.3258,665.2098 809.0133,665.5192"/>
    <polyline points="809.9508,665.5192 809.6383,665.2098 810.2633,664.5911 809.6383,663.9723 809.3258,664.2817 807.4508,664.2817 807.1383,664.5911 804.0133,664.5911"/>
    <polyline points="805.2633,662.1161 805.2633,661.8067 805.5758,662.1161"/>
    <polyline points="808.3883,661.188 808.3883,660.5692 808.7008,660.2598 808.7008,659.3317 809.0133,659.0223 809.0133,658.4036 809.3258,658.0942 809.3258,657.7848 810.8883,656.238 810.8883,655.9286 811.8258,655.0005 812.4508,655.0005 812.7633,654.6911 812.7633,653.763 813.0758,653.4536 813.7008,653.4536 814.0133,653.1442 814.0133,652.2161 814.9508,651.288 815.2633,651.288 817.1383,649.4317 817.4508,649.4317 817.7633,649.1223"/>
    <polyline points="817.7633,648.813 817.7633,649.1223 818.0758,649.1223"/>
    <polyline points="818.3883,647.8848 819.3258,646.9567 819.6383,646.9567 819.9508,646.6473 820.2633,646.338 820.2633,646.0286 820.5758,645.7192 820.8883,645.7192"/>
    <line x1="821.2008" x2="821.5133" y1="645.4098" y2="645.4098"/>
    <polyline points="821.2008,645.1005 822.1383,646.0286 822.7633,646.0286"/>
    <polyline points="823.0758,646.338 823.3883,646.338 824.0133,646.9567"/>
    <line x1="824.3258" x2="823.3883" y1="646.338" y2="645.4098"/>
    <line x1="823.7008" x2="824.0133" y1="645.7192" y2="645.4098"/>
    <polyline points="824.3258,645.4098 824.3258,644.7911 822.4508,642.9348"/>
    <polyline points="822.1383,643.2442 822.1383,643.5536 823.0758,644.4817 823.0758,644.7911 823.3883,645.1005 823.3883,645.4098 822.7633,646.0286 823.0758,646.338 823.0758,646.9567 823.3883,647.2661"/>
    <line x1="823.0758" x2="823.3883" y1="646.6473" y2="646.338"/>
    <polyline points="824.6383,646.6473 824.9508,646.6473 825.2633,646.338 825.5758,646.338 825.8883,646.0286 825.8883,645.7192 826.2008,645.4098 826.2008,645.1005 826.5133,644.7911 826.8258,644.7911 827.1383,645.1005 827.7633,645.1005 828.3883,644.4817 828.7008,644.4817 829.0133,644.1723 829.3258,644.1723 830.2633,643.2442 830.2633,642.9348 830.5758,642.6255 830.8883,642.9348 831.5133,642.9348 832.1383,642.3161 832.7633,642.3161 833.3883,641.6973 833.7008,641.6973 834.3258,641.0786 834.6383,641.0786 834.9508,640.7692 835.2633,640.7692 835.8883,640.1505 836.2008,640.1505 836.5133,639.8411 836.2008,639.5317 836.2008,639.2223 836.5133,638.913 836.2008,638.6036 836.5133,638.2942 836.8258,638.2942 837.1383,637.9848 836.5133,637.3661 837.4508,636.438 837.7633,636.438 838.0758,636.1286 838.3883,636.1286 839.0133,635.5098 839.6383,635.5098 839.9508,635.2005 840.2633,635.2005 840.5758,635.5098"/>
    <polyline points="840.2633,636.1286 839.9508,636.1286 839.6383,636.438 839.3258,636.438"/>
    <polyline points="839.3258,636.7473 839.3258,636.438 839.0133,636.1286"/>
    <polyline points="838.7008,635.8192 839.0133,636.1286 838.7008,636.438 838.7008,637.0567"/>
    <line x1="838.7008" x2="839.0133" y1="636.7473" y2="637.0567"/>
    <line x1="838.7008" x2="838.3883" y1="636.438" y2="636.1286"/>
    <polyline points="839.3258,635.5098 839.9508,636.1286 839.9508,636.438 839.6383,636.438 839.3258,636.7473 839.6383,637.0567 839.3258,637.0567 839.3258,637.3661 839.0133,637.0567 839.3258,637.0567 839.3258,636.7473 839.0133,637.0567 838.7008,637.0567 838.3883,637.3661 838.0758,637.3661 837.7633,637.6755 838.7008,638.6036 838.3883,638.913 838.0758,638.913 837.7633,639.2223 837.4508,639.2223 836.8258,639.8411 836.5133,639.8411"/>
    <polyline points="835.8883,640.1505 835.2633,639.5317 834.9508,639.5317 834.9508,639.2223 835.2633,639.5317 834.9508,639.8411 834.9508,640.1505 834.6383,640.4598 834.9508,640.7692"/>
    <line x1="834.6383" x2="834.0133" y1="640.4598" y2="639.8411"/>
    <polyline points="833.3883,640.1505 833.0758,640.1505 832.4508,640.7692 833.3883,641.6973"/>
    <polyline points="834.3258,641.0786 833.3883,640.1505 833.7008,639.8411 834.0133,639.8411 834.3258,639.5317 834.6383,639.5317 835.2633,638.913 835.8883,638.913 836.2008,638.6036 836.2008,638.913 836.2008,639.2223 836.2008,639.2223 835.8883,638.913 836.2008,638.913 836.5133,638.913 836.5133,638.913 837.1383,639.5317"/>
    <line x1="837.4508" x2="837.4508" y1="639.2223" y2="638.913"/>
    <line x1="837.7633" x2="836.8258" y1="639.2223" y2="638.2942"/>
    <polyline points="837.1383,637.9848 837.4508,637.6755 837.7633,637.6755"/>
    <polyline points="838.3883,637.3661 839.0133,637.9848 839.0133,638.2942 838.7008,638.6036"/>
    <line x1="839.0133" x2="839.3258" y1="637.9848" y2="637.6755"/>
    <polyline points="840.2633,637.6755 839.9508,637.9848 839.6383,637.9848 839.3258,637.6755 839.3258,637.3661 839.6383,637.0567 840.2633,637.6755 840.5758,637.6755 841.2008,637.0567 841.5133,637.0567 842.1383,636.438 842.4508,636.438 843.0758,635.8192 843.0758,635.5098 843.3883,635.8192 843.7008,635.5098 844.0133,635.5098 844.3258,635.2005 844.6383,635.5098 844.9508,635.2005 845.2633,635.2005 845.8883,634.5817 846.2008,634.5817 844.6383,633.0348 845.2633,632.4161 845.5758,632.4161 845.8883,632.1067 846.2008,632.1067 847.1383,631.1786 847.4508,631.1786 848.3883,630.2505 848.7008,630.2505"/>
    <line x1="849.0133" x2="849.0133" y1="630.8692" y2="631.1786"/>
    <line x1="848.7008" x2="848.3883" y1="631.1786" y2="631.488"/>
    <polyline points="847.7633,630.8692 849.3258,632.4161 849.0133,632.4161 848.3883,633.0348 848.3883,633.3442 848.0758,633.6536 847.7633,633.6536 847.1383,634.2723 846.5133,634.2723 846.2008,634.5817"/>
    <line x1="845.8883" x2="845.8883" y1="634.5817" y2="634.2723"/>
    <line x1="846.5133" x2="846.5133" y1="634.2723" y2="633.963"/>
    <polyline points="846.8258,634.2723 846.5133,633.963 847.1383,633.3442 847.4508,633.3442 847.7633,633.0348"/>
    <line x1="847.4508" x2="847.7633" y1="633.3442" y2="633.6536"/>
    <polyline points="848.3883,633.0348 848.0758,632.7255 847.7633,633.0348 846.5133,631.7973"/>
    <polyline points="844.6383,633.0348 844.3258,633.0348 843.7008,633.6536 845.2633,635.2005"/>
    <line x1="844.9508" x2="844.9508" y1="635.2005" y2="634.8911"/>
    <line x1="844.3258" x2="843.0758" y1="635.2005" y2="633.963"/>
    <polyline points="843.7008,633.6536 843.3883,633.6536 843.0758,633.963 842.7633,633.963 842.1383,634.5817 843.0758,635.5098"/>
    <line x1="843.0758" x2="843.3883" y1="635.8192" y2="635.8192"/>
    <polyline points="842.1383,634.5817 841.8258,634.5817 841.5133,634.8911 841.2008,634.8911 840.5758,635.5098 840.5758,635.8192 839.9508,636.438 840.8883,637.3661"/>
    <line x1="839.6383" x2="839.6383" y1="635.8192" y2="635.5098"/>
    <polyline points="839.6383,633.0348 840.5758,632.1067 841.2008,632.1067 841.8258,631.488 842.1383,631.488 842.7633,630.8692 843.0758,630.8692 843.7008,630.2505 844.0133,630.2505 844.3258,629.9411 844.6383,629.9411 845.5758,629.013 845.8883,629.013 846.2008,628.7036 846.5133,628.7036 847.1383,628.0848 847.4508,628.0848 848.0758,627.4661 848.3883,627.4661 849.0133,626.8473 849.3258,626.8473 850.5758,625.6098 850.8883,625.6098 851.8258,624.6817"/>
    <polyline points="853.3883,625.6098 852.7633,626.2286 853.3883,626.8473"/>
    <line x1="853.0758" x2="853.0758" y1="626.8473" y2="626.538"/>
    <polyline points="852.7633,627.1567 853.0758,627.4661 853.0758,627.7755 852.7633,628.0848"/>
    <polyline points="852.4508,628.3942 852.1383,628.0848 852.4508,627.7755"/>
    <polyline points="852.1383,628.0848 851.8258,628.3942 852.1383,628.7036 852.1383,629.013"/>
    <polyline points="851.8258,629.013 851.5133,629.3223 851.2008,629.3223 850.5758,629.9411"/>
    <line x1="850.2633" x2="849.6383" y1="630.2505" y2="629.6317"/>
    <polygon points="850.2633,629.013 850.5758,629.013 850.5758,629.3223 850.5758,629.3223"/>
    <line x1="850.8883" x2="851.2008" y1="629.6317" y2="629.6317"/>
    <polyline points="851.5133,629.9411 851.2008,629.6317 851.5133,629.3223 851.8258,629.6317 851.5133,629.9411 851.2008,630.2505 851.2008,630.2505 851.5133,630.2505 851.5133,629.9411 851.8258,630.2505 851.5133,630.2505 851.5133,630.5598 850.8883,629.9411 851.2008,629.6317 851.2008,629.3223 850.8883,629.013 850.5758,629.013 850.5758,628.7036 851.2008,628.0848 851.5133,628.0848 851.8258,628.3942"/>
    <line x1="852.7633" x2="853.0758" y1="629.6317" y2="629.6317"/>
    <polyline points="852.7633,629.9411 852.7633,629.6317 852.4508,629.3223 852.1383,629.013 851.8258,629.013 852.7633,628.0848 852.1383,627.4661 852.4508,627.1567 852.7633,627.1567 853.0758,626.8473 853.7008,626.8473 855.8883,624.6817 855.8883,624.3723 856.2008,624.063 856.5133,624.3723 858.3883,622.5161 858.0758,622.5161 857.4508,621.8973 858.3883,620.9692 858.3883,620.6598 859.6383,619.4223 859.6383,619.113 860.5758,618.1848"/>
    <line x1="860.8883" x2="860.8883" y1="618.1848" y2="617.8755"/>
    <line x1="861.2008" x2="861.5133" y1="617.5661" y2="617.5661"/>
    <polyline points="861.5133,617.2567 861.5133,617.5661 861.8258,617.8755 862.1383,617.8755 862.7633,618.4942 862.4508,618.8036 862.4508,618.8036 862.7633,618.8036 863.0758,618.8036 862.7633,618.4942 862.7633,618.4942 862.7633,618.8036 862.7633,619.113 862.4508,618.8036 862.1383,618.4942 861.8258,618.8036"/>
    <line x1="861.5133" x2="861.5133" y1="618.8036" y2="619.113"/>
    <polyline points="861.5133,619.4223 859.9508,620.9692 859.9508,621.2786 859.3258,621.8973 858.7008,622.5161 858.3883,622.5161"/>
    <line x1="858.0758" x2="858.0758" y1="622.5161" y2="622.8255"/>
    <polyline points="857.7633,623.1348 857.1383,622.5161 857.1383,622.2067"/>
    <line x1="857.1383" x2="856.8258" y1="622.5161" y2="622.5161"/>
    <polyline points="857.4508,621.8973 855.8883,623.4442 855.8883,623.7536 856.2008,624.063"/>
    <polyline points="855.8883,623.7536 855.5758,624.063 855.8883,624.3723"/>
    <polyline points="855.5758,624.063 855.2633,624.063 854.6383,624.6817 855.2633,625.3005"/>
    <polyline points="854.6383,624.6817 854.3258,624.6817 853.3883,625.6098 854.0133,626.2286 854.0133,626.538"/>
    <line x1="854.0133" x2="854.3258" y1="626.2286" y2="626.2286"/>
    <polyline points="854.6383,625.9192 854.0133,625.3005 854.0133,624.9911"/>
    <line x1="854.0133" x2="853.7008" y1="625.3005" y2="625.3005"/>
    <line x1="852.7633" x2="852.4508" y1="620.3505" y2="620.0411"/>
    <polyline points="852.4508,620.3505 852.4508,619.7317 852.7633,619.4223 853.0758,619.113 853.7008,619.113"/>
    <line x1="853.7008" x2="853.3883" y1="619.4223" y2="619.113"/>
    <line x1="860.2633" x2="860.5758" y1="620.6598" y2="620.6598"/>
    <polyline points="860.5758,620.3505 860.5758,620.6598 861.2008,621.2786 861.5133,621.2786"/>
    <line x1="861.2008" x2="861.2008" y1="621.2786" y2="621.588"/>
    <line x1="862.1383" x2="862.1383" y1="620.3505" y2="620.0411"/>
    <polyline points="862.4508,620.0411 862.1383,620.0411 861.5133,619.4223 861.5133,619.113 861.8258,618.8036 861.5133,618.8036 860.8883,618.1848 860.5758,618.1848 861.5133,617.2567 861.5133,616.638 861.8258,616.3286 861.8258,616.0192 863.0758,614.7817"/>
    <line x1="863.0758" x2="863.3883" y1="614.4723" y2="614.7817"/>
    <polyline points="863.7008,615.0911 864.3258,614.4723 864.6383,614.4723"/>
    <line x1="863.7008" x2="863.3883" y1="615.7098" y2="616.0192"/>
    <line x1="862.7633" x2="862.4508" y1="615.4005" y2="615.4005"/>
    <polyline points="862.7633,615.0911 862.7633,615.4005 863.3883,616.0192 863.0758,616.3286 863.0758,616.9473 862.7633,617.2567 862.7633,617.5661 863.3883,618.1848"/>
    <line x1="863.7008" x2="863.7008" y1="617.8755" y2="617.5661"/>
    <polyline points="864.0133,617.5661 863.7008,617.5661 863.0758,616.9473"/>
    <line x1="862.7633" x2="862.1383" y1="617.2567" y2="617.8755"/>
    <line x1="862.4508" x2="862.7633" y1="617.5661" y2="617.5661"/>
    <line x1="862.4508" x2="862.1383" y1="618.1848" y2="618.4942"/>
    <polyline points="864.3258,616.3286 863.7008,615.7098 863.7008,615.0911 863.3883,614.7817 863.0758,614.7817 863.0758,613.2348 863.3883,612.9255 863.3883,612.6161 863.7008,612.3067 863.7008,610.1411 864.0133,609.8317"/>
    <polyline points="865.2633,606.1192 866.2008,605.1911 866.2008,604.8817 865.8883,604.5723 865.2633,605.1911"/>
    <line x1="864.9508" x2="864.9508" y1="605.1911" y2="605.5005"/>
    <line x1="865.2633" x2="865.5758" y1="605.8098" y2="605.8098"/>
    <line x1="864.6383" x2="864.6383" y1="604.8817" y2="604.5723"/>
    <polyline points="864.9508,604.263 865.5758,603.6442 865.5758,603.0255 865.2633,602.7161"/>
    <polyline points="864.6383,603.3348 865.2633,602.7161 865.2633,602.4067 864.9508,602.0973 864.6383,602.0973 864.3258,602.4067"/>
    <polyline points="864.3258,603.0255 863.7008,603.6442 863.7008,604.263 864.3258,604.8817"/>
    <polyline points="861.8258,605.5005 861.5133,605.8098 861.5133,607.0473 861.8258,607.3567 862.1383,607.3567 862.4508,607.0473 862.4508,606.1192 861.8258,605.5005 861.5133,605.5005 860.8883,604.8817 860.8883,603.3348 860.5758,603.0255 860.5758,602.7161 859.6383,601.788"/>
    <polyline points="858.7008,601.1692 858.3883,601.1692 858.3883,600.8598"/>
    <line x1="858.3883" x2="857.4508" y1="601.1692" y2="602.0973"/>
    <line x1="857.1383" x2="857.1383" y1="602.0973" y2="602.4067"/>
    <polyline points="858.0758,603.3348 859.6383,601.788 859.0133,601.1692 858.7008,601.1692 858.0758,600.5505 857.7633,600.5505 857.1383,599.9317"/>
    <polyline points="856.5133,600.5505 857.1383,599.9317 857.1383,599.313 856.5133,598.6942 856.2008,598.6942 855.8883,598.3848 855.5758,598.3848 855.2633,598.0755 854.9508,598.3848"/>
    <line x1="854.3258" x2="854.3258" y1="599.0036" y2="599.313"/>
    <polyline points="854.0133,599.313 854.9508,598.3848 854.3258,597.7661 854.0133,598.0755"/>
    <polyline points="853.3883,598.6942 854.0133,598.0755 853.7008,597.7661 853.0758,597.7661 852.7633,597.4567 852.1383,597.4567 851.5133,598.0755"/>
    <polyline points="849.9508,597.7661 849.3258,597.1473 848.7008,597.1473 848.0758,597.7661"/>
    <polyline points="847.7633,597.7661 848.0758,597.7661 848.0758,598.0755 848.7008,598.6942 849.0133,598.6942 849.9508,597.7661 850.2633,598.0755 851.5133,598.0755 852.1383,598.6942 852.7633,598.6942 853.0758,599.0036 853.3883,598.6942 854.0133,599.313 854.3258,599.313 854.6383,599.6223 855.2633,599.6223 855.8883,600.2411 856.2008,600.2411 856.5133,600.5505 856.5133,601.1692 856.8258,601.4786 856.8258,601.788 857.1383,602.0973 857.4508,602.0973 857.1383,602.4067 858.0758,603.3348 858.0758,603.6442 858.3883,603.9536 858.3883,604.5723 858.7008,604.8817 858.7008,605.5005 859.0133,605.8098 859.0133,609.5223 858.7008,609.8317 858.7008,611.688 859.0133,611.688 859.3258,611.9973 859.3258,612.3067 858.7008,612.9255 858.3883,612.6161 858.0758,612.9255 858.0758,613.2348 857.7633,613.5442 857.7633,613.8536 857.4508,614.163 857.4508,614.4723 856.8258,615.0911 856.8258,615.4005 855.8883,616.3286 855.8883,616.638 855.2633,617.2567 855.2633,617.5661 854.9508,617.8755 854.6383,617.8755 854.3258,618.1848 854.3258,618.4942 853.7008,619.113 853.7008,619.4223 853.3883,619.7317 853.3883,620.0411 853.0758,620.3505 852.4508,620.3505 852.1383,620.6598 851.8258,620.6598 849.9508,622.5161 849.6383,622.5161 848.7008,623.4442 848.3883,623.4442 847.4508,624.3723 847.1383,624.3723 846.8258,624.6817 846.5133,624.6817 845.5758,625.6098 845.2633,625.6098 844.6383,626.2286 844.3258,626.2286 843.7008,626.8473 843.3883,626.8473 842.7633,627.4661 842.4508,627.4661 841.8258,628.0848 841.2008,628.0848 840.5758,628.7036 839.9508,628.7036 839.0133,629.6317 838.0758,629.6317 837.4508,630.2505 837.1383,630.2505 836.8258,630.5598 837.4508,631.1786 837.7633,630.8692 837.7633,630.5598 837.4508,630.2505"/>
    <polyline points="837.7633,629.9411 837.7633,629.6317 838.0758,629.6317"/>
    <polyline points="837.1383,630.8692 837.1383,631.1786 836.8258,631.488"/>
    <polyline points="836.5133,631.7973 836.2008,631.488 836.5133,631.1786 836.8258,631.488 836.5133,631.7973 836.2008,631.7973 836.2008,631.488 836.2008,631.1786 836.2008,631.1786 836.2008,630.8692 836.2008,630.8692 836.5133,630.5598 836.8258,630.5598"/>
    <line x1="837.1383" x2="837.4508" y1="631.1786" y2="631.1786"/>
    <polyline points="836.2008,631.488 835.8883,631.1786 835.2633,631.1786 834.9508,631.488 835.5758,632.1067 835.8883,632.1067 836.2008,631.7973"/>
    <polygon points="835.8883,631.1786 836.5133,631.1786 836.2008,630.8692"/>
    <polyline points="834.9508,631.488 834.6383,631.488 834.0133,632.1067 834.3258,632.4161 834.3258,632.7255 833.7008,633.3442 833.3883,633.3442 833.0758,633.6536 832.7633,633.6536 832.1383,634.2723 831.8258,634.2723 831.8258,633.963 832.1383,634.2723"/>
    <polyline points="831.8258,634.2723 831.5133,634.5817 831.2008,634.5817 830.8883,634.2723 830.5758,633.963 830.8883,633.6536 830.8883,633.3442"/>
    <line x1="831.2008" x2="831.5133" y1="633.0348" y2="633.3442"/>
    <polyline points="831.8258,633.0348 832.1383,633.0348 832.4508,633.3442"/>
    <line x1="832.4508" x2="832.7633" y1="633.0348" y2="632.7255"/>
    <polyline points="833.3883,632.4161 833.7008,632.1067 834.0133,632.1067"/>
    <polyline points="834.0133,633.0348 833.0758,632.1067 832.7633,632.4161 832.7633,632.7255 833.3883,633.3442"/>
    <polyline points="832.7633,633.6536 832.4508,633.3442 832.4508,633.0348 832.1383,633.0348 831.5133,632.4161 831.2008,632.7255 831.2008,633.0348 830.8883,633.3442 830.5758,633.0348 829.9508,633.6536 829.9508,633.963 829.6383,634.2723 829.6383,634.5817 829.3258,634.8911 828.7008,634.8911 828.0758,635.5098 827.7633,635.5098 827.4508,635.2005 827.4508,635.5098 827.7633,635.5098"/>
    <polyline points="827.4508,635.5098 827.1383,635.8192 826.5133,635.8192 826.2008,636.1286 825.8883,636.1286"/>
    <polyline points="825.5758,636.438 826.2008,637.0567 826.2008,637.6755 825.8883,637.9848 825.5758,637.9848 825.2633,638.2942"/>
    <polyline points="824.9508,637.9848 824.6383,637.9848 824.9508,637.6755"/>
    <polyline points="824.6383,637.9848 824.3258,638.2942 824.3258,638.913 824.0133,639.2223 824.6383,639.8411 825.2633,639.8411 825.2633,640.4598 825.5758,640.7692"/>
    <line x1="825.2633" x2="824.9508" y1="640.1505" y2="639.8411"/>
    <line x1="825.2633" x2="825.8883" y1="639.8411" y2="639.2223"/>
    <polyline points="825.8883,638.913 826.2008,639.2223 826.8258,638.6036 826.8258,638.2942 828.0758,637.0567 828.0758,637.3661 827.7633,637.3661"/>
    <polyline points="826.8258,637.9848 827.1383,637.9848 828.0758,638.913"/>
    <polyline points="828.3883,638.913 828.0758,638.913 828.0758,639.2223 828.3883,638.913 829.0133,638.913 829.3258,638.6036 829.6383,638.6036 829.9508,638.2942 830.2633,638.2942 830.5758,637.9848 830.8883,637.9848 831.8258,637.0567 832.1383,637.0567 832.4508,636.7473 832.7633,636.7473 833.3883,636.1286 833.7008,636.1286"/>
    <polyline points="831.8258,633.963 831.5133,633.6536 831.5133,633.3442 831.8258,633.0348 831.8258,632.7255"/>
    <polyline points="830.5758,633.963 830.2633,634.2723 829.9508,633.963"/>
    <polyline points="829.6383,634.2723 829.3258,633.963 829.0133,633.963 828.3883,634.5817 828.7008,634.8911"/>
    <polyline points="828.3883,634.5817 828.0758,634.5817 827.4508,635.2005"/>
    <polyline points="826.8258,633.3442 826.5133,633.0348 826.8258,632.7255"/>
    <polyline points="826.8258,632.4161 826.8258,632.7255 827.1383,632.7255"/>
    <line x1="826.5133" x2="826.5133" y1="633.0348" y2="633.3442"/>
    <polyline points="824.9508,632.4161 824.9508,633.0348 824.6383,633.3442 824.6383,633.6536 824.0133,634.2723 824.0133,634.8911 823.7008,635.2005 823.7008,635.5098 823.3883,635.8192 823.3883,636.1286 823.0758,636.438 823.0758,636.7473 822.7633,637.0567 822.7633,637.3661 822.1383,637.9848 822.1383,638.2942 821.8258,638.6036 821.8258,638.913 821.5133,639.2223 821.5133,639.5317 820.8883,640.1505 820.8883,640.4598 820.2633,641.0786 820.2633,641.388 819.9508,641.6973 819.9508,642.0067 819.3258,642.6255 819.3258,642.9348 819.0133,643.2442 819.0133,643.5536 818.7008,643.863 818.7008,644.1723 818.0758,644.7911 818.0758,645.1005 816.8258,646.338 816.8258,646.6473 816.2008,647.2661 816.2008,647.5755 813.0758,650.6692 813.0758,650.9786 812.4508,651.5973 812.1383,651.5973 811.8258,651.9067 811.8258,652.2161 811.5133,652.5255 811.2008,652.5255 808.7008,655.0005 808.7008,655.3098 809.0133,655.6192 809.0133,655.9286 808.0758,656.8567 807.7633,656.5473 807.7633,656.8567 808.0758,656.8567"/>
    <polyline points="807.7633,656.5473 807.4508,656.238 807.1383,656.238 807.1383,655.9286 806.8258,655.6192 807.4508,655.0005 807.4508,654.6911 807.7633,654.3817 808.0758,654.3817 809.0133,653.4536 809.0133,653.1442 810.2633,651.9067 810.2633,651.5973 810.5758,651.288 810.8883,651.288 810.5758,650.9786 810.5758,650.3598 810.2633,650.3598 809.9508,650.0505 809.9508,649.7411 810.2633,649.4317 810.2633,649.1223 810.8883,648.5036 810.8883,647.8848 811.5133,647.2661 811.5133,646.9567 811.8258,646.6473 811.8258,646.338 812.1383,646.0286 812.1383,645.7192 812.7633,645.1005 812.7633,644.7911 813.0758,644.4817 813.0758,644.1723 813.3883,643.863 813.3883,643.5536 813.7008,643.2442 813.7008,642.9348 814.0133,642.6255 814.0133,642.3161 814.3258,642.0067 814.3258,641.0786"/>
    <polyline points="816.2008,637.3661 816.8258,636.7473 816.8258,636.1286 817.1383,635.8192 817.1383,635.5098 817.7633,634.8911 817.7633,634.5817 818.0758,634.2723"/>
    <polyline points="824.0133,639.2223 824.0133,639.5317 824.3258,639.5317"/>
    <polyline points="824.0133,639.5317 823.3883,640.1505 823.7008,640.1505 824.3258,640.7692 824.3258,641.0786 824.6383,641.388 824.6383,641.6973"/>
    <line x1="824.6383" x2="824.9508" y1="641.388" y2="641.388"/>
    <line x1="823.7008" x2="823.7008" y1="640.1505" y2="639.8411"/>
    <polyline points="823.3883,640.1505 823.0758,640.4598 823.0758,641.0786 822.7633,641.388 822.7633,641.6973 822.7633,642.0067 822.7633,642.3161 822.7633,642.6255 823.0758,642.6255 822.7633,642.3161"/>
    <polyline points="822.7633,642.6255 821.5133,643.863 821.5133,644.4817 821.2008,644.7911 821.2008,645.4098 820.8883,645.7192 822.7633,647.5755"/>
    <polyline points="821.8258,648.1942 821.2008,647.5755 821.2008,647.2661 820.2633,646.338"/>
    <polyline points="819.6383,646.9567 820.5758,647.8848 820.5758,648.1942 820.8883,648.5036"/>
    <line x1="821.5133" x2="821.5133" y1="648.1942" y2="647.8848"/>
    <polyline points="820.2633,648.813 819.9508,648.5036 819.9508,648.1942 819.0133,647.2661"/>
    <line x1="818.7008" x2="818.7008" y1="647.5755" y2="647.8848"/>
    <polyline points="819.6383,649.1223 819.3258,649.4317 819.0133,649.4317 818.7008,649.7411 817.7633,648.813 817.7633,648.5036 818.3883,647.8848 818.7008,647.8848 819.3258,648.5036 819.3258,648.813 819.6383,649.1223 819.9508,649.1223 820.2633,648.813 820.5758,648.813 820.8883,648.5036 821.2008,648.5036 821.5133,648.1942 822.1383,648.1942 822.7633,647.5755 823.0758,647.5755 823.3883,647.2661 823.7008,647.2661 824.0133,646.9567 824.3258,646.9567 824.6383,646.6473 824.3258,646.338 824.6383,646.0286 824.6383,645.7192 824.3258,645.4098 824.0133,645.4098 824.9508,644.4817 823.0758,642.6255 823.3883,642.3161 823.7008,642.3161 824.0133,642.0067 824.3258,642.0067 825.5758,640.7692 825.8883,640.7692 826.5133,640.1505 826.5133,639.5317 826.2008,639.2223 825.8883,639.2223 825.8883,638.913 824.9508,637.9848 824.9508,636.7473 825.2633,636.438 825.5758,636.438 825.8883,636.1286 825.5758,635.8192 825.5758,635.2005 825.8883,634.8911 825.8883,634.2723 826.2008,633.963 826.2008,633.6536 826.5133,633.3442 827.1383,633.3442 827.4508,633.0348 826.8258,632.4161 826.8258,631.7973 827.4508,631.1786"/>
    <polyline points="827.4508,630.8692 827.7633,631.1786 827.4508,631.1786 827.4508,630.8692 827.4508,630.5598 827.4508,630.2505 827.7633,629.9411 828.0758,629.9411 828.3883,630.2505 828.7008,629.9411 828.7008,629.3223 829.0133,629.013 829.0133,628.3942 829.3258,628.0848 828.7008,627.4661 828.7008,627.1567 829.0133,626.8473 829.0133,626.2286 829.3258,625.9192 829.3258,625.6098 829.6383,625.3005 829.6383,624.3723 829.9508,624.063 829.9508,623.7536 830.2633,623.4442 830.2633,622.8255 830.5758,622.5161 830.5758,621.2786 830.8883,620.9692 830.8883,619.7317 831.2008,619.4223 831.2008,618.1848 831.8258,617.5661 831.5133,617.2567 831.8258,616.9473 831.8258,616.0192 832.1383,615.7098 832.7633,616.3286 833.0758,616.0192 833.0758,615.7098 832.4508,615.0911 832.4508,613.8536 832.7633,613.5442 832.1383,612.9255 832.1383,611.0692 831.8258,610.7598 832.1383,610.4505 832.1383,609.213 832.4508,608.9036 832.1383,608.5942 832.1383,606.738 832.4508,606.4286 832.4508,606.1192 832.1383,605.8098 832.4508,605.5005 832.4508,604.263 832.7633,603.9536 832.7633,603.0255 833.3883,602.4067 833.0758,602.0973 833.0758,600.5505 833.3883,600.2411 833.3883,599.6223 833.7008,599.313 834.0133,599.313 834.6383,599.9317 834.9508,599.6223 834.9508,599.313 835.2633,599.0036 835.2633,598.0755 834.9508,597.7661 835.5758,597.1473"/>
    <polyline points="835.5758,596.838 835.5758,597.1473 835.8883,597.1473"/>
    <polyline points="834.9508,597.7661 834.6383,597.7661 834.3258,598.0755 834.0133,598.0755 833.7008,598.3848 833.7008,599.0036 834.0133,599.313"/>
    <line x1="833.7008" x2="833.7008" y1="599.313" y2="599.0036"/>
    <polyline points="833.0758,600.5505 832.7633,600.5505 831.8258,601.4786 831.8258,602.0973 831.2008,602.7161 831.2008,603.6442 830.8883,603.9536 830.8883,604.5723 831.8258,605.5005 832.1383,605.8098 831.8258,605.8098 831.8258,605.5005"/>
    <polyline points="834.0133,603.9536 834.0133,605.8098 833.7008,606.1192 833.7008,607.9755 834.0133,608.2848 833.7008,608.2848 833.3883,608.5942 832.7633,608.5942 832.4508,608.9036"/>
    <line x1="833.7008" x2="833.7008" y1="608.2848" y2="607.9755"/>
    <polyline points="834.0133,608.2848 834.9508,607.3567 834.9508,607.0473 835.8883,606.1192 835.8883,605.8098 837.4508,604.263"/>
    <polyline points="838.7008,605.5005 837.4508,604.263 838.7008,603.0255 839.0133,603.0255 839.6383,602.4067"/>
    <polyline points="839.3258,602.7161 839.6383,603.0255 839.3258,603.3348 839.0133,603.0255"/>
    <line x1="839.9508" x2="839.9508" y1="603.3348" y2="603.6442"/>
    <polyline points="840.2633,603.3348 839.9508,603.3348 839.6383,603.0255 839.9508,602.7161 839.3258,602.0973 839.6383,601.788 840.5758,601.788 840.8883,602.0973"/>
    <line x1="840.8883" x2="840.5758" y1="601.788" y2="601.788"/>
    <polyline points="838.7008,596.838 839.0133,596.5286 839.0133,596.2192 838.7008,595.9098 838.7008,595.2911 839.3258,594.6723 839.6383,594.6723"/>
    <polyline points="840.2633,595.2911 840.2633,595.6005 839.6383,596.2192 839.3258,595.9098"/>
    <polyline points="839.0133,596.2192 839.3258,595.9098 839.0133,595.6005 838.7008,595.9098 838.3883,595.6005 838.7008,595.2911 839.0133,595.6005 838.3883,595.6005 838.0758,595.6005 837.1383,596.5286"/>
    <line x1="837.7633" x2="838.3883" y1="595.9098" y2="596.5286"/>
    <polyline points="838.3883,596.838 838.3883,596.5286 838.7008,596.838 838.3883,596.838 838.0758,597.1473 837.7633,597.1473 837.1383,596.5286 836.8258,596.838 836.5133,596.838 836.2008,597.1473 835.8883,597.1473 835.2633,596.5286 835.2633,595.9098 835.5758,595.6005 835.5758,594.363 835.8883,594.0536 835.8883,592.8161 836.2008,592.5067 836.2008,590.9598 835.8883,590.6505"/>
    <polyline points="834.9508,590.9598 835.2633,591.2692 835.2633,592.1973 835.8883,592.8161"/>
    <polyline points="834.3258,591.2692 833.7008,590.6505 833.0758,591.2692 833.3883,591.5786"/>
    <line x1="833.0758" x2="833.0758" y1="591.5786" y2="591.2692"/>
    <line x1="832.7633" x2="832.4508" y1="591.888" y2="591.888"/>
    <polyline points="830.5758,589.413 831.2008,589.413 831.8258,588.7942 831.8258,588.4848 831.2008,587.8661 830.8883,587.8661 830.2633,587.2473 829.6383,587.2473 829.3258,587.5567 829.0133,587.5567 828.7008,587.2473"/>
    <line x1="829.3258" x2="829.3258" y1="587.5567" y2="587.8661"/>
    <polyline points="829.6383,588.4848 829.3258,588.7942 829.3258,589.413 829.6383,589.7223"/>
    <line x1="830.2633" x2="829.9508" y1="588.7942" y2="588.4848"/>
    <line x1="830.2633" x2="830.8883" y1="588.4848" y2="587.8661"/>
    <polyline points="831.2008,585.7005 830.8883,585.7005 830.8883,585.3911"/>
    <polyline points="831.2008,596.2192 831.2008,596.838 831.5133,597.1473 831.5133,597.4567 830.8883,598.0755 830.8883,599.6223 830.5758,599.9317 830.5758,601.1692"/>
    <line x1="831.5133" x2="831.8258" y1="601.1692" y2="601.4786"/>
    <polyline points="832.1383,601.1692 831.8258,600.8598 831.2008,601.4786 831.2008,602.0973 831.5133,602.4067"/>
    <polyline points="830.5758,603.0255 830.2633,603.3348 830.2633,603.9536 829.9508,604.263 829.9508,605.8098 829.6383,606.1192 829.6383,606.4286 829.3258,606.738 829.3258,607.3567 829.0133,607.6661 829.0133,608.2848 828.3883,608.9036 828.3883,609.5223 828.0758,609.8317 828.0758,610.7598 827.7633,611.0692"/>
    <polyline points="829.9508,608.2848 829.9508,609.213 829.6383,609.5223 829.6383,609.8317 829.3258,610.1411 829.3258,611.0692 829.6383,611.3786 829.6383,612.3067 829.9508,612.6161 829.9508,612.9255 830.2633,613.2348 830.2633,613.5442 831.8258,615.0911 831.8258,615.4005 832.1383,615.7098"/>
    <polyline points="831.8258,615.4005 832.1383,615.0911 831.8258,615.0911"/>
    <polyline points="832.4508,615.0911 832.1383,615.0911 832.4508,614.7817"/>
    <polyline points="832.7633,613.5442 833.0758,613.5442 833.3883,613.2348 833.7008,613.2348 834.6383,612.3067 834.6383,611.9973 834.9508,611.688 835.5758,611.0692 835.8883,611.0692 835.5758,610.7598 835.5758,610.4505 835.8883,610.1411 835.8883,609.8317 836.2008,609.5223 836.2008,608.9036 836.5133,608.5942 836.5133,608.2848 837.7633,607.0473 837.7633,606.738 838.3883,606.1192 838.3883,605.8098 839.3258,604.8817 839.3258,604.5723 839.6383,604.263 839.6383,603.9536 840.8883,602.7161 840.8883,601.788 841.5133,601.1692 841.8258,601.1692 843.0758,599.9317 843.3883,599.9317 843.7008,599.6223 844.0133,599.6223 844.6383,599.0036 845.2633,599.0036 846.5133,597.7661 847.7633,597.7661 848.0758,598.0755 847.1383,599.0036 845.8883,599.0036 845.5758,598.6942"/>
    <polyline points="843.0758,594.363 843.0758,594.0536 843.3883,594.363 843.0758,594.363 842.7633,594.6723 842.4508,594.6723 842.1383,594.9817 841.8258,594.9817 841.5133,595.2911 841.2008,595.2911 840.8883,595.6005 840.5758,595.6005 839.6383,594.6723 839.9508,594.363 840.2633,594.363 840.5758,594.0536 840.8883,594.0536 841.5133,593.4348 842.4508,593.4348 842.7633,593.1255 843.0758,593.1255 843.3883,592.8161 844.3258,592.8161 844.6383,592.5067 850.5758,592.5067 850.8883,592.8161 851.8258,592.8161 852.1383,593.1255 853.3883,593.1255 853.7008,593.4348 854.3258,593.4348 854.6383,593.7442 854.9508,593.7442 855.2633,594.0536 855.8883,594.0536 856.2008,594.363 856.5133,594.363 857.1383,594.9817 857.4508,594.9817 857.7633,595.2911 858.0758,595.2911 858.7008,595.9098 859.0133,595.9098 862.4508,599.313 862.7633,599.6223 862.7633,599.9317 863.3883,600.5505 863.3883,600.8598 863.7008,601.1692 863.7008,601.4786 864.0133,601.788 864.0133,602.0973 864.3258,602.4067 864.3258,603.0255 864.6383,603.3348 864.6383,603.9536 864.9508,604.263 864.3258,604.8817 864.6383,604.8817 864.9508,605.1911 865.2633,605.1911 864.9508,605.5005 865.2633,605.8098 865.2633,606.4286 865.5758,606.738 865.5758,607.9755 865.8883,608.2848 865.8883,609.8317 865.5758,610.1411 865.5758,611.9973 865.2633,612.3067 865.2633,613.2348 864.9508,613.5442 864.9508,614.163 864.6383,614.4723 864.9508,614.7817 864.9508,615.4005 864.6383,615.7098 864.6383,616.0192 864.3258,616.3286 864.3258,617.2567 863.3883,618.1848 863.3883,618.4942 862.7633,619.113 862.7633,619.7317 862.1383,620.3505 862.1383,620.6598 861.2008,621.588 861.2008,621.8973 854.6383,628.3942 854.3258,628.3942 852.4508,630.2505 851.8258,630.2505 849.9508,632.1067 849.6383,631.7973 849.6383,632.1067 849.9508,632.1067"/>
    <line x1="849.6383" x2="849.3258" y1="632.1067" y2="632.4161"/>
    <line x1="849.0133" x2="849.0133" y1="632.4161" y2="632.1067"/>
    <polyline points="849.6383,631.7973 849.0133,631.1786 848.7008,631.1786 849.0133,630.8692 849.0133,630.5598 848.7008,630.2505 849.3258,629.6317 849.6383,629.6317 850.5758,628.7036 850.8883,629.013 850.5758,629.3223 850.8883,629.6317 850.8883,629.9411 850.5758,629.9411 850.2633,630.2505 850.8883,630.8692 851.2008,630.8692"/>
    <line x1="850.8883" x2="850.8883" y1="630.8692" y2="631.1786"/>
    <polyline points="836.5133,637.3661 835.8883,637.3661 835.5758,637.6755 834.9508,637.6755 834.3258,638.2942 834.0133,638.2942 833.7008,638.6036 833.0758,638.6036 832.7633,638.913 832.4508,638.913 831.5133,639.8411 831.2008,639.8411 830.8883,640.1505 830.2633,640.1505 829.6383,640.7692 829.3258,640.7692 829.0133,641.0786 828.7008,641.0786 828.3883,641.388 828.0758,641.388 827.1383,642.3161 827.1383,642.6255 826.8258,642.9348 827.1383,643.2442 827.4508,643.2442 828.0758,643.863 828.0758,644.1723 828.3883,644.4817"/>
    <polyline points="829.0133,644.1723 828.7008,643.863 828.7008,643.2442 828.3883,642.9348"/>
    <polyline points="829.0133,642.9348 828.7008,643.2442 829.0133,643.2442 828.7008,643.5536"/>
    <polyline points="827.7633,643.5536 828.3883,642.9348 828.3883,642.6255 829.0133,642.0067 829.3258,642.0067 829.6383,642.3161 829.9508,642.3161 830.2633,642.6255 830.2633,642.9348"/>
    <polyline points="830.5758,642.3161 830.5758,642.6255 830.2633,642.6255 830.5758,642.3161 830.5758,642.0067 831.2008,641.388 831.5133,641.388 831.8258,641.6973"/>
    <line x1="831.8258" x2="831.5133" y1="641.388" y2="641.388"/>
    <line x1="832.1383" x2="832.1383" y1="642.0067" y2="642.3161"/>
    <polyline points="832.4508,642.3161 831.8258,641.6973 831.8258,641.388 832.4508,640.7692"/>
    <polygon points="834.9508,639.8411 834.9508,639.8411 834.6383,639.5317 834.9508,639.5317"/>
    <polyline points="829.6383,642.3161 829.0133,642.9348 829.0133,643.2442 829.6383,643.863"/>
    <line x1="827.1383" x2="826.8258" y1="643.2442" y2="643.2442"/>
    <polyline points="826.8258,642.9348 826.8258,643.2442 826.5133,643.5536 826.5133,643.863 825.8883,644.4817 825.5758,644.4817 825.2633,644.7911 824.9508,644.4817"/>
    <line x1="824.6383" x2="824.3258" y1="644.7911" y2="644.7911"/>
    <polyline points="826.2008,644.1723 826.5133,644.4817 826.5133,644.7911"/>
    <line x1="826.5133" x2="826.8258" y1="644.4817" y2="644.7911"/>
    <line x1="822.1383" x2="821.8258" y1="643.5536" y2="643.5536"/>
    <polyline points="826.8258,638.2942 826.8258,637.9848 826.2008,637.3661"/>
    <line x1="826.2008" x2="826.5133" y1="637.6755" y2="637.6755"/>
    <polyline points="827.7633,629.9411 827.7633,629.3223 828.0758,629.013 828.0758,628.7036"/>
    <line x1="828.0758" x2="828.3883" y1="629.013" y2="629.013"/>
    <polyline points="828.7008,629.3223 828.0758,628.7036 828.3883,628.3942"/>
    <polyline points="828.3883,628.0848 828.3883,628.3942 829.0133,628.3942"/>
    <polyline points="829.0133,628.7036 828.3883,628.0848 828.7008,627.7755 828.7008,627.4661"/>
    <line x1="828.7008" x2="829.0133" y1="627.7755" y2="627.7755"/>
    <line x1="827.7633" x2="828.0758" y1="629.6317" y2="629.9411"/>
    <polyline points="827.4508,625.3005 827.4508,624.3723 827.7633,624.063 827.7633,622.8255 828.0758,622.5161 828.0758,622.2067 828.7008,621.588 828.7008,620.9692"/>
    <polyline points="831.8258,610.7598 832.1383,610.7598 832.4508,610.7598 832.1383,610.4505 832.1383,610.4505 832.1383,610.7598 832.1383,611.0692 832.4508,610.7598 833.3883,610.7598"/>
    <polyline points="833.7008,610.7598 833.3883,610.7598 833.7008,611.0692 833.7008,610.7598 834.0133,610.4505 834.0133,610.1411 834.6383,609.5223 834.6383,609.213 834.9508,608.9036 836.2008,608.9036"/>
    <line x1="836.2008" x2="835.8883" y1="609.213" y2="608.9036"/>
    <polyline points="835.8883,609.8317 835.5758,610.1411 835.5758,610.4505"/>
    <line x1="835.5758" x2="835.5758" y1="610.7598" y2="611.0692"/>
    <polyline points="835.8883,611.0692 836.2008,611.3786 836.5133,611.0692 836.5133,610.7598 835.8883,610.1411 835.5758,610.1411 834.6383,609.213"/>
    <line x1="834.6383" x2="834.9508" y1="609.5223" y2="609.5223"/>
    <line x1="834.3258" x2="834.0133" y1="610.4505" y2="610.4505"/>
    <line x1="834.0133" x2="835.2633" y1="610.1411" y2="611.3786"/>
    <line x1="833.0758" x2="832.7633" y1="600.8598" y2="600.5505"/>
    <polygon points="832.1383,597.7661 832.4508,598.0755 832.1383,598.3848 831.8258,598.0755"/>
    <line x1="840.2633" x2="840.5758" y1="595.6005" y2="595.6005"/>
    <line x1="842.4508" x2="843.0758" y1="593.4348" y2="594.0536"/>
    <line x1="855.2633" x2="856.2008" y1="599.6223" y2="598.6942"/>
    <polyline points="860.5758,603.0255 859.3258,604.263 859.3258,604.5723 858.7008,605.1911"/>
    <line x1="858.7008" x2="859.0133" y1="604.8817" y2="604.8817"/>
    <line x1="859.3258" x2="859.6383" y1="604.5723" y2="604.5723"/>
    <polyline points="859.3258,604.263 859.9508,604.8817 860.8883,604.8817"/>
    <line x1="860.8883" x2="860.5758" y1="604.5723" y2="604.8817"/>
    <line x1="861.5133" x2="861.5133" y1="605.5005" y2="605.8098"/>
    <line x1="858.7008" x2="859.0133" y1="611.3786" y2="611.688"/>
    <polyline points="858.7008,611.688 858.3883,611.9973 858.3883,612.6161"/>
    <polyline points="864.3258,659.6411 863.3883,659.6411 863.0758,659.9505 862.4508,659.9505 862.1383,660.2598 861.8258,659.9505 861.5133,659.9505 861.2008,660.2598 859.9508,660.2598 859.6383,660.5692 859.3258,660.2598 859.0133,660.2598 858.7008,660.5692 858.3883,660.5692 858.0758,660.8786 856.8258,660.8786 856.5133,661.188 855.2633,661.188 854.6383,661.8067 854.9508,662.1161 858.7008,662.1161 859.0133,662.4255 859.6383,662.4255 859.9508,662.1161 860.2633,662.1161 860.5758,662.4255 860.8883,662.1161 862.4508,662.1161"/>
    <polyline points="823.0758,664.5911 822.7633,664.9005 822.1383,664.9005 821.8258,664.5911 821.5133,664.5911 821.8258,664.2817 821.8258,664.5911"/>
    <polyline points="821.5133,664.5911 821.2008,664.9005 820.5758,664.9005 820.2633,665.2098 819.3258,665.2098 819.0133,664.9005"/>
    <polyline points="813.3883,661.188 813.0758,660.8786 811.5133,660.8786 810.8883,661.4973"/>
    <line x1="810.8883" x2="811.2008" y1="662.4255" y2="662.7348"/>
    <polyline points="810.2633,662.7348 809.9508,662.7348 808.7008,661.4973"/>
    <line x1="809.9508" x2="809.9508" y1="662.7348" y2="663.0442"/>
    <polyline points="810.5758,656.5473 809.6383,655.6192 809.3258,655.6192"/>
    <polyline points="809.0133,655.6192 809.3258,655.6192 809.0133,655.9286"/>
    <line x1="808.7008" x2="808.3883" y1="655.3098" y2="655.3098"/>
    <polyline points="808.7008,655.0005 807.4508,656.238 807.1383,655.9286"/>
    <polyline points="809.6383,655.6192 809.9508,655.3098 810.2633,655.3098 810.8883,655.9286"/>
    <line x1="810.5758" x2="810.5758" y1="651.288" y2="650.9786"/>
    <polyline points="789.6383,662.4255 788.3883,662.4255 788.0758,662.7348 787.7633,662.4255 787.4508,662.7348 786.5133,662.7348 786.2008,662.4255 785.8883,662.7348 784.9508,662.7348"/>
    <line x1="782.7633" x2="774.0133" y1="662.7348" y2="662.7348"/>
    <polyline points="764.6383,662.1161 761.2008,662.1161 760.8883,661.8067 758.0758,661.8067 757.7633,661.4973 756.8258,661.4973"/>
    <polyline points="745.5758,655.3098 745.5758,654.3817 745.2633,654.0723 744.9508,654.3817 744.3258,654.3817 744.6383,654.0723 744.9508,654.3817 744.6383,654.6911 744.3258,654.3817 744.0133,654.0723 744.0133,653.4536"/>
    <line x1="744.0133" x2="744.3258" y1="653.763" y2="653.4536"/>
    <line x1="744.9508" x2="745.2633" y1="653.763" y2="654.0723"/>
    <line x1="745.5758" x2="745.2633" y1="655.0005" y2="655.3098"/>
    <polyline points="735.2633,642.3161 735.5758,642.0067 735.5758,641.388 734.9508,640.7692 734.9508,640.4598 734.6383,640.1505 734.3258,640.1505"/>
    <polyline points="734.0133,639.8411 734.3258,639.5317 734.3258,639.2223 734.0133,638.913 733.7008,639.2223"/>
    <line x1="733.3883" x2="733.3883" y1="639.2223" y2="639.5317"/>
    <polyline points="732.7633,638.6036 733.3883,637.9848 733.3883,637.3661 733.0758,637.0567"/>
    <line x1="732.7633" x2="732.1383" y1="636.438" y2="637.0567"/>
    <polyline points="732.4508,637.6755 733.0758,637.0567 733.0758,636.7473 732.7633,636.438 732.7633,636.1286 732.4508,635.8192 732.4508,635.5098 732.1383,635.2005 731.8258,635.2005 731.8258,634.2723 731.5133,633.963 731.5133,633.6536 731.2008,633.3442"/>
    <polyline points="730.8883,633.6536 731.2008,633.3442 731.2008,632.7255 730.8883,632.4161 730.8883,632.1067 730.5758,631.7973 730.5758,631.488 730.2633,631.1786 730.2633,630.5598 729.9508,630.2505 729.9508,629.3223 729.3258,628.7036 729.3258,628.0848 729.0133,627.7755"/>
    <polyline points="728.7008,628.0848 729.0133,627.7755 729.0133,627.1567 728.7008,626.8473 728.7008,626.538 728.3883,626.2286 728.3883,625.9192 728.0758,625.6098 728.0758,624.6817 727.7633,624.3723"/>
    <polyline points="727.4508,624.6817 727.7633,624.3723 727.7633,623.7536 727.4508,623.4442"/>
    <polyline points="727.1383,623.7536 727.4508,623.4442 727.4508,622.8255 727.1383,622.5161 727.1383,621.588 726.8258,621.2786 726.8258,620.6598 726.2008,620.0411"/>
    <line x1="726.8258" x2="726.2008" y1="621.2786" y2="621.8973"/>
    <line x1="726.2008" x2="726.5133" y1="621.588" y2="621.588"/>
    <polyline points="727.1383,622.2067 726.8258,622.5161 727.1383,622.5161"/>
    <polyline points="726.5133,622.5161 726.8258,622.5161 726.5133,622.8255"/>
    <line x1="726.8258" x2="726.8258" y1="623.7536" y2="624.063"/>
    <line x1="727.1383" x2="727.1383" y1="624.6817" y2="624.9911"/>
    <line x1="727.4508" x2="727.4508" y1="625.9192" y2="626.2286"/>
    <line x1="727.7633" x2="728.0758" y1="625.9192" y2="625.6098"/>
    <line x1="728.3883" x2="727.7633" y1="626.2286" y2="626.8473"/>
    <line x1="727.7633" x2="728.0758" y1="626.538" y2="626.538"/>
    <line x1="728.0758" x2="728.3883" y1="627.1567" y2="627.1567"/>
    <line x1="728.7008" x2="728.0758" y1="626.8473" y2="627.4661"/>
    <line x1="728.3883" x2="728.3883" y1="628.0848" y2="628.3942"/>
    <line x1="728.7008" x2="728.7008" y1="629.013" y2="629.3223"/>
    <line x1="729.0133" x2="729.3258" y1="629.013" y2="628.7036"/>
    <line x1="729.9508" x2="729.6383" y1="630.2505" y2="630.5598"/>
    <line x1="729.3258" x2="729.3258" y1="630.5598" y2="630.8692"/>
    <line x1="729.6383" x2="729.6383" y1="631.488" y2="631.7973"/>
    <line x1="729.9508" x2="730.2633" y1="631.488" y2="631.1786"/>
    <line x1="730.5758" x2="729.9508" y1="631.7973" y2="632.4161"/>
    <line x1="729.9508" x2="730.2633" y1="632.1067" y2="632.1067"/>
    <line x1="730.2633" x2="730.5758" y1="632.7255" y2="632.7255"/>
    <line x1="730.2633" x2="730.8883" y1="633.0348" y2="632.4161"/>
    <line x1="730.5758" x2="730.5758" y1="633.6536" y2="633.963"/>
    <line x1="730.8883" x2="730.8883" y1="634.2723" y2="634.5817"/>
    <line x1="731.2008" x2="731.5133" y1="634.2723" y2="633.963"/>
    <line x1="731.8258" x2="732.1383" y1="634.8911" y2="635.2005"/>
    <line x1="731.8258" x2="731.5133" y1="635.2005" y2="635.5098"/>
    <line x1="731.8258" x2="732.4508" y1="636.438" y2="635.8192"/>
    <line x1="732.7633" x2="733.0758" y1="638.2942" y2="638.2942"/>
    <polyline points="734.9508,640.7692 734.9508,641.0786 734.6383,641.388"/>
    <line x1="734.9508" x2="735.2633" y1="641.0786" y2="641.0786"/>
    <line x1="723.3883" x2="723.3883" y1="605.1911" y2="604.8817"/>
    <polyline points="723.7008,604.8817 724.0133,604.5723 724.0133,603.6442 723.7008,603.3348 723.3883,603.3348"/>
    <line x1="723.0758" x2="723.0758" y1="602.4067" y2="602.0973"/>
    <polyline points="723.3883,602.0973 723.7008,601.788 723.7008,601.1692 723.3883,600.8598 722.7633,600.8598"/>
    <line x1="722.7633" x2="723.0758" y1="601.1692" y2="600.8598"/>
    <polyline points="721.8258,591.2692 722.1383,591.2692 722.4508,590.9598"/>
    <polyline points="722.4508,590.6505 722.4508,590.9598 722.7633,590.9598"/>
    <polyline points="721.5133,590.3411 722.1383,590.3411 723.0758,591.2692 724.3258,591.2692 724.6383,591.5786 725.2633,591.5786 725.5758,591.888 725.8883,591.888 726.2008,592.1973 728.0758,592.1973 728.3883,592.5067 729.6383,592.5067 729.9508,592.8161 731.8258,592.8161 732.1383,593.1255 733.7008,593.1255 734.3258,593.7442 734.6383,593.4348 734.9508,593.4348 735.2633,593.7442 735.8883,593.7442 736.2008,593.4348 736.5133,593.4348 736.8258,593.7442 741.2008,593.7442 741.5133,594.0536 741.8258,594.0536 742.1383,593.7442"/>
    <polyline points="743.3883,593.7442 743.3883,593.4348 744.3258,592.5067 744.0133,592.1973 742.7633,592.1973 742.4508,592.5067"/>
    <polyline points="744.6383,594.0536 744.6383,592.8161 744.3258,592.5067 744.6383,592.1973 747.4508,592.1973 747.7633,592.5067 748.0758,592.1973 749.9508,592.1973 750.5758,592.8161 750.5758,594.363"/>
    <line x1="750.5758" x2="750.8883" y1="594.0536" y2="594.363"/>
    <polyline points="752.1383,594.363 752.1383,594.0536 753.0758,593.1255 754.0133,593.1255 754.3258,593.4348 754.3258,594.6723 754.0133,594.9817 752.7633,594.9817 752.1383,594.363 751.8258,594.6723 751.2008,594.6723 750.8883,594.363 750.5758,594.363 750.2633,594.6723 749.6383,594.6723 749.0133,594.0536 748.3883,594.6723 747.7633,594.0536 747.4508,594.363 744.9508,594.363 744.6383,594.0536 744.3258,594.363 744.0133,594.363 743.3883,593.7442 743.0758,594.0536 742.4508,594.0536 742.1383,593.7442 742.1383,592.8161 742.4508,592.5067 742.1383,592.1973 738.0758,592.1973 737.7633,591.888 737.1383,591.888 736.8258,591.5786 735.5758,591.5786 735.2633,591.2692 734.6383,591.888 734.3258,591.5786 734.0133,591.5786 732.4508,590.0317 732.4508,589.7223 732.7633,589.413 732.4508,589.413 731.8258,588.7942 731.5133,588.4848 731.5133,588.1755 732.1383,587.5567 733.0758,587.5567 733.3883,587.2473 733.7008,587.2473 734.0133,587.5567 734.6383,586.938 734.9508,586.938"/>
    <polyline points="734.0133,587.5567 734.0133,587.8661 733.7008,588.1755 733.7008,588.7942 733.3883,589.1036 733.7008,589.1036 734.0133,589.413 734.0133,589.7223 733.7008,590.0317 733.7008,590.6505 733.0758,591.2692 732.4508,591.2692 732.1383,590.9598 732.1383,590.6505 731.8258,590.9598 732.1383,590.9598"/>
    <line x1="732.1383" x2="732.4508" y1="590.6505" y2="590.3411"/>
    <polyline points="732.4508,590.0317 732.4508,590.3411 732.7633,590.3411"/>
    <line x1="732.4508" x2="732.4508" y1="589.7223" y2="589.413"/>
    <line x1="732.7633" x2="733.0758" y1="589.413" y2="589.413"/>
    <polyline points="733.3883,589.1036 733.0758,589.413 733.7008,590.0317"/>
    <polyline points="733.7008,590.3411 734.0133,590.6505 734.6383,590.6505 735.2633,591.2692"/>
    <polyline points="736.5133,591.5786 736.8258,591.2692 736.8258,591.5786"/>
    <polyline points="737.1383,589.1036 737.4508,589.1036 738.0758,588.4848 738.0758,588.1755 738.3883,587.8661 738.7008,587.8661 739.3258,587.2473 739.3258,586.6286 739.6383,586.3192"/>
    <polyline points="735.8883,587.8661 735.8883,588.1755 736.2008,588.1755 734.9508,586.938 735.2633,586.6286 736.8258,586.6286 737.1383,586.3192 738.3883,586.3192 738.7008,586.0098 739.3258,586.0098 739.6383,586.3192 739.9508,586.0098 743.0758,586.0098 743.3883,585.7005 744.3258,585.7005 744.6383,585.3911 748.0758,585.3911 748.3883,585.0817 749.0133,585.0817 749.6383,585.7005 749.9508,585.3911"/>
    <polyline points="750.2633,585.0817 749.9508,584.7723 749.6383,584.7723 749.3258,585.0817 749.0133,585.0817"/>
    <line x1="749.3258" x2="749.3258" y1="585.0817" y2="585.3911"/>
    <polyline points="750.5758,585.3911 750.2633,585.7005 749.9508,585.3911 750.2633,585.0817 750.5758,585.3911 750.8883,585.0817 751.2008,585.3911 751.5133,585.3911 751.8258,585.7005 752.1383,585.3911 752.1383,585.0817 752.4508,584.7723 754.3258,584.7723 754.6383,584.463 756.5133,584.463"/>
    <polyline points="757.4508,584.463 757.7633,584.463 758.0758,584.1536 758.3883,584.1536 758.7008,584.463 759.0133,584.1536 761.2008,584.1536"/>
    <line x1="758.3883" x2="758.0758" y1="582.6067" y2="582.2973"/>
    <polyline points="756.8258,590.9598 756.5133,590.6505 755.2633,590.6505 754.9508,590.9598"/>
    <line x1="754.9508" x2="754.3258" y1="592.8161" y2="593.4348"/>
    <polyline points="753.3883,593.1255 752.4508,592.1973 752.4508,591.888 753.7008,590.6505 754.6383,590.6505 754.9508,590.9598 754.9508,592.8161 755.2633,593.1255 755.5758,593.1255 755.8883,592.8161"/>
    <line x1="756.8258" x2="757.1383" y1="593.4348" y2="593.7442"/>
    <polyline points="756.8258,593.7442 764.9508,593.7442 765.2633,593.4348 765.2633,591.5786 765.5758,591.2692 765.5758,590.6505 765.2633,590.3411 764.0133,590.3411 763.7008,590.0317 763.0758,590.0317 762.7633,590.3411 758.3883,590.3411 758.0758,590.6505 757.1383,590.6505 755.8883,591.888 755.8883,592.8161 756.2008,593.1255 756.5133,593.1255 756.8258,593.4348 756.8258,593.7442 755.5758,594.9817 754.6383,594.9817 754.3258,594.6723"/>
    <line x1="753.0758" x2="753.0758" y1="593.1255" y2="592.8161"/>
    <polyline points="752.4508,592.1973 752.1383,592.1973 752.4508,591.888"/>
    <polyline points="752.1383,592.1973 750.5758,592.1973 749.0133,593.7442 749.0133,594.0536"/>
    <line x1="747.7633" x2="747.7633" y1="594.0536" y2="592.5067"/>
    <line x1="734.0133" x2="733.7008" y1="590.6505" y2="590.6505"/>
    <line x1="733.7008" x2="733.7008" y1="589.1036" y2="588.7942"/>
    <line x1="731.5133" x2="731.2008" y1="588.4848" y2="588.4848"/>
    <polyline points="731.5133,588.1755 731.2008,588.4848 730.5758,588.4848 729.9508,589.1036 730.5758,589.7223 730.5758,590.0317 730.8883,590.3411 731.5133,590.9598 731.8258,590.9598"/>
    <polyline points="729.9508,589.1036 729.6383,589.1036 729.3258,589.413 729.0133,589.1036 726.8258,589.1036"/>
    <polyline points="762.4508,590.3411 763.3883,591.2692 764.3258,590.3411"/>
    <line x1="764.0133" x2="764.0133" y1="590.3411" y2="590.6505"/>
    <line x1="762.7633" x2="762.7633" y1="590.6505" y2="590.3411"/>
    <polyline points="765.5758,590.6505 765.8883,590.3411 768.0758,590.3411 768.3883,590.0317 768.7008,590.0317 769.0133,590.3411 771.5133,590.3411 771.8258,590.0317 772.7633,590.0317 773.0758,590.3411"/>
    <polyline points="773.3883,590.3411 773.0758,590.3411 773.0758,590.6505 773.3883,590.3411 774.3258,590.3411 774.9508,590.9598 775.2633,590.6505 775.2633,590.3411 774.9508,590.0317 774.6383,590.0317 774.9508,589.7223 774.9508,590.0317"/>
    <line x1="774.6383" x2="774.3258" y1="590.0317" y2="590.3411"/>
    <polyline points="775.2633,590.3411 775.5758,590.0317 775.8883,590.0317 776.2008,589.7223 776.5133,590.0317 778.3883,590.0317 778.7008,590.3411 779.0133,590.0317 779.3258,590.0317 779.6383,590.3411 788.0758,590.3411 788.3883,590.6505 790.2633,590.6505 790.5758,590.9598 790.8883,590.6505 792.1383,590.6505 792.4508,590.9598 792.7633,590.9598 794.0133,592.1973 794.3258,592.1973 794.9508,591.5786 795.5758,592.1973 795.8883,592.1973 796.5133,592.8161 796.2008,593.1255 796.8258,593.7442 797.7633,593.7442 798.0758,593.4348"/>
    <polyline points="798.0758,593.1255 797.4508,592.5067 796.8258,592.5067 796.5133,592.8161"/>
    <line x1="796.2008" x2="796.2008" y1="593.1255" y2="593.4348"/>
    <polyline points="796.5133,593.4348 796.2008,593.4348 795.8883,593.7442 795.5758,593.7442 795.2633,594.0536 794.6383,594.0536 794.3258,593.7442 793.7008,593.7442 793.3883,594.0536 793.3883,594.6723 793.0758,594.9817 792.7633,594.9817 791.8258,594.0536 791.5133,594.0536 791.2008,594.363 790.8883,594.0536 788.3883,594.0536 788.0758,594.363 786.8258,593.1255 786.5133,593.1255 786.2008,592.8161 781.8258,592.8161 781.5133,593.1255 777.7633,593.1255 777.7633,593.7442 777.1383,594.363 777.4508,594.363 777.7633,594.6723 779.3258,594.6723 779.9508,595.2911 780.5758,594.6723 781.8258,594.6723 782.1383,594.363 786.8258,594.363 787.4508,594.9817 788.0758,594.363"/>
    <line x1="787.4508" x2="786.8258" y1="593.7442" y2="594.363"/>
    <polyline points="779.9508,590.3411 779.3258,590.9598 778.7008,590.3411"/>
    <line x1="779.6383" x2="779.6383" y1="590.3411" y2="590.6505"/>
    <line x1="778.0758" x2="777.7633" y1="593.1255" y2="593.4348"/>
    <line x1="777.4508" x2="777.4508" y1="594.0536" y2="594.363"/>
    <polyline points="777.1383,594.363 776.8258,594.6723 774.6383,594.6723 774.0133,595.2911 773.3883,594.6723 773.0758,594.6723 772.4508,595.2911 772.1383,595.2911 771.5133,594.6723 769.3258,594.6723 769.0133,594.363"/>
    <polyline points="768.7008,594.0536 767.7633,594.0536 767.4508,594.363"/>
    <polyline points="767.4508,594.6723 768.0758,595.2911 769.0133,594.363 768.7008,594.0536 769.3258,593.4348 769.0133,593.4348 768.7008,593.1255 768.7008,592.8161 768.3883,592.5067 767.4508,592.5067 766.2008,593.7442"/>
    <polyline points="765.2633,593.4348 765.5758,593.7442 766.2008,593.7442 767.1383,594.6723 767.4508,594.6723 767.4508,594.363 767.1383,594.6723"/>
    <line x1="769.0133" x2="769.0133" y1="593.7442" y2="593.4348"/>
    <polyline points="771.2008,594.6723 771.8258,594.0536 772.7633,594.0536 773.0758,594.363 773.0758,594.363 773.3883,594.6723 773.3883,594.363 773.3883,594.363 773.0758,594.6723 773.0758,594.363 773.3883,594.363 773.7008,594.0536 774.3258,594.0536 774.6383,594.363 774.6383,594.6723"/>
    <line x1="774.6383" x2="774.9508" y1="594.363" y2="594.6723"/>
    <line x1="771.5133" x2="771.5133" y1="594.6723" y2="594.363"/>
    <polyline points="779.6383,583.2255 779.3258,583.2255 779.3258,582.9161"/>
    <polyline points="779.3258,582.2973 779.3258,581.988 779.0133,581.988"/>
    <polyline points="779.3258,581.988 779.6383,581.6786 780.8883,581.6786 781.2008,581.988 781.5133,581.988"/>
    <polyline points="781.2008,581.988 780.8883,582.2973 780.8883,582.9161"/>
    <line x1="780.8883" x2="781.2008" y1="582.6067" y2="582.9161"/>
    <line x1="781.5133" x2="781.8258" y1="566.2098" y2="565.9005"/>
    <line x1="781.8258" x2="782.1383" y1="565.5911" y2="565.9005"/>
  </g>
</svg>
