<?xml version="1.0" encoding="utf-8" ?>
<svg xmlns="http://www.w3.org/2000/svg" xmlns:cc="http://creativecommons.org/ns" xmlns:dc="http://purl.org/dc/elements/1.1/" xmlns:ev="http://www.w3.org/2001/xml-events" xmlns:inkscape="http://www.inkscape.org/namespaces/inkscape" xmlns:rdf="http://www.w3.org/1999/02/22-rdf-syntax-ns" xmlns:sodipodi="http://sodipodi.sourceforge.net/DTD/sodipodi-0.dtd" xmlns:xlink="http://www.w3.org/1999/xlink" baseProfile="tiny" height="22.56344164cm" version="1.2" viewBox="0 0 1176.3785675905515 852.7914952158313" width="31.12501627cm">
  <metadata>
    <rdf:RDF>
      <cc:Work>
        <dc:format>image/svg+xml</dc:format>
        <dc:source/>
        <dc:date>2026-01-19T22:49:07.000103</dc:date>
      </cc:Work>
    </rdf:RDF>
  </metadata>
  <defs/>
  <g fill="none" id="layer1" inkscape:groupmode="layer" inkscape:label="1" stroke="#0000ff" stroke-width="1.0" style="display:inline">
    <polyline fill="none" stroke="#000000" points="87.8125,61.6156 87.8125,61.925 87.5,62.2343 87.5,63.1625 87.1875,63.4718 87.1875,64.4 86.875,64.7093 86.875,65.3281 86.5625,65.6375 86.5625,66.5656 86.25,66.875 86.25,67.8031 85.9375,68.1125 85.9375,68.7312 85.625,69.0406 85.625,70.2781 85.3125,70.5875 85.3125,70.8968 85.0,71.2062 85.0,72.1343 84.6875,72.4437 84.6875,73.0625 84.375,73.3718 84.375,73.9906 84.0625,74.3 84.0625,74.9187 83.75,75.2281 83.75,75.8468 83.4375,76.1562 83.4375,76.775 83.125,77.0843 83.125,77.7031 82.8125,78.0125 82.8125,78.9406 82.5,79.25 82.5,80.1781 82.1875,80.4875 82.1875,81.1062 81.875,81.4156 81.875,82.0343 81.5625,82.3437 81.5625,83.2718 81.25,83.5812 81.25,84.5093 80.9375,84.8187 80.9375,85.7468 80.625,86.0562 80.625,86.675 80.3125,86.9843 80.3125,88.2218 80.0,88.5312 80.0,89.15 79.6875,89.4593 79.6875,90.3875 79.375,90.6968 79.375,91.3156 79.0625,91.625 79.0625,92.8625 78.75,93.1718 78.75,94.1 78.4375,94.4093 78.4375,95.3375 78.125,95.6468 78.125,96.575 77.8125,96.8843 77.8125,98.1219 77.5,98.4313 77.5,99.3594 77.1875,99.6688 77.1875,100.5969 76.875,100.9063 76.875,102.1438 76.5625,102.4532 76.5625,103.6907 76.25,104.0001 76.25,104.9282 75.9375,105.2376 75.9375,106.7844 75.625,107.0938 75.625,108.3313 75.3125,108.6407 75.3125,110.1876 75.0,110.4969 75.0,112.3532 74.6875,112.6626 74.6875,115.7563 75.0,116.0657 75.0,125.3469 74.6875,125.6563 74.6875,128.1313 74.375,128.4407 74.375,132.1532 74.0625,132.4626 74.0625,132.7719 73.75,133.0813"/>
    <polyline fill="none" stroke="#000000" points="73.4375,133.0813 73.125,132.7719 73.125,125.9657 73.4375,125.6563 73.4375,120.0876 73.75,119.7782 73.75,116.6844 74.6875,115.7563"/>
    <polyline fill="none" stroke="#000000" points="73.4375,133.3907 73.75,133.0813 73.4375,133.0813 73.4375,133.3907 73.4375,133.7001 73.4375,134.0094 73.4375,134.3188 73.4375,134.6282 73.4375,134.9376 73.4375,135.2469 73.4375,135.5563 73.4375,135.8657 73.125,136.1751 73.125,140.1969 72.8125,140.5063 72.8125,143.6001 72.5,143.9094 72.5,146.3844 72.1875,146.6938 72.1875,149.7876 71.875,150.0969 71.875,150.7157 71.5625,151.0251 71.5625,152.2626 71.875,152.5719 70.9375,153.5001 70.9375,154.1188 70.3125,154.7376 70.3125,155.0469 68.75,156.5938 68.4375,156.5938 67.5,157.5219 67.1875,157.5219 66.25,158.4501 65.9375,158.4501 65.0,159.3782 64.6875,159.3782 64.0625,159.9969 63.75,159.9969 63.125,160.6157 62.8125,160.6157 61.875,161.5438 61.5625,161.5438 60.9375,162.1626 60.625,162.1626 60.0,162.7813 59.6875,162.7813 59.0625,163.4001 58.75,163.4001 57.8125,164.3282 57.5,164.3282 56.875,164.9469 56.5625,164.9469 56.25,165.2563 55.3125,165.2563 55.0,165.5657 54.375,164.9469 54.375,164.0188 54.6875,163.7094 54.6875,161.8532 55.0,161.5438 55.0,159.0688 54.6875,158.7594 54.6875,154.1188 54.375,153.8094 54.375,149.7876 54.0625,149.4782 54.0625,145.4563 53.75,145.1469 53.75,135.2469 53.4375,134.9376 53.4375,131.8438 53.75,131.5344 53.75,125.3469 54.0625,125.0376 54.0625,122.5626 54.375,122.2532 54.375,119.7782 54.6875,119.4688 54.6875,117.9219 55.0,117.6126 55.0,116.0657 55.3125,115.7563 55.3125,114.5188 55.625,114.2094 55.625,112.9719 55.9375,112.6626 55.9375,111.4251 56.25,111.1157 56.25,109.5688 56.5625,109.2594 56.5625,108.3313 56.875,108.0219 56.875,107.0938 57.1875,106.7844 57.1875,105.8563 57.5,105.5469 57.5,104.6188 57.8125,104.3094 57.8125,103.3813 58.125,103.0719 58.125,102.1438 58.4375,101.8344 58.4375,101.2157 58.75,100.9063 58.75,99.9782 59.0625,99.6688 59.0625,99.0501 59.375,98.7407 59.375,98.1219 59.6875,97.8126 59.6875,96.8843 60.0,96.575 60.0,95.9562 60.3125,95.6468 60.3125,95.0281 60.625,94.7187 60.625,94.1 60.9375,93.7906 60.9375,93.1718 61.25,92.8625 61.25,92.2437 61.5625,91.9343 61.5625,91.3156 61.875,91.0062 61.875,90.3875 62.1875,90.0781 62.1875,89.7687 62.5,89.4593 62.5,88.8406 62.8125,88.5312 62.8125,87.9125 63.125,87.6031 63.125,87.2937 63.4375,86.9843 63.4375,86.3656 63.75,86.0562 63.75,85.7468 64.0625,85.4375 64.0625,84.8187 64.375,84.5093 64.375,84.2 64.6875,83.8906 64.6875,83.2718 65.0,82.9625 65.0,82.6531 65.3125,82.3437 65.3125,81.725 65.625,81.4156 65.625,81.1062 65.9375,80.7968 65.9375,80.4875 66.25,80.1781 66.25,79.8687 66.5625,79.5593 66.5625,78.9406 66.875,78.6312 66.875,78.3218 67.1875,78.0125 67.1875,77.7031 67.5,77.3937 67.5,77.0843 67.8125,76.775 67.8125,76.4656 68.125,76.1562 68.125,75.8468 68.4375,75.5375 68.4375,75.2281 68.75,74.9187 68.75,74.6093 69.0625,74.3 69.0625,73.9906 69.375,73.6812 69.375,73.3718 69.6875,73.0625 69.6875,72.7531 70.0,72.4437 70.0,72.1343 70.3125,71.825 70.3125,71.5156 70.625,71.2062 70.625,70.8968 70.9375,70.5875 70.9375,70.2781 71.5625,69.6593 71.5625,69.35 71.875,69.0406 71.875,68.7312 72.1875,68.4218 72.1875,68.1125 72.8125,67.4937 72.8125,67.1843 73.125,66.875 73.125,66.5656 73.4375,66.2562 73.4375,65.9468 74.0625,65.3281 74.0625,65.0187 74.6875,64.4 74.6875,64.0906 75.3125,63.4718 75.3125,63.1625 75.625,62.8531 75.625,62.5437 76.25,61.925 76.25,61.6156 76.5625,61.3062 76.5625,60.9968 77.1875,60.3781 77.1875,60.0687 77.8125,59.45 77.8125,59.1406 78.4375,58.5218 78.4375,58.2125 79.0625,57.5937 79.0625,57.2843 80.0,56.3562 80.0,56.0468 80.9375,55.1187 80.9375,54.8093 81.875,53.8812 81.875,53.5718 82.5,52.9531 82.5,52.6437 83.4375,51.7156 83.4375,51.4062 84.6875,50.1687 84.6875,49.8593 85.9375,48.6218 85.9375,48.3125 86.875,47.3843 86.875,47.075 88.4375,45.5281 88.4375,45.2187 90.3125,43.3625 90.3125,43.0531 92.5,40.8875 92.5,40.5781 99.0626,34.0812 99.3751,34.0812 101.2501,32.225 101.5626,32.225 102.8126,30.9875 103.1251,30.9875 104.0626,30.0593 104.3751,30.0593 105.0001,29.4406 105.3126,29.4406 106.2501,28.5125 106.5626,28.5125 107.1876,27.8937 107.5001,27.8937 108.4376,26.9656 108.7501,26.9656 109.3751,26.3468 109.6876,26.3468 110.3126,25.7281 110.6251,25.7281 111.2501,25.1093 111.5626,25.1093 112.1876,24.4906 112.5001,24.4906 112.8126,24.1812 113.1251,24.1812 113.7501,23.5625 114.0626,23.5625 114.6876,22.9437 115.0001,22.9437 115.3126,22.6343 115.6251,22.6343 116.2501,22.0156 116.5626,22.0156 116.8751,21.7062 117.1876,21.7062 117.8126,21.0875 118.1251,21.0875 118.4376,20.7781 118.7501,20.7781 119.0626,20.4687 119.3751,20.4687 119.6876,20.1593 120.0001,20.1593 120.6251,19.5406 120.9376,19.5406 121.2501,19.2312 121.5626,19.2312 121.8751,18.9218 122.1876,18.9218 122.5001,18.6125 122.8126,18.6125 123.1251,18.3031 123.4376,18.3031 123.7501,17.9937 124.0626,17.9937 124.3751,17.6843 124.6876,17.6843 125.0001,17.375 125.3126,17.375 125.6251,17.0656 125.9376,17.0656 126.2501,16.7562 126.5626,16.7562 126.8751,16.4468 127.1876,16.4468 127.5001,16.1375 127.8126,16.1375 128.1251,15.8281 128.4376,15.8281 128.7501,15.5187 129.0626,15.5187 129.3751,15.2093 130.0001,15.2093 130.3126,14.9 130.6251,14.9 130.9376,14.5906 131.2501,14.5906 131.5626,14.2812 131.8751,14.2812 132.1876,13.9718 132.8126,13.9718 133.1251,13.6625 133.4376,13.6625 133.7501,13.3531 134.3751,13.3531 134.6876,13.0437 135.0001,13.0437 135.3126,12.7343 135.9376,12.7343 136.2501,12.425 136.8751,12.425 137.1876,12.1156 137.5001,12.1156 137.8126,11.8062 138.4376,11.8062 138.7501,11.4968 139.3751,11.4968 139.6876,11.1875 140.3126,11.1875 140.6251,10.8781 141.2501,10.8781 141.5626,10.5687 142.1876,10.5687 142.5001,10.2593 143.1251,10.2593 143.4376,9.95 144.3751,9.95 144.6876,9.6406 145.6251,9.6406 145.9376,9.3312 146.8751,9.3312 147.1876,9.0218 148.4376,9.0218 148.7501,8.7125 149.3751,8.7125 149.6876,8.4031 151.2501,8.4031 151.5626,8.0937 152.5001,8.0937 152.8126,7.7843 154.3751,7.7843 154.6876,7.475 156.2501,7.475 156.5626,7.1656 158.4376,7.1656 158.7501,6.8562 160.3126,6.8562 160.6251,6.5468 162.8126,6.5468 163.1251,6.2375 165.6251,6.2375 165.9376,5.9281 169.0626,5.9281 169.3751,5.6187 172.1876,5.6187 172.5001,5.3093 177.1876,5.3093 177.5001,5.0 192.8126,5.0 193.1251,5.3093 198.1251,5.3093 198.4376,5.6187 201.8751,5.6187 202.1876,5.9281 205.9376,5.9281 206.2501,6.2375 208.4376,6.2375 208.7501,6.5468 211.2501,6.5468 211.5626,6.8562 213.4376,6.8562 213.7501,7.1656 216.2501,7.1656 216.5626,7.475 218.4376,7.475 218.7501,7.7843 220.3126,7.7843 220.6251,8.0937 222.5001,8.0937 222.8126,8.4031 225.0001,8.4031 225.3126,8.7125 226.8751,8.7125 227.1876,9.0218 229.0626,9.0218 229.3751,9.3312 231.2501,9.3312 231.5626,9.6406 233.7501,9.6406 234.0626,9.95 235.9376,9.95 236.2501,10.2593 238.7501,10.2593 239.0626,10.5687 240.9376,10.5687 241.2501,10.8781 243.7501,10.8781 244.0626,11.1875 247.1876,11.1875 247.5001,11.4968 250.0001,11.4968 250.3126,11.8062 252.8126,11.8062 253.1251,12.1156 256.5626,12.1156 256.8751,12.425 260.9376,12.425 261.2501,12.7343 277.5001,12.7343 277.8126,12.425 282.5001,12.425 282.8127,12.1156 286.2502,12.1156 286.5627,11.8062 291.5627,11.8062 291.8752,11.4968 295.0002,11.4968 295.3127,11.1875 296.2502,11.1875 296.5627,10.8781 299.3752,10.8781 299.6877,10.5687 301.5627,10.5687 301.8752,10.8781 302.8127,10.8781 303.1252,11.1875 303.4377,10.8781 303.7502,10.8781 304.0627,11.1875 305.3127,11.1875 305.6252,11.4968 305.6252,11.8062 304.3752,13.0437 304.0627,13.0437 303.4377,12.425 303.1252,12.425 302.1877,13.3531 301.2502,13.3531 300.9377,13.6625 300.3127,13.6625 300.0002,13.9718 299.3752,13.9718 299.0627,14.2812 298.7502,14.2812 298.4377,14.5906 298.1252,14.5906 297.5002,15.2093 297.1877,15.2093 296.8752,15.5187 296.5627,15.5187 296.2502,15.8281 295.9377,15.8281 295.6252,16.1375 295.3127,16.1375 295.0002,16.4468 294.6877,16.4468 294.3752,16.7562 294.0627,16.7562 293.7502,17.0656 293.4377,17.0656 293.1252,17.375 292.8127,17.375 292.5002,17.6843 292.1877,17.6843 291.5627,18.3031 291.2502,18.3031 290.9377,18.6125 290.6252,18.6125 290.3127,18.9218 290.0002,18.9218 289.3752,19.5406 289.0627,19.5406 288.7502,19.85 288.4377,19.85 288.1252,20.1593 287.8127,20.1593 287.5002,20.4687 287.1877,20.4687 286.5627,21.0875 286.2502,21.0875 285.9377,21.3968 285.6252,21.3968 285.3127,21.7062 285.0002,21.7062 284.6877,22.0156 284.3752,22.0156 283.7502,22.6343 283.4377,22.6343 283.1252,22.9437 282.8127,22.9437 282.1876,23.5625 281.8751,23.5625 281.5626,23.8718 281.2501,23.8718 280.9376,24.1812 280.6251,24.1812 280.0001,24.8 279.6876,24.8 279.3751,25.1093 279.0626,25.1093 278.4376,25.7281 278.1251,25.7281 277.8126,26.0375 277.5001,26.0375 277.1876,26.3468 276.8751,26.3468 276.2501,26.9656 275.9376,26.9656 275.6251,27.275 275.3126,27.275 274.6876,27.8937 274.3751,27.8937 274.0626,28.2031 273.7501,28.2031 273.1251,28.8218 272.8126,28.8218 272.5001,29.1312 272.1876,29.1312 271.5626,29.75 271.2501,29.75 270.9376,30.0593 270.6251,30.0593 270.3126,30.3687 270.0001,30.3687 269.3751,30.9875 269.0626,30.9875 268.7501,31.2968 268.4376,31.2968 267.8126,31.9156 267.5001,31.9156 267.1876,32.225 266.8751,32.225 266.2501,32.8437 265.9376,32.8437 265.6251,33.1531 265.3126,33.1531 264.6876,33.7718 264.3751,33.7718 264.0626,34.0812 263.7501,34.0812 263.1251,34.7 262.8126,34.7 262.1876,35.3187 261.8751,35.3187 261.5626,35.6281 261.2501,35.6281 260.9376,35.9375 260.6251,35.9375 260.3126,36.2468 260.0001,36.2468 259.3751,36.8656 259.0626,36.8656 258.7501,37.175 258.4376,37.175 257.8126,37.7937 257.5001,37.7937 257.1876,38.1031 256.8751,38.1031 256.5626,38.4125 256.2501,38.4125 255.6251,39.0312 255.3126,39.0312 254.6876,39.65 254.3751,39.65 254.0626,39.9593 253.7501,39.9593 253.4376,40.2687 253.1251,40.2687 252.8126,40.5781 252.8126,40.8875 252.5001,41.1968 252.5001,41.8156 252.1876,42.125 251.8751,42.125 251.5626,42.4343 250.6251,42.4343 250.3126,42.7437 250.0001,42.7437 249.6876,43.0531 249.3751,43.0531 249.0626,43.3625 248.7501,43.3625 248.4376,43.6718 248.1251,43.6718 247.8126,43.9812 247.5001,43.9812 247.1876,44.2906 246.8751,44.2906 246.5626,44.6 246.2501,44.6 245.6251,45.2187 245.3126,45.2187 245.0001,45.5281 244.6876,45.5281 244.3751,45.8375 244.0626,45.8375 243.4376,46.4562 243.1251,46.4562 242.5001,47.075 242.1876,47.075 241.8751,47.3843 241.5626,47.3843 240.9376,48.0031 240.6251,48.0031 240.0001,48.6218 239.6876,48.6218 239.0626,49.2406 238.7501,49.2406 238.4376,49.55 238.1251,49.55 237.5001,50.1687 237.1876,50.1687 236.8751,50.4781 236.5626,50.4781 236.2501,50.7875 235.6251,50.7875 235.3126,51.0968 234.3751,51.0968 234.0626,50.7875 234.0626,51.0968 233.4376,51.7156 233.4376,52.025 232.5001,52.9531 232.1876,52.9531 231.5626,53.5718 231.2501,53.5718 230.6251,54.1906 230.3126,54.1906 230.0001,54.5 229.6876,54.5 229.3751,54.8093 229.0626,54.8093 228.4376,55.4281 228.1251,55.4281 227.8126,55.7375 227.5001,55.7375 226.8751,56.3562 226.5626,56.3562 225.9376,56.975 225.6251,56.975 225.0001,57.5937 224.6876,57.5937 223.7501,58.5218 223.7501,58.8312 223.4376,59.1406 223.4376,59.45 223.1251,59.7593 222.8126,59.7593 222.1876,60.3781 221.8751,60.3781 221.2501,60.9968 220.9376,60.9968 220.3126,61.6156 219.6876,61.6156 218.4376,62.8531 218.1251,62.8531 217.5001,63.4718 217.1876,63.4718 216.5626,64.0906 216.2501,63.7812 216.2501,64.0906 215.9376,64.4 215.6251,64.4 215.3126,64.7093 216.5626,65.9468 216.5626,66.2562 220.6251,66.2562 221.5626,67.1843 222.5001,67.1843 222.8126,66.875 222.8126,66.2562 223.1251,65.9468 225.3126,65.9468 225.6251,65.6375 230.0001,65.6375 230.3126,65.3281 233.4376,65.3281 233.7501,65.0187 235.6251,65.0187 235.9376,64.7093 237.5001,64.7093 237.8126,64.4 240.3126,64.4 240.6251,64.0906 242.8126,64.0906 243.1251,63.7812 244.3751,63.7812 244.6876,63.4718 245.9376,63.4718 246.2501,63.1625 248.1251,63.1625 248.4376,62.8531 249.6876,62.8531 250.0001,62.5437 251.2501,62.5437 251.5626,62.2343 252.5001,62.2343 252.8126,61.925 254.0626,61.925 254.3751,61.6156 255.3126,61.6156 255.6251,61.3062 256.5626,61.3062 256.8751,60.9968 257.5001,60.9968 257.8126,60.6875 258.4376,60.6875 258.7501,60.3781 259.6876,60.3781 260.0001,60.0687 260.6251,60.0687 260.9376,59.7593 261.5626,59.7593 261.8751,59.45 262.5001,59.45 262.8126,59.1406 263.4376,59.1406 263.7501,58.8312 264.3751,58.8312 264.6876,58.5218 265.3126,58.5218 265.6251,58.2125 265.9376,58.2125 266.2501,57.9031 266.8751,57.9031 267.1876,57.5937 267.8126,57.5937 268.1251,57.2843 268.4376,57.2843 268.7501,56.975 269.0626,56.975 269.6876,56.3562 270.3126,56.3562 270.6251,56.0468"/>
    <polyline fill="none" stroke="#000000" points="277.8126,37.175 276.8751,37.175 276.5626,37.4843 275.9376,37.4843 275.6251,37.7937 274.6876,37.7937 274.3751,38.1031 273.7501,38.1031 273.4376,38.4125 272.5001,38.4125 272.1876,38.7218 270.9376,38.7218 270.6251,39.0312 269.3751,39.0312 269.0626,39.3406 268.1251,39.3406 267.8126,39.65 266.5626,39.65 266.2501,39.9593 265.0001,39.9593 264.6876,40.2687 263.4376,40.2687 263.1251,40.5781 261.8751,40.5781 261.5626,40.8875 260.6251,40.8875 260.3126,41.1968 258.7501,41.1968 258.4376,41.5062 257.5001,41.5062 257.1876,41.8156 255.9376,41.8156 255.6251,42.125 254.0626,42.125 253.7501,42.4343 253.1251,42.4343 252.5001,41.8156"/>
    <polyline fill="none" stroke="#000000" points="243.7501,34.3906 243.7501,34.7 243.4376,34.7 243.7501,34.3906 244.0626,34.0812 244.3751,33.7718 244.6876,33.4625 244.6876,33.1531 247.5001,30.3687 247.5001,30.0593 250.9376,26.6562 250.9376,26.3468 252.5001,24.8 252.5001,24.4906 253.1251,23.8718 253.1251,23.5625"/>
    <polyline fill="none" stroke="#000000" points="243.4376,34.7 243.1251,35.0093 243.1251,35.3187 243.7501,35.9375 243.4376,36.2468 242.8126,36.2468 241.8751,37.175 241.8751,37.4843 240.6251,38.7218 240.6251,39.0312 239.6876,39.9593 239.6876,40.2687 239.0626,40.8875 239.0626,41.1968 238.4376,41.8156 238.4376,42.125 237.8126,42.7437 237.8126,43.0531 237.5001,43.3625 237.5001,43.6718 237.1876,43.9812 237.1876,44.2906 236.8751,44.6 236.8751,44.9093 236.5626,45.2187 236.5626,45.5281 235.9376,46.1468 235.9376,46.4562 235.6251,46.7656 235.6251,47.075 235.3126,47.3843 235.3126,47.6937 235.0001,48.0031 235.0001,48.3125 234.6876,48.6218 234.6876,48.9312 234.3751,49.2406 234.3751,50.1687 234.0626,50.4781 234.0626,50.7875"/>
    <line x1="234.0626" x2="234.3751" y1="51.0968" y2="51.0968"/>
    <line x1="224.0626" x2="223.7501" y1="58.2125" y2="58.2125"/>
    <polyline fill="none" stroke="#000000" points="223.7501,58.5218 223.7501,58.2125 223.4376,57.9031 223.1251,57.9031 222.8126,58.2125 222.5001,58.2125 221.8751,58.8312 222.8126,59.7593"/>
    <polyline fill="none" stroke="#000000" points="221.8751,60.3781 221.5626,60.3781 221.2501,60.0687 221.5626,59.7593 221.5626,59.45 221.2501,59.1406 221.5626,58.8312 221.8751,58.8312"/>
    <polyline fill="none" stroke="#000000" points="221.2501,59.1406 220.9376,59.1406 220.6251,59.45 221.2501,60.0687"/>
    <line x1="221.5626" x2="221.5626" y1="60.3781" y2="60.6875"/>
    <polyline fill="none" stroke="#000000" points="220.9376,60.9968 220.6251,60.9968 220.0001,60.3781 220.0001,59.7593 220.3126,59.45 220.6251,59.45"/>
    <polyline fill="none" stroke="#000000" points="220.3126,60.6875 220.6251,60.3781 220.3126,60.0687 219.6876,60.0687 220.0001,60.3781 220.3126,60.0687 220.0001,59.7593 219.6876,60.0687 219.3751,60.0687 219.0626,60.3781 219.0626,60.6875 219.3751,60.6875 219.0626,60.9968 219.6876,61.6156"/>
    <polyline fill="none" stroke="#000000" points="219.3751,61.3062 219.6876,60.9968 219.0626,60.3781 218.7501,60.6875 219.0626,60.9968 219.0626,60.6875 219.0626,60.6875 218.7501,60.6875 218.4376,60.6875 218.1251,60.9968 218.7501,61.6156 218.4376,61.925 218.7501,62.2343 218.7501,62.5437"/>
    <line x1="218.7501" x2="219.0626" y1="62.2343" y2="62.2343"/>
    <polyline fill="none" stroke="#000000" points="218.4376,61.925 218.1251,61.6156 217.8126,61.3062 217.8126,61.3062 218.1251,60.9968 218.1251,61.3062 218.4376,61.3062 218.1251,61.6156 218.1251,61.3062 217.8126,61.3062 217.5001,61.3062 217.1876,61.6156 217.5001,61.925 217.1876,62.2343 217.8126,62.8531 218.1251,62.8531"/>
    <line x1="217.8126" x2="217.8126" y1="62.8531" y2="63.1625"/>
    <polyline fill="none" stroke="#000000" points="217.5001,62.5437 217.8126,62.2343 217.5001,61.925 217.1876,61.925 217.1876,61.6156 216.8751,61.925 217.1876,61.925 217.1876,62.2343 216.8751,61.925 216.5626,61.925 216.2501,62.2343 216.8751,62.8531 216.5626,63.1625 216.8751,63.4718 217.1876,63.4718"/>
    <line x1="216.8751" x2="216.8751" y1="63.4718" y2="63.7812"/>
    <line x1="216.5626" x2="216.2501" y1="64.0906" y2="64.0906"/>
    <polyline fill="none" stroke="#000000" points="216.2501,63.7812 215.3126,62.8531 215.6251,62.5437 215.9376,62.5437 216.2501,62.8531 216.5626,62.5437 216.2501,62.5437 216.2501,62.2343 215.9376,62.5437 216.2501,62.5437 216.2501,62.8531 216.5626,63.1625"/>
    <polyline fill="none" stroke="#000000" points="215.3126,62.8531 215.0001,62.8531 214.6876,63.1625 214.6876,63.4718 215.0001,63.4718 215.3126,63.7812 215.0001,64.0906 215.3126,64.4 215.6251,64.4"/>
    <polyline fill="none" stroke="#000000" points="215.3126,64.4 215.3126,64.7093 215.0001,65.0187"/>
    <polyline fill="none" stroke="#000000" points="215.0001,64.0906 214.6876,63.7812 215.0001,63.4718 214.6876,63.1625 214.3751,63.4718 214.0626,63.4718 213.1251,64.4 212.8126,64.4 212.1876,65.0187 212.1876,65.6375 212.5001,65.9468 212.5001,66.2562 211.8751,66.875 211.5626,66.875 210.9376,67.4937 210.6251,67.4937 210.3126,67.8031 210.0001,67.8031 209.3751,68.4218 209.0626,68.4218 208.4376,69.0406 208.1251,69.0406 207.5001,69.6593 207.1876,69.6593 206.5626,70.2781 206.2501,70.2781 205.9376,70.5875 205.6251,70.5875 205.0001,71.2062 204.6876,71.2062 204.0626,71.825 203.7501,71.5156 203.7501,71.825 204.0626,71.825"/>
    <polyline fill="none" stroke="#000000" points="203.7501,71.825 203.4376,72.1343 203.1251,72.1343"/>
    <line x1="202.8126" x2="202.8126" y1="72.1343" y2="72.4437"/>
    <polyline fill="none" stroke="#000000" points="202.5001,71.825 202.8126,71.5156 202.8126,71.2062 203.1251,70.8968 202.8126,70.8968 202.8126,70.5875 202.5001,70.8968 202.1876,70.8968 201.8751,71.2062 202.5001,71.825 202.8126,72.1343 203.1251,72.1343 202.5001,72.7531 202.1876,72.7531 201.5626,73.3718 201.2501,73.3718 200.6251,73.9906 200.3126,73.9906 200.0001,74.3 199.6876,73.9906 199.6876,74.3 199.0626,74.9187 198.7501,74.6093 198.7501,74.9187 199.0626,74.9187"/>
    <polyline fill="none" stroke="#000000" points="198.7501,74.9187 198.1251,75.5375 196.8751,74.3 197.5001,73.6812 197.8126,73.6812 198.4376,73.0625 198.7501,73.0625 199.0626,72.7531 199.3751,72.7531 199.6876,72.4437 200.3126,72.4437 200.3126,72.7531 200.6251,72.4437 200.3126,72.1343 200.3126,72.4437 200.6251,72.4437 200.9376,72.7531 200.6251,73.0625"/>
    <line x1="200.9376" x2="201.2501" y1="73.3718" y2="73.3718"/>
    <polyline fill="none" stroke="#000000" points="200.9376,73.6812 200.9376,73.3718 200.0001,72.4437 200.6251,71.825 200.9376,71.825 201.2501,71.5156 201.2501,71.825 201.5626,71.825 201.8751,72.1343 201.5626,72.4437"/>
    <line x1="201.8751" x2="202.1876" y1="72.7531" y2="72.7531"/>
    <polyline fill="none" stroke="#000000" points="201.8751,73.0625 201.8751,72.7531 201.2501,72.1343 201.5626,71.825 201.2501,71.5156 201.5626,71.2062 201.8751,71.2062"/>
    <polygon points="202.8126,71.2062 202.5001,70.8968 202.8126,70.8968"/>
    <line x1="203.4376" x2="204.0626" y1="70.2781" y2="70.8968"/>
    <line x1="204.3751" x2="204.6876" y1="71.2062" y2="71.2062"/>
    <polyline fill="none" stroke="#000000" points="204.3751,71.5156 204.3751,71.2062 204.0626,70.8968 204.3751,70.5875 204.3751,70.2781 204.6876,69.9687 204.3751,69.9687 204.3751,69.6593 204.6876,69.35 205.0001,69.35 205.3126,69.6593 205.6251,69.35 205.3126,69.35 205.3126,69.0406 205.0001,69.35 205.3126,69.35 205.3126,69.35 205.3126,69.6593 205.3126,69.9687 205.0001,70.2781 205.3126,70.5875 205.6251,70.5875"/>
    <line x1="205.3126" x2="205.3126" y1="70.5875" y2="70.8968"/>
    <polyline fill="none" stroke="#000000" points="205.0001,70.2781 204.3751,69.6593 204.0626,69.9687 204.3751,69.9687 204.3751,70.2781 204.0626,69.9687 203.7501,69.9687 203.4376,70.2781 203.1251,70.2781 202.8126,70.5875 203.7501,71.5156"/>
    <polyline fill="none" stroke="#000000" points="206.2501,70.2781 206.2501,69.9687 205.3126,69.0406 205.6251,68.7312 205.9376,68.7312"/>
    <polygon points="206.8751,68.4218 207.1876,68.4218 206.8751,68.7312 206.5626,68.4218"/>
    <polyline fill="none" stroke="#000000" points="206.5626,69.35 206.8751,69.0406 206.8751,68.1125 206.5626,68.4218 206.2501,68.4218 205.9376,68.7312 206.8751,69.6593 206.8751,69.9687"/>
    <line x1="206.8751" x2="207.1876" y1="69.6593" y2="69.6593"/>
    <polyline fill="none" stroke="#000000" points="207.8126,69.35 207.8126,69.0406 207.5001,68.7312 207.8126,68.4218 207.8126,68.1125 207.5001,67.8031 207.8126,67.4937 208.1251,67.4937"/>
    <polyline fill="none" stroke="#000000" points="207.5001,67.8031 207.1876,67.8031 206.8751,68.1125 207.5001,68.7312"/>
    <line x1="207.8126" x2="208.1251" y1="69.0406" y2="69.0406"/>
    <polyline fill="none" stroke="#000000" points="209.0626,68.4218 208.1251,67.4937 208.7501,66.875 209.0626,66.875"/>
    <polyline fill="none" stroke="#000000" points="210.0001,66.2562 210.3126,66.5656 210.3126,66.875 210.6251,67.1843 210.6251,67.4937"/>
    <line x1="210.6251" x2="210.9376" y1="67.1843" y2="67.4937"/>
    <line x1="211.5626" x2="210.6251" y1="66.875" y2="65.9468"/>
    <line x1="211.8751" x2="212.1876" y1="65.0187" y2="65.3281"/>
    <polyline fill="none" stroke="#000000" points="212.1876,65.0187 211.8751,65.0187 211.5626,65.3281 211.2501,65.3281 210.6251,65.9468 210.3126,65.9468 210.0001,66.2562 209.6876,66.2562 209.0626,66.875 210.0001,67.8031"/>
    <polyline fill="none" stroke="#000000" points="212.5001,66.2562 213.7501,66.2562 215.0001,65.0187 213.7501,63.7812"/>
    <polygon points="214.6876,63.4718 214.6876,63.7812 214.6876,63.7812 214.3751,63.4718"/>
    <polyline fill="none" stroke="#000000" points="213.1251,64.4 215.3126,66.5656 216.2501,66.5656 216.5626,66.2562"/>
    <line x1="216.5626" x2="216.8751" y1="65.9468" y2="66.2562"/>
    <line x1="212.8126" x2="212.5001" y1="66.2562" y2="65.9468"/>
    <line x1="206.5626" x2="206.2501" y1="70.2781" y2="69.9687"/>
    <polygon points="201.2501,72.1343 200.9376,71.825 201.2501,71.825"/>
    <line x1="199.3751" x2="200.6251" y1="72.7531" y2="73.9906"/>
    <line x1="200.3126" x2="200.3126" y1="73.9906" y2="73.6812"/>
    <line x1="200.0001" x2="199.6876" y1="74.3" y2="74.3"/>
    <line x1="199.6876" x2="198.7501" y1="73.9906" y2="73.0625"/>
    <line x1="197.8126" x2="198.7501" y1="73.6812" y2="74.6093"/>
    <polyline fill="none" stroke="#000000" points="198.1251,75.5375 197.8126,75.5375 197.8126,75.2281"/>
    <polyline fill="none" stroke="#000000" points="197.8126,75.5375 197.1876,76.1562 196.8751,76.1562 196.2501,76.775 195.9376,76.775 195.3126,77.3937 195.0001,77.3937 194.6876,77.7031 194.3751,77.7031 193.7501,78.3218 193.4376,78.3218 193.1251,78.6312 193.1251,78.9406 192.8126,79.25 192.8126,79.5593 192.5001,79.8687"/>
    <line x1="192.8126" x2="192.8126" y1="79.8687" y2="79.5593"/>
    <polyline fill="none" stroke="#000000" points="196.8751,74.3 196.5626,74.3 196.2501,74.6093 195.9376,74.6093 195.6251,74.9187 195.3126,74.9187 194.6876,75.5375 194.3751,75.5375 193.7501,76.1562 193.4376,76.1562 192.8126,76.775 192.5001,76.775 192.1876,77.0843 191.8751,77.0843 191.5626,77.3937 191.2501,77.3937 190.6251,78.0125 190.3126,78.0125 189.6876,78.6312 189.3751,78.6312 189.0626,78.9406 188.7501,78.9406 188.1251,79.5593 187.8126,79.5593 187.5001,79.8687 187.1876,79.8687 186.5626,80.4875 186.2501,80.4875 185.9376,80.7968 185.6251,80.7968 185.0001,81.4156 184.6876,81.4156 184.3751,81.725 184.0626,81.725 183.4376,82.3437 183.1251,82.3437 182.5001,82.9625 182.1876,82.9625 181.5626,83.5812 181.2501,83.5812 180.6251,84.2"/>
    <polyline fill="none" stroke="#000000" points="180.3126,84.2 180.0001,84.5093 179.3751,84.5093 179.0626,84.8187 178.7501,84.8187 177.8126,85.7468 177.5001,85.7468 177.1876,86.0562 176.8751,86.0562 176.5626,86.3656 176.2501,86.3656 175.9376,86.675 175.6251,86.675 175.3126,86.3656"/>
    <polyline fill="none" stroke="#000000" points="180.3126,83.8906 180.6251,84.2 180.3126,84.2 180.3126,83.8906 179.3751,82.9625 179.3751,81.725 179.6876,81.4156 179.6876,80.7968 180.0001,80.4875 180.0001,80.1781 180.3126,79.8687 180.3126,79.5593 180.6251,79.25 180.6251,78.9406 180.9376,78.6312 180.9376,77.7031 180.3126,77.0843 180.3126,76.775 180.6251,76.4656 180.6251,76.1562 180.9376,75.8468 180.9376,75.5375 181.2501,75.2281 181.2501,74.9187 181.5626,74.6093 181.5626,74.3 181.8751,73.9906 181.8751,73.6812 182.5001,73.0625 182.8126,73.0625 183.7501,72.1343 183.7501,71.825 184.0626,71.5156 184.0626,71.2062 184.3751,70.8968 184.3751,70.5875 184.6876,70.2781 184.6876,69.9687 185.0001,69.6593 185.0001,69.35 185.3126,69.0406 185.3126,68.7312 185.6251,68.4218 185.6251,68.1125 185.9376,67.8031 185.9376,67.4937 186.2501,67.1843 186.2501,66.875 186.5626,66.5656 186.5626,66.2562 186.8751,65.9468 186.8751,65.6375 187.1876,65.3281 187.1876,65.0187 187.5001,64.7093 187.5001,64.4 187.8126,64.0906 187.8126,63.7812 187.5001,63.4718 187.5001,62.5437 188.1251,61.925 188.1251,61.6156 188.4376,61.3062 188.4376,60.9968 188.7501,60.6875 188.7501,60.3781 189.3751,59.7593 189.3751,59.45 189.6876,59.1406 189.6876,58.8312 190.3126,58.2125 190.3126,57.9031 190.9376,57.2843 190.9376,56.975 191.5626,56.3562 191.5626,56.0468 191.8751,55.7375 191.8751,55.4281 192.8126,54.5 192.8126,54.1906 193.4376,53.5718 193.4376,53.2625 194.3751,52.3343 194.3751,52.025 195.6251,50.7875 195.6251,50.4781 196.8751,49.2406 196.8751,48.9312 198.1251,47.6937 198.1251,47.3843 198.7501,46.7656 198.7501,46.4562 200.0001,45.2187 200.0001,44.9093 200.9376,43.9812 200.9376,43.6718 202.5001,42.125 202.5001,41.8156 203.7501,40.5781 203.7501,40.2687 206.8751,37.175 206.8751,36.8656 209.0626,34.7 209.3751,34.7 212.5001,31.6062 212.8126,31.6062 214.6876,29.75 215.0001,29.75 218.1251,26.6562 218.4376,26.6562 220.6251,24.4906 221.2501,24.4906 221.5626,24.1812 221.5626,23.5625"/>
    <polyline fill="none" stroke="#000000" points="186.8751,13.9718 186.5626,13.6625 186.8751,13.6625 186.8751,13.9718 186.5626,14.2812 186.2501,13.9718 186.2501,14.2812 186.5626,14.2812"/>
    <polyline fill="none" stroke="#000000" points="186.2501,14.2812 185.6251,14.9 185.3126,14.9 183.1251,17.0656 182.8126,17.0656 180.6251,19.2312 180.6251,19.5406 177.8126,22.325 177.8126,22.6343 175.9376,24.4906 175.9376,24.8 174.3751,26.3468 174.3751,26.6562 173.1251,27.8937 173.1251,28.2031 172.5001,28.8218 172.5001,29.1312 171.5626,30.0593 171.5626,30.3687 170.6251,31.2968 170.6251,31.6062 170.0001,32.225 170.0001,32.5343 169.0626,33.4625 169.0626,33.7718 168.4376,34.3906 168.4376,34.7 167.8126,35.3187 167.8126,35.6281 167.5001,35.9375 167.5001,36.2468 166.8751,36.8656 166.8751,37.175 166.2501,37.7937 166.2501,38.1031 165.6251,38.7218 165.6251,39.0312 165.0001,39.65 165.0001,39.9593 164.3751,40.5781 164.3751,40.8875 163.7501,41.5062 163.7501,41.8156 163.4376,42.125 163.4376,42.4343 162.8126,43.0531 162.8126,43.3625 162.5001,43.6718 162.5001,43.9812 162.1876,44.2906 162.1876,44.6 161.5626,45.2187 161.5626,45.5281 161.2501,45.8375 161.2501,46.1468 160.9376,46.4562 160.9376,46.7656 160.6251,47.075 160.6251,47.3843 160.3126,47.6937 160.3126,48.0031 159.6876,48.6218 159.6876,49.2406 159.0626,49.8593 159.0626,50.1687 158.7501,50.4781 158.7501,50.7875 158.4376,51.0968 158.4376,51.4062 158.1251,51.7156 158.1251,52.025 157.8126,52.3343 157.8126,52.6437 157.5001,52.9531 157.5001,53.2625 157.1876,53.5718 157.1876,54.1906 156.8751,54.5 156.8751,54.8093 156.5626,55.1187 156.5626,55.4281 156.2501,55.7375 156.2501,56.0468 155.9376,56.3562 155.9376,56.6656 155.6251,56.975 155.6251,57.2843 155.3126,57.5937 155.3126,57.9031 155.0001,58.2125 155.0001,58.5218 154.6876,58.8312 154.6876,59.1406 154.3751,59.45 154.3751,60.0687 154.0626,60.3781 154.0626,60.6875 153.7501,60.9968 153.7501,61.3062 153.4376,61.6156 153.4376,61.925 153.1251,62.2343 153.1251,62.8531 152.8126,63.1625 152.8126,63.4718 152.5001,63.7812 152.5001,64.0906 152.1876,64.4 152.1876,65.0187 151.8751,65.3281 151.8751,65.6375 151.5626,65.9468 151.5626,66.5656 151.2501,66.875 151.2501,67.1843 150.9376,67.4937 150.9376,67.8031 150.6251,68.1125 150.6251,68.7312 150.3126,69.0406 150.3126,69.35 150.0001,69.6593 150.0001,70.2781 149.6876,70.5875 149.6876,70.8968 149.3751,71.2062 149.3751,71.825 149.0626,72.1343 149.0626,72.4437 148.7501,72.7531 148.7501,73.3718 148.4376,73.6812 148.4376,73.9906 148.1251,74.3 148.1251,74.9187 147.8126,75.2281 147.8126,75.5375 146.5626,76.775 146.5626,77.3937 146.2501,77.7031 146.2501,78.0125 147.1876,78.9406 147.1876,79.25 146.8751,79.5593 146.8751,80.1781 146.5626,80.4875 146.5626,81.1062 146.2501,81.4156 146.2501,81.725 145.9376,82.0343 145.9376,82.6531 145.6251,82.9625 145.6251,83.5812 145.3126,83.8906 145.3126,84.5093 145.0001,84.8187 145.0001,85.4375 144.6876,85.7468 144.6876,86.3656 144.3751,86.675 144.3751,87.2937 144.0626,87.6031 144.0626,88.2218 143.7501,88.5312 143.7501,89.15 143.4376,89.4593 143.4376,90.0781 143.1251,90.3875 143.1251,91.0062 142.8126,91.3156 142.8126,92.2437 142.5001,92.5531 142.5001,93.1718 142.1876,93.4812 142.1876,94.1 141.8751,94.4093 141.8751,95.0281 141.5626,95.3375 141.5626,95.9562 141.2501,96.2656 141.2501,97.1937 140.9376,97.5031 140.9376,98.4313 140.6251,98.7407 140.6251,99.9782 140.3126,100.2876 140.3126,101.5251 140.0001,101.8344 140.0001,102.4532 139.6876,102.7626 139.6876,104.6188 139.3751,104.9282 139.3751,105.5469 139.0626,105.8563 139.0626,107.0938 138.7501,107.4032 138.7501,108.3313 138.4376,108.6407 138.4376,109.5688 138.7501,109.8782 136.8751,111.7344 136.5626,111.7344 135.9376,112.3532 135.6251,112.3532 135.0001,112.9719 134.6876,112.9719 134.3751,113.2813 134.0626,113.2813 133.4376,113.9001 132.8126,113.9001 132.5001,113.5907 132.1876,113.9001 132.1876,114.2094 131.2501,115.1376 130.9376,115.1376 130.3126,115.7563 130.0001,115.7563 129.3751,116.3751 129.0626,116.3751 128.4376,116.9938 128.1251,116.9938 127.5001,117.6126 127.1876,117.6126 126.8751,117.9219 126.5626,117.9219 125.9376,118.5407 125.6251,118.5407 125.3126,118.8501 125.0001,118.8501 124.3751,119.4688 124.0626,119.4688 123.4376,120.0876 123.1251,120.0876 122.8126,120.3969 122.5001,120.3969 121.8751,121.0157 121.5626,121.0157 120.9376,121.6344 120.6251,121.6344 120.3126,121.9438 120.0001,121.9438 119.3751,122.5626 119.0626,122.5626 118.4376,123.1813 118.1251,123.1813 117.8126,123.4907 117.5001,123.4907 116.8751,124.1094 116.5626,124.1094 115.9376,124.7282 115.6251,124.7282 115.0001,125.3469 114.6876,125.3469 114.0626,125.9657 113.7501,125.9657 113.4376,126.2751 113.1251,126.2751 112.1876,127.2032 111.8751,127.2032 111.5626,127.5126 111.2501,127.5126 110.9376,127.8219 110.6251,127.8219 110.0001,128.4407 109.6876,128.4407 109.0626,129.0594 108.7501,129.0594 108.1251,129.6782 107.8126,129.6782 107.1876,130.2969 106.8751,130.2969 106.2501,130.9157 105.9376,130.9157 105.3126,131.5344 105.0001,131.5344 104.3751,132.1532 104.0626,132.1532 103.7501,132.4626 103.4376,132.4626 102.8126,133.0813 102.5001,133.0813 101.8751,133.7001 100.6251,133.7001 100.3126,134.0094 100.0001,134.0094 99.6876,133.7001 99.3751,133.3907 99.3751,133.7001 99.6876,133.7001"/>
    <polyline fill="none" stroke="#000000" points="99.3751,133.7001 99.0626,134.0094 99.0626,134.3188 97.5,135.8657 97.5,136.1751 96.5625,137.1032 96.25,137.1032 95.9375,137.4126 95.625,137.4126 95.3125,137.7219 95.0,137.7219 94.375,138.3407 94.0625,138.3407 93.75,138.6501 93.4375,138.6501 92.8125,139.2688 92.5,139.2688 92.1875,139.5782 91.875,139.5782 91.25,140.1969 90.9375,140.1969 90.3125,140.8157 90.0,140.8157 89.6875,141.1251 89.375,141.1251 88.75,141.7438 88.4375,141.7438 87.8125,142.3626 87.5,142.3626 86.875,142.9813 86.5625,142.9813 85.9375,143.6001 85.625,143.6001 84.6875,144.5282 84.375,144.5282 84.0625,144.8376 83.75,144.8376 82.8125,145.7657 82.5,145.7657 81.5625,146.6938 81.25,146.6938 80.625,147.3126 80.3125,147.3126 79.6875,147.9313 79.375,147.9313 78.4375,148.8594 78.125,148.8594 77.1875,149.7876 76.875,149.7876 75.9375,150.7157 75.625,150.7157 75.0,151.3344 74.6875,151.3344 73.75,152.2626 73.4375,152.2626 73.125,152.5719 71.875,152.5719"/>
    <polyline fill="none" stroke="#000000" points="71.25,160.6157 71.25,160.9251 70.3125,161.8532 70.0,161.8532"/>
    <line x1="69.6875" x2="69.6875" y1="161.5438" y2="161.2344"/>
    <polyline fill="none" stroke="#000000" points="69.375,161.5438 68.75,161.5438 68.4375,161.8532 68.75,162.1626 68.4375,162.4719 68.75,162.7813"/>
    <line x1="69.0625" x2="68.75" y1="162.4719" y2="162.1626"/>
    <polyline fill="none" stroke="#000000" points="68.4375,162.4719 67.8125,163.0907 67.8125,163.4001"/>
    <polyline fill="none" stroke="#000000" points="67.8125,163.0907 67.5,162.7813 67.1875,162.7813 66.875,163.0907 67.1875,163.4001 66.875,163.7094 67.1875,164.0188"/>
    <line x1="66.875" x2="66.5625" y1="164.3282" y2="164.0188"/>
    <line x1="66.25" x2="66.5625" y1="164.3282" y2="164.6376"/>
    <polyline fill="none" stroke="#000000" points="65.9375,164.6376 65.625,164.3282 65.3125,164.3282 65.0,164.6376 65.625,165.2563"/>
    <polyline fill="none" stroke="#000000" points="65.9375,164.9469 65.9375,164.6376 66.875,163.7094"/>
    <line x1="67.1875" x2="67.5" y1="163.4001" y2="163.7094"/>
    <line x1="68.125" x2="68.4375" y1="162.7813" y2="163.0907"/>
    <polyline fill="none" stroke="#000000" points="65.3125,164.9469 64.6875,165.5657 65.0,165.8751"/>
    <line x1="65.3125" x2="65.0" y1="165.5657" y2="165.2563"/>
    <polyline fill="none" stroke="#000000" points="64.6875,165.5657 64.375,165.8751 64.6875,166.1844"/>
    <polyline fill="none" stroke="#000000" points="64.375,165.8751 64.0625,165.5657 63.4375,166.1844 63.4375,166.4938"/>
    <polyline fill="none" stroke="#000000" points="63.4375,166.8032 63.125,166.8032 63.4375,166.4938 63.4375,166.8032 63.75,167.1126 64.0625,167.1126 64.6875,166.4938 64.6875,166.1844 65.9375,164.9469 66.25,165.2563 66.5625,164.9469 66.5625,164.6376 67.8125,163.4001 68.125,163.7094 68.4375,163.4001 68.4375,163.0907 69.0625,162.4719 69.375,162.4719 70.0,161.8532 69.6875,161.5438 69.375,161.5438 70.0,160.9251 70.0,160.6157 70.3125,160.3063 70.9375,160.3063 71.25,160.6157 72.8125,159.0688 73.125,159.0688 74.6875,157.5219 75.0,157.5219 75.9375,156.5938 76.25,156.5938 76.5625,156.2844 76.875,156.2844 77.1875,155.9751 77.5,155.9751 77.8125,155.6657 78.4375,155.6657 78.75,155.3563 79.6875,155.3563 80.0,155.0469 80.0,154.4282 80.3125,154.1188 80.3125,153.8094 81.5625,152.5719"/>
    <polyline fill="none" stroke="#000000" points="81.5625,152.2626 81.5625,152.5719 81.875,152.5719"/>
    <polyline fill="none" stroke="#000000" points="83.125,151.3344 83.125,151.9532 82.5,152.5719 81.875,152.5719 81.5625,152.2626 81.875,151.9532 81.875,151.6438 82.5,151.0251 82.8125,151.0251 83.125,151.3344 84.0625,150.4063 84.375,150.7157 84.6875,150.7157 85.625,149.7876 85.625,149.4782 85.9375,149.1688 86.25,148.8594 86.5625,148.8594 87.8125,147.6219 88.125,147.6219 89.0625,146.6938 89.375,146.6938 90.3125,145.7657 90.625,145.7657 91.5625,144.8376 91.875,144.8376 92.5,144.2188 92.8125,144.2188 93.75,143.2907 94.0625,143.2907 94.6875,142.6719 95.0,142.6719 95.9375,141.7438 96.25,141.7438 96.875,141.1251 97.1875,141.1251 98.1251,140.1969 98.4376,140.1969 99.0626,139.5782 99.3751,139.5782 100.0001,138.9594 100.3126,138.9594 101.2501,138.0313 101.5626,138.0313 102.1876,137.4126 103.1251,137.4126 103.4376,137.1032 103.7501,137.1032 104.0626,136.7938 104.6876,136.7938 105.0001,136.4844 105.3126,136.4844 105.6251,136.1751 105.6251,135.8657 105.9376,135.5563 105.9376,135.2469 106.5626,134.6282 106.8751,134.6282 107.8126,133.7001 108.1251,133.7001 108.7501,133.0813 109.0626,133.0813 109.6876,132.4626 110.0001,132.4626 110.6251,131.8438 110.9376,131.8438 111.5626,131.2251 111.8751,131.2251 112.5001,130.6063 112.8126,130.6063 113.4376,129.9876 113.7501,129.9876 114.3751,129.3688 114.6876,129.3688 115.3126,128.7501 115.6251,128.7501 116.2501,128.1313 116.5626,128.1313 117.1876,127.5126 117.5001,127.5126 118.1251,126.8938 118.4376,126.8938 119.0626,126.2751 119.3751,126.2751 120.0001,125.6563 120.3126,125.6563 120.6251,125.3469 120.9376,125.3469 121.8751,124.4188 122.1876,124.4188 122.5001,124.1094 122.8126,124.1094 123.7501,123.1813 124.0626,123.1813 124.6876,122.5626 125.0001,122.5626 125.6251,121.9438 125.9376,121.9438 126.5626,121.3251 126.8751,121.3251 127.5001,120.7063 127.8126,120.7063 128.4376,120.0876 128.7501,120.0876 129.3751,119.4688 129.6876,119.4688 130.3126,118.8501 130.6251,118.8501 131.2501,118.2313 131.5626,118.2313 132.1876,117.6126 132.5001,117.6126 133.1251,116.9938 133.4376,116.9938 134.0626,116.3751 134.3751,116.3751 135.0001,115.7563 135.3126,115.7563 135.6251,115.4469 135.9376,115.4469 136.5626,114.8282 136.8751,114.8282 137.5001,114.2094 137.8126,114.2094 138.4376,113.5907 138.7501,113.5907 139.3751,112.9719 139.6876,112.9719 140.3126,112.3532 140.6251,112.3532 141.5626,111.4251 141.8751,111.4251 142.5001,110.8063 142.8126,110.8063 143.4376,110.1876 143.7501,110.1876 144.3751,109.5688 144.6876,109.5688 145.3126,108.9501 145.6251,108.9501 146.2501,108.3313 146.5626,108.3313 147.1876,107.7126 147.5001,107.7126 148.1251,107.0938 148.4376,107.0938 149.0626,106.4751 149.3751,106.4751 150.0001,105.8563 150.3126,105.8563 150.9376,105.2376 151.2501,105.2376 151.8751,104.6188 152.1876,104.6188 152.8126,104.0001 153.1251,104.0001 153.4376,103.6907 154.3751,103.6907 154.6876,103.3813 156.2501,103.3813"/>
    <polyline fill="none" stroke="#000000" points="156.5626,103.3813 156.2501,103.3813 156.5626,103.0719"/>
    <polyline fill="none" stroke="#000000" points="158.7501,104.0001 159.6876,104.9282 160.6251,104.9282 160.9376,105.2376 162.1876,105.2376 162.5001,105.5469 163.7501,105.5469"/>
    <polyline fill="none" stroke="#000000" points="164.3751,104.6188 164.6876,104.3094 165.6251,104.3094 165.9376,104.6188 166.5626,104.6188 167.1876,105.2376 166.8751,105.5469 166.8751,105.8563 166.5626,106.1657"/>
    <polyline fill="none" stroke="#000000" points="167.1876,105.2376 167.5001,104.9282 168.1251,104.9282 168.7501,105.5469 168.4376,105.8563 168.4376,106.1657 168.1251,106.4751"/>
    <polyline fill="none" stroke="#000000" points="168.7501,105.5469 169.0626,105.2376 169.3751,105.2376 170.0001,105.8563 170.3126,105.5469 170.6251,105.5469 171.2501,106.1657 171.5626,105.8563 171.8751,105.8563 172.5001,106.4751 172.8126,106.1657 173.1251,106.1657 173.4376,106.4751 173.7501,106.4751 174.0626,106.7844 174.3751,106.4751 174.6876,106.7844 175.6251,106.7844 175.9376,107.0938 177.1876,107.0938 177.5001,107.4032 178.7501,107.4032 179.0626,107.7126 180.0001,107.7126 180.3126,108.0219 181.8751,108.0219 182.1876,108.3313 183.4376,108.3313 183.7501,108.6407 184.6876,108.6407 185.0001,108.9501 186.2501,108.9501 186.5626,109.2594 187.8126,109.2594 188.1251,109.5688 189.3751,109.5688 189.6876,109.8782 191.5626,109.8782 191.8751,110.1876 193.4376,110.1876 193.7501,110.4969 196.2501,110.4969 196.5626,110.8063 196.8751,110.8063 196.5626,111.1157 196.5626,111.7344"/>
    <line x1="196.5626" x2="196.2501" y1="111.4251" y2="111.7344"/>
    <line x1="196.5626" x2="196.5626" y1="111.1157" y2="110.8063"/>
    <polyline fill="none" stroke="#000000" points="196.8751,110.8063 197.5001,110.8063 197.8126,111.1157 198.1251,111.1157 198.4376,110.8063 199.0626,110.8063 199.6876,111.4251"/>
    <polyline fill="none" stroke="#000000" points="198.1251,111.7344 198.4376,112.0438 199.0626,112.0438 199.6876,111.4251 200.9376,111.4251 201.2501,111.7344 207.5001,111.7344 207.8126,112.0438 214.6876,112.0438 215.0001,111.7344 220.0001,111.7344 220.3126,111.4251 223.4376,111.4251 223.7501,111.1157 225.3126,111.1157 225.6251,110.8063 227.5001,110.8063 227.8126,110.4969 229.0626,110.4969 229.3751,110.1876 230.9376,110.1876 231.2501,109.8782 232.1876,109.8782 232.5001,109.5688 234.0626,109.5688 234.3751,109.2594 235.3126,109.2594 235.6251,108.9501 236.5626,108.9501 236.8751,108.6407 237.8126,108.6407 238.1251,108.3313 239.0626,108.3313 239.3751,108.0219 240.3126,108.0219 240.6251,107.7126 241.5626,107.7126 241.8751,107.4032 242.5001,107.4032 242.8126,107.0938 243.4376,107.0938 243.7501,106.7844 244.0626,106.7844 244.3751,106.4751 245.3126,106.4751 245.6251,106.1657 245.9376,106.1657 246.2501,105.8563 246.8751,105.8563 247.1876,105.5469 247.8126,105.5469 248.1251,105.2376 248.4376,105.2376 248.7501,104.9282 249.3751,104.9282 249.6876,104.6188 250.3126,104.6188 250.6251,104.3094 250.9376,104.3094 251.2501,104.0001 251.8751,104.0001 252.1876,103.6907 252.5001,103.6907 252.8126,103.3813 253.1251,103.3813 253.4376,103.0719 253.7501,103.0719 254.0626,102.7626 254.3751,102.7626 254.6876,102.4532 255.3126,102.4532 255.6251,102.1438 256.2501,102.1438 256.8751,101.5251 257.1876,101.5251"/>
    <polyline fill="none" stroke="#000000" points="256.2501,75.2281 255.9376,75.2281 255.6251,75.5375 255.3126,75.5375 255.0001,75.8468 254.6876,75.8468 254.3751,76.1562 253.4376,76.1562 253.1251,76.4656 252.5001,76.4656 252.1876,76.775 251.8751,76.775 251.5626,77.0843 250.9376,77.0843 250.6251,77.3937 249.0626,77.3937 248.7501,77.7031 248.1251,77.7031 247.8126,78.0125 247.1876,78.0125 246.8751,78.3218 245.9376,78.3218 245.6251,78.6312 245.0001,78.6312 244.6876,78.9406 243.7501,78.9406 243.4376,79.25 242.1876,79.25 241.8751,79.5593 240.9376,79.5593 240.6251,79.8687 239.6876,79.8687 239.3751,80.1781 237.8126,80.1781 237.5001,80.4875 235.6251,80.4875 235.3126,80.7968 234.0626,80.7968 233.7501,81.1062 231.8751,81.1062 231.5626,81.4156 229.6876,81.4156 229.3751,81.725 212.1876,81.725 211.8751,81.4156 207.5001,81.4156 207.1876,81.1062 202.8126,81.1062 202.5001,80.7968 198.4376,80.7968 198.1251,80.4875 193.4376,80.4875 192.8126,79.8687 192.5001,79.8687 192.1876,80.1781 191.5626,80.1781 191.2501,80.4875 190.0001,80.4875 189.3751,81.1062 189.0626,81.1062 188.4376,81.725 188.1251,81.725 187.5001,82.3437 187.1876,82.3437 186.8751,82.6531 186.5626,82.6531 185.9376,83.2718 185.6251,83.2718 185.0001,83.8906 184.6876,83.8906 184.0626,84.5093 183.7501,84.5093 183.4376,84.8187 183.1251,84.8187 182.5001,85.4375 182.1876,85.4375 181.5626,86.0562 181.2501,86.0562 180.6251,86.675 180.3126,86.675 180.0001,86.9843 179.6876,86.9843 179.0626,87.6031 178.7501,87.6031 178.4376,87.9125 178.1251,87.9125 177.5001,88.5312 177.1876,88.5312 176.5626,89.15 176.2501,89.15 175.6251,89.7687 175.3126,89.7687 174.6876,90.3875 174.3751,90.3875 173.7501,91.0062 173.4376,91.0062 172.8126,91.625 172.5001,91.625 171.8751,92.2437 171.5626,92.2437 170.9376,92.8625 170.6251,92.8625 170.3126,93.1718 170.0001,93.1718 169.3751,93.7906 169.0626,93.7906 168.4376,94.4093 168.1251,94.4093 167.5001,95.0281 167.1876,95.0281 166.8751,95.3375 166.5626,95.3375 165.9376,95.9562 165.6251,95.9562 165.0001,96.575 164.6876,96.575 164.0626,97.1937 163.7501,97.1937 163.4376,97.5031 163.1251,97.5031 162.5001,98.1219 162.1876,98.1219 161.5626,98.7407 161.2501,98.7407 160.6251,99.3594 160.3126,99.3594 159.6876,99.9782 159.3751,99.9782 159.0626,100.2876 158.7501,100.2876 158.1251,100.9063 157.8126,100.9063 157.1876,101.5251 157.1876,101.8344 156.8751,102.1438 156.8751,102.4532 156.5626,102.7626 156.5626,103.3813 156.8751,103.6907 157.8126,103.6907 158.1251,104.0001 158.7501,104.0001 159.3751,103.3813 160.3126,103.3813 160.6251,103.6907 161.2501,103.6907 161.5626,104.0001 161.8751,103.6907 162.1876,104.0001 162.8126,104.0001 163.1251,104.3094 163.4376,104.0001 163.7501,104.0001 164.3751,104.6188 164.0626,104.9282 164.0626,105.2376 163.7501,105.5469 164.0626,105.8563 165.3126,105.8563 165.6251,106.1657 166.5626,106.1657 166.8751,106.4751 168.1251,106.4751 168.4376,106.7844 169.3751,106.7844 169.6876,107.0938 170.6251,107.0938 170.9376,107.4032 171.8751,107.4032 172.1876,107.7126 173.1251,107.7126 173.4376,108.0219 174.3751,108.0219 174.6876,108.3313 175.9376,108.3313 176.2501,108.6407 176.8751,108.6407 177.1876,108.9501 178.1251,108.9501 178.4376,109.2594 179.6876,109.2594 180.0001,109.5688 181.2501,109.5688 181.5626,109.8782 183.1251,109.8782 183.4376,110.1876 184.6876,110.1876 185.0001,110.4969 186.2501,110.4969 186.5626,110.8063 188.1251,110.8063 188.4376,111.1157 189.6876,111.1157 190.0001,111.4251 192.1876,111.4251 192.5001,111.7344 196.5626,111.7344 196.8751,112.0438 197.5001,112.0438 197.8126,111.7344 198.1251,111.7344 197.8126,111.4251 197.8126,111.7344"/>
    <polyline fill="none" stroke="#000000" points="197.8126,111.1157 197.8126,111.4251 198.1251,111.1157"/>
    <line x1="174.0626" x2="173.1251" y1="106.7844" y2="107.7126"/>
    <polyline fill="none" stroke="#000000" points="171.8751,107.4032 172.1876,107.0938 172.1876,106.7844 172.5001,106.4751"/>
    <polyline fill="none" stroke="#000000" points="171.2501,106.1657 170.9376,106.4751 170.9376,106.7844 170.6251,107.0938"/>
    <polyline fill="none" stroke="#000000" points="169.3751,106.7844 169.6876,106.4751 169.6876,106.1657 170.0001,105.8563"/>
    <line x1="166.2501" x2="165.9376" y1="104.6188" y2="104.9282"/>
    <polyline fill="none" stroke="#000000" points="165.9376,104.6188 165.9376,104.9282 165.6251,105.2376 165.6251,105.5469 165.3126,105.8563"/>
    <line x1="163.1251" x2="162.1876" y1="104.3094" y2="105.2376"/>
    <line x1="161.5626" x2="160.6251" y1="104.0001" y2="104.9282"/>
    <polyline fill="none" stroke="#000000" points="138.7501,109.8782 139.6876,109.8782 140.0001,109.5688 140.3126,109.5688 140.9376,108.9501 141.2501,108.9501 141.8751,108.3313 142.1876,108.3313 142.8126,107.7126 143.1251,107.7126 143.7501,107.0938 144.0626,107.0938 144.3751,106.7844 144.6876,106.7844 145.3126,106.1657 145.6251,106.1657 146.2501,105.5469 146.5626,105.5469 147.1876,104.9282 147.5001,104.9282 147.8126,104.6188 148.1251,104.6188 148.7501,104.0001 149.0626,104.0001 149.6876,103.3813 150.0001,103.3813 150.6251,102.7626 150.9376,102.7626 151.5626,102.1438 151.8751,102.1438 152.5001,101.5251 152.8126,101.5251 153.4376,100.9063 153.7501,100.9063 154.3751,100.2876 154.6876,100.2876 155.3126,99.6688 155.6251,99.6688 156.2501,99.0501 156.5626,99.0501 157.1876,98.4313 157.5001,98.4313 158.1251,97.8126 158.4376,97.8126 159.0626,97.1937 159.3751,97.1937 159.6876,96.8843 160.0001,96.8843 160.6251,96.2656 160.9376,96.2656 161.5626,95.6468 161.8751,95.6468 162.5001,95.0281 162.8126,95.0281 163.1251,94.7187 163.4376,94.7187 164.0626,94.1 164.3751,94.1 165.0001,93.4812 165.3126,93.4812 165.9376,92.8625 166.2501,92.8625 166.8751,92.2437 167.1876,92.2437 167.8126,91.625 168.1251,91.625 168.7501,91.0062 169.0626,91.0062 169.6876,90.3875 170.0001,90.3875 170.6251,89.7687 170.9376,89.7687 171.2501,89.4593 171.5626,89.4593 172.1876,88.8406 172.5001,88.8406 173.1251,88.2218 173.4376,88.2218 173.7501,87.9125 174.0626,87.9125 174.6876,87.2937 174.6876,86.9843 175.3126,86.3656 175.3126,85.7468 175.6251,85.4375 175.6251,84.8187 176.2501,84.2 176.2501,83.8906 176.5626,83.5812 176.5626,83.2718 177.1876,82.6531 177.1876,82.3437 177.5001,82.0343 177.5001,81.725 177.8126,81.4156 177.8126,81.1062 178.4376,80.4875 178.4376,80.1781 178.7501,79.8687 178.7501,79.5593 179.0626,79.25"/>
    <line x1="178.7501" x2="179.6876" y1="79.8687" y2="80.7968"/>
    <polyline fill="none" stroke="#000000" points="180.0001,80.1781 179.0626,79.25 179.0626,78.9406 179.3751,78.6312"/>
    <polyline fill="none" stroke="#000000" points="179.6876,78.0125 179.3751,78.3218 179.3751,78.6312 180.3126,79.5593"/>
    <polyline fill="none" stroke="#000000" points="180.6251,78.9406 179.6876,78.0125 179.6876,77.7031 180.3126,77.0843"/>
    <polyline fill="none" stroke="#000000" points="182.5001,73.0625 182.1876,72.7531 182.5001,72.4437 182.5001,71.5156 182.8126,71.2062"/>
    <line x1="182.8126" x2="183.1251" y1="70.8968" y2="71.2062"/>
    <polyline fill="none" stroke="#000000" points="183.1251,70.5875 182.8126,70.8968 182.8126,71.2062 183.1251,71.2062 183.7501,71.825"/>
    <polyline fill="none" stroke="#000000" points="184.0626,71.2062 183.4376,70.5875 183.1251,70.5875 183.1251,70.2781 183.4376,69.9687"/>
    <polyline fill="none" stroke="#000000" points="183.4376,69.6593 183.4376,69.9687 183.7501,69.9687"/>
    <polyline fill="none" stroke="#000000" points="183.7501,69.35 183.4376,69.6593 184.3751,70.5875"/>
    <polyline fill="none" stroke="#000000" points="184.6876,69.9687 183.7501,69.0406 184.0626,68.7312"/>
    <polyline fill="none" stroke="#000000" points="184.0626,68.4218 184.0626,68.7312 184.3751,68.7312"/>
    <polyline fill="none" stroke="#000000" points="184.3751,68.1125 184.0626,68.4218 185.0001,69.35"/>
    <polyline fill="none" stroke="#000000" points="185.3126,68.7312 184.3751,67.8031 184.6876,67.4937"/>
    <line x1="184.6876" x2="185.0001" y1="67.1843" y2="67.4937"/>
    <line x1="185.0001" x2="185.3126" y1="66.875" y2="66.875"/>
    <polyline fill="none" stroke="#000000" points="185.0001,66.5656 185.0001,66.875 184.6876,67.1843 184.6876,67.4937 185.0001,67.4937 185.6251,68.1125"/>
    <polyline fill="none" stroke="#000000" points="185.9376,67.4937 185.0001,66.5656 185.3126,66.2562"/>
    <line x1="185.3126" x2="185.6251" y1="65.9468" y2="66.2562"/>
    <polyline fill="none" stroke="#000000" points="185.6251,65.6375 185.3126,65.9468 185.3126,66.2562 185.6251,66.2562 186.2501,66.875"/>
    <polyline fill="none" stroke="#000000" points="186.5626,66.2562 185.6251,65.3281 185.9376,65.0187 185.9376,64.7093"/>
    <line x1="185.9376" x2="186.2501" y1="65.0187" y2="65.0187"/>
    <line x1="186.2501" x2="186.5626" y1="64.4" y2="64.4"/>
    <line x1="186.2501" x2="187.1876" y1="64.0906" y2="65.0187"/>
    <polyline fill="none" stroke="#000000" points="186.8751,65.6375 185.9376,64.7093 186.2501,64.4 186.2501,64.0906 186.8751,63.4718 187.1876,63.4718 187.5001,63.1625"/>
    <line x1="187.5001" x2="187.1876" y1="63.4718" y2="63.4718"/>
    <polyline fill="none" stroke="#000000" points="185.6251,65.3281 185.6251,65.6375 185.9376,65.6375"/>
    <polyline fill="none" stroke="#000000" points="184.3751,67.8031 184.3751,68.1125 184.6876,68.1125"/>
    <polyline fill="none" stroke="#000000" points="183.7501,69.0406 183.7501,69.35 184.0626,69.35"/>
    <line x1="183.1251" x2="183.4376" y1="70.2781" y2="70.5875"/>
    <polyline fill="none" stroke="#000000" points="147.5001,75.8468 147.8126,76.1562 147.8126,77.3937 147.5001,77.7031 147.5001,78.3218 147.1876,78.6312 147.1876,78.9406"/>
    <line x1="147.1876" x2="146.8751" y1="78.6312" y2="78.6312"/>
    <line x1="146.5626" x2="146.2501" y1="78.3218" y2="78.3218"/>
    <polyline fill="none" stroke="#000000" points="146.2501,78.0125 146.2501,78.3218 145.6251,78.9406 145.6251,79.5593 146.5626,80.4875"/>
    <polyline fill="none" stroke="#000000" points="145.9376,79.8687 145.6251,79.8687 145.6251,79.5593"/>
    <polyline fill="none" stroke="#000000" points="145.6251,79.8687 145.0001,80.4875 145.0001,81.1062 144.6876,81.4156 144.6876,81.725 144.3751,82.0343 144.3751,82.9625 144.0626,83.2718 144.0626,83.5812 143.7501,83.8906 143.7501,84.5093 143.4376,84.8187 143.4376,85.4375 143.1251,85.7468 143.1251,86.0562 142.8126,86.3656 142.8126,86.9843 142.5001,87.2937 142.5001,87.9125 142.1876,88.2218 142.1876,88.8406 141.8751,89.15 141.8751,89.4593 141.5626,89.7687 141.5626,90.3875 141.2501,90.6968 141.2501,91.0062 140.9376,91.3156 140.9376,91.9343 140.6251,92.2437 140.6251,92.8625 140.3126,93.1718 140.3126,93.7906 140.0001,94.1 140.0001,94.4093 139.6876,94.7187 139.6876,95.3375 139.3751,95.6468 139.3751,96.2656 139.0626,96.575 139.0626,97.1937 138.4376,97.8126 138.4376,98.7407 138.1251,99.0501 138.1251,99.6688 137.8126,99.9782 137.8126,100.2876 137.5001,100.5969 137.5001,100.9063 137.1876,101.2157 137.1876,101.8344 136.8751,102.1438 136.8751,102.7626 136.5626,103.0719 136.5626,103.3813 136.2501,103.6907 136.2501,104.3094 135.9376,104.6188 135.9376,104.9282 135.6251,105.2376 135.6251,105.8563 135.3126,106.1657 135.3126,106.4751 135.0001,106.7844 135.0001,107.4032 134.6876,107.7126 134.6876,108.0219 134.3751,108.3313 134.3751,108.9501 134.0626,109.2594 134.0626,109.5688 133.7501,109.8782 133.7501,110.1876 133.1251,110.8063 133.1251,111.4251 132.8126,111.7344 132.8126,112.0438 132.5001,112.3532 132.5001,113.5907"/>
    <polyline fill="none" stroke="#000000" points="133.7501,109.8782 133.1251,109.2594 133.1251,108.9501 133.4376,108.6407"/>
    <polyline fill="none" stroke="#000000" points="134.0626,109.2594 133.4376,108.6407 133.4376,108.0219 133.7501,107.7126"/>
    <line x1="134.0626" x2="134.6876" y1="107.0938" y2="107.7126"/>
    <polyline fill="none" stroke="#000000" points="134.3751,108.3313 133.7501,107.7126 133.7501,107.4032 134.0626,107.0938 134.0626,106.4751 134.3751,106.1657"/>
    <polyline fill="none" stroke="#000000" points="135.0001,106.7844 134.3751,106.1657 134.3751,105.8563 134.6876,105.5469 135.3126,106.1657"/>
    <line x1="147.5001" x2="147.1876" y1="78.0125" y2="77.7031"/>
    <polyline fill="none" stroke="#000000" points="147.5001,77.7031 147.1876,77.7031 146.5626,77.0843"/>
    <line x1="146.5626" x2="146.8751" y1="77.3937" y2="77.3937"/>
    <polyline fill="none" stroke="#000000" points="135.6251,24.1812 135.0001,24.8 135.0001,25.7281 134.6876,26.0375 134.6876,26.3468 134.3751,26.6562 134.3751,26.9656 134.0626,27.275 134.0626,27.5843 133.7501,27.8937 133.7501,28.2031 133.4376,28.5125 133.4376,28.8218 133.1251,29.1312 133.1251,29.4406 132.8126,29.75 132.8126,30.0593 132.5001,30.3687 132.5001,30.6781 132.1876,30.9875 132.1876,31.2968 131.8751,31.6062 131.8751,31.9156 131.5626,32.225 131.5626,32.5343 131.2501,32.8437 131.2501,33.1531 130.9376,33.4625 130.9376,33.7718 130.6251,34.0812 130.6251,34.3906 130.3126,34.7 130.3126,35.0093 130.0001,35.3187 130.0001,35.6281 129.6876,35.9375 129.6876,36.2468 129.3751,36.5562 129.3751,37.175 129.0626,37.4843 129.0626,37.7937 128.7501,38.1031 128.7501,38.4125 128.4376,38.7218 128.4376,39.3406 128.1251,39.65 128.1251,39.9593 127.8126,40.2687 127.8126,40.5781 127.5001,40.8875 127.5001,41.5062 127.1876,41.8156 127.1876,42.125 126.8751,42.4343 126.8751,42.7437 126.5626,43.0531 126.5626,43.6718 126.2501,43.9812 126.2501,44.6 125.9376,44.9093 125.9376,45.2187 125.6251,45.5281 125.6251,46.1468 125.3126,46.4562 125.3126,46.7656 125.0001,47.075 125.0001,47.6937 124.6876,48.0031 124.6876,48.6218 124.3751,48.9312 124.3751,49.2406 124.0626,49.55 124.0626,50.1687 123.7501,50.4781 123.7501,51.0968 123.4376,51.4062 123.4376,52.025 123.1251,52.3343 123.1251,52.9531 122.8126,53.2625 122.8126,53.8812 122.5001,54.1906 122.5001,54.8093 122.1876,55.1187 122.1876,55.7375 121.8751,56.0468 121.8751,56.6656 121.5626,56.975 121.5626,57.5937 121.2501,57.9031 121.2501,58.5218 120.9376,58.8312 120.9376,59.1406 120.6251,59.45 120.6251,60.0687 120.3126,60.3781 120.3126,60.9968 120.0001,61.3062 120.0001,62.2343 119.6876,62.5437 119.6876,63.1625 119.3751,63.4718 119.3751,64.0906 119.0626,64.4 119.0626,65.0187 118.7501,65.3281 118.7501,65.9468 118.4376,66.2562 118.4376,67.1843 118.1251,67.4937 118.1251,68.1125 117.8126,68.4218 117.8126,69.0406 117.5001,69.35 117.5001,69.9687 117.1876,70.2781 117.1876,71.2062 116.8751,71.5156 116.8751,72.1343 116.5626,72.4437 116.5626,73.0625 116.2501,73.3718 116.2501,73.9906 115.9376,74.3 115.9376,74.9187 115.6251,75.2281 115.6251,75.8468 115.3126,76.1562 115.3126,76.775 115.0001,77.0843 115.0001,77.7031 114.6876,78.0125 114.6876,78.6312 114.3751,78.9406 114.3751,79.5593 114.0626,79.8687 114.0626,80.7968 113.7501,81.1062 113.7501,81.725 113.4376,82.0343 113.4376,82.6531 113.1251,82.9625 113.1251,83.2718 112.8126,83.5812 112.8126,84.5093 112.5001,84.8187 112.5001,85.4375 112.1876,85.7468 112.1876,86.3656 111.8751,86.675 111.8751,87.2937 111.5626,87.6031 111.5626,88.2218 111.2501,88.5312 111.2501,89.15 110.9376,89.4593 110.9376,90.0781 110.6251,90.3875 110.6251,91.0062 110.3126,91.3156 110.3126,92.2437 110.0001,92.5531 110.0001,93.1718 109.6876,93.4812 109.6876,94.1 109.3751,94.4093 109.3751,95.0281 109.0626,95.3375 109.0626,95.9562 108.7501,96.2656 108.7501,97.1937 108.4376,97.5031 108.4376,98.1219 108.1251,98.4313 108.1251,99.0501 107.8126,99.3594 107.8126,100.2876 107.5001,100.5969 107.5001,101.2157 107.1876,101.5251 107.1876,102.1438 106.8751,102.4532 106.8751,103.0719 106.5626,103.3813 106.5626,104.3094 106.2501,104.6188 106.2501,105.2376 105.9376,105.5469 105.9376,106.4751 105.6251,106.7844 105.6251,107.7126 105.3126,108.0219 105.3126,108.9501 105.0001,109.2594 105.0001,110.1876 104.6876,110.4969 104.6876,111.4251 104.3751,111.7344 104.3751,112.6626 104.0626,112.9719 104.0626,113.9001 103.7501,114.2094 103.7501,115.1376 103.4376,115.4469 103.4376,116.3751 103.1251,116.6844 103.1251,117.9219 102.8126,118.2313 102.8126,119.4688 102.5001,119.7782 102.5001,120.7063 102.1876,121.0157 102.1876,122.2532 101.8751,122.5626 101.8751,123.4907 101.5626,123.8001 101.5626,124.7282 101.2501,125.0376 101.2501,126.5844 100.9376,126.8938 100.9376,127.8219 100.6251,128.1313 100.6251,129.0594 100.3126,129.3688 100.3126,129.6782 100.0001,129.9876 100.0001,130.9157 99.6876,131.2251 99.6876,132.7719 99.3751,133.0813 99.3751,133.3907"/>
    <polyline fill="none" stroke="#000000" points="105.3126,136.4844 105.9376,137.1032 106.2501,137.1032 106.5626,137.4126 107.1876,137.4126 107.5001,137.7219 108.4376,137.7219 108.7501,138.0313 109.6876,138.0313 110.0001,138.3407 111.2501,138.3407 111.5626,138.6501 111.8751,138.6501 112.8126,139.5782 113.4376,139.5782 113.7501,139.8876 114.6876,139.8876 115.0001,140.1969 115.9376,140.1969 116.2501,140.5063 117.5001,140.5063 117.8126,140.8157 119.0626,140.8157 119.3751,141.1251 120.3126,141.1251 120.6251,141.4344 121.5626,141.4344 121.8751,141.7438 123.1251,141.7438 123.4376,142.0532 124.0626,142.0532 124.3751,142.3626 125.6251,142.3626 125.9376,142.6719 126.8751,142.6719 127.1876,142.9813 127.8126,142.9813 128.1251,143.2907 129.0626,143.2907 129.3751,143.6001 130.0001,143.6001 130.3126,143.9094 131.8751,143.9094 132.1876,144.2188 133.4376,144.2188 133.7501,144.5282 135.0001,144.5282 135.3126,144.8376 136.2501,144.8376 136.5626,145.1469 137.5001,145.1469 137.8126,145.4563 139.0626,145.4563 139.3751,145.7657 140.0001,145.7657 140.3126,146.0751 141.5626,146.0751 141.8751,146.3844 143.4376,146.3844 143.7501,146.6938 144.3751,146.6938 144.6876,146.3844 145.3126,147.0032 145.6251,147.0032 146.2501,146.3844 146.5626,146.3844 146.8751,146.6938 147.8126,146.6938 148.1251,147.0032 149.0626,147.0032 149.3751,147.3126 150.9376,147.3126 151.2501,147.6219 152.5001,147.6219 152.8126,147.9313 154.0626,147.9313 154.3751,148.2407 155.9376,148.2407 156.2501,148.5501 158.1251,148.5501 158.4376,148.8594 159.6876,148.8594 160.0001,149.1688 161.5626,149.1688 161.8751,149.4782 163.4376,149.4782 163.7501,149.7876 165.9376,149.7876 166.2501,150.0969 168.1251,150.0969 168.4376,150.4063 169.6876,150.4063 170.0001,150.7157 172.8126,150.7157 173.1251,151.0251 174.6876,151.0251 175.0001,151.3344 176.8751,151.3344 177.1876,151.6438 179.0626,151.6438 179.3751,151.9532 181.5626,151.9532 181.8751,152.2626 184.3751,152.2626 184.6876,152.5719 185.3126,152.5719 185.6251,152.2626 186.5626,152.2626 186.8751,152.5719 189.6876,152.5719 190.0001,152.8813 192.8126,152.8813 193.1251,153.1907 198.1251,153.1907 198.4376,153.5001 206.8751,153.5001"/>
    <polyline fill="none" stroke="#000000" points="146.2501,146.3844 145.6251,145.7657 145.0001,145.7657"/>
    <polyline fill="none" stroke="#000000" points="144.6876,146.3844 144.6876,146.0751 145.0001,145.7657 144.6876,145.4563 144.0626,145.4563"/>
    <line x1="143.4376" x2="143.4376" y1="146.0751" y2="146.3844"/>
    <polyline fill="none" stroke="#000000" points="143.1251,146.3844 144.0626,145.4563 143.7501,145.1469 142.5001,145.1469"/>
    <polyline fill="none" stroke="#000000" points="141.5626,146.0751 142.5001,145.1469 142.1876,144.8376 141.2501,144.8376 140.9376,144.5282 140.0001,144.5282 139.6876,144.2188 138.7501,144.2188 138.4376,143.9094 137.8126,143.9094 137.5001,143.6001 136.8751,143.6001 136.5626,143.2907 135.9376,143.2907 135.6251,142.9813 134.6876,142.9813 134.3751,142.6719 133.4376,142.6719 133.1251,142.3626 132.1876,142.3626 131.8751,142.0532 130.9376,142.0532 130.6251,141.7438 129.6876,141.7438 129.3751,141.4344 128.4376,141.4344 128.1251,141.1251 127.1876,141.1251 126.8751,140.8157 125.9376,140.8157 125.6251,140.5063 124.6876,140.5063 124.3751,140.1969 123.4376,140.1969 123.1251,139.8876 121.8751,139.8876 121.5626,139.5782 120.3126,139.5782 120.0001,139.2688 118.7501,139.2688 118.4376,138.9594 117.1876,138.9594 116.8751,138.6501 115.6251,138.6501 115.3126,138.3407 114.0626,138.3407 113.7501,138.0313 112.5001,138.0313 111.8751,138.6501"/>
    <polyline fill="none" stroke="#000000" points="113.1251,139.5782 113.7501,138.9594 113.7501,138.6501 114.0626,138.3407"/>
    <line x1="113.4376" x2="113.4376" y1="139.2688" y2="139.5782"/>
    <polyline fill="none" stroke="#000000" points="106.5626,162.1626 106.8751,162.1626 107.1876,162.4719 107.8126,162.4719 108.1251,162.7813 108.7501,162.7813 109.0626,163.0907 109.3751,163.0907 109.6876,163.4001 110.6251,163.4001 110.9376,163.7094 111.5626,163.7094 111.8751,164.0188 112.5001,164.0188 112.8126,164.3282 113.4376,164.3282 113.7501,164.6376 114.3751,164.6376 114.6876,164.9469 115.3126,164.9469 115.6251,165.2563 116.2501,165.2563 116.5626,165.5657 117.1876,165.5657 117.5001,165.8751 118.1251,165.8751 118.4376,166.1844 119.0626,166.1844 119.3751,166.4938 120.0001,166.4938 120.3126,166.8032 121.2501,166.8032 121.5626,167.1126 121.8751,167.1126 122.1876,167.4219 122.8126,167.4219 123.1251,167.7313 123.7501,167.7313 124.0626,168.0407 125.0001,168.0407 125.3126,168.3501 125.6251,168.3501 125.9376,168.6594 126.8751,168.6594 127.1876,168.9688 127.8126,168.9688 128.1251,169.2782 129.0626,169.2782 129.3751,169.5876 130.3126,169.5876 130.6251,169.8969 131.8751,169.8969 132.1876,170.2063 132.8126,170.2063 133.1251,170.5157 133.7501,170.5157 134.0626,170.8251 135.0001,170.8251 135.3126,171.1344 136.2501,171.1344 136.5626,171.4438 137.5001,171.4438 137.8126,171.7532 139.0626,171.7532 139.3751,172.0626 140.3126,172.0626 140.6251,172.3719 141.8751,172.3719 142.1876,172.6813 142.8126,172.6813 143.1251,172.9907 144.3751,172.9907 145.0001,173.6094 145.9376,173.6094 146.2501,173.9188 147.5001,173.9188 147.8126,174.2282 149.3751,174.2282"/>
    <polyline fill="none" stroke="#000000" points="106.2501,162.4719 106.5626,162.1626 106.2501,162.1626"/>
    <polyline fill="none" stroke="#000000" points="105.0001,161.8532 104.6876,162.1626 105.6251,163.0907 106.2501,162.4719 106.2501,162.1626 105.9376,161.8532 105.0001,161.8532 104.6876,161.5438 104.0626,161.5438 103.1251,162.4719 102.5001,161.8532 102.5001,161.2344 102.1876,160.9251 101.2501,161.8532 100.3126,160.9251 100.3126,160.6157 100.0001,160.3063 99.3751,160.3063 99.0626,159.9969 98.1251,159.9969 97.8126,159.6876 97.1875,159.6876 96.875,159.3782 95.9375,159.3782 95.625,159.0688 94.6875,159.0688 94.375,158.7594 93.75,158.7594 93.4375,158.4501 92.5,158.4501 92.1875,158.1407 91.25,158.1407 90.9375,157.8313 90.3125,157.8313 90.0,157.5219 89.0625,157.5219 88.75,157.2126 87.8125,157.2126 87.5,156.9032 86.875,156.9032 86.5625,156.5938 85.625,156.5938 85.3125,156.2844 84.375,156.2844 84.0625,155.9751 83.125,155.9751 82.8125,155.6657 80.625,155.6657 80.0,155.0469"/>
    <polyline fill="none" stroke="#000000" points="63.125,166.8032 62.8125,167.1126 62.8125,167.7313 62.5,168.0407 62.5,168.3501 62.1875,168.6594 62.1875,168.9688"/>
    <polyline fill="none" stroke="#000000" points="55.0,165.5657 54.6875,165.5657 54.6875,165.2563"/>
    <polyline fill="none" stroke="#000000" points="54.6875,165.5657 54.375,165.8751 54.375,166.1844 54.0625,166.4938 54.0625,166.8032 53.75,167.1126 53.75,167.4219 53.125,168.0407 52.8125,168.0407 51.875,168.9688 51.5625,168.9688 50.625,169.8969 50.3125,169.8969 49.6875,170.5157 49.375,170.5157 48.4375,171.4438 48.125,171.4438 47.1875,172.3719 46.875,172.3719 46.25,172.9907 45.9375,172.9907 44.6875,174.2282 44.375,174.2282 43.125,175.4657 42.8125,175.4657 40.9375,177.3219 40.625,177.3219 39.375,178.5594 39.0625,178.5594 35.9375,181.6532 35.625,181.6532 33.75,183.5094 33.4375,183.5094 31.25,185.6751 30.9375,185.6751 28.125,188.4594 27.8125,188.4594 15.0,201.1438 15.0,201.4532 11.5625,204.8563 11.5625,205.1657 9.6875,207.0219 9.6875,207.3313 7.5,209.4969 7.5,209.8063 6.25,211.0438 6.25,212.2813 6.5625,212.5907 6.875,212.9001 7.1875,212.9001 7.5,213.2094 8.125,213.2094 8.4375,213.5188 8.75,213.5188 9.0625,213.8282 9.375,213.8282 10.0,214.4469 10.3125,214.4469 12.8125,216.9219 12.8125,217.2313 13.4375,217.8501 13.4375,218.1594 14.375,219.0876"/>
    <polyline fill="none" stroke="#000000" points="14.375,219.3969 14.375,219.7063 14.0625,220.0157 14.0625,220.3251 13.75,220.6344 10.0,220.6344 9.6875,220.3251 9.0625,220.3251 8.75,220.0157 8.4375,220.0157 7.5,219.0876 7.1875,219.0876 6.25,218.1594 6.25,217.8501 5.625,217.2313 5.625,216.9219 5.3125,216.6126 5.3125,215.9938 5.0,215.6844 5.0,212.9001 5.3125,212.5907 5.625,212.5907 5.9375,212.2813"/>
    <polyline fill="none" stroke="#000000" points="6.25,212.2813 5.9375,212.2813 6.25,211.9719"/>
    <polyline fill="none" stroke="#000000" points="14.6875,219.0876 14.375,219.0876 14.375,219.3969 14.6875,219.0876 15.0,219.0876 15.625,218.4688 15.625,218.1594 15.9375,217.8501 15.9375,217.5407 16.25,217.2313 16.25,216.9219 16.5625,216.6126 16.5625,216.3032 16.875,215.9938 16.875,215.6844 17.1875,215.3751 17.1875,215.0657 17.8125,214.4469 17.8125,214.1376 18.125,213.8282 18.125,213.5188 18.75,212.9001 18.75,212.5907 19.0625,212.2813 19.0625,211.9719 19.6875,211.3532 19.6875,211.0438 20.3125,210.4251 20.3125,210.1157 20.625,209.8063 20.625,209.4969 21.5625,208.5688 21.5625,208.2594 21.875,207.9501 21.875,207.6407 22.5,207.0219 22.5,206.7126 23.125,206.0938 23.125,205.7844 23.75,205.1657 23.75,204.8563 24.375,204.2376 24.375,203.9282 25.625,202.6907 25.625,202.3813 26.5625,201.4532 26.5625,201.1438 27.5,200.2157 27.5,199.9063 28.75,198.6688 28.75,198.3594 30.9375,196.1938 30.9375,195.8844 33.125,193.7188 33.125,193.4094 43.4375,183.2001 43.75,183.2001 47.1875,179.7969 47.5,179.7969 49.375,177.9407 49.6875,177.9407 51.5625,176.0844 51.875,176.0844 53.4375,174.5376 53.75,174.5376 55.3125,172.9907 55.625,172.9907 56.875,171.7532 57.1875,171.7532 58.4375,170.5157 59.0625,170.5157 59.375,170.2063 59.6875,170.2063 60.3125,169.5876 61.25,169.5876 61.5625,169.2782 61.875,169.2782 62.1875,168.9688 62.8125,169.5876 64.375,169.5876 64.6875,169.8969 66.25,169.8969 66.5625,170.2063 67.8125,170.2063 68.125,170.5157 69.375,170.5157 69.6875,170.8251 70.3125,170.8251 70.625,171.1344 71.875,171.1344 72.1875,171.4438 72.8125,171.4438 73.125,171.7532 74.0625,171.7532 74.375,172.0626 75.3125,172.0626 75.625,172.3719 76.5625,172.3719 76.875,172.6813 77.8125,172.6813 78.125,172.9907 78.75,172.9907 79.0625,173.3001 79.375,173.3001 79.6875,173.6094 80.3125,173.6094 80.625,173.9188 81.5625,173.9188 81.875,174.2282 82.1875,174.2282 82.5,174.5376 83.125,174.5376 83.4375,174.8469 84.0625,174.8469 84.375,175.1563 85.0,175.1563 85.3125,175.4657 85.9375,175.4657 86.25,175.7751 86.875,175.7751 87.1875,176.0844 87.8125,176.0844 88.125,176.3938 88.75,176.3938 89.0625,176.7032 89.6875,176.7032 90.0,177.0126 90.625,177.0126 90.9375,177.3219 91.5625,177.3219 91.875,177.6313 92.5,177.6313 92.8125,177.9407 93.125,177.9407 93.4375,178.2501 94.0625,178.2501 94.375,178.5594 95.0,178.5594 95.3125,178.8688 95.9375,178.8688 96.25,179.1782 96.5625,179.1782 96.875,179.4876 97.8126,179.4876 98.1251,179.7969 98.7501,179.7969 99.0626,180.1063 99.6876,180.1063 100.0001,180.4157 100.6251,180.4157 100.9376,180.7251 101.8751,180.7251 102.1876,181.0344 102.8126,181.0344 103.1251,181.3438 104.0626,181.3438 104.3751,181.6532 105.3126,181.6532 105.6251,181.9626 106.5626,181.9626 106.8751,182.2719 108.1251,182.2719 108.4376,182.5813 109.3751,182.5813 109.6876,182.8907 111.2501,182.8907 111.5626,183.2001 113.1251,183.2001 113.4376,183.5094 115.3126,183.5094 115.6251,183.8188 117.1876,183.8188 117.5001,184.1282 120.0001,184.1282 120.3126,184.4376 122.8126,184.4376 123.1251,184.7469 126.5626,184.7469 126.8751,185.0563 133.4376,185.0563 133.7501,185.3657 142.5001,185.3657 142.8126,185.0563 150.0001,185.0563 150.3126,184.7469 153.7501,184.7469 154.0626,184.4376 155.9376,184.4376 156.2501,184.1282 158.4376,184.1282 158.7501,183.8188 160.0001,183.8188 160.3126,183.5094 161.5626,183.5094 161.8751,183.2001 163.1251,183.2001 163.4376,182.8907 164.6876,182.8907 165.0001,182.5813 165.9376,182.5813 166.2501,182.2719 167.1876,182.2719 167.5001,181.9626 168.4376,181.9626 168.7501,181.6532 169.6876,181.6532 170.0001,181.3438 170.6251,181.3438 170.9376,181.0344 171.5626,181.0344 171.8751,180.7251 172.5001,180.7251 172.8126,180.4157 173.4376,180.4157 173.7501,180.1063 174.3751,180.1063 174.6876,179.7969 175.3126,179.7969 175.6251,179.4876 176.5626,179.4876 176.8751,179.1782 177.1876,179.1782 177.5001,178.8688 178.1251,178.8688 178.4376,178.5594 179.0626,178.5594 179.3751,178.2501 180.0001,178.2501 180.3126,177.9407 180.6251,177.9407 180.9376,177.6313 181.5626,177.6313 181.8751,177.3219 182.5001,177.3219 182.8126,177.0126 183.4376,177.0126 183.7501,176.7032 184.0626,176.7032 184.3751,176.3938 185.0001,176.3938 185.3126,176.0844 185.6251,176.0844 185.9376,175.7751 186.5626,175.7751 186.8751,175.4657 187.5001,175.4657 187.8126,175.1563 188.1251,175.1563 188.4376,174.8469 189.0626,174.8469 189.3751,174.5376 189.6876,174.5376 190.0001,174.2282 190.6251,174.2282 190.9376,173.9188 191.2501,173.9188 191.5626,173.6094 192.1876,173.6094 192.5001,173.3001 192.8126,173.3001 193.1251,172.9907 193.7501,172.9907 194.0626,172.6813 194.3751,172.6813 194.6876,172.3719 195.0001,172.3719 195.3126,172.0626 195.9376,172.0626 196.2501,171.7532 196.5626,171.7532 196.8751,171.4438 197.1876,171.4438 197.5001,171.1344 197.8126,171.1344 198.1251,170.8251 198.7501,170.8251 199.0626,170.5157 199.3751,170.5157 199.6876,170.2063 200.0001,170.2063 200.3126,169.8969 200.6251,169.8969 200.9376,169.5876 201.2501,169.5876 201.5626,169.2782 201.8751,169.2782 202.1876,168.9688 202.5001,168.9688 202.8126,168.6594 203.4376,168.6594 203.7501,168.3501 204.0626,168.3501 204.3751,168.0407 204.6876,168.0407 205.0001,167.7313 205.3126,167.7313 205.6251,167.4219 205.9376,167.4219 206.2501,167.1126 206.5626,167.1126 206.8751,166.8032 207.1876,166.8032 207.5001,166.4938 207.8126,166.4938 208.1251,166.1844 208.4376,166.1844 209.0626,165.5657 209.3751,165.5657 209.6876,165.2563 210.0001,165.2563 210.3126,164.9469 210.6251,164.9469 210.9376,164.6376 211.2501,164.6376 211.5626,164.3282 211.8751,164.3282 212.1876,164.0188 212.5001,164.0188 212.8126,163.7094 213.1251,163.7094 213.7501,163.0907 214.0626,163.0907 214.3751,162.7813 214.6876,162.7813 215.3126,162.1626 215.6251,162.1626 215.9376,161.8532 216.2501,161.8532 216.8751,161.2344 217.1876,161.2344 217.8126,160.6157 218.1251,160.6157 218.4376,160.3063 218.7501,160.3063 219.3751,159.6876 219.6876,159.6876 220.3126,159.0688 220.6251,159.0688 221.2501,158.4501 221.5626,158.4501 222.1876,157.8313 222.5001,157.8313 223.1251,157.2126 223.4376,157.2126 224.0626,156.5938 224.3751,156.5938 225.3126,155.6657 225.6251,155.6657 226.5626,154.7376 226.8751,154.7376 227.8126,153.8094 228.1251,153.8094 229.0626,152.8813 229.3751,152.8813 230.3126,151.9532 230.6251,151.9532 233.1251,149.4782 233.4376,149.4782 241.2501,141.7438 241.2501,141.4344 242.5001,140.1969 242.5001,139.8876 244.0626,138.3407 244.0626,138.0313 245.0001,137.1032 245.0001,136.7938 246.2501,135.5563 246.2501,135.2469 246.8751,134.6282 246.8751,134.3188 247.8126,133.3907 247.8126,133.0813 248.4376,132.4626 248.4376,132.1532 249.0626,131.5344 249.0626,131.2251 249.6876,130.6063 249.6876,130.2969 250.3126,129.6782 250.3126,129.3688 251.2501,128.4407 251.2501,128.1313 251.8751,127.5126 251.8751,127.2032 252.5001,126.5844 252.5001,126.2751 252.8126,125.9657 252.8126,125.6563 253.1251,125.3469 253.1251,125.0376 253.7501,124.4188 253.7501,124.1094 254.3751,123.4907 254.3751,123.1813 254.6876,122.8719 254.6876,122.5626 255.3126,121.9438 255.3126,121.6344 255.6251,121.3251 255.6251,121.0157 256.2501,120.3969 256.2501,120.0876 256.5626,119.7782 256.5626,119.4688 257.1876,118.8501 257.1876,118.5407 257.5001,118.2313 257.5001,117.9219 257.8126,117.6126 257.8126,117.3032 258.1251,116.9938 258.1251,116.6844 258.7501,116.0657 258.7501,115.7563 259.0626,115.4469 259.0626,115.1376 259.3751,114.8282 259.3751,114.5188 259.6876,114.2094 259.6876,113.9001 260.0001,113.5907 260.0001,113.2813 260.6251,112.6626 260.6251,112.3532 260.9376,112.0438 260.9376,111.7344 261.2501,111.4251 261.2501,110.8063 261.8751,110.1876 261.8751,109.8782 262.1876,109.5688 262.1876,109.2594 262.5001,108.9501 262.5001,108.3313 262.8126,108.0219 262.8126,107.7126 263.1251,107.4032 263.1251,107.0938 263.4376,106.7844 263.4376,106.4751 263.7501,106.1657 263.7501,105.8563 264.0626,105.5469 264.0626,105.2376 264.3751,104.9282 264.3751,104.6188 264.6876,104.3094 264.6876,103.6907 265.0001,103.3813 265.0001,103.0719 265.3126,102.7626 265.3126,102.4532 265.6251,102.1438 265.6251,101.5251 265.9376,101.2157 265.9376,100.9063 266.2501,100.5969 266.2501,99.9782 266.5626,99.6688 266.5626,99.3594 266.8751,99.0501 266.8751,98.7407 267.1876,98.4313 267.1876,97.8126 267.5001,97.5031 267.5001,96.8843 267.8126,96.575 267.8126,96.2656 268.1251,95.9562 268.1251,95.3375 268.4376,95.0281 268.4376,94.4093 268.7501,94.1 268.7501,93.4812 269.0626,93.1718 269.0626,92.5531 269.3751,92.2437 269.3751,91.625 269.6876,91.3156 269.6876,90.6968 270.0001,90.3875 270.0001,89.7687 270.3126,89.4593 270.3126,88.8406 270.6251,88.5312 270.6251,87.6031 270.9376,87.2937 270.9376,86.9843 271.2501,86.675 271.2501,85.7468 271.5626,85.4375 271.5626,84.8187 271.8751,84.5093 271.8751,83.5812 272.1876,83.2718 272.1876,82.6531 272.5001,82.3437 272.5001,81.725 272.8126,81.4156 272.8126,80.4875 273.1251,80.1781 273.1251,79.5593 273.4376,79.25 273.4376,78.3218 273.7501,78.0125 273.7501,77.3937 274.0626,77.0843 274.0626,76.1562 274.3751,75.8468 274.3751,75.2281 274.6876,74.9187 274.6876,74.3 275.0001,73.9906 275.0001,73.0625 275.3126,72.7531 275.3126,71.825 275.6251,71.5156 275.6251,70.8968 275.9376,70.5875 275.9376,69.9687 276.2501,69.6593 276.2501,68.7312 276.5626,68.4218 276.5626,67.8031 276.8751,67.4937 276.8751,66.5656 277.1876,66.2562 277.1876,65.6375 277.5001,65.3281 277.5001,64.4 277.8126,64.0906 277.8126,63.4718 278.1251,63.1625 278.1251,62.5437 278.4376,62.2343 278.4376,61.3062 278.7501,60.9968 278.7501,60.3781 279.0626,60.0687 279.0626,59.1406 279.3751,58.8312 279.3751,58.2125 279.6876,57.9031 279.6876,56.975 280.0001,56.6656 280.0001,55.7375 280.3126,55.4281 280.3126,54.8093 280.6251,54.5 280.6251,53.5718 280.9376,53.2625 280.9376,52.3343 281.2501,52.025 281.2501,51.4062 281.5626,51.0968 281.5626,50.1687 281.8751,49.8593 281.8751,48.9312 282.1876,48.6218 282.1876,48.0031 282.5001,47.6937 282.5001,47.075 282.8127,46.7656 282.8127,46.1468 283.1252,45.8375 283.1252,45.5281 283.4377,45.2187 283.4377,44.9093 283.7502,44.6 283.7502,43.9812 284.0627,43.6718 284.0627,43.3625 284.3752,43.0531 284.3752,42.7437 284.6877,42.4343 284.6877,42.125 285.0002,41.8156 285.0002,41.5062 285.3127,41.1968 285.3127,40.8875 285.6252,40.5781 285.6252,40.2687 285.9377,39.9593 285.9377,39.65 286.2502,39.3406 286.2502,39.0312 286.5627,38.7218 286.5627,38.4125 286.8752,38.1031 286.8752,37.7937 287.1877,37.4843 287.1877,37.175 287.8127,36.5562 287.8127,36.2468 288.1252,35.9375 288.1252,35.6281 288.4377,35.3187 288.4377,35.0093 289.0627,34.3906 289.0627,34.0812 289.3752,33.7718 289.3752,33.4625 290.0002,32.8437 290.0002,32.5343 290.6252,31.9156 290.6252,31.6062 291.2502,30.9875 291.2502,30.6781 291.8752,30.0593 291.8752,29.75 292.5002,29.1312 292.5002,28.8218 293.1252,28.2031 293.1252,27.8937 293.7502,27.275 293.7502,26.9656 294.3752,26.3468 294.3752,26.0375 295.6252,24.8 295.6252,24.4906 297.1877,22.9437 297.1877,22.6343 305.9377,13.9718 305.9377,13.6625 306.2502,13.3531 306.2502,12.1156 305.6252,11.4968"/>
    <line x1="305.6252" x2="305.9377" y1="11.8062" y2="11.8062"/>
    <line x1="303.4377" x2="303.1252" y1="12.425" y2="12.1156"/>
    <line x1="303.1252" x2="303.1252" y1="12.425" y2="11.1875"/>
    <line x1="220.6251" x2="220.6251" y1="60.9968" y2="61.3062"/>
    <line x1="186.2501" x2="186.5626" y1="13.9718" y2="13.6625"/>
    <polyline fill="none" stroke="#000000" points="104.0626,161.5438 103.7501,161.2344 102.5001,161.2344"/>
    <line x1="102.5001" x2="102.8126" y1="161.5438" y2="161.2344"/>
    <polyline fill="none" stroke="#000000" points="102.1876,160.9251 101.8751,160.6157 100.3126,160.6157"/>
    <line x1="100.3126" x2="100.6251" y1="160.9251" y2="160.6157"/>
  </g>
</svg>
