<?xml version="1.0" encoding="utf-8" ?>
<!--
  Generated by txt2plotter
  Prompt: Single leaf outline with basic vein pattern, clean line art, simple botanical style, white background.
  Enhanced: Single leaf outline with a simple vein pattern, clean line art in a minimalist botanical style, black ink on white paper with precise and clear lines, monochrome illustration.
-->

<svg xmlns="http://www.w3.org/2000/svg" xmlns:cc="http://creativecommons.org/ns" xmlns:dc="http://purl.org/dc/elements/1.1/" xmlns:ev="http://www.w3.org/2001/xml-events" xmlns:inkscape="http://www.inkscape.org/namespaces/inkscape" xmlns:rdf="http://www.w3.org/1999/02/22-rdf-syntax-ns" xmlns:sodipodi="http://sodipodi.sourceforge.net/DTD/sodipodi-0.dtd" xmlns:xlink="http://www.w3.org/1999/xlink" baseProfile="tiny" height="29.7cm" version="1.2" viewBox="0 0 1587.4015748031497 1122.5196850393702" width="42.0cm">
  <metadata>
    <rdf:RDF>
      <cc:Work>
        <dc:format>image/svg+xml</dc:format>
        <dc:source/>
        <dc:date>2026-01-19T21:09:06.757448</dc:date>
      </cc:Work>
    </rdf:RDF>
  </metadata>
  <defs/>
  <g fill="none" id="layer1" inkscape:groupmode="layer" inkscape:label="1" stroke="#0000ff" style="display:inline">
    <polyline fill="none" stroke="#000000" points="725.8883,510.0583 725.8883,510.3677 725.5758,510.677 725.5758,511.6052 725.2633,511.9145 725.2633,512.8427 724.9508,513.152 724.9508,513.7708 724.6383,514.0802 724.6383,515.0083 724.3258,515.3177 724.3258,516.2458 724.0133,516.5552 724.0133,517.1739 723.7008,517.4833 723.7008,518.7208 723.3883,519.0302 723.3883,519.3395 723.0758,519.6489 723.0758,520.577 722.7633,520.8864 722.7633,521.5052 722.4508,521.8145 722.4508,522.4333 722.1383,522.7427 722.1383,523.3614 721.8258,523.6708 721.8258,524.2895 721.5133,524.5989 721.5133,525.2177 721.2008,525.527 721.2008,526.1458 720.8883,526.4552 720.8883,527.3833 720.5758,527.6927 720.5758,528.6208 720.2633,528.9302 720.2633,529.5489 719.9508,529.8583 719.9508,530.477 719.6383,530.7864 719.6383,531.7145 719.3258,532.0239 719.3258,532.952 719.0133,533.2614 719.0133,534.1895 718.7008,534.4989 718.7008,535.1177 718.3883,535.427 718.3883,536.6645 718.0758,536.9739 718.0758,537.5927 717.7633,537.902 717.7633,538.8302 717.4508,539.1395 717.4508,539.7583 717.1383,540.0677 717.1383,541.3052 716.8258,541.6145 716.8258,542.5427 716.5133,542.852 716.5133,543.7802 716.2008,544.0895 716.2008,545.0177 715.8883,545.327 715.8883,546.5645 715.5758,546.8739 715.5758,547.802 715.2633,548.1114 715.2633,549.0395 714.9508,549.3489 714.9508,550.5864 714.6383,550.8958 714.6383,552.1333 714.3258,552.4427 714.3258,553.3708 714.0133,553.6802 714.0133,555.227 713.7008,555.5364 713.7008,556.7739 713.3883,557.0833 713.3883,558.6302 713.0758,558.9395 713.0758,560.7958 712.7633,561.1052 712.7633,564.1989 713.0758,564.5083 713.0758,573.7895 712.7633,574.0989 712.7633,576.5739 712.4508,576.8833 712.4508,580.5958 712.1383,580.9052 712.1383,581.2145 711.8258,581.5239"/>
    <polyline fill="none" stroke="#000000" points="711.5133,581.5239 711.2008,581.2145 711.2008,574.4083 711.5133,574.0989 711.5133,568.5302 711.8258,568.2208 711.8258,565.127 712.7633,564.1989"/>
    <polyline fill="none" stroke="#000000" points="711.5133,581.8333 711.8258,581.5239 711.5133,581.5239 711.5133,581.8333 711.5133,582.1427 711.5133,582.452 711.5133,582.7614 711.5133,583.0708 711.5133,583.3802 711.5133,583.6895 711.5133,583.9989 711.5133,584.3083 711.2008,584.6177 711.2008,588.6395 710.8883,588.9489 710.8883,592.0427 710.5758,592.352 710.5758,594.827 710.2633,595.1364 710.2633,598.2302 709.9508,598.5395 709.9508,599.1583 709.6383,599.4677 709.6383,600.7052 709.9508,601.0145 709.0133,601.9427 709.0133,602.5614 708.3883,603.1802 708.3883,603.4895 706.8258,605.0364 706.5133,605.0364 705.5758,605.9645 705.2633,605.9645 704.3258,606.8927 704.0133,606.8927 703.0758,607.8208 702.7633,607.8208 702.1383,608.4395 701.8258,608.4395 701.2008,609.0583 700.8883,609.0583 699.9508,609.9864 699.6383,609.9864 699.0133,610.6052 698.7008,610.6052 698.0758,611.2239 697.7633,611.2239 697.1383,611.8427 696.8258,611.8427 695.8883,612.7708 695.5758,612.7708 694.9508,613.3895 694.6383,613.3895 694.3258,613.6989 693.3883,613.6989 693.0758,614.0083 692.4508,613.3895 692.4508,612.4614 692.7633,612.152 692.7633,610.2958 693.0758,609.9864 693.0758,607.5114 692.7633,607.202 692.7633,602.5614 692.4508,602.252 692.4508,598.2302 692.1383,597.9208 692.1383,593.8989 691.8258,593.5895 691.8258,583.6895 691.5133,583.3802 691.5133,580.2864 691.8258,579.977 691.8258,573.7895 692.1383,573.4802 692.1383,571.0052 692.4508,570.6958 692.4508,568.2208 692.7633,567.9114 692.7633,566.3645 693.0758,566.0552 693.0758,564.5083 693.3883,564.1989 693.3883,562.9614 693.7008,562.652 693.7008,561.4145 694.0133,561.1052 694.0133,559.8677 694.3258,559.5583 694.3258,558.0114 694.6383,557.702 694.6383,556.7739 694.9508,556.4645 694.9508,555.5364 695.2633,555.227 695.2633,554.2989 695.5758,553.9895 695.5758,553.0614 695.8883,552.752 695.8883,551.8239 696.2008,551.5145 696.2008,550.5864 696.5133,550.277 696.5133,549.6583 696.8258,549.3489 696.8258,548.4208 697.1383,548.1114 697.1383,547.4927 697.4508,547.1833 697.4508,546.5645 697.7633,546.2552 697.7633,545.327 698.0758,545.0177 698.0758,544.3989 698.3883,544.0895 698.3883,543.4708 698.7008,543.1614 698.7008,542.5427 699.0133,542.2333 699.0133,541.6145 699.3258,541.3052 699.3258,540.6864 699.6383,540.377 699.6383,539.7583 699.9508,539.4489 699.9508,538.8302 700.2633,538.5208 700.2633,538.2114 700.5758,537.902 700.5758,537.2833 700.8883,536.9739 700.8883,536.3552 701.2008,536.0458 701.2008,535.7364 701.5133,535.427 701.5133,534.8083 701.8258,534.4989 701.8258,534.1895 702.1383,533.8802 702.1383,533.2614 702.4508,532.952 702.4508,532.6427 702.7633,532.3333 702.7633,531.7145 703.0758,531.4052 703.0758,531.0958 703.3883,530.7864 703.3883,530.1677 703.7008,529.8583 703.7008,529.5489 704.0133,529.2395 704.0133,528.9302 704.3258,528.6208 704.3258,528.3114 704.6383,528.002 704.6383,527.3833 704.9508,527.0739 704.9508,526.7645 705.2633,526.4552 705.2633,526.1458 705.5758,525.8364 705.5758,525.527 705.8883,525.2177 705.8883,524.9083 706.2008,524.5989 706.2008,524.2895 706.5133,523.9802 706.5133,523.6708 706.8258,523.3614 706.8258,523.052 707.1383,522.7427 707.1383,522.4333 707.4508,522.1239 707.4508,521.8145 707.7633,521.5052 707.7633,521.1958 708.0758,520.8864 708.0758,520.577 708.3883,520.2677 708.3883,519.9583 708.7008,519.6489 708.7008,519.3395 709.0133,519.0302 709.0133,518.7208 709.6383,518.102 709.6383,517.7927 709.9508,517.4833 709.9508,517.1739 710.2633,516.8645 710.2633,516.5552 710.8883,515.9364 710.8883,515.627 711.2008,515.3177 711.2008,515.0083 711.5133,514.6989 711.5133,514.3895 712.1383,513.7708 712.1383,513.4614 712.7633,512.8427 712.7633,512.5333 713.3883,511.9145 713.3883,511.6052 713.7008,511.2958 713.7008,510.9864 714.3258,510.3677 714.3258,510.0583 714.6383,509.7489 714.6383,509.4395 715.2633,508.8208 715.2633,508.5114 715.8883,507.8927 715.8883,507.5833 716.5133,506.9645 716.5133,506.6552 717.1383,506.0364 717.1383,505.727 718.0758,504.7989 718.0758,504.4895 719.0133,503.5614 719.0133,503.252 719.9508,502.3239 719.9508,502.0145 720.5758,501.3958 720.5758,501.0864 721.5133,500.1583 721.5133,499.8489 722.7633,498.6114 722.7633,498.302 724.0133,497.0645 724.0133,496.7552 724.9508,495.827 724.9508,495.5177 726.5133,493.9708 726.5133,493.6614 728.3883,491.8052 728.3883,491.4958 730.5758,489.3302 730.5758,489.0208 737.1383,482.5239 737.4508,482.5239 739.3258,480.6677 739.6383,480.6677 740.8883,479.4302 741.2008,479.4302 742.1383,478.502 742.4508,478.502 743.0758,477.8833 743.3883,477.8833 744.3258,476.9552 744.6383,476.9552 745.2633,476.3364 745.5758,476.3364 746.5133,475.4083 746.8258,475.4083 747.4508,474.7895 747.7633,474.7895 748.3883,474.1708 748.7008,474.1708 749.3258,473.552 749.6383,473.552 750.2633,472.9333 750.5758,472.9333 750.8883,472.6239 751.2008,472.6239 751.8258,472.0052 752.1383,472.0052 752.7633,471.3864 753.0758,471.3864 753.3883,471.077 753.7008,471.077 754.3258,470.4583 754.6383,470.4583 754.9508,470.1489 755.2633,470.1489 755.8883,469.5302 756.2008,469.5302 756.5133,469.2208 756.8258,469.2208 757.1383,468.9114 757.4508,468.9114 757.7633,468.602 758.0758,468.602 758.7008,467.9833 759.0133,467.9833 759.3258,467.6739 759.6383,467.6739 759.9508,467.3645 760.2633,467.3645 760.5758,467.0552 760.8883,467.0552 761.2008,466.7458 761.5133,466.7458 761.8258,466.4364 762.1383,466.4364 762.4508,466.127 762.7633,466.127 763.0758,465.8177 763.3883,465.8177 763.7008,465.5083 764.0133,465.5083 764.3258,465.1989 764.6383,465.1989 764.9508,464.8895 765.2633,464.8895 765.5758,464.5802 765.8883,464.5802 766.2008,464.2708 766.5133,464.2708 766.8258,463.9614 767.1383,463.9614 767.4508,463.652 768.0758,463.652 768.3883,463.3427 768.7008,463.3427 769.0133,463.0333 769.3258,463.0333 769.6383,462.7239 769.9508,462.7239 770.2633,462.4145 770.8883,462.4145 771.2008,462.1052 771.5133,462.1052 771.8258,461.7958 772.4508,461.7958 772.7633,461.4864 773.0758,461.4864 773.3883,461.177 774.0133,461.177 774.3258,460.8677 774.9508,460.8677 775.2633,460.5583 775.5758,460.5583 775.8883,460.2489 776.5133,460.2489 776.8258,459.9395 777.4508,459.9395 777.7633,459.6302 778.3883,459.6302 778.7008,459.3208 779.3258,459.3208 779.6383,459.0114 780.2633,459.0114 780.5758,458.702 781.2008,458.702 781.5133,458.3927 782.4508,458.3927 782.7633,458.0833 783.7008,458.0833 784.0133,457.7739 784.9508,457.7739 785.2633,457.4645 786.5133,457.4645 786.8258,457.1552 787.4508,457.1552 787.7633,456.8458 789.3258,456.8458 789.6383,456.5364 790.5758,456.5364 790.8883,456.227 792.4508,456.227 792.7633,455.9177 794.3258,455.9177 794.6383,455.6083 796.5133,455.6083 796.8258,455.2989 798.3883,455.2989 798.7008,454.9895 800.8883,454.9895 801.2008,454.6802 803.7008,454.6802 804.0133,454.3708 807.1383,454.3708 807.4508,454.0614 810.2633,454.0614 810.5758,453.752 815.2633,453.752 815.5758,453.4427 830.8883,453.4427 831.2008,453.752 836.2008,453.752 836.5133,454.0614 839.9508,454.0614 840.2633,454.3708 844.0133,454.3708 844.3258,454.6802 846.5133,454.6802 846.8258,454.9895 849.3258,454.9895 849.6383,455.2989 851.5133,455.2989 851.8258,455.6083 854.3258,455.6083 854.6383,455.9177 856.5133,455.9177 856.8258,456.227 858.3883,456.227 858.7008,456.5364 860.5758,456.5364 860.8883,456.8458 863.0758,456.8458 863.3883,457.1552 864.9508,457.1552 865.2633,457.4645 867.1383,457.4645 867.4508,457.7739 869.3258,457.7739 869.6383,458.0833 871.8258,458.0833 872.1383,458.3927 874.0133,458.3927 874.3258,458.702 876.8258,458.702 877.1383,459.0114 879.0133,459.0114 879.3258,459.3208 881.8258,459.3208 882.1383,459.6302 885.2633,459.6302 885.5758,459.9395 888.0758,459.9395 888.3883,460.2489 890.8883,460.2489 891.2008,460.5583 894.6383,460.5583 894.9508,460.8677 899.0133,460.8677 899.3258,461.177 915.5758,461.177 915.8883,460.8677 920.5758,460.8677 920.8883,460.5583 924.3258,460.5583 924.6383,460.2489 929.6383,460.2489 929.9508,459.9395 933.0758,459.9395 933.3883,459.6302 934.3258,459.6302 934.6383,459.3208 937.4508,459.3208 937.7633,459.0114 939.6383,459.0114 939.9508,459.3208 940.8883,459.3208 941.2008,459.6302 941.5133,459.3208 941.8258,459.3208 942.1383,459.6302 943.3883,459.6302 943.7008,459.9395 943.7008,460.2489 942.4508,461.4864 942.1383,461.4864 941.5133,460.8677 941.2008,460.8677 940.2633,461.7958 939.3258,461.7958 939.0133,462.1052 938.3883,462.1052 938.0758,462.4145 937.4508,462.4145 937.1383,462.7239 936.8258,462.7239 936.5133,463.0333 936.2008,463.0333 935.5758,463.652 935.2633,463.652 934.9508,463.9614 934.6383,463.9614 934.3258,464.2708 934.0133,464.2708 933.7008,464.5802 933.3883,464.5802 933.0758,464.8895 932.7633,464.8895 932.4508,465.1989 932.1383,465.1989 931.8258,465.5083 931.5133,465.5083 931.2008,465.8177 930.8883,465.8177 930.5758,466.127 930.2633,466.127 929.6383,466.7458 929.3258,466.7458 929.0133,467.0552 928.7008,467.0552 928.3883,467.3645 928.0758,467.3645 927.4508,467.9833 927.1383,467.9833 926.8258,468.2927 926.5133,468.2927 926.2008,468.602 925.8883,468.602 925.5758,468.9114 925.2633,468.9114 924.6383,469.5302 924.3258,469.5302 924.0133,469.8395 923.7008,469.8395 923.3883,470.1489 923.0758,470.1489 922.7633,470.4583 922.4508,470.4583 921.8258,471.077 921.5133,471.077 921.2008,471.3864 920.8883,471.3864 920.2633,472.0052 919.9508,472.0052 919.6383,472.3145 919.3258,472.3145 919.0133,472.6239 918.7008,472.6239 918.0758,473.2427 917.7633,473.2427 917.4508,473.552 917.1383,473.552 916.5133,474.1708 916.2008,474.1708 915.8883,474.4802 915.5758,474.4802 915.2633,474.7895 914.9508,474.7895 914.3258,475.4083 914.0133,475.4083 913.7008,475.7177 913.3883,475.7177 912.7633,476.3364 912.4508,476.3364 912.1383,476.6458 911.8258,476.6458 911.2008,477.2645 910.8883,477.2645 910.5758,477.5739 910.2633,477.5739 909.6383,478.1927 909.3258,478.1927 909.0133,478.502 908.7008,478.502 908.3883,478.8114 908.0758,478.8114 907.4508,479.4302 907.1383,479.4302 906.8258,479.7395 906.5133,479.7395 905.8883,480.3583 905.5758,480.3583 905.2633,480.6677 904.9508,480.6677 904.3258,481.2864 904.0133,481.2864 903.7008,481.5958 903.3883,481.5958 902.7633,482.2145 902.4508,482.2145 902.1383,482.5239 901.8258,482.5239 901.2008,483.1427 900.8883,483.1427 900.2633,483.7614 899.9508,483.7614 899.6383,484.0708 899.3258,484.0708 899.0133,484.3802 898.7008,484.3802 898.3883,484.6895 898.0758,484.6895 897.4508,485.3083 897.1383,485.3083 896.8258,485.6177 896.5133,485.6177 895.8883,486.2364 895.5758,486.2364 895.2633,486.5458 894.9508,486.5458 894.6383,486.8552 894.3258,486.8552 893.7008,487.4739 893.3883,487.4739 892.7633,488.0927 892.4508,488.0927 892.1383,488.402 891.8258,488.402 891.5133,488.7114 891.2008,488.7114 890.8883,489.0208 890.8883,489.3302 890.5758,489.6395 890.5758,490.2583 890.2633,490.5677 889.9508,490.5677 889.6383,490.877 888.7008,490.877 888.3883,491.1864 888.0758,491.1864 887.7633,491.4958 887.4508,491.4958 887.1383,491.8052 886.8258,491.8052 886.5133,492.1145 886.2008,492.1145 885.8883,492.4239 885.5758,492.4239 885.2633,492.7333 884.9508,492.7333 884.6383,493.0427 884.3258,493.0427 883.7008,493.6614 883.3883,493.6614 883.0758,493.9708 882.7633,493.9708 882.4508,494.2802 882.1383,494.2802 881.5133,494.8989 881.2008,494.8989 880.5758,495.5177 880.2633,495.5177 879.9508,495.827 879.6383,495.827 879.0133,496.4458 878.7008,496.4458 878.0758,497.0645 877.7633,497.0645 877.1383,497.6833 876.8258,497.6833 876.5133,497.9927 876.2008,497.9927 875.5758,498.6114 875.2633,498.6114 874.9508,498.9208 874.6383,498.9208 874.3258,499.2302 873.7008,499.2302 873.3883,499.5395 872.4508,499.5395 872.1383,499.2302 872.1383,499.5395 871.5133,500.1583 871.5133,500.4677 870.5758,501.3958 870.2633,501.3958 869.6383,502.0145 869.3258,502.0145 868.7008,502.6333 868.3883,502.6333 868.0758,502.9427 867.7633,502.9427 867.4508,503.252 867.1383,503.252 866.5133,503.8708 866.2008,503.8708 865.8883,504.1802 865.5758,504.1802 864.9508,504.7989 864.6383,504.7989 864.0133,505.4177 863.7008,505.4177 863.0758,506.0364 862.7633,506.0364 861.8258,506.9645 861.8258,507.2739 861.5133,507.5833 861.5133,507.8927 861.2008,508.202 860.8883,508.202 860.2633,508.8208 859.9508,508.8208 859.3258,509.4395 859.0133,509.4395 858.3883,510.0583 857.7633,510.0583 856.5133,511.2958 856.2008,511.2958 855.5758,511.9145 855.2633,511.9145 854.6383,512.5333 854.3258,512.2239 854.3258,512.5333 854.0133,512.8427 853.7008,512.8427 853.3883,513.152 854.6383,514.3895 854.6383,514.6989 858.7008,514.6989 859.6383,515.627 860.5758,515.627 860.8883,515.3177 860.8883,514.6989 861.2008,514.3895 863.3883,514.3895 863.7008,514.0802 868.0758,514.0802 868.3883,513.7708 871.5133,513.7708 871.8258,513.4614 873.7008,513.4614 874.0133,513.152 875.5758,513.152 875.8883,512.8427 878.3883,512.8427 878.7008,512.5333 880.8883,512.5333 881.2008,512.2239 882.4508,512.2239 882.7633,511.9145 884.0133,511.9145 884.3258,511.6052 886.2008,511.6052 886.5133,511.2958 887.7633,511.2958 888.0758,510.9864 889.3258,510.9864 889.6383,510.677 890.5758,510.677 890.8883,510.3677 892.1383,510.3677 892.4508,510.0583 893.3883,510.0583 893.7008,509.7489 894.6383,509.7489 894.9508,509.4395 895.5758,509.4395 895.8883,509.1302 896.5133,509.1302 896.8258,508.8208 897.7633,508.8208 898.0758,508.5114 898.7008,508.5114 899.0133,508.202 899.6383,508.202 899.9508,507.8927 900.5758,507.8927 900.8883,507.5833 901.5133,507.5833 901.8258,507.2739 902.4508,507.2739 902.7633,506.9645 903.3883,506.9645 903.7008,506.6552 904.0133,506.6552 904.3258,506.3458 904.9508,506.3458 905.2633,506.0364 905.8883,506.0364 906.2008,505.727 906.5133,505.727 906.8258,505.4177 907.1383,505.4177 907.7633,504.7989 908.3883,504.7989 908.7008,504.4895"/>
    <polyline fill="none" stroke="#000000" points="915.8883,485.6177 914.9508,485.6177 914.6383,485.927 914.0133,485.927 913.7008,486.2364 912.7633,486.2364 912.4508,486.5458 911.8258,486.5458 911.5133,486.8552 910.5758,486.8552 910.2633,487.1645 909.0133,487.1645 908.7008,487.4739 907.4508,487.4739 907.1383,487.7833 906.2008,487.7833 905.8883,488.0927 904.6383,488.0927 904.3258,488.402 903.0758,488.402 902.7633,488.7114 901.5133,488.7114 901.2008,489.0208 899.9508,489.0208 899.6383,489.3302 898.7008,489.3302 898.3883,489.6395 896.8258,489.6395 896.5133,489.9489 895.5758,489.9489 895.2633,490.2583 894.0133,490.2583 893.7008,490.5677 892.1383,490.5677 891.8258,490.877 891.2008,490.877 890.5758,490.2583"/>
    <polyline fill="none" stroke="#000000" points="881.8258,482.8333 881.8258,483.1427 881.5133,483.1427 881.8258,482.8333 882.1383,482.5239 882.4508,482.2145 882.7633,481.9052 882.7633,481.5958 885.5758,478.8114 885.5758,478.502 889.0133,475.0989 889.0133,474.7895 890.5758,473.2427 890.5758,472.9333 891.2008,472.3145 891.2008,472.0052"/>
    <polyline fill="none" stroke="#000000" points="881.5133,483.1427 881.2008,483.452 881.2008,483.7614 881.8258,484.3802 881.5133,484.6895 880.8883,484.6895 879.9508,485.6177 879.9508,485.927 878.7008,487.1645 878.7008,487.4739 877.7633,488.402 877.7633,488.7114 877.1383,489.3302 877.1383,489.6395 876.5133,490.2583 876.5133,490.5677 875.8883,491.1864 875.8883,491.4958 875.5758,491.8052 875.5758,492.1145 875.2633,492.4239 875.2633,492.7333 874.9508,493.0427 874.9508,493.352 874.6383,493.6614 874.6383,493.9708 874.0133,494.5895 874.0133,494.8989 873.7008,495.2083 873.7008,495.5177 873.3883,495.827 873.3883,496.1364 873.0758,496.4458 873.0758,496.7552 872.7633,497.0645 872.7633,497.3739 872.4508,497.6833 872.4508,498.6114 872.1383,498.9208 872.1383,499.2302"/>
    <line x1="872.1383" x2="872.4508" y1="499.5395" y2="499.5395"/>
    <line x1="862.1383" x2="861.8258" y1="506.6552" y2="506.6552"/>
    <polyline fill="none" stroke="#000000" points="861.8258,506.9645 861.8258,506.6552 861.5133,506.3458 861.2008,506.3458 860.8883,506.6552 860.5758,506.6552 859.9508,507.2739 860.8883,508.202"/>
    <polyline fill="none" stroke="#000000" points="859.9508,508.8208 859.6383,508.8208 859.3258,508.5114 859.6383,508.202 859.6383,507.8927 859.3258,507.5833 859.6383,507.2739 859.9508,507.2739"/>
    <polyline fill="none" stroke="#000000" points="859.3258,507.5833 859.0133,507.5833 858.7008,507.8927 859.3258,508.5114"/>
    <line x1="859.6383" x2="859.6383" y1="508.8208" y2="509.1302"/>
    <polyline fill="none" stroke="#000000" points="859.0133,509.4395 858.7008,509.4395 858.0758,508.8208 858.0758,508.202 858.3883,507.8927 858.7008,507.8927"/>
    <polyline fill="none" stroke="#000000" points="858.3883,509.1302 858.7008,508.8208 858.3883,508.5114 857.7633,508.5114 858.0758,508.8208 858.3883,508.5114 858.0758,508.202 857.7633,508.5114 857.4508,508.5114 857.1383,508.8208 857.1383,509.1302 857.4508,509.1302 857.1383,509.4395 857.7633,510.0583"/>
    <polyline fill="none" stroke="#000000" points="857.4508,509.7489 857.7633,509.4395 857.1383,508.8208 856.8258,509.1302 857.1383,509.4395 857.1383,509.1302 857.1383,509.1302 856.8258,509.1302 856.5133,509.1302 856.2008,509.4395 856.8258,510.0583 856.5133,510.3677 856.8258,510.677 856.8258,510.9864"/>
    <line x1="856.8258" x2="857.1383" y1="510.677" y2="510.677"/>
    <polyline fill="none" stroke="#000000" points="856.5133,510.3677 856.2008,510.0583 855.8883,509.7489 855.8883,509.7489 856.2008,509.4395 856.2008,509.7489 856.5133,509.7489 856.2008,510.0583 856.2008,509.7489 855.8883,509.7489 855.5758,509.7489 855.2633,510.0583 855.5758,510.3677 855.2633,510.677 855.8883,511.2958 856.2008,511.2958"/>
    <line x1="855.8883" x2="855.8883" y1="511.2958" y2="511.6052"/>
    <polyline fill="none" stroke="#000000" points="855.5758,510.9864 855.8883,510.677 855.5758,510.3677 855.2633,510.3677 855.2633,510.0583 854.9508,510.3677 855.2633,510.3677 855.2633,510.677 854.9508,510.3677 854.6383,510.3677 854.3258,510.677 854.9508,511.2958 854.6383,511.6052 854.9508,511.9145 855.2633,511.9145"/>
    <line x1="854.9508" x2="854.9508" y1="511.9145" y2="512.2239"/>
    <line x1="854.6383" x2="854.3258" y1="512.5333" y2="512.5333"/>
    <polyline fill="none" stroke="#000000" points="854.3258,512.2239 853.3883,511.2958 853.7008,510.9864 854.0133,510.9864 854.3258,511.2958 854.6383,510.9864 854.3258,510.9864 854.3258,510.677 854.0133,510.9864 854.3258,510.9864 854.3258,511.2958 854.6383,511.6052"/>
    <polyline fill="none" stroke="#000000" points="853.3883,511.2958 853.0758,511.2958 852.7633,511.6052 852.7633,511.9145 853.0758,511.9145 853.3883,512.2239 853.0758,512.5333 853.3883,512.8427 853.7008,512.8427"/>
    <polyline fill="none" stroke="#000000" points="853.3883,512.8427 853.3883,513.152 853.0758,513.4614"/>
    <polyline fill="none" stroke="#000000" points="853.0758,512.5333 852.7633,512.2239 853.0758,511.9145 852.7633,511.6052 852.4508,511.9145 852.1383,511.9145 851.2008,512.8427 850.8883,512.8427 850.2633,513.4614 850.2633,514.0802 850.5758,514.3895 850.5758,514.6989 849.9508,515.3177 849.6383,515.3177 849.0133,515.9364 848.7008,515.9364 848.3883,516.2458 848.0758,516.2458 847.4508,516.8645 847.1383,516.8645 846.5133,517.4833 846.2008,517.4833 845.5758,518.102 845.2633,518.102 844.6383,518.7208 844.3258,518.7208 844.0133,519.0302 843.7008,519.0302 843.0758,519.6489 842.7633,519.6489 842.1383,520.2677 841.8258,519.9583 841.8258,520.2677 842.1383,520.2677"/>
    <polyline fill="none" stroke="#000000" points="841.8258,520.2677 841.5133,520.577 841.2008,520.577"/>
    <line x1="840.8883" x2="840.8883" y1="520.577" y2="520.8864"/>
    <polyline fill="none" stroke="#000000" points="840.5758,520.2677 840.8883,519.9583 840.8883,519.6489 841.2008,519.3395 840.8883,519.3395 840.8883,519.0302 840.5758,519.3395 840.2633,519.3395 839.9508,519.6489 840.5758,520.2677 840.8883,520.577 841.2008,520.577 840.5758,521.1958 840.2633,521.1958 839.6383,521.8145 839.3258,521.8145 838.7008,522.4333 838.3883,522.4333 838.0758,522.7427 837.7633,522.4333 837.7633,522.7427 837.1383,523.3614 836.8258,523.052 836.8258,523.3614 837.1383,523.3614"/>
    <polyline fill="none" stroke="#000000" points="836.8258,523.3614 836.2008,523.9802 834.9508,522.7427 835.5758,522.1239 835.8883,522.1239 836.5133,521.5052 836.8258,521.5052 837.1383,521.1958 837.4508,521.1958 837.7633,520.8864 838.3883,520.8864 838.3883,521.1958 838.7008,520.8864 838.3883,520.577 838.3883,520.8864 838.7008,520.8864 839.0133,521.1958 838.7008,521.5052"/>
    <line x1="839.0133" x2="839.3258" y1="521.8145" y2="521.8145"/>
    <polyline fill="none" stroke="#000000" points="839.0133,522.1239 839.0133,521.8145 838.0758,520.8864 838.7008,520.2677 839.0133,520.2677 839.3258,519.9583 839.3258,520.2677 839.6383,520.2677 839.9508,520.577 839.6383,520.8864"/>
    <line x1="839.9508" x2="840.2633" y1="521.1958" y2="521.1958"/>
    <polyline fill="none" stroke="#000000" points="839.9508,521.5052 839.9508,521.1958 839.3258,520.577 839.6383,520.2677 839.3258,519.9583 839.6383,519.6489 839.9508,519.6489"/>
    <polygon points="840.8883,519.6489 840.5758,519.3395 840.8883,519.3395 840.8883,519.6489"/>
    <line x1="841.5133" x2="842.1383" y1="518.7208" y2="519.3395"/>
    <line x1="842.4508" x2="842.7633" y1="519.6489" y2="519.6489"/>
    <polyline fill="none" stroke="#000000" points="842.4508,519.9583 842.4508,519.6489 842.1383,519.3395 842.4508,519.0302 842.4508,518.7208 842.7633,518.4114 842.4508,518.4114 842.4508,518.102 842.7633,517.7927 843.0758,517.7927 843.3883,518.102 843.7008,517.7927 843.3883,517.7927 843.3883,517.4833 843.0758,517.7927 843.3883,517.7927 843.3883,517.7927 843.3883,518.102 843.3883,518.4114 843.0758,518.7208 843.3883,519.0302 843.7008,519.0302"/>
    <line x1="843.3883" x2="843.3883" y1="519.0302" y2="519.3395"/>
    <polyline fill="none" stroke="#000000" points="843.0758,518.7208 842.4508,518.102 842.1383,518.4114 842.4508,518.4114 842.4508,518.7208 842.1383,518.4114 841.8258,518.4114 841.5133,518.7208 841.2008,518.7208 840.8883,519.0302 841.8258,519.9583"/>
    <polyline fill="none" stroke="#000000" points="844.3258,518.7208 844.3258,518.4114 843.3883,517.4833 843.7008,517.1739 844.0133,517.1739"/>
    <polygon points="844.9508,516.8645 845.2633,516.8645 844.9508,517.1739 844.6383,516.8645"/>
    <polyline fill="none" stroke="#000000" points="844.6383,517.7927 844.9508,517.4833 844.9508,516.5552 844.6383,516.8645 844.3258,516.8645 844.0133,517.1739 844.9508,518.102 844.9508,518.4114"/>
    <line x1="844.9508" x2="845.2633" y1="518.102" y2="518.102"/>
    <polyline fill="none" stroke="#000000" points="845.8883,517.7927 845.8883,517.4833 845.5758,517.1739 845.8883,516.8645 845.8883,516.5552 845.5758,516.2458 845.8883,515.9364 846.2008,515.9364"/>
    <polyline fill="none" stroke="#000000" points="845.5758,516.2458 845.2633,516.2458 844.9508,516.5552 845.5758,517.1739"/>
    <line x1="845.8883" x2="846.2008" y1="517.4833" y2="517.4833"/>
    <polyline fill="none" stroke="#000000" points="847.1383,516.8645 846.2008,515.9364 846.8258,515.3177 847.1383,515.3177"/>
    <polyline fill="none" stroke="#000000" points="848.0758,514.6989 848.3883,515.0083 848.3883,515.3177 848.7008,515.627 848.7008,515.9364"/>
    <line x1="848.7008" x2="849.0133" y1="515.627" y2="515.9364"/>
    <line x1="849.6383" x2="848.7008" y1="515.3177" y2="514.3895"/>
    <line x1="849.9508" x2="850.2633" y1="513.4614" y2="513.7708"/>
    <polyline fill="none" stroke="#000000" points="850.2633,513.4614 849.9508,513.4614 849.6383,513.7708 849.3258,513.7708 848.7008,514.3895 848.3883,514.3895 848.0758,514.6989 847.7633,514.6989 847.1383,515.3177 848.0758,516.2458"/>
    <polyline fill="none" stroke="#000000" points="850.5758,514.6989 851.8258,514.6989 853.0758,513.4614 851.8258,512.2239"/>
    <polygon points="852.7633,511.9145 852.7633,512.2239 852.7633,512.2239 852.4508,511.9145"/>
    <polyline fill="none" stroke="#000000" points="851.2008,512.8427 853.3883,515.0083 854.3258,515.0083 854.6383,514.6989"/>
    <line x1="854.6383" x2="854.9508" y1="514.3895" y2="514.6989"/>
    <line x1="850.8883" x2="850.5758" y1="514.6989" y2="514.3895"/>
    <line x1="844.6383" x2="844.3258" y1="518.7208" y2="518.4114"/>
    <polygon points="839.3258,520.577 839.0133,520.2677 839.3258,520.2677 839.3258,520.577"/>
    <line x1="837.4508" x2="838.7008" y1="521.1958" y2="522.4333"/>
    <line x1="838.3883" x2="838.3883" y1="522.4333" y2="522.1239"/>
    <line x1="838.0758" x2="837.7633" y1="522.7427" y2="522.7427"/>
    <line x1="837.7633" x2="836.8258" y1="522.4333" y2="521.5052"/>
    <line x1="835.8883" x2="836.8258" y1="522.1239" y2="523.052"/>
    <polyline fill="none" stroke="#000000" points="836.2008,523.9802 835.8883,523.9802 835.8883,523.6708"/>
    <polyline fill="none" stroke="#000000" points="835.8883,523.9802 835.2633,524.5989 834.9508,524.5989 834.3258,525.2177 834.0133,525.2177 833.3883,525.8364 833.0758,525.8364 832.7633,526.1458 832.4508,526.1458 831.8258,526.7645 831.5133,526.7645 831.2008,527.0739 831.2008,527.3833 830.8883,527.6927 830.8883,528.002 830.5758,528.3114"/>
    <line x1="830.8883" x2="830.8883" y1="528.3114" y2="528.002"/>
    <polyline fill="none" stroke="#000000" points="834.9508,522.7427 834.6383,522.7427 834.3258,523.052 834.0133,523.052 833.7008,523.3614 833.3883,523.3614 832.7633,523.9802 832.4508,523.9802 831.8258,524.5989 831.5133,524.5989 830.8883,525.2177 830.5758,525.2177 830.2633,525.527 829.9508,525.527 829.6383,525.8364 829.3258,525.8364 828.7008,526.4552 828.3883,526.4552 827.7633,527.0739 827.4508,527.0739 827.1383,527.3833 826.8258,527.3833 826.2008,528.002 825.8883,528.002 825.5758,528.3114 825.2633,528.3114 824.6383,528.9302 824.3258,528.9302 824.0133,529.2395 823.7008,529.2395 823.0758,529.8583 822.7633,529.8583 822.4508,530.1677 822.1383,530.1677 821.5133,530.7864 821.2008,530.7864 820.5758,531.4052 820.2633,531.4052 819.6383,532.0239 819.3258,532.0239 818.7008,532.6427"/>
    <polyline fill="none" stroke="#000000" points="818.3883,532.6427 818.0758,532.952 817.4508,532.952 817.1383,533.2614 816.8258,533.2614 815.8883,534.1895 815.5758,534.1895 815.2633,534.4989 814.9508,534.4989 814.6383,534.8083 814.3258,534.8083 814.0133,535.1177 813.7008,535.1177 813.3883,534.8083"/>
    <polyline fill="none" stroke="#000000" points="818.3883,532.3333 818.7008,532.6427 818.3883,532.6427 818.3883,532.3333 817.4508,531.4052 817.4508,530.1677 817.7633,529.8583 817.7633,529.2395 818.0758,528.9302 818.0758,528.6208 818.3883,528.3114 818.3883,528.002 818.7008,527.6927 818.7008,527.3833 819.0133,527.0739 819.0133,526.1458 818.3883,525.527 818.3883,525.2177 818.7008,524.9083 818.7008,524.5989 819.0133,524.2895 819.0133,523.9802 819.3258,523.6708 819.3258,523.3614 819.6383,523.052 819.6383,522.7427 819.9508,522.4333 819.9508,522.1239 820.5758,521.5052 820.8883,521.5052 821.8258,520.577 821.8258,520.2677 822.1383,519.9583 822.1383,519.6489 822.4508,519.3395 822.4508,519.0302 822.7633,518.7208 822.7633,518.4114 823.0758,518.102 823.0758,517.7927 823.3883,517.4833 823.3883,517.1739 823.7008,516.8645 823.7008,516.5552 824.0133,516.2458 824.0133,515.9364 824.3258,515.627 824.3258,515.3177 824.6383,515.0083 824.6383,514.6989 824.9508,514.3895 824.9508,514.0802 825.2633,513.7708 825.2633,513.4614 825.5758,513.152 825.5758,512.8427 825.8883,512.5333 825.8883,512.2239 825.5758,511.9145 825.5758,510.9864 826.2008,510.3677 826.2008,510.0583 826.5133,509.7489 826.5133,509.4395 826.8258,509.1302 826.8258,508.8208 827.4508,508.202 827.4508,507.8927 827.7633,507.5833 827.7633,507.2739 828.3883,506.6552 828.3883,506.3458 829.0133,505.727 829.0133,505.4177 829.6383,504.7989 829.6383,504.4895 829.9508,504.1802 829.9508,503.8708 830.8883,502.9427 830.8883,502.6333 831.5133,502.0145 831.5133,501.7052 832.4508,500.777 832.4508,500.4677 833.7008,499.2302 833.7008,498.9208 834.9508,497.6833 834.9508,497.3739 836.2008,496.1364 836.2008,495.827 836.8258,495.2083 836.8258,494.8989 838.0758,493.6614 838.0758,493.352 839.0133,492.4239 839.0133,492.1145 840.5758,490.5677 840.5758,490.2583 841.8258,489.0208 841.8258,488.7114 844.9508,485.6177 844.9508,485.3083 847.1383,483.1427 847.4508,483.1427 850.5758,480.0489 850.8883,480.0489 852.7633,478.1927 853.0758,478.1927 856.2008,475.0989 856.5133,475.0989 858.7008,472.9333 859.3258,472.9333 859.6383,472.6239 859.6383,472.0052"/>
    <polyline fill="none" stroke="#000000" points="824.9508,462.4145 824.6383,462.1052 824.9508,462.1052 824.9508,462.4145 824.6383,462.7239 824.3258,462.4145 824.3258,462.7239 824.6383,462.7239"/>
    <polyline fill="none" stroke="#000000" points="824.3258,462.7239 823.7008,463.3427 823.3883,463.3427 821.2008,465.5083 820.8883,465.5083 818.7008,467.6739 818.7008,467.9833 815.8883,470.7677 815.8883,471.077 814.0133,472.9333 814.0133,473.2427 812.4508,474.7895 812.4508,475.0989 811.2008,476.3364 811.2008,476.6458 810.5758,477.2645 810.5758,477.5739 809.6383,478.502 809.6383,478.8114 808.7008,479.7395 808.7008,480.0489 808.0758,480.6677 808.0758,480.977 807.1383,481.9052 807.1383,482.2145 806.5133,482.8333 806.5133,483.1427 805.8883,483.7614 805.8883,484.0708 805.5758,484.3802 805.5758,484.6895 804.9508,485.3083 804.9508,485.6177 804.3258,486.2364 804.3258,486.5458 803.7008,487.1645 803.7008,487.4739 803.0758,488.0927 803.0758,488.402 802.4508,489.0208 802.4508,489.3302 801.8258,489.9489 801.8258,490.2583 801.5133,490.5677 801.5133,490.877 800.8883,491.4958 800.8883,491.8052 800.5758,492.1145 800.5758,492.4239 800.2633,492.7333 800.2633,493.0427 799.6383,493.6614 799.6383,493.9708 799.3258,494.2802 799.3258,494.5895 799.0133,494.8989 799.0133,495.2083 798.7008,495.5177 798.7008,495.827 798.3883,496.1364 798.3883,496.4458 797.7633,497.0645 797.7633,497.6833 797.1383,498.302 797.1383,498.6114 796.8258,498.9208 796.8258,499.2302 796.5133,499.5395 796.5133,499.8489 796.2008,500.1583 796.2008,500.4677 795.8883,500.777 795.8883,501.0864 795.5758,501.3958 795.5758,501.7052 795.2633,502.0145 795.2633,502.6333 794.9508,502.9427 794.9508,503.252 794.6383,503.5614 794.6383,503.8708 794.3258,504.1802 794.3258,504.4895 794.0133,504.7989 794.0133,505.1083 793.7008,505.4177 793.7008,505.727 793.3883,506.0364 793.3883,506.3458 793.0758,506.6552 793.0758,506.9645 792.7633,507.2739 792.7633,507.5833 792.4508,507.8927 792.4508,508.5114 792.1383,508.8208 792.1383,509.1302 791.8258,509.4395 791.8258,509.7489 791.5133,510.0583 791.5133,510.3677 791.2008,510.677 791.2008,511.2958 790.8883,511.6052 790.8883,511.9145 790.5758,512.2239 790.5758,512.5333 790.2633,512.8427 790.2633,513.4614 789.9508,513.7708 789.9508,514.0802 789.6383,514.3895 789.6383,515.0083 789.3258,515.3177 789.3258,515.627 789.0133,515.9364 789.0133,516.2458 788.7008,516.5552 788.7008,517.1739 788.3883,517.4833 788.3883,517.7927 788.0758,518.102 788.0758,518.7208 787.7633,519.0302 787.7633,519.3395 787.4508,519.6489 787.4508,520.2677 787.1383,520.577 787.1383,520.8864 786.8258,521.1958 786.8258,521.8145 786.5133,522.1239 786.5133,522.4333 786.2008,522.7427 786.2008,523.3614 785.8883,523.6708 785.8883,523.9802 784.6383,525.2177 784.6383,525.8364 784.3258,526.1458 784.3258,526.4552 785.2633,527.3833 785.2633,527.6927 784.9508,528.002 784.9508,528.6208 784.6383,528.9302 784.6383,529.5489 784.3258,529.8583 784.3258,530.1677 784.0133,530.477 784.0133,531.0958 783.7008,531.4052 783.7008,532.0239 783.3883,532.3333 783.3883,532.952 783.0758,533.2614 783.0758,533.8802 782.7633,534.1895 782.7633,534.8083 782.4508,535.1177 782.4508,535.7364 782.1383,536.0458 782.1383,536.6645 781.8258,536.9739 781.8258,537.5927 781.5133,537.902 781.5133,538.5208 781.2008,538.8302 781.2008,539.4489 780.8883,539.7583 780.8883,540.6864 780.5758,540.9958 780.5758,541.6145 780.2633,541.9239 780.2633,542.5427 779.9508,542.852 779.9508,543.4708 779.6383,543.7802 779.6383,544.3989 779.3258,544.7083 779.3258,545.6364 779.0133,545.9458 779.0133,546.8739 778.7008,547.1833 778.7008,548.4208 778.3883,548.7302 778.3883,549.9677 778.0758,550.277 778.0758,550.8958 777.7633,551.2052 777.7633,553.0614 777.4508,553.3708 777.4508,553.9895 777.1383,554.2989 777.1383,555.5364 776.8258,555.8458 776.8258,556.7739 776.5133,557.0833 776.5133,558.0114 776.8258,558.3208 774.9508,560.177 774.6383,560.177 774.0133,560.7958 773.7008,560.7958 773.0758,561.4145 772.7633,561.4145 772.4508,561.7239 772.1383,561.7239 771.5133,562.3427 770.8883,562.3427 770.5758,562.0333 770.2633,562.3427 770.2633,562.652 769.3258,563.5802 769.0133,563.5802 768.3883,564.1989 768.0758,564.1989 767.4508,564.8177 767.1383,564.8177 766.5133,565.4364 766.2008,565.4364 765.5758,566.0552 765.2633,566.0552 764.9508,566.3645 764.6383,566.3645 764.0133,566.9833 763.7008,566.9833 763.3883,567.2927 763.0758,567.2927 762.4508,567.9114 762.1383,567.9114 761.5133,568.5302 761.2008,568.5302 760.8883,568.8395 760.5758,568.8395 759.9508,569.4583 759.6383,569.4583 759.0133,570.077 758.7008,570.077 758.3883,570.3864 758.0758,570.3864 757.4508,571.0052 757.1383,571.0052 756.5133,571.6239 756.2008,571.6239 755.8883,571.9333 755.5758,571.9333 754.9508,572.552 754.6383,572.552 754.0133,573.1708 753.7008,573.1708 753.0758,573.7895 752.7633,573.7895 752.1383,574.4083 751.8258,574.4083 751.5133,574.7177 751.2008,574.7177 750.2633,575.6458 749.9508,575.6458 749.6383,575.9552 749.3258,575.9552 749.0133,576.2645 748.7008,576.2645 748.0758,576.8833 747.7633,576.8833 747.1383,577.502 746.8258,577.502 746.2008,578.1208 745.8883,578.1208 745.2633,578.7395 744.9508,578.7395 744.3258,579.3583 744.0133,579.3583 743.3883,579.977 743.0758,579.977 742.4508,580.5958 742.1383,580.5958 741.8258,580.9052 741.5133,580.9052 740.8883,581.5239 740.5758,581.5239 739.9508,582.1427 738.7008,582.1427 738.3883,582.452 738.0758,582.452 737.7633,582.1427 737.4508,581.8333 737.4508,582.1427 737.7633,582.1427"/>
    <polyline fill="none" stroke="#000000" points="737.4508,582.1427 737.1383,582.452 737.1383,582.7614 735.5758,584.3083 735.5758,584.6177 734.6383,585.5458 734.3258,585.5458 734.0133,585.8552 733.7008,585.8552 733.3883,586.1645 733.0758,586.1645 732.4508,586.7833 732.1383,586.7833 731.8258,587.0927 731.5133,587.0927 730.8883,587.7114 730.5758,587.7114 730.2633,588.0208 729.9508,588.0208 729.3258,588.6395 729.0133,588.6395 728.3883,589.2583 728.0758,589.2583 727.7633,589.5677 727.4508,589.5677 726.8258,590.1864 726.5133,590.1864 725.8883,590.8052 725.5758,590.8052 724.9508,591.4239 724.6383,591.4239 724.0133,592.0427 723.7008,592.0427 722.7633,592.9708 722.4508,592.9708 722.1383,593.2802 721.8258,593.2802 720.8883,594.2083 720.5758,594.2083 719.6383,595.1364 719.3258,595.1364 718.7008,595.7552 718.3883,595.7552 717.7633,596.3739 717.4508,596.3739 716.5133,597.302 716.2008,597.302 715.2633,598.2302 714.9508,598.2302 714.0133,599.1583 713.7008,599.1583 713.0758,599.777 712.7633,599.777 711.8258,600.7052 711.5133,600.7052 711.2008,601.0145 709.9508,601.0145"/>
    <polyline fill="none" stroke="#000000" points="709.3258,609.0583 709.3258,609.3677 708.3883,610.2958 708.0758,610.2958"/>
    <line x1="707.7633" x2="707.7633" y1="609.9864" y2="609.677"/>
    <polyline fill="none" stroke="#000000" points="707.4508,609.9864 706.8258,609.9864 706.5133,610.2958 706.8258,610.6052 706.5133,610.9145 706.8258,611.2239"/>
    <line x1="707.1383" x2="706.8258" y1="610.9145" y2="610.6052"/>
    <polyline fill="none" stroke="#000000" points="706.5133,610.9145 705.8883,611.5333 705.8883,611.8427"/>
    <polyline fill="none" stroke="#000000" points="705.8883,611.5333 705.5758,611.2239 705.2633,611.2239 704.9508,611.5333 705.2633,611.8427 704.9508,612.152 705.2633,612.4614"/>
    <line x1="704.9508" x2="704.6383" y1="612.7708" y2="612.4614"/>
    <line x1="704.3258" x2="704.6383" y1="612.7708" y2="613.0802"/>
    <polyline fill="none" stroke="#000000" points="704.0133,613.0802 703.7008,612.7708 703.3883,612.7708 703.0758,613.0802 703.7008,613.6989"/>
    <polyline fill="none" stroke="#000000" points="704.0133,613.3895 704.0133,613.0802 704.9508,612.152"/>
    <line x1="705.2633" x2="705.5758" y1="611.8427" y2="612.152"/>
    <line x1="706.2008" x2="706.5133" y1="611.2239" y2="611.5333"/>
    <polyline fill="none" stroke="#000000" points="703.3883,613.3895 702.7633,614.0083 703.0758,614.3177"/>
    <line x1="703.3883" x2="703.0758" y1="614.0083" y2="613.6989"/>
    <polyline fill="none" stroke="#000000" points="702.7633,614.0083 702.4508,614.3177 702.7633,614.627"/>
    <polyline fill="none" stroke="#000000" points="702.4508,614.3177 702.1383,614.0083 701.5133,614.627 701.5133,614.9364"/>
    <polyline fill="none" stroke="#000000" points="701.5133,615.2458 701.2008,615.2458 701.5133,614.9364 701.5133,615.2458 701.8258,615.5552 702.1383,615.5552 702.7633,614.9364 702.7633,614.627 704.0133,613.3895 704.3258,613.6989 704.6383,613.3895 704.6383,613.0802 705.8883,611.8427 706.2008,612.152 706.5133,611.8427 706.5133,611.5333 707.1383,610.9145 707.4508,610.9145 708.0758,610.2958 707.7633,609.9864 707.4508,609.9864 708.0758,609.3677 708.0758,609.0583 708.3883,608.7489 709.0133,608.7489 709.3258,609.0583 710.8883,607.5114 711.2008,607.5114 712.7633,605.9645 713.0758,605.9645 714.0133,605.0364 714.3258,605.0364 714.6383,604.727 714.9508,604.727 715.2633,604.4177 715.5758,604.4177 715.8883,604.1083 716.5133,604.1083 716.8258,603.7989 717.7633,603.7989 718.0758,603.4895 718.0758,602.8708 718.3883,602.5614 718.3883,602.252 719.6383,601.0145"/>
    <polyline fill="none" stroke="#000000" points="719.6383,600.7052 719.6383,601.0145 719.9508,601.0145"/>
    <polyline fill="none" stroke="#000000" points="721.2008,599.777 721.2008,600.3958 720.5758,601.0145 719.9508,601.0145 719.6383,600.7052 719.9508,600.3958 719.9508,600.0864 720.5758,599.4677 720.8883,599.4677 721.2008,599.777 722.1383,598.8489 722.4508,599.1583 722.7633,599.1583 723.7008,598.2302 723.7008,597.9208 724.0133,597.6114 724.3258,597.302 724.6383,597.302 725.8883,596.0645 726.2008,596.0645 727.1383,595.1364 727.4508,595.1364 728.3883,594.2083 728.7008,594.2083 729.6383,593.2802 729.9508,593.2802 730.5758,592.6614 730.8883,592.6614 731.8258,591.7333 732.1383,591.7333 732.7633,591.1145 733.0758,591.1145 734.0133,590.1864 734.3258,590.1864 734.9508,589.5677 735.2633,589.5677 736.2008,588.6395 736.5133,588.6395 737.1383,588.0208 737.4508,588.0208 738.0758,587.402 738.3883,587.402 739.3258,586.4739 739.6383,586.4739 740.2633,585.8552 741.2008,585.8552 741.5133,585.5458 741.8258,585.5458 742.1383,585.2364 742.7633,585.2364 743.0758,584.927 743.3883,584.927 743.7008,584.6177 743.7008,584.3083 744.0133,583.9989 744.0133,583.6895 744.6383,583.0708 744.9508,583.0708 745.8883,582.1427 746.2008,582.1427 746.8258,581.5239 747.1383,581.5239 747.7633,580.9052 748.0758,580.9052 748.7008,580.2864 749.0133,580.2864 749.6383,579.6677 749.9508,579.6677 750.5758,579.0489 750.8883,579.0489 751.5133,578.4302 751.8258,578.4302 752.4508,577.8114 752.7633,577.8114 753.3883,577.1927 753.7008,577.1927 754.3258,576.5739 754.6383,576.5739 755.2633,575.9552 755.5758,575.9552 756.2008,575.3364 756.5133,575.3364 757.1383,574.7177 757.4508,574.7177 758.0758,574.0989 758.3883,574.0989 758.7008,573.7895 759.0133,573.7895 759.9508,572.8614 760.2633,572.8614 760.5758,572.552 760.8883,572.552 761.8258,571.6239 762.1383,571.6239 762.7633,571.0052 763.0758,571.0052 763.7008,570.3864 764.0133,570.3864 764.6383,569.7677 764.9508,569.7677 765.5758,569.1489 765.8883,569.1489 766.5133,568.5302 766.8258,568.5302 767.4508,567.9114 767.7633,567.9114 768.3883,567.2927 768.7008,567.2927 769.3258,566.6739 769.6383,566.6739 770.2633,566.0552 770.5758,566.0552 771.2008,565.4364 771.5133,565.4364 772.1383,564.8177 772.4508,564.8177 773.0758,564.1989 773.3883,564.1989 773.7008,563.8895 774.0133,563.8895 774.6383,563.2708 774.9508,563.2708 775.5758,562.652 775.8883,562.652 776.5133,562.0333 776.8258,562.0333 777.4508,561.4145 777.7633,561.4145 778.3883,560.7958 778.7008,560.7958 779.6383,559.8677 779.9508,559.8677 780.5758,559.2489 780.8883,559.2489 781.5133,558.6302 781.8258,558.6302 782.4508,558.0114 782.7633,558.0114 783.3883,557.3927 783.7008,557.3927 784.3258,556.7739 784.6383,556.7739 785.2633,556.1552 785.5758,556.1552 786.2008,555.5364 786.5133,555.5364 787.1383,554.9177 787.4508,554.9177 788.0758,554.2989 788.3883,554.2989 789.0133,553.6802 789.3258,553.6802 789.9508,553.0614 790.2633,553.0614 790.8883,552.4427 791.2008,552.4427 791.5133,552.1333 792.4508,552.1333 792.7633,551.8239 794.3258,551.8239"/>
    <polyline fill="none" stroke="#000000" points="794.6383,551.8239 794.3258,551.8239 794.6383,551.5145"/>
    <polyline fill="none" stroke="#000000" points="796.8258,552.4427 797.7633,553.3708 798.7008,553.3708 799.0133,553.6802 800.2633,553.6802 800.5758,553.9895 801.8258,553.9895"/>
    <polyline fill="none" stroke="#000000" points="802.4508,553.0614 802.7633,552.752 803.7008,552.752 804.0133,553.0614 804.6383,553.0614 805.2633,553.6802 804.9508,553.9895 804.9508,554.2989 804.6383,554.6083"/>
    <polyline fill="none" stroke="#000000" points="805.2633,553.6802 805.5758,553.3708 806.2008,553.3708 806.8258,553.9895 806.5133,554.2989 806.5133,554.6083 806.2008,554.9177"/>
    <polyline fill="none" stroke="#000000" points="806.8258,553.9895 807.1383,553.6802 807.4508,553.6802 808.0758,554.2989 808.3883,553.9895 808.7008,553.9895 809.3258,554.6083 809.6383,554.2989 809.9508,554.2989 810.5758,554.9177 810.8883,554.6083 811.2008,554.6083 811.5133,554.9177 811.8258,554.9177 812.1383,555.227 812.4508,554.9177 812.7633,555.227 813.7008,555.227 814.0133,555.5364 815.2633,555.5364 815.5758,555.8458 816.8258,555.8458 817.1383,556.1552 818.0758,556.1552 818.3883,556.4645 819.9508,556.4645 820.2633,556.7739 821.5133,556.7739 821.8258,557.0833 822.7633,557.0833 823.0758,557.3927 824.3258,557.3927 824.6383,557.702 825.8883,557.702 826.2008,558.0114 827.4508,558.0114 827.7633,558.3208 829.6383,558.3208 829.9508,558.6302 831.5133,558.6302 831.8258,558.9395 834.3258,558.9395 834.6383,559.2489 834.9508,559.2489 834.6383,559.5583 834.6383,560.177"/>
    <line x1="834.6383" x2="834.3258" y1="559.8677" y2="560.177"/>
    <line x1="834.6383" x2="834.6383" y1="559.5583" y2="559.2489"/>
    <polyline fill="none" stroke="#000000" points="834.9508,559.2489 835.5758,559.2489 835.8883,559.5583 836.2008,559.5583 836.5133,559.2489 837.1383,559.2489 837.7633,559.8677"/>
    <polyline fill="none" stroke="#000000" points="836.2008,560.177 836.5133,560.4864 837.1383,560.4864 837.7633,559.8677 839.0133,559.8677 839.3258,560.177 845.5758,560.177 845.8883,560.4864 852.7633,560.4864 853.0758,560.177 858.0758,560.177 858.3883,559.8677 861.5133,559.8677 861.8258,559.5583 863.3883,559.5583 863.7008,559.2489 865.5758,559.2489 865.8883,558.9395 867.1383,558.9395 867.4508,558.6302 869.0133,558.6302 869.3258,558.3208 870.2633,558.3208 870.5758,558.0114 872.1383,558.0114 872.4508,557.702 873.3883,557.702 873.7008,557.3927 874.6383,557.3927 874.9508,557.0833 875.8883,557.0833 876.2008,556.7739 877.1383,556.7739 877.4508,556.4645 878.3883,556.4645 878.7008,556.1552 879.6383,556.1552 879.9508,555.8458 880.5758,555.8458 880.8883,555.5364 881.5133,555.5364 881.8258,555.227 882.1383,555.227 882.4508,554.9177 883.3883,554.9177 883.7008,554.6083 884.0133,554.6083 884.3258,554.2989 884.9508,554.2989 885.2633,553.9895 885.8883,553.9895 886.2008,553.6802 886.5133,553.6802 886.8258,553.3708 887.4508,553.3708 887.7633,553.0614 888.3883,553.0614 888.7008,552.752 889.0133,552.752 889.3258,552.4427 889.9508,552.4427 890.2633,552.1333 890.5758,552.1333 890.8883,551.8239 891.2008,551.8239 891.5133,551.5145 891.8258,551.5145 892.1383,551.2052 892.4508,551.2052 892.7633,550.8958 893.3883,550.8958 893.7008,550.5864 894.3258,550.5864 894.9508,549.9677 895.2633,549.9677"/>
    <polyline fill="none" stroke="#000000" points="894.3258,523.6708 894.0133,523.6708 893.7008,523.9802 893.3883,523.9802 893.0758,524.2895 892.7633,524.2895 892.4508,524.5989 891.5133,524.5989 891.2008,524.9083 890.5758,524.9083 890.2633,525.2177 889.9508,525.2177 889.6383,525.527 889.0133,525.527 888.7008,525.8364 887.1383,525.8364 886.8258,526.1458 886.2008,526.1458 885.8883,526.4552 885.2633,526.4552 884.9508,526.7645 884.0133,526.7645 883.7008,527.0739 883.0758,527.0739 882.7633,527.3833 881.8258,527.3833 881.5133,527.6927 880.2633,527.6927 879.9508,528.002 879.0133,528.002 878.7008,528.3114 877.7633,528.3114 877.4508,528.6208 875.8883,528.6208 875.5758,528.9302 873.7008,528.9302 873.3883,529.2395 872.1383,529.2395 871.8258,529.5489 869.9508,529.5489 869.6383,529.8583 867.7633,529.8583 867.4508,530.1677 850.2633,530.1677 849.9508,529.8583 845.5758,529.8583 845.2633,529.5489 840.8883,529.5489 840.5758,529.2395 836.5133,529.2395 836.2008,528.9302 831.5133,528.9302 830.8883,528.3114 830.5758,528.3114 830.2633,528.6208 829.6383,528.6208 829.3258,528.9302 828.0758,528.9302 827.4508,529.5489 827.1383,529.5489 826.5133,530.1677 826.2008,530.1677 825.5758,530.7864 825.2633,530.7864 824.9508,531.0958 824.6383,531.0958 824.0133,531.7145 823.7008,531.7145 823.0758,532.3333 822.7633,532.3333 822.1383,532.952 821.8258,532.952 821.5133,533.2614 821.2008,533.2614 820.5758,533.8802 820.2633,533.8802 819.6383,534.4989 819.3258,534.4989 818.7008,535.1177 818.3883,535.1177 818.0758,535.427 817.7633,535.427 817.1383,536.0458 816.8258,536.0458 816.5133,536.3552 816.2008,536.3552 815.5758,536.9739 815.2633,536.9739 814.6383,537.5927 814.3258,537.5927 813.7008,538.2114 813.3883,538.2114 812.7633,538.8302 812.4508,538.8302 811.8258,539.4489 811.5133,539.4489 810.8883,540.0677 810.5758,540.0677 809.9508,540.6864 809.6383,540.6864 809.0133,541.3052 808.7008,541.3052 808.3883,541.6145 808.0758,541.6145 807.4508,542.2333 807.1383,542.2333 806.5133,542.852 806.2008,542.852 805.5758,543.4708 805.2633,543.4708 804.9508,543.7802 804.6383,543.7802 804.0133,544.3989 803.7008,544.3989 803.0758,545.0177 802.7633,545.0177 802.1383,545.6364 801.8258,545.6364 801.5133,545.9458 801.2008,545.9458 800.5758,546.5645 800.2633,546.5645 799.6383,547.1833 799.3258,547.1833 798.7008,547.802 798.3883,547.802 797.7633,548.4208 797.4508,548.4208 797.1383,548.7302 796.8258,548.7302 796.2008,549.3489 795.8883,549.3489 795.2633,549.9677 795.2633,550.277 794.9508,550.5864 794.9508,550.8958 794.6383,551.2052 794.6383,551.8239 794.9508,552.1333 795.8883,552.1333 796.2008,552.4427 796.8258,552.4427 797.4508,551.8239 798.3883,551.8239 798.7008,552.1333 799.3258,552.1333 799.6383,552.4427 799.9508,552.1333 800.2633,552.4427 800.8883,552.4427 801.2008,552.752 801.5133,552.4427 801.8258,552.4427 802.4508,553.0614 802.1383,553.3708 802.1383,553.6802 801.8258,553.9895 802.1383,554.2989 803.3883,554.2989 803.7008,554.6083 804.6383,554.6083 804.9508,554.9177 806.2008,554.9177 806.5133,555.227 807.4508,555.227 807.7633,555.5364 808.7008,555.5364 809.0133,555.8458 809.9508,555.8458 810.2633,556.1552 811.2008,556.1552 811.5133,556.4645 812.4508,556.4645 812.7633,556.7739 814.0133,556.7739 814.3258,557.0833 814.9508,557.0833 815.2633,557.3927 816.2008,557.3927 816.5133,557.702 817.7633,557.702 818.0758,558.0114 819.3258,558.0114 819.6383,558.3208 821.2008,558.3208 821.5133,558.6302 822.7633,558.6302 823.0758,558.9395 824.3258,558.9395 824.6383,559.2489 826.2008,559.2489 826.5133,559.5583 827.7633,559.5583 828.0758,559.8677 830.2633,559.8677 830.5758,560.177 834.6383,560.177 834.9508,560.4864 835.5758,560.4864 835.8883,560.177 836.2008,560.177 835.8883,559.8677 835.8883,560.177"/>
    <polyline fill="none" stroke="#000000" points="835.8883,559.5583 835.8883,559.8677 836.2008,559.5583"/>
    <line x1="812.1383" x2="811.2008" y1="555.227" y2="556.1552"/>
    <polyline fill="none" stroke="#000000" points="809.9508,555.8458 810.2633,555.5364 810.2633,555.227 810.5758,554.9177"/>
    <polyline fill="none" stroke="#000000" points="809.3258,554.6083 809.0133,554.9177 809.0133,555.227 808.7008,555.5364"/>
    <polyline fill="none" stroke="#000000" points="807.4508,555.227 807.7633,554.9177 807.7633,554.6083 808.0758,554.2989"/>
    <line x1="804.3258" x2="804.0133" y1="553.0614" y2="553.3708"/>
    <polyline fill="none" stroke="#000000" points="804.0133,553.0614 804.0133,553.3708 803.7008,553.6802 803.7008,553.9895 803.3883,554.2989"/>
    <line x1="801.2008" x2="800.2633" y1="552.752" y2="553.6802"/>
    <line x1="799.6383" x2="798.7008" y1="552.4427" y2="553.3708"/>
    <polyline fill="none" stroke="#000000" points="776.8258,558.3208 777.7633,558.3208 778.0758,558.0114 778.3883,558.0114 779.0133,557.3927 779.3258,557.3927 779.9508,556.7739 780.2633,556.7739 780.8883,556.1552 781.2008,556.1552 781.8258,555.5364 782.1383,555.5364 782.4508,555.227 782.7633,555.227 783.3883,554.6083 783.7008,554.6083 784.3258,553.9895 784.6383,553.9895 785.2633,553.3708 785.5758,553.3708 785.8883,553.0614 786.2008,553.0614 786.8258,552.4427 787.1383,552.4427 787.7633,551.8239 788.0758,551.8239 788.7008,551.2052 789.0133,551.2052 789.6383,550.5864 789.9508,550.5864 790.5758,549.9677 790.8883,549.9677 791.5133,549.3489 791.8258,549.3489 792.4508,548.7302 792.7633,548.7302 793.3883,548.1114 793.7008,548.1114 794.3258,547.4927 794.6383,547.4927 795.2633,546.8739 795.5758,546.8739 796.2008,546.2552 796.5133,546.2552 797.1383,545.6364 797.4508,545.6364 797.7633,545.327 798.0758,545.327 798.7008,544.7083 799.0133,544.7083 799.6383,544.0895 799.9508,544.0895 800.5758,543.4708 800.8883,543.4708 801.2008,543.1614 801.5133,543.1614 802.1383,542.5427 802.4508,542.5427 803.0758,541.9239 803.3883,541.9239 804.0133,541.3052 804.3258,541.3052 804.9508,540.6864 805.2633,540.6864 805.8883,540.0677 806.2008,540.0677 806.8258,539.4489 807.1383,539.4489 807.7633,538.8302 808.0758,538.8302 808.7008,538.2114 809.0133,538.2114 809.3258,537.902 809.6383,537.902 810.2633,537.2833 810.5758,537.2833 811.2008,536.6645 811.5133,536.6645 811.8258,536.3552 812.1383,536.3552 812.7633,535.7364 812.7633,535.427 813.3883,534.8083 813.3883,534.1895 813.7008,533.8802 813.7008,533.2614 814.3258,532.6427 814.3258,532.3333 814.6383,532.0239 814.6383,531.7145 815.2633,531.0958 815.2633,530.7864 815.5758,530.477 815.5758,530.1677 815.8883,529.8583 815.8883,529.5489 816.5133,528.9302 816.5133,528.6208 816.8258,528.3114 816.8258,528.002 817.1383,527.6927"/>
    <line x1="816.8258" x2="817.7633" y1="528.3114" y2="529.2395"/>
    <polyline fill="none" stroke="#000000" points="818.0758,528.6208 817.1383,527.6927 817.1383,527.3833 817.4508,527.0739"/>
    <polyline fill="none" stroke="#000000" points="817.7633,526.4552 817.4508,526.7645 817.4508,527.0739 818.3883,528.002"/>
    <polyline fill="none" stroke="#000000" points="818.7008,527.3833 817.7633,526.4552 817.7633,526.1458 818.3883,525.527"/>
    <polyline fill="none" stroke="#000000" points="820.5758,521.5052 820.2633,521.1958 820.5758,520.8864 820.5758,519.9583 820.8883,519.6489"/>
    <line x1="820.8883" x2="821.2008" y1="519.3395" y2="519.6489"/>
    <polyline fill="none" stroke="#000000" points="821.2008,519.0302 820.8883,519.3395 820.8883,519.6489 821.2008,519.6489 821.8258,520.2677"/>
    <polyline fill="none" stroke="#000000" points="822.1383,519.6489 821.5133,519.0302 821.2008,519.0302 821.2008,518.7208 821.5133,518.4114"/>
    <polyline fill="none" stroke="#000000" points="821.5133,518.102 821.5133,518.4114 821.8258,518.4114"/>
    <polyline fill="none" stroke="#000000" points="821.8258,517.7927 821.5133,518.102 822.4508,519.0302"/>
    <polyline fill="none" stroke="#000000" points="822.7633,518.4114 821.8258,517.4833 822.1383,517.1739"/>
    <polyline fill="none" stroke="#000000" points="822.1383,516.8645 822.1383,517.1739 822.4508,517.1739"/>
    <polyline fill="none" stroke="#000000" points="822.4508,516.5552 822.1383,516.8645 823.0758,517.7927"/>
    <polyline fill="none" stroke="#000000" points="823.3883,517.1739 822.4508,516.2458 822.7633,515.9364"/>
    <line x1="822.7633" x2="823.0758" y1="515.627" y2="515.9364"/>
    <line x1="823.0758" x2="823.3883" y1="515.3177" y2="515.3177"/>
    <polyline fill="none" stroke="#000000" points="823.0758,515.0083 823.0758,515.3177 822.7633,515.627 822.7633,515.9364 823.0758,515.9364 823.7008,516.5552"/>
    <polyline fill="none" stroke="#000000" points="824.0133,515.9364 823.0758,515.0083 823.3883,514.6989"/>
    <line x1="823.3883" x2="823.7008" y1="514.3895" y2="514.6989"/>
    <polyline fill="none" stroke="#000000" points="823.7008,514.0802 823.3883,514.3895 823.3883,514.6989 823.7008,514.6989 824.3258,515.3177"/>
    <polyline fill="none" stroke="#000000" points="824.6383,514.6989 823.7008,513.7708 824.0133,513.4614 824.0133,513.152"/>
    <line x1="824.0133" x2="824.3258" y1="513.4614" y2="513.4614"/>
    <line x1="824.3258" x2="824.6383" y1="512.8427" y2="512.8427"/>
    <line x1="824.3258" x2="825.2633" y1="512.5333" y2="513.4614"/>
    <polyline fill="none" stroke="#000000" points="824.9508,514.0802 824.0133,513.152 824.3258,512.8427 824.3258,512.5333 824.9508,511.9145 825.2633,511.9145 825.5758,511.6052"/>
    <line x1="825.5758" x2="825.2633" y1="511.9145" y2="511.9145"/>
    <polyline fill="none" stroke="#000000" points="823.7008,513.7708 823.7008,514.0802 824.0133,514.0802"/>
    <polyline fill="none" stroke="#000000" points="822.4508,516.2458 822.4508,516.5552 822.7633,516.5552"/>
    <polyline fill="none" stroke="#000000" points="821.8258,517.4833 821.8258,517.7927 822.1383,517.7927"/>
    <line x1="821.2008" x2="821.5133" y1="518.7208" y2="519.0302"/>
    <polyline fill="none" stroke="#000000" points="785.5758,524.2895 785.8883,524.5989 785.8883,525.8364 785.5758,526.1458 785.5758,526.7645 785.2633,527.0739 785.2633,527.3833"/>
    <line x1="785.2633" x2="784.9508" y1="527.0739" y2="527.0739"/>
    <line x1="784.6383" x2="784.3258" y1="526.7645" y2="526.7645"/>
    <polyline fill="none" stroke="#000000" points="784.3258,526.4552 784.3258,526.7645 783.7008,527.3833 783.7008,528.002 784.6383,528.9302"/>
    <polyline fill="none" stroke="#000000" points="784.0133,528.3114 783.7008,528.3114 783.7008,528.002"/>
    <polyline fill="none" stroke="#000000" points="783.7008,528.3114 783.0758,528.9302 783.0758,529.5489 782.7633,529.8583 782.7633,530.1677 782.4508,530.477 782.4508,531.4052 782.1383,531.7145 782.1383,532.0239 781.8258,532.3333 781.8258,532.952 781.5133,533.2614 781.5133,533.8802 781.2008,534.1895 781.2008,534.4989 780.8883,534.8083 780.8883,535.427 780.5758,535.7364 780.5758,536.3552 780.2633,536.6645 780.2633,537.2833 779.9508,537.5927 779.9508,537.902 779.6383,538.2114 779.6383,538.8302 779.3258,539.1395 779.3258,539.4489 779.0133,539.7583 779.0133,540.377 778.7008,540.6864 778.7008,541.3052 778.3883,541.6145 778.3883,542.2333 778.0758,542.5427 778.0758,542.852 777.7633,543.1614 777.7633,543.7802 777.4508,544.0895 777.4508,544.7083 777.1383,545.0177 777.1383,545.6364 776.5133,546.2552 776.5133,547.1833 776.2008,547.4927 776.2008,548.1114 775.8883,548.4208 775.8883,548.7302 775.5758,549.0395 775.5758,549.3489 775.2633,549.6583 775.2633,550.277 774.9508,550.5864 774.9508,551.2052 774.6383,551.5145 774.6383,551.8239 774.3258,552.1333 774.3258,552.752 774.0133,553.0614 774.0133,553.3708 773.7008,553.6802 773.7008,554.2989 773.3883,554.6083 773.3883,554.9177 773.0758,555.227 773.0758,555.8458 772.7633,556.1552 772.7633,556.4645 772.4508,556.7739 772.4508,557.3927 772.1383,557.702 772.1383,558.0114 771.8258,558.3208 771.8258,558.6302 771.2008,559.2489 771.2008,559.8677 770.8883,560.177 770.8883,560.4864 770.5758,560.7958 770.5758,562.0333"/>
    <polyline fill="none" stroke="#000000" points="771.8258,558.3208 771.2008,557.702 771.2008,557.3927 771.5133,557.0833"/>
    <polyline fill="none" stroke="#000000" points="772.1383,557.702 771.5133,557.0833 771.5133,556.4645 771.8258,556.1552"/>
    <line x1="772.1383" x2="772.7633" y1="555.5364" y2="556.1552"/>
    <polyline fill="none" stroke="#000000" points="772.4508,556.7739 771.8258,556.1552 771.8258,555.8458 772.1383,555.5364 772.1383,554.9177 772.4508,554.6083"/>
    <polyline fill="none" stroke="#000000" points="773.0758,555.227 772.4508,554.6083 772.4508,554.2989 772.7633,553.9895 773.3883,554.6083"/>
    <line x1="785.5758" x2="785.2633" y1="526.4552" y2="526.1458"/>
    <polyline fill="none" stroke="#000000" points="785.5758,526.1458 785.2633,526.1458 784.6383,525.527"/>
    <line x1="784.6383" x2="784.9508" y1="525.8364" y2="525.8364"/>
    <polyline fill="none" stroke="#000000" points="773.7008,472.6239 773.0758,473.2427 773.0758,474.1708 772.7633,474.4802 772.7633,474.7895 772.4508,475.0989 772.4508,475.4083 772.1383,475.7177 772.1383,476.027 771.8258,476.3364 771.8258,476.6458 771.5133,476.9552 771.5133,477.2645 771.2008,477.5739 771.2008,477.8833 770.8883,478.1927 770.8883,478.502 770.5758,478.8114 770.5758,479.1208 770.2633,479.4302 770.2633,479.7395 769.9508,480.0489 769.9508,480.3583 769.6383,480.6677 769.6383,480.977 769.3258,481.2864 769.3258,481.5958 769.0133,481.9052 769.0133,482.2145 768.7008,482.5239 768.7008,482.8333 768.3883,483.1427 768.3883,483.452 768.0758,483.7614 768.0758,484.0708 767.7633,484.3802 767.7633,484.6895 767.4508,484.9989 767.4508,485.6177 767.1383,485.927 767.1383,486.2364 766.8258,486.5458 766.8258,486.8552 766.5133,487.1645 766.5133,487.7833 766.2008,488.0927 766.2008,488.402 765.8883,488.7114 765.8883,489.0208 765.5758,489.3302 765.5758,489.9489 765.2633,490.2583 765.2633,490.5677 764.9508,490.877 764.9508,491.1864 764.6383,491.4958 764.6383,492.1145 764.3258,492.4239 764.3258,493.0427 764.0133,493.352 764.0133,493.6614 763.7008,493.9708 763.7008,494.5895 763.3883,494.8989 763.3883,495.2083 763.0758,495.5177 763.0758,496.1364 762.7633,496.4458 762.7633,497.0645 762.4508,497.3739 762.4508,497.6833 762.1383,497.9927 762.1383,498.6114 761.8258,498.9208 761.8258,499.5395 761.5133,499.8489 761.5133,500.4677 761.2008,500.777 761.2008,501.3958 760.8883,501.7052 760.8883,502.3239 760.5758,502.6333 760.5758,503.252 760.2633,503.5614 760.2633,504.1802 759.9508,504.4895 759.9508,505.1083 759.6383,505.4177 759.6383,506.0364 759.3258,506.3458 759.3258,506.9645 759.0133,507.2739 759.0133,507.5833 758.7008,507.8927 758.7008,508.5114 758.3883,508.8208 758.3883,509.4395 758.0758,509.7489 758.0758,510.677 757.7633,510.9864 757.7633,511.6052 757.4508,511.9145 757.4508,512.5333 757.1383,512.8427 757.1383,513.4614 756.8258,513.7708 756.8258,514.3895 756.5133,514.6989 756.5133,515.627 756.2008,515.9364 756.2008,516.5552 755.8883,516.8645 755.8883,517.4833 755.5758,517.7927 755.5758,518.4114 755.2633,518.7208 755.2633,519.6489 754.9508,519.9583 754.9508,520.577 754.6383,520.8864 754.6383,521.5052 754.3258,521.8145 754.3258,522.4333 754.0133,522.7427 754.0133,523.3614 753.7008,523.6708 753.7008,524.2895 753.3883,524.5989 753.3883,525.2177 753.0758,525.527 753.0758,526.1458 752.7633,526.4552 752.7633,527.0739 752.4508,527.3833 752.4508,528.002 752.1383,528.3114 752.1383,529.2395 751.8258,529.5489 751.8258,530.1677 751.5133,530.477 751.5133,531.0958 751.2008,531.4052 751.2008,531.7145 750.8883,532.0239 750.8883,532.952 750.5758,533.2614 750.5758,533.8802 750.2633,534.1895 750.2633,534.8083 749.9508,535.1177 749.9508,535.7364 749.6383,536.0458 749.6383,536.6645 749.3258,536.9739 749.3258,537.5927 749.0133,537.902 749.0133,538.5208 748.7008,538.8302 748.7008,539.4489 748.3883,539.7583 748.3883,540.6864 748.0758,540.9958 748.0758,541.6145 747.7633,541.9239 747.7633,542.5427 747.4508,542.852 747.4508,543.4708 747.1383,543.7802 747.1383,544.3989 746.8258,544.7083 746.8258,545.6364 746.5133,545.9458 746.5133,546.5645 746.2008,546.8739 746.2008,547.4927 745.8883,547.802 745.8883,548.7302 745.5758,549.0395 745.5758,549.6583 745.2633,549.9677 745.2633,550.5864 744.9508,550.8958 744.9508,551.5145 744.6383,551.8239 744.6383,552.752 744.3258,553.0614 744.3258,553.6802 744.0133,553.9895 744.0133,554.9177 743.7008,555.227 743.7008,556.1552 743.3883,556.4645 743.3883,557.3927 743.0758,557.702 743.0758,558.6302 742.7633,558.9395 742.7633,559.8677 742.4508,560.177 742.4508,561.1052 742.1383,561.4145 742.1383,562.3427 741.8258,562.652 741.8258,563.5802 741.5133,563.8895 741.5133,564.8177 741.2008,565.127 741.2008,566.3645 740.8883,566.6739 740.8883,567.9114 740.5758,568.2208 740.5758,569.1489 740.2633,569.4583 740.2633,570.6958 739.9508,571.0052 739.9508,571.9333 739.6383,572.2427 739.6383,573.1708 739.3258,573.4802 739.3258,575.027 739.0133,575.3364 739.0133,576.2645 738.7008,576.5739 738.7008,577.502 738.3883,577.8114 738.3883,578.1208 738.0758,578.4302 738.0758,579.3583 737.7633,579.6677 737.7633,581.2145 737.4508,581.5239 737.4508,581.8333"/>
    <polyline fill="none" stroke="#000000" points="743.3883,584.927 744.0133,585.5458 744.3258,585.5458 744.6383,585.8552 745.2633,585.8552 745.5758,586.1645 746.5133,586.1645 746.8258,586.4739 747.7633,586.4739 748.0758,586.7833 749.3258,586.7833 749.6383,587.0927 749.9508,587.0927 750.8883,588.0208 751.5133,588.0208 751.8258,588.3302 752.7633,588.3302 753.0758,588.6395 754.0133,588.6395 754.3258,588.9489 755.5758,588.9489 755.8883,589.2583 757.1383,589.2583 757.4508,589.5677 758.3883,589.5677 758.7008,589.877 759.6383,589.877 759.9508,590.1864 761.2008,590.1864 761.5133,590.4958 762.1383,590.4958 762.4508,590.8052 763.7008,590.8052 764.0133,591.1145 764.9508,591.1145 765.2633,591.4239 765.8883,591.4239 766.2008,591.7333 767.1383,591.7333 767.4508,592.0427 768.0758,592.0427 768.3883,592.352 769.9508,592.352 770.2633,592.6614 771.5133,592.6614 771.8258,592.9708 773.0758,592.9708 773.3883,593.2802 774.3258,593.2802 774.6383,593.5895 775.5758,593.5895 775.8883,593.8989 777.1383,593.8989 777.4508,594.2083 778.0758,594.2083 778.3883,594.5177 779.6383,594.5177 779.9508,594.827 781.5133,594.827 781.8258,595.1364 782.4508,595.1364 782.7633,594.827 783.3883,595.4458 783.7008,595.4458 784.3258,594.827 784.6383,594.827 784.9508,595.1364 785.8883,595.1364 786.2008,595.4458 787.1383,595.4458 787.4508,595.7552 789.0133,595.7552 789.3258,596.0645 790.5758,596.0645 790.8883,596.3739 792.1383,596.3739 792.4508,596.6833 794.0133,596.6833 794.3258,596.9927 796.2008,596.9927 796.5133,597.302 797.7633,597.302 798.0758,597.6114 799.6383,597.6114 799.9508,597.9208 801.5133,597.9208 801.8258,598.2302 804.0133,598.2302 804.3258,598.5395 806.2008,598.5395 806.5133,598.8489 807.7633,598.8489 808.0758,599.1583 810.8883,599.1583 811.2008,599.4677 812.7633,599.4677 813.0758,599.777 814.9508,599.777 815.2633,600.0864 817.1383,600.0864 817.4508,600.3958 819.6383,600.3958 819.9508,600.7052 822.4508,600.7052 822.7633,601.0145 823.3883,601.0145 823.7008,600.7052 824.6383,600.7052 824.9508,601.0145 827.7633,601.0145 828.0758,601.3239 830.8883,601.3239 831.2008,601.6333 836.2008,601.6333 836.5133,601.9427 844.9508,601.9427"/>
    <polyline fill="none" stroke="#000000" points="784.3258,594.827 783.7008,594.2083 783.0758,594.2083"/>
    <polyline fill="none" stroke="#000000" points="782.7633,594.827 782.7633,594.5177 783.0758,594.2083 782.7633,593.8989 782.1383,593.8989"/>
    <line x1="781.5133" x2="781.5133" y1="594.5177" y2="594.827"/>
    <polyline fill="none" stroke="#000000" points="781.2008,594.827 782.1383,593.8989 781.8258,593.5895 780.5758,593.5895"/>
    <polyline fill="none" stroke="#000000" points="779.6383,594.5177 780.5758,593.5895 780.2633,593.2802 779.3258,593.2802 779.0133,592.9708 778.0758,592.9708 777.7633,592.6614 776.8258,592.6614 776.5133,592.352 775.8883,592.352 775.5758,592.0427 774.9508,592.0427 774.6383,591.7333 774.0133,591.7333 773.7008,591.4239 772.7633,591.4239 772.4508,591.1145 771.5133,591.1145 771.2008,590.8052 770.2633,590.8052 769.9508,590.4958 769.0133,590.4958 768.7008,590.1864 767.7633,590.1864 767.4508,589.877 766.5133,589.877 766.2008,589.5677 765.2633,589.5677 764.9508,589.2583 764.0133,589.2583 763.7008,588.9489 762.7633,588.9489 762.4508,588.6395 761.5133,588.6395 761.2008,588.3302 759.9508,588.3302 759.6383,588.0208 758.3883,588.0208 758.0758,587.7114 756.8258,587.7114 756.5133,587.402 755.2633,587.402 754.9508,587.0927 753.7008,587.0927 753.3883,586.7833 752.1383,586.7833 751.8258,586.4739 750.5758,586.4739 749.9508,587.0927"/>
    <polyline fill="none" stroke="#000000" points="751.2008,588.0208 751.8258,587.402 751.8258,587.0927 752.1383,586.7833"/>
    <line x1="751.5133" x2="751.5133" y1="587.7114" y2="588.0208"/>
    <polyline fill="none" stroke="#000000" points="744.6383,610.6052 744.9508,610.6052 745.2633,610.9145 745.8883,610.9145 746.2008,611.2239 746.8258,611.2239 747.1383,611.5333 747.4508,611.5333 747.7633,611.8427 748.7008,611.8427 749.0133,612.152 749.6383,612.152 749.9508,612.4614 750.5758,612.4614 750.8883,612.7708 751.5133,612.7708 751.8258,613.0802 752.4508,613.0802 752.7633,613.3895 753.3883,613.3895 753.7008,613.6989 754.3258,613.6989 754.6383,614.0083 755.2633,614.0083 755.5758,614.3177 756.2008,614.3177 756.5133,614.627 757.1383,614.627 757.4508,614.9364 758.0758,614.9364 758.3883,615.2458 759.3258,615.2458 759.6383,615.5552 759.9508,615.5552 760.2633,615.8645 760.8883,615.8645 761.2008,616.1739 761.8258,616.1739 762.1383,616.4833 763.0758,616.4833 763.3883,616.7927 763.7008,616.7927 764.0133,617.102 764.9508,617.102 765.2633,617.4114 765.8883,617.4114 766.2008,617.7208 767.1383,617.7208 767.4508,618.0302 768.3883,618.0302 768.7008,618.3395 769.9508,618.3395 770.2633,618.6489 770.8883,618.6489 771.2008,618.9583 771.8258,618.9583 772.1383,619.2677 773.0758,619.2677 773.3883,619.577 774.3258,619.577 774.6383,619.8864 775.5758,619.8864 775.8883,620.1958 777.1383,620.1958 777.4508,620.5052 778.3883,620.5052 778.7008,620.8145 779.9508,620.8145 780.2633,621.1239 780.8883,621.1239 781.2008,621.4333 782.4508,621.4333 783.0758,622.052 784.0133,622.052 784.3258,622.3614 785.5758,622.3614 785.8883,622.6708 787.4508,622.6708"/>
    <polyline fill="none" stroke="#000000" points="744.3258,610.9145 744.6383,610.6052 744.3258,610.6052"/>
    <polyline fill="none" stroke="#000000" points="743.0758,610.2958 742.7633,610.6052 743.7008,611.5333 744.3258,610.9145 744.3258,610.6052 744.0133,610.2958 743.0758,610.2958 742.7633,609.9864 742.1383,609.9864 741.2008,610.9145 740.5758,610.2958 740.5758,609.677 740.2633,609.3677 739.3258,610.2958 738.3883,609.3677 738.3883,609.0583 738.0758,608.7489 737.4508,608.7489 737.1383,608.4395 736.2008,608.4395 735.8883,608.1302 735.2633,608.1302 734.9508,607.8208 734.0133,607.8208 733.7008,607.5114 732.7633,607.5114 732.4508,607.202 731.8258,607.202 731.5133,606.8927 730.5758,606.8927 730.2633,606.5833 729.3258,606.5833 729.0133,606.2739 728.3883,606.2739 728.0758,605.9645 727.1383,605.9645 726.8258,605.6552 725.8883,605.6552 725.5758,605.3458 724.9508,605.3458 724.6383,605.0364 723.7008,605.0364 723.3883,604.727 722.4508,604.727 722.1383,604.4177 721.2008,604.4177 720.8883,604.1083 718.7008,604.1083 718.0758,603.4895"/>
    <polyline fill="none" stroke="#000000" points="701.2008,615.2458 700.8883,615.5552 700.8883,616.1739 700.5758,616.4833 700.5758,616.7927 700.2633,617.102 700.2633,617.4114"/>
    <polyline fill="none" stroke="#000000" points="693.0758,614.0083 692.7633,614.0083 692.7633,613.6989"/>
    <polyline fill="none" stroke="#000000" points="692.7633,614.0083 692.4508,614.3177 692.4508,614.627 692.1383,614.9364 692.1383,615.2458 691.8258,615.5552 691.8258,615.8645 691.2008,616.4833 690.8883,616.4833 689.9508,617.4114 689.6383,617.4114 688.7008,618.3395 688.3883,618.3395 687.7633,618.9583 687.4508,618.9583 686.5133,619.8864 686.2008,619.8864 685.2633,620.8145 684.9508,620.8145 684.3258,621.4333 684.0133,621.4333 682.7633,622.6708 682.4508,622.6708 681.2008,623.9083 680.8883,623.9083 679.0133,625.7645 678.7008,625.7645 677.4508,627.002 677.1383,627.002 674.0133,630.0958 673.7008,630.0958 671.8258,631.952 671.5133,631.952 669.3258,634.1177 669.0133,634.1177 666.2008,636.902 665.8883,636.902 653.0758,649.5864 653.0758,649.8958 649.6383,653.2989 649.6383,653.6083 647.7633,655.4645 647.7633,655.7739 645.5758,657.9395 645.5758,658.2489 644.3258,659.4864 644.3258,660.7239 644.6383,661.0333 644.9508,661.3427 645.2633,661.3427 645.5758,661.652 646.2008,661.652 646.5133,661.9614 646.8258,661.9614 647.1383,662.2708 647.4508,662.2708 648.0758,662.8895 648.3883,662.8895 650.8883,665.3645 650.8883,665.6739 651.5133,666.2927 651.5133,666.602 652.4508,667.5302"/>
    <polyline fill="none" stroke="#000000" points="652.4508,667.8395 652.4508,668.1489 652.1383,668.4583 652.1383,668.7677 651.8258,669.077 648.0758,669.077 647.7633,668.7677 647.1383,668.7677 646.8258,668.4583 646.5133,668.4583 645.5758,667.5302 645.2633,667.5302 644.3258,666.602 644.3258,666.2927 643.7008,665.6739 643.7008,665.3645 643.3883,665.0552 643.3883,664.4364 643.0758,664.127 643.0758,661.3427 643.3883,661.0333 643.7008,661.0333 644.0133,660.7239"/>
    <polyline fill="none" stroke="#000000" points="644.3258,660.7239 644.0133,660.7239 644.3258,660.4145"/>
    <polyline fill="none" stroke="#000000" points="652.7633,667.5302 652.4508,667.5302 652.4508,667.8395 652.7633,667.5302 653.0758,667.5302 653.7008,666.9114 653.7008,666.602 654.0133,666.2927 654.0133,665.9833 654.3258,665.6739 654.3258,665.3645 654.6383,665.0552 654.6383,664.7458 654.9508,664.4364 654.9508,664.127 655.2633,663.8177 655.2633,663.5083 655.8883,662.8895 655.8883,662.5802 656.2008,662.2708 656.2008,661.9614 656.8258,661.3427 656.8258,661.0333 657.1383,660.7239 657.1383,660.4145 657.7633,659.7958 657.7633,659.4864 658.3883,658.8677 658.3883,658.5583 658.7008,658.2489 658.7008,657.9395 659.6383,657.0114 659.6383,656.702 659.9508,656.3927 659.9508,656.0833 660.5758,655.4645 660.5758,655.1552 661.2008,654.5364 661.2008,654.227 661.8258,653.6083 661.8258,653.2989 662.4508,652.6802 662.4508,652.3708 663.7008,651.1333 663.7008,650.8239 664.6383,649.8958 664.6383,649.5864 665.5758,648.6583 665.5758,648.3489 666.8258,647.1114 666.8258,646.802 669.0133,644.6364 669.0133,644.327 671.2008,642.1614 671.2008,641.852 681.5133,631.6427 681.8258,631.6427 685.2633,628.2395 685.5758,628.2395 687.4508,626.3833 687.7633,626.3833 689.6383,624.527 689.9508,624.527 691.5133,622.9802 691.8258,622.9802 693.3883,621.4333 693.7008,621.4333 694.9508,620.1958 695.2633,620.1958 696.5133,618.9583 697.1383,618.9583 697.4508,618.6489 697.7633,618.6489 698.3883,618.0302 699.3258,618.0302 699.6383,617.7208 699.9508,617.7208 700.2633,617.4114 700.8883,618.0302 702.4508,618.0302 702.7633,618.3395 704.3258,618.3395 704.6383,618.6489 705.8883,618.6489 706.2008,618.9583 707.4508,618.9583 707.7633,619.2677 708.3883,619.2677 708.7008,619.577 709.9508,619.577 710.2633,619.8864 710.8883,619.8864 711.2008,620.1958 712.1383,620.1958 712.4508,620.5052 713.3883,620.5052 713.7008,620.8145 714.6383,620.8145 714.9508,621.1239 715.8883,621.1239 716.2008,621.4333 716.8258,621.4333 717.1383,621.7427 717.4508,621.7427 717.7633,622.052 718.3883,622.052 718.7008,622.3614 719.6383,622.3614 719.9508,622.6708 720.2633,622.6708 720.5758,622.9802 721.2008,622.9802 721.5133,623.2895 722.1383,623.2895 722.4508,623.5989 723.0758,623.5989 723.3883,623.9083 724.0133,623.9083 724.3258,624.2177 724.9508,624.2177 725.2633,624.527 725.8883,624.527 726.2008,624.8364 726.8258,624.8364 727.1383,625.1458 727.7633,625.1458 728.0758,625.4552 728.7008,625.4552 729.0133,625.7645 729.6383,625.7645 729.9508,626.0739 730.5758,626.0739 730.8883,626.3833 731.2008,626.3833 731.5133,626.6927 732.1383,626.6927 732.4508,627.002 733.0758,627.002 733.3883,627.3114 734.0133,627.3114 734.3258,627.6208 734.6383,627.6208 734.9508,627.9302 735.8883,627.9302 736.2008,628.2395 736.8258,628.2395 737.1383,628.5489 737.7633,628.5489 738.0758,628.8583 738.7008,628.8583 739.0133,629.1677 739.9508,629.1677 740.2633,629.477 740.8883,629.477 741.2008,629.7864 742.1383,629.7864 742.4508,630.0958 743.3883,630.0958 743.7008,630.4052 744.6383,630.4052 744.9508,630.7145 746.2008,630.7145 746.5133,631.0239 747.4508,631.0239 747.7633,631.3333 749.3258,631.3333 749.6383,631.6427 751.2008,631.6427 751.5133,631.952 753.3883,631.952 753.7008,632.2614 755.2633,632.2614 755.5758,632.5708 758.0758,632.5708 758.3883,632.8802 760.8883,632.8802 761.2008,633.1895 764.6383,633.1895 764.9508,633.4989 771.5133,633.4989 771.8258,633.8083 780.5758,633.8083 780.8883,633.4989 788.0758,633.4989 788.3883,633.1895 791.8258,633.1895 792.1383,632.8802 794.0133,632.8802 794.3258,632.5708 796.5133,632.5708 796.8258,632.2614 798.0758,632.2614 798.3883,631.952 799.6383,631.952 799.9508,631.6427 801.2008,631.6427 801.5133,631.3333 802.7633,631.3333 803.0758,631.0239 804.0133,631.0239 804.3258,630.7145 805.2633,630.7145 805.5758,630.4052 806.5133,630.4052 806.8258,630.0958 807.7633,630.0958 808.0758,629.7864 808.7008,629.7864 809.0133,629.477 809.6383,629.477 809.9508,629.1677 810.5758,629.1677 810.8883,628.8583 811.5133,628.8583 811.8258,628.5489 812.4508,628.5489 812.7633,628.2395 813.3883,628.2395 813.7008,627.9302 814.6383,627.9302 814.9508,627.6208 815.2633,627.6208 815.5758,627.3114 816.2008,627.3114 816.5133,627.002 817.1383,627.002 817.4508,626.6927 818.0758,626.6927 818.3883,626.3833 818.7008,626.3833 819.0133,626.0739 819.6383,626.0739 819.9508,625.7645 820.5758,625.7645 820.8883,625.4552 821.5133,625.4552 821.8258,625.1458 822.1383,625.1458 822.4508,624.8364 823.0758,624.8364 823.3883,624.527 823.7008,624.527 824.0133,624.2177 824.6383,624.2177 824.9508,623.9083 825.5758,623.9083 825.8883,623.5989 826.2008,623.5989 826.5133,623.2895 827.1383,623.2895 827.4508,622.9802 827.7633,622.9802 828.0758,622.6708 828.7008,622.6708 829.0133,622.3614 829.3258,622.3614 829.6383,622.052 830.2633,622.052 830.5758,621.7427 830.8883,621.7427 831.2008,621.4333 831.8258,621.4333 832.1383,621.1239 832.4508,621.1239 832.7633,620.8145 833.0758,620.8145 833.3883,620.5052 834.0133,620.5052 834.3258,620.1958 834.6383,620.1958 834.9508,619.8864 835.2633,619.8864 835.5758,619.577 835.8883,619.577 836.2008,619.2677 836.8258,619.2677 837.1383,618.9583 837.4508,618.9583 837.7633,618.6489 838.0758,618.6489 838.3883,618.3395 838.7008,618.3395 839.0133,618.0302 839.3258,618.0302 839.6383,617.7208 839.9508,617.7208 840.2633,617.4114 840.5758,617.4114 840.8883,617.102 841.5133,617.102 841.8258,616.7927 842.1383,616.7927 842.4508,616.4833 842.7633,616.4833 843.0758,616.1739 843.3883,616.1739 843.7008,615.8645 844.0133,615.8645 844.3258,615.5552 844.6383,615.5552 844.9508,615.2458 845.2633,615.2458 845.5758,614.9364 845.8883,614.9364 846.2008,614.627 846.5133,614.627 847.1383,614.0083 847.4508,614.0083 847.7633,613.6989 848.0758,613.6989 848.3883,613.3895 848.7008,613.3895 849.0133,613.0802 849.3258,613.0802 849.6383,612.7708 849.9508,612.7708 850.2633,612.4614 850.5758,612.4614 850.8883,612.152 851.2008,612.152 851.8258,611.5333 852.1383,611.5333 852.4508,611.2239 852.7633,611.2239 853.3883,610.6052 853.7008,610.6052 854.0133,610.2958 854.3258,610.2958 854.9508,609.677 855.2633,609.677 855.8883,609.0583 856.2008,609.0583 856.5133,608.7489 856.8258,608.7489 857.4508,608.1302 857.7633,608.1302 858.3883,607.5114 858.7008,607.5114 859.3258,606.8927 859.6383,606.8927 860.2633,606.2739 860.5758,606.2739 861.2008,605.6552 861.5133,605.6552 862.1383,605.0364 862.4508,605.0364 863.3883,604.1083 863.7008,604.1083 864.6383,603.1802 864.9508,603.1802 865.8883,602.252 866.2008,602.252 867.1383,601.3239 867.4508,601.3239 868.3883,600.3958 868.7008,600.3958 871.2008,597.9208 871.5133,597.9208 879.3258,590.1864 879.3258,589.877 880.5758,588.6395 880.5758,588.3302 882.1383,586.7833 882.1383,586.4739 883.0758,585.5458 883.0758,585.2364 884.3258,583.9989 884.3258,583.6895 884.9508,583.0708 884.9508,582.7614 885.8883,581.8333 885.8883,581.5239 886.5133,580.9052 886.5133,580.5958 887.1383,579.977 887.1383,579.6677 887.7633,579.0489 887.7633,578.7395 888.3883,578.1208 888.3883,577.8114 889.3258,576.8833 889.3258,576.5739 889.9508,575.9552 889.9508,575.6458 890.5758,575.027 890.5758,574.7177 890.8883,574.4083 890.8883,574.0989 891.2008,573.7895 891.2008,573.4802 891.8258,572.8614 891.8258,572.552 892.4508,571.9333 892.4508,571.6239 892.7633,571.3145 892.7633,571.0052 893.3883,570.3864 893.3883,570.077 893.7008,569.7677 893.7008,569.4583 894.3258,568.8395 894.3258,568.5302 894.6383,568.2208 894.6383,567.9114 895.2633,567.2927 895.2633,566.9833 895.5758,566.6739 895.5758,566.3645 895.8883,566.0552 895.8883,565.7458 896.2008,565.4364 896.2008,565.127 896.8258,564.5083 896.8258,564.1989 897.1383,563.8895 897.1383,563.5802 897.4508,563.2708 897.4508,562.9614 897.7633,562.652 897.7633,562.3427 898.0758,562.0333 898.0758,561.7239 898.7008,561.1052 898.7008,560.7958 899.0133,560.4864 899.0133,560.177 899.3258,559.8677 899.3258,559.2489 899.9508,558.6302 899.9508,558.3208 900.2633,558.0114 900.2633,557.702 900.5758,557.3927 900.5758,556.7739 900.8883,556.4645 900.8883,556.1552 901.2008,555.8458 901.2008,555.5364 901.5133,555.227 901.5133,554.9177 901.8258,554.6083 901.8258,554.2989 902.1383,553.9895 902.1383,553.6802 902.4508,553.3708 902.4508,553.0614 902.7633,552.752 902.7633,552.1333 903.0758,551.8239 903.0758,551.5145 903.3883,551.2052 903.3883,550.8958 903.7008,550.5864 903.7008,549.9677 904.0133,549.6583 904.0133,549.3489 904.3258,549.0395 904.3258,548.4208 904.6383,548.1114 904.6383,547.802 904.9508,547.4927 904.9508,547.1833 905.2633,546.8739 905.2633,546.2552 905.5758,545.9458 905.5758,545.327 905.8883,545.0177 905.8883,544.7083 906.2008,544.3989 906.2008,543.7802 906.5133,543.4708 906.5133,542.852 906.8258,542.5427 906.8258,541.9239 907.1383,541.6145 907.1383,540.9958 907.4508,540.6864 907.4508,540.0677 907.7633,539.7583 907.7633,539.1395 908.0758,538.8302 908.0758,538.2114 908.3883,537.902 908.3883,537.2833 908.7008,536.9739 908.7008,536.0458 909.0133,535.7364 909.0133,535.427 909.3258,535.1177 909.3258,534.1895 909.6383,533.8802 909.6383,533.2614 909.9508,532.952 909.9508,532.0239 910.2633,531.7145 910.2633,531.0958 910.5758,530.7864 910.5758,530.1677 910.8883,529.8583 910.8883,528.9302 911.2008,528.6208 911.2008,528.002 911.5133,527.6927 911.5133,526.7645 911.8258,526.4552 911.8258,525.8364 912.1383,525.527 912.1383,524.5989 912.4508,524.2895 912.4508,523.6708 912.7633,523.3614 912.7633,522.7427 913.0758,522.4333 913.0758,521.5052 913.3883,521.1958 913.3883,520.2677 913.7008,519.9583 913.7008,519.3395 914.0133,519.0302 914.0133,518.4114 914.3258,518.102 914.3258,517.1739 914.6383,516.8645 914.6383,516.2458 914.9508,515.9364 914.9508,515.0083 915.2633,514.6989 915.2633,514.0802 915.5758,513.7708 915.5758,512.8427 915.8883,512.5333 915.8883,511.9145 916.2008,511.6052 916.2008,510.9864 916.5133,510.677 916.5133,509.7489 916.8258,509.4395 916.8258,508.8208 917.1383,508.5114 917.1383,507.5833 917.4508,507.2739 917.4508,506.6552 917.7633,506.3458 917.7633,505.4177 918.0758,505.1083 918.0758,504.1802 918.3883,503.8708 918.3883,503.252 918.7008,502.9427 918.7008,502.0145 919.0133,501.7052 919.0133,500.777 919.3258,500.4677 919.3258,499.8489 919.6383,499.5395 919.6383,498.6114 919.9508,498.302 919.9508,497.3739 920.2633,497.0645 920.2633,496.4458 920.5758,496.1364 920.5758,495.5177 920.8883,495.2083 920.8883,494.5895 921.2008,494.2802 921.2008,493.9708 921.5133,493.6614 921.5133,493.352 921.8258,493.0427 921.8258,492.4239 922.1383,492.1145 922.1383,491.8052 922.4508,491.4958 922.4508,491.1864 922.7633,490.877 922.7633,490.5677 923.0758,490.2583 923.0758,489.9489 923.3883,489.6395 923.3883,489.3302 923.7008,489.0208 923.7008,488.7114 924.0133,488.402 924.0133,488.0927 924.3258,487.7833 924.3258,487.4739 924.6383,487.1645 924.6383,486.8552 924.9508,486.5458 924.9508,486.2364 925.2633,485.927 925.2633,485.6177 925.8883,484.9989 925.8883,484.6895 926.2008,484.3802 926.2008,484.0708 926.5133,483.7614 926.5133,483.452 927.1383,482.8333 927.1383,482.5239 927.4508,482.2145 927.4508,481.9052 928.0758,481.2864 928.0758,480.977 928.7008,480.3583 928.7008,480.0489 929.3258,479.4302 929.3258,479.1208 929.9508,478.502 929.9508,478.1927 930.5758,477.5739 930.5758,477.2645 931.2008,476.6458 931.2008,476.3364 931.8258,475.7177 931.8258,475.4083 932.4508,474.7895 932.4508,474.4802 933.7008,473.2427 933.7008,472.9333 935.2633,471.3864 935.2633,471.077 944.0133,462.4145 944.0133,462.1052 944.3258,461.7958 944.3258,460.5583 943.7008,459.9395"/>
    <line x1="943.7008" x2="944.0133" y1="460.2489" y2="460.2489"/>
    <line x1="941.5133" x2="941.2008" y1="460.8677" y2="460.5583"/>
    <line x1="941.2008" x2="941.2008" y1="460.8677" y2="459.6302"/>
    <line x1="858.7008" x2="858.7008" y1="509.4395" y2="509.7489"/>
    <line x1="824.3258" x2="824.6383" y1="462.4145" y2="462.1052"/>
    <polyline fill="none" stroke="#000000" points="742.1383,609.9864 741.8258,609.677 740.5758,609.677"/>
    <line x1="740.5758" x2="740.8883" y1="609.9864" y2="609.677"/>
    <polyline fill="none" stroke="#000000" points="740.2633,609.3677 739.9508,609.0583 738.3883,609.0583"/>
    <line x1="738.3883" x2="738.7008" y1="609.3677" y2="609.0583"/>
  </g>
</svg>
