<?xml version="1.0" encoding="utf-8" ?>
<!--
  Generated by txt2plotter
  Prompt: Simple line drawing of a paper airplane, minimalist, clean black lines, white background.
  Enhanced: Minimalistic line drawing of a paper airplane, rendered with clean and precise black ink lines on a white paper background, in a pen and ink style with sharp creases and a sense of dynamic motion.
-->

<svg xmlns="http://www.w3.org/2000/svg" xmlns:cc="http://creativecommons.org/ns" xmlns:dc="http://purl.org/dc/elements/1.1/" xmlns:ev="http://www.w3.org/2001/xml-events" xmlns:inkscape="http://www.inkscape.org/namespaces/inkscape" xmlns:rdf="http://www.w3.org/1999/02/22-rdf-syntax-ns" xmlns:sodipodi="http://sodipodi.sourceforge.net/DTD/sodipodi-0.dtd" xmlns:xlink="http://www.w3.org/1999/xlink" baseProfile="tiny" height="29.7cm" version="1.2" viewBox="0 0 1587.4015748031497 1122.5196850393702" width="42.0cm">
  <metadata>
    <rdf:RDF>
      <cc:Work>
        <dc:format>image/svg+xml</dc:format>
        <dc:source/>
        <dc:date>2026-01-19T20:49:27.137832</dc:date>
      </cc:Work>
    </rdf:RDF>
  </metadata>
  <defs/>
  <g fill="none" id="layer1" inkscape:groupmode="layer" inkscape:label="1" stroke="#0000ff" style="display:inline">
    <polyline fill="none" stroke="#000000" points="655.8883,548.8848 656.8258,549.813 661.2008,549.813 661.5133,549.5036 666.5133,549.5036 666.8258,549.813 667.1383,549.5036 667.4508,549.813 667.7633,549.813 668.0758,549.5036 669.3258,549.5036 669.6383,549.813 670.2633,549.813 670.5758,549.5036 670.8883,549.813 671.8258,549.813 672.1383,549.5036 672.4508,549.5036 672.7633,549.813 673.0758,549.5036 673.3883,549.5036 673.7008,549.813 674.0133,549.5036 694.6383,549.5036 694.9508,549.813 694.9508,550.1223 695.2633,550.4317 695.8883,550.4317 696.2008,550.1223"/>
    <polyline fill="none" stroke="#000000" points="696.5133,550.1223 696.2008,549.813 696.2008,550.1223 696.5133,550.1223 696.8258,550.4317 697.4508,549.813 699.3258,549.813 699.6383,550.1223 699.9508,549.813 702.1383,549.813 702.4508,549.5036 705.8883,549.5036 706.2008,549.1942 706.5133,549.1942 706.8258,549.5036 707.4508,549.5036 707.7633,549.1942 708.0758,549.5036 712.7633,549.5036 713.0758,549.1942 713.3883,549.5036 716.8258,549.5036 717.1383,549.1942 717.4508,549.5036 718.3883,549.5036 718.7008,549.1942 719.0133,549.1942 719.3258,549.5036 719.6383,549.1942 720.2633,549.1942 720.5758,549.5036 720.8883,549.5036 721.2008,549.1942 728.7008,549.1942 729.0133,548.8848 729.3258,549.1942 729.6383,548.8848 737.1383,548.8848 737.4508,548.5755 737.7633,548.8848 739.6383,548.8848 739.9508,548.5755 740.5758,548.5755 740.8883,548.8848 741.2008,548.8848 741.5133,548.5755 749.9508,548.5755 750.2633,548.2661 762.4508,548.2661 763.0758,547.6473"/>
    <polyline fill="none" stroke="#000000" points="764.0133,547.6473 763.0758,547.6473 762.4508,547.0286 759.3258,547.0286 758.3883,546.1005 758.7008,545.7911 759.6383,545.7911 759.9508,545.4817 761.8258,545.4817 762.1383,545.1723 764.0133,545.1723 764.6383,544.5536 765.2633,544.5536 765.5758,544.863 765.5758,545.1723 765.8883,545.4817 766.2008,545.1723 767.1383,545.1723 767.4508,545.4817"/>
    <polyline fill="none" stroke="#000000" points="766.2008,546.4098 765.8883,546.1005 765.8883,545.4817"/>
    <polyline fill="none" stroke="#000000" points="765.5758,545.1723 765.2633,545.4817 764.6383,545.4817 764.3258,545.1723 764.3258,544.863"/>
    <line x1="764.3258" x2="764.0133" y1="545.1723" y2="545.1723"/>
    <polyline fill="none" stroke="#000000" points="769.3258,545.1723 769.6383,545.4817 769.6383,545.7911 770.5758,546.7192 770.8883,546.4098 771.5133,546.4098 772.4508,547.338 772.4508,547.6473 773.0758,548.2661 772.7633,548.2661 772.1383,548.8848 772.1383,549.5036 771.5133,550.1223 770.8883,550.1223 770.5758,550.4317 770.5758,550.7411 770.2633,551.0505 769.9508,551.0505 769.3258,551.6692 768.7008,551.6692 768.3883,551.9786 768.0758,551.9786 767.7633,552.288 767.4508,552.288 767.1383,552.5973 766.8258,552.5973 766.5133,552.9067 765.8883,552.9067 765.5758,553.2161 765.2633,553.2161 764.9508,553.5255 764.3258,553.5255 764.0133,553.8348 763.7008,553.8348 763.3883,554.1442 763.0758,554.1442 762.7633,554.4536 762.4508,554.4536 762.1383,554.763 762.7633,555.3817 763.0758,555.3817 763.3883,555.0723 762.7633,554.4536"/>
    <polyline fill="none" stroke="#000000" points="762.1383,554.763 761.8258,554.763 761.5133,555.0723 761.5133,555.3817 761.8258,555.6911 762.4508,555.6911 762.7633,555.3817"/>
    <polyline fill="none" stroke="#000000" points="761.5133,555.3817 761.2008,555.3817 761.5133,555.0723"/>
    <polyline fill="none" stroke="#000000" points="761.2008,555.3817 760.8883,555.6911 759.9508,555.6911 758.7008,556.9286 758.7008,557.238 758.3883,557.5473 757.7633,556.9286 757.1383,557.5473 756.8258,557.5473 756.5133,557.8567 756.2008,557.8567 755.8883,558.1661 755.5758,558.1661 755.2633,558.4755 754.9508,558.4755 754.6383,558.7848 753.3883,558.7848 753.0758,559.0942 752.7633,559.0942 751.8258,560.0223 751.2008,560.0223 750.8883,560.3317 750.2633,560.3317 749.9508,560.6411 749.6383,560.6411 749.3258,560.9505 748.7008,560.9505 748.3883,561.2598 748.0758,561.2598 747.7633,561.5692 747.4508,561.5692 747.1383,561.8786 746.8258,561.8786 746.5133,562.188 746.2008,562.188 745.5758,562.8067 744.9508,562.8067 744.6383,563.1161 744.3258,563.1161 743.7008,563.7348 743.3883,563.7348 743.0758,564.0442 742.4508,564.0442 742.1383,564.3536 741.8258,564.3536 741.2008,564.9723 740.8883,564.9723 740.5758,565.2817 740.2633,565.2817 739.9508,565.5911 739.6383,565.5911 739.0133,566.2098 738.3883,566.2098 737.7633,566.8286 737.4508,566.8286 737.1383,567.138 736.8258,567.138 736.5133,567.4473 736.2008,567.4473 735.8883,567.7567 735.5758,567.7567 735.2633,568.0661 734.9508,568.0661 734.3258,568.6848 734.0133,568.6848 733.3883,569.3036 733.0758,569.3036 732.7633,569.613 732.1383,569.613 731.5133,570.2317 731.2008,570.2317 730.8883,570.5411 730.5758,570.5411 730.2633,570.8505 729.9508,570.8505 729.6383,571.1598 729.3258,571.1598 729.0133,571.4692 728.7008,571.4692 728.0758,572.088 727.7633,572.088 727.4508,572.3973 727.1383,572.3973 726.5133,573.0161 726.2008,573.0161 725.8883,573.3255 725.5758,573.3255 725.2633,573.6348 724.6383,573.6348 724.0133,574.2536 723.7008,574.2536 723.0758,574.8723 722.7633,574.8723 722.1383,575.4911 721.8258,575.4911 721.5133,575.8005 721.2008,575.8005 720.8883,576.1098 720.5758,576.1098 719.9508,576.7286 719.6383,576.7286 719.3258,577.038 719.0133,577.038 718.3883,577.6567 717.4508,577.6567 716.8258,578.2755"/>
    <line x1="716.8258" x2="717.1383" y1="577.9661" y2="577.9661"/>
    <polyline fill="none" stroke="#000000" points="715.2633,576.1098 715.2633,575.8005 716.5133,574.563 717.1383,574.563 717.4508,574.2536 717.7633,574.2536 718.0758,573.9442 718.3883,573.9442 718.7008,573.6348 719.0133,573.6348 719.6383,573.0161 720.2633,573.0161 720.5758,572.7067 720.8883,572.7067 721.2008,572.3973 721.5133,572.3973 721.8258,572.088 722.1383,572.088 722.4508,571.7786 722.7633,571.7786 723.0758,571.4692 723.3883,571.4692 723.7008,571.1598 724.0133,571.1598 724.3258,570.8505 724.6383,570.8505 724.9508,570.5411 725.2633,570.5411 725.5758,570.2317 725.8883,570.2317 726.2008,569.9223 726.5133,569.9223 726.8258,569.613 727.1383,569.613 727.7633,568.9942 728.0758,568.9942 728.7008,568.3755 729.0133,568.3755 729.3258,568.0661 729.6383,568.0661 729.9508,567.7567 730.2633,567.7567 730.8883,567.138 731.2008,567.138 731.5133,566.8286 731.8258,566.8286 732.1383,566.5192 732.4508,566.5192 732.7633,566.2098 733.0758,566.2098 733.3883,565.9005 733.7008,565.9005 734.0133,565.5911 734.3258,565.5911 734.6383,565.2817 734.9508,565.2817 735.2633,564.9723 735.5758,564.9723 735.8883,564.663 736.2008,564.663 736.5133,564.3536 736.8258,564.3536 737.1383,564.0442 737.7633,564.0442 738.3883,563.4255 738.7008,563.4255 739.0133,563.1161 739.3258,563.1161 739.6383,562.8067 739.9508,562.8067 740.2633,562.4973 740.5758,562.4973 740.8883,562.188 741.2008,562.188 741.8258,561.5692 742.1383,561.5692 742.4508,561.2598 743.0758,561.2598 743.3883,560.9505 743.7008,560.9505 744.0133,560.6411 744.3258,560.6411 744.6383,560.3317 744.9508,560.3317 745.2633,560.0223 745.5758,560.0223 745.8883,559.713 746.2008,559.713 746.5133,559.4036 746.8258,559.4036 747.1383,559.0942 747.4508,559.0942 747.7633,558.7848 748.0758,558.7848 748.3883,558.4755 748.7008,558.4755 749.0133,558.1661 749.3258,558.1661 749.6383,557.8567 749.9508,557.8567 750.2633,557.5473 750.5758,557.5473 750.8883,557.238 751.2008,557.238 751.5133,556.9286 751.8258,556.9286 752.1383,556.6192 752.4508,556.6192 752.7633,556.3098 753.0758,556.3098 753.3883,556.0005 753.7008,556.0005 754.0133,555.6911 754.3258,555.6911 754.6383,555.3817 754.9508,555.3817 755.2633,555.0723 755.5758,555.0723 755.8883,554.763 756.2008,554.763 756.5133,554.4536 756.8258,554.4536 757.1383,554.1442 757.4508,554.1442 757.7633,553.8348 758.0758,553.8348 758.3883,553.5255 758.7008,553.5255 759.0133,553.2161 759.3258,553.2161 759.6383,552.9067 759.9508,552.9067 760.2633,552.5973 760.5758,552.5973 760.8883,552.288 761.2008,552.288 761.5133,551.9786 761.8258,551.9786 762.1383,551.6692 762.4508,551.6692 762.7633,551.3598 763.0758,551.3598 763.3883,551.0505 763.7008,551.0505 764.0133,550.7411 764.6383,550.7411 764.9508,550.4317 765.2633,550.4317"/>
    <polyline fill="none" stroke="#000000" points="765.5758,550.4317 765.2633,550.4317 765.5758,550.7411 765.5758,550.4317 765.8883,550.1223 766.2008,550.1223 766.5133,549.813 767.4508,549.813 767.7633,549.5036 768.0758,549.5036 768.7008,548.8848 768.3883,548.5755 768.0758,548.5755 767.7633,548.2661 765.2633,548.2661 764.9508,547.9567 764.3258,547.9567 764.0133,547.6473 764.6383,547.0286 765.5758,547.0286 766.2008,546.4098 766.5133,546.7192 766.8258,546.4098 766.8258,546.1005 767.7633,545.1723 769.3258,545.1723 769.9508,544.5536 771.8258,544.5536 772.1383,544.2442 773.3883,544.2442 773.7008,544.5536 773.3883,544.863 773.3883,545.7911 773.7008,546.1005 774.3258,546.1005"/>
    <line x1="774.3258" x2="774.0133" y1="546.4098" y2="546.1005"/>
    <polyline fill="none" stroke="#000000" points="773.3883,545.7911 772.7633,546.4098 772.7633,546.7192 772.4508,547.0286 772.4508,547.338 771.5133,548.2661 770.2633,548.2661 769.9508,548.5755 769.6383,548.5755 769.3258,548.8848 768.7008,548.8848"/>
    <line x1="770.2633" x2="770.2633" y1="548.2661" y2="547.9567"/>
    <polyline fill="none" stroke="#000000" points="770.5758,548.2661 770.2633,547.9567 770.2633,547.338 770.5758,547.0286 770.5758,546.7192"/>
    <line x1="772.1383" x2="772.4508" y1="547.0286" y2="547.0286"/>
    <line x1="772.4508" x2="772.1383" y1="547.6473" y2="547.6473"/>
    <polygon points="773.0758,547.9567 772.7633,548.2661 772.7633,547.9567"/>
    <polyline fill="none" stroke="#000000" points="774.0133,547.0286 774.3258,547.338 774.3258,548.2661"/>
    <line x1="774.3258" x2="774.6383" y1="547.9567" y2="548.2661"/>
    <polyline fill="none" stroke="#000000" points="776.2008,549.1942 775.8883,549.5036 775.8883,550.4317 776.2008,550.7411 777.1383,550.7411 777.4508,550.4317"/>
    <line x1="777.4508" x2="777.7633" y1="550.1223" y2="550.4317"/>
    <polyline fill="none" stroke="#000000" points="776.2008,550.7411 775.8883,551.0505 775.8883,553.2161 776.2008,553.5255 776.2008,554.1442 776.5133,554.4536 776.2008,554.763 776.8258,555.3817 776.2008,556.0005 776.5133,556.3098 776.2008,556.6192 776.2008,557.5473 776.5133,557.8567 776.8258,557.8567 776.5133,558.1661 776.5133,558.7848 776.2008,559.0942 776.2008,560.0223 776.5133,560.3317 776.2008,560.6411 776.2008,561.2598 776.5133,561.5692 776.8258,561.5692 776.5133,561.8786 777.1383,562.4973 777.1383,563.1161 776.8258,563.4255 777.1383,563.7348 777.1383,565.2817 776.8258,565.5911 776.8258,565.9005 777.1383,566.2098 777.1383,566.5192 776.8258,566.8286 777.1383,567.138 777.1383,567.7567 776.8258,568.0661 777.1383,568.3755 777.1383,571.1598 777.4508,571.4692 777.4508,571.7786 777.7633,572.088 777.7633,572.3973 776.8258,573.3255 776.5133,573.3255 775.8883,573.9442 775.5758,573.9442 775.2633,574.2536 774.9508,574.2536 774.0133,575.1817 773.3883,575.1817 772.4508,576.1098 772.1383,576.1098 771.8258,576.4192 771.5133,576.4192 770.8883,577.038 770.5758,577.038 769.9508,577.6567 769.6383,577.6567 769.3258,577.9661 769.0133,577.9661 768.3883,578.5848 768.0758,578.5848 767.4508,579.2036 767.1383,579.2036 766.5133,579.8223 766.2008,579.8223 765.8883,580.1317 765.5758,580.1317 764.6383,581.0598 764.3258,581.0598 764.0133,581.3692 763.7008,581.3692 763.0758,581.988 762.7633,581.988 762.4508,582.2973 762.1383,582.2973 761.5133,582.9161 761.2008,582.9161 760.8883,583.2255 760.5758,583.2255 759.6383,584.1536 759.3258,584.1536 759.0133,584.463 758.7008,584.463 758.0758,585.0817 757.7633,585.0817 757.4508,585.3911 757.1383,585.3911 756.8258,585.7005 756.5133,585.7005 755.8883,586.3192 755.5758,586.3192 755.2633,586.6286 754.9508,586.6286 754.3258,587.2473 754.0133,587.2473 753.0758,588.1755 752.7633,588.1755 752.4508,588.4848 752.1383,588.4848 751.8258,588.7942 751.5133,588.7942 750.8883,589.413 750.5758,589.413 749.6383,590.3411 749.6383,590.6505 749.0133,591.2692 748.0758,591.2692 747.1383,592.1973 747.1383,592.8161 746.8258,593.1255 746.8258,594.6723 746.5133,594.9817 746.5133,595.2911 746.2008,595.6005 746.2008,596.5286 745.8883,596.838 745.8883,597.7661 745.5758,598.0755 745.5758,598.3848 745.2633,598.6942 745.2633,599.6223 744.9508,599.9317 744.9508,600.8598 744.6383,601.1692 744.6383,602.4067 744.3258,602.7161 744.3258,603.9536 744.0133,604.263 744.0133,605.1911 743.7008,605.5005 743.7008,606.4286 743.3883,606.738 743.3883,607.6661 743.0758,607.9755 743.0758,609.213 742.7633,609.5223 742.7633,610.4505 742.4508,610.7598 742.4508,611.688 742.1383,611.9973 742.1383,612.6161 741.8258,612.9255 741.8258,613.8536 741.5133,614.163 741.5133,615.0911 741.2008,615.4005 741.2008,616.3286 740.8883,616.638 740.8883,617.5661 740.5758,617.8755 740.5758,619.4223 740.2633,619.7317 740.2633,620.0411 739.9508,620.3505 739.9508,621.8973 739.6383,622.2067 739.6383,625.6098 739.3258,625.9192 739.3258,627.7755 739.0133,628.0848 739.0133,629.6317 738.7008,629.9411 738.7008,631.488 738.3883,631.7973 738.3883,633.3442 738.0758,633.6536 738.0758,634.5817 737.7633,634.8911 737.7633,636.7473 738.3883,637.3661 738.7008,637.3661 739.0133,637.6755 739.0133,638.2942 738.7008,638.6036 738.7008,639.2223 738.0758,639.8411 738.0758,640.4598 737.7633,640.7692 737.7633,641.388 737.4508,641.6973 737.4508,642.3161 737.1383,642.6255 737.1383,643.863 736.5133,644.4817 735.5758,644.4817 735.2633,644.7911"/>
    <line x1="734.9508" x2="734.9508" y1="644.7911" y2="645.1005"/>
    <line x1="736.8258" x2="737.1383" y1="644.1723" y2="644.1723"/>
    <polyline fill="none" stroke="#000000" points="737.1383,643.863 737.1383,644.1723 737.4508,644.4817 737.4508,645.1005 737.7633,645.4098"/>
    <polyline fill="none" stroke="#000000" points="737.7633,645.7192 738.0758,645.4098 737.7633,645.4098 737.7633,645.7192 737.4508,646.0286 737.4508,646.338 736.8258,646.9567 736.2008,646.9567 735.2633,646.0286 735.2633,645.7192 734.9508,645.4098 734.9508,645.1005 735.2633,644.7911 734.9508,644.7911 734.3258,644.1723 734.3258,643.2442 734.0133,642.9348 734.0133,642.6255 734.3258,642.3161 733.7008,641.6973 733.7008,640.1505 733.3883,639.8411 733.3883,638.6036 733.0758,638.2942 733.0758,637.3661 732.7633,637.0567 732.7633,635.5098 732.4508,635.2005 732.4508,633.963 732.1383,633.6536 732.1383,632.4161 731.8258,632.1067 731.8258,631.1786 731.5133,630.8692 731.5133,629.9411 731.2008,629.6317 731.2008,629.013 730.8883,628.7036 730.8883,627.7755 730.5758,627.4661 730.5758,626.538 730.2633,626.2286 730.2633,624.6817 729.9508,624.3723 729.9508,624.063 729.6383,623.7536 729.6383,622.8255 729.3258,622.5161 729.3258,621.8973 729.0133,621.588 729.0133,620.6598 728.7008,620.3505 728.7008,620.0411 728.3883,619.7317 728.3883,618.8036 728.0758,618.4942 728.0758,617.2567 727.7633,616.9473 727.7633,616.0192 727.4508,615.7098 727.4508,614.7817 727.1383,614.4723 727.1383,613.8536 726.8258,613.5442 726.8258,612.6161 726.5133,612.3067 726.5133,611.3786 726.2008,611.0692 726.2008,610.4505 725.8883,610.1411 725.8883,609.213 725.5758,608.9036 725.5758,608.2848 725.2633,607.9755 725.2633,606.738 724.9508,606.4286 724.9508,605.8098 724.6383,605.5005 724.6383,604.5723 724.3258,604.263 724.3258,603.6442 724.0133,603.3348 724.0133,602.4067 723.7008,602.0973 723.7008,601.4786 723.3883,601.1692 723.3883,600.5505 723.0758,600.2411 723.0758,599.313 722.7633,599.0036 722.7633,598.3848 722.4508,598.0755 722.4508,597.1473 722.1383,596.838 722.1383,595.9098 721.8258,595.6005 721.8258,595.2911 721.5133,594.9817 721.5133,594.363 721.2008,594.0536 721.2008,593.1255 720.8883,592.8161 720.8883,591.888 720.5758,591.5786 720.5758,590.9598 720.2633,590.6505 720.2633,590.0317 719.9508,589.7223 719.9508,588.4848 719.6383,588.1755 719.6383,587.8661 719.3258,587.5567 719.3258,586.6286 719.0133,586.3192 719.0133,585.7005 718.7008,585.3911 718.7008,584.7723 718.3883,584.463 718.3883,583.8442 718.0758,583.5348 718.0758,582.6067 717.7633,582.2973 717.7633,580.4411 717.4508,580.1317 717.4508,579.513 716.8258,578.8942 716.8258,577.9661 715.5758,576.7286 715.5758,576.4192 714.9508,575.8005 714.3258,575.8005 714.0133,575.4911 712.7633,576.7286 712.4508,576.7286 711.5133,575.8005 711.5133,575.4911 711.2008,575.1817 710.5758,575.8005 710.2633,575.8005 709.9508,575.4911 709.6383,575.4911 709.3258,575.1817 708.7008,575.1817 708.0758,574.563 708.0758,574.2536 707.4508,573.6348 706.8258,574.2536 706.5133,574.2536 705.5758,573.3255 705.2633,573.6348 704.9508,573.6348 704.6383,573.3255 704.0133,573.3255 703.3883,572.7067 702.4508,572.7067 702.1383,572.3973 701.5133,572.3973 700.8883,571.7786 700.8883,571.4692 700.5758,571.1598 700.5758,570.5411 700.2633,570.2317 699.6383,570.2317 699.3258,569.9223 698.7008,569.9223 698.3883,569.613 698.0758,569.613 697.7633,569.3036 697.4508,569.3036 696.5133,570.2317 695.8883,569.613 695.8883,569.3036 695.5758,568.9942 695.2633,568.9942 694.9508,569.3036 694.0133,569.3036 693.3883,568.6848 693.3883,568.3755 692.4508,567.4473 692.1383,567.4473 691.8258,567.138 691.5133,567.138 691.2008,566.8286 690.5758,566.8286 690.2633,566.5192 689.6383,566.5192 689.3258,566.2098 689.0133,566.2098 688.7008,565.9005 688.3883,565.9005 688.0758,565.5911 687.4508,565.5911 687.1383,565.2817 686.8258,565.2817 686.5133,564.9723 685.8883,564.9723 685.5758,564.663 684.9508,564.663 684.6383,564.3536 684.0133,564.3536 683.7008,564.0442 683.0758,564.0442 682.7633,563.7348 682.4508,563.7348 682.1383,563.4255 681.8258,563.4255 681.5133,563.1161 680.8883,563.1161 680.5758,562.8067 680.2633,562.8067 679.9508,562.4973 679.6383,562.4973 679.3258,562.188 678.7008,562.188 678.3883,561.8786 678.0758,561.8786 677.7633,561.5692 677.4508,561.5692 677.1383,561.2598 676.8258,561.2598 676.5133,560.9505 675.5758,560.9505 675.2633,560.6411 674.9508,560.6411 674.6383,560.3317 674.3258,560.3317 674.0133,560.0223 673.7008,560.0223 673.3883,559.713 673.0758,559.713 672.7633,559.4036 672.1383,559.4036 671.8258,559.0942 671.2008,559.0942 670.8883,558.7848 670.5758,558.7848 670.2633,558.4755 669.9508,558.4755 669.6383,558.1661 669.0133,558.1661 668.7008,557.8567 668.3883,557.8567 668.0758,557.5473 667.4508,557.5473 667.1383,557.238 666.8258,557.238 666.5133,556.9286 665.8883,556.9286 665.5758,556.6192 665.2633,556.6192 664.9508,556.3098 664.3258,556.3098 664.0133,556.0005 663.0758,556.0005 662.7633,555.6911 662.4508,555.6911 662.1383,555.3817 661.8258,555.3817 661.5133,555.0723 660.5758,555.0723 660.2633,554.763 659.9508,554.763 659.6383,554.4536 658.3883,554.4536 658.0758,554.1442 657.7633,554.1442 657.4508,553.8348 657.1383,553.8348 656.8258,553.5255 656.2008,553.5255 655.5758,552.9067 654.3258,552.9067 654.0133,552.5973 653.3883,552.5973 653.0758,552.288 652.4508,552.288 651.8258,551.6692 651.8258,550.4317 652.4508,549.813 652.7633,549.813 653.0758,549.5036 654.0133,549.5036 654.3258,549.1942 655.5758,549.1942 656.8258,547.9567 657.1383,547.9567 657.4508,547.6473 657.7633,547.6473 658.0758,547.338 658.3883,547.338 658.7008,547.0286 659.6383,547.0286 659.9508,546.7192 660.2633,546.7192 660.5758,546.4098 660.8883,546.4098 661.2008,546.1005 661.8258,546.1005 662.1383,545.7911 662.4508,545.7911 662.7633,545.4817 663.3883,545.4817 663.7008,545.1723 664.3258,545.1723 664.6383,544.863 665.2633,544.863 665.5758,544.5536 665.8883,544.5536 666.2008,544.2442 666.8258,544.2442 667.1383,543.9348 667.4508,543.9348 667.7633,543.6255 668.0758,543.6255 668.3883,543.3161 668.7008,543.3161 669.0133,543.0067 669.3258,543.0067 669.6383,542.6973 670.2633,542.6973 670.5758,542.388 670.8883,542.388 671.5133,541.7692 671.8258,541.7692 672.1383,541.4598 672.4508,541.4598 672.7633,541.1505 673.3883,541.1505 673.7008,540.8411 674.0133,540.8411 674.6383,540.2223 674.9508,540.2223 675.2633,539.913 675.8883,539.913 676.2008,539.6036 676.5133,539.6036 676.8258,539.2942 677.1383,539.2942 677.4508,538.9848 678.0758,538.9848 678.3883,538.6755 678.7008,538.6755 679.0133,538.3661 679.3258,538.3661 679.6383,538.0567 680.2633,538.0567 680.5758,537.7473 680.8883,537.7473 681.2008,537.438 681.5133,537.438 681.8258,537.1286 682.1383,537.1286 682.4508,536.8192 682.7633,536.8192 683.0758,536.5098 683.3883,536.5098 683.7008,536.2005 684.0133,536.2005 684.3258,535.8911 684.6383,535.8911 685.2633,535.2723 685.5758,535.2723 685.8883,534.963 686.2008,534.963 686.5133,534.6536 686.8258,534.6536 687.1383,534.3442 687.4508,534.3442 688.0758,533.7255 689.3258,533.7255 689.9508,533.1067 690.2633,533.1067 690.8883,532.488 691.2008,532.488 691.5133,532.1786 691.8258,532.1786 692.7633,531.2505 693.0758,531.2505 693.7008,530.6317 694.0133,530.6317 694.3258,530.3223 694.9508,530.3223 695.2633,530.013 695.2633,529.7036 695.5758,529.3942 695.8883,529.0848 696.2008,529.0848 696.5133,528.7755 699.0133,528.7755 699.3258,528.4661 701.8258,528.4661 702.1383,528.1567 704.0133,528.1567 704.3258,527.8473 705.8883,527.8473 706.2008,527.538 708.0758,527.538 708.3883,527.2286 709.6383,527.2286 709.9508,526.9192 710.8883,526.9192 711.2008,526.6098 714.0133,526.6098 714.3258,526.3005 715.2633,526.3005 715.5758,525.9911 716.8258,525.9911 717.1383,525.6817 718.3883,525.6817 718.7008,525.3723 719.9508,525.3723 720.2633,525.063 721.2008,525.063 721.5133,524.7536 722.4508,524.7536 722.7633,524.4442 724.3258,524.4442 724.6383,524.1348 725.8883,524.1348 726.2008,523.8255 728.0758,523.8255 728.3883,523.5161 729.6383,523.5161 729.9508,523.2067 730.8883,523.2067 731.2008,522.8973 732.1383,522.8973 732.4508,522.588 733.7008,522.588 734.0133,522.2786 735.2633,522.2786 735.5758,521.9692 736.2008,521.9692 736.5133,521.6598 737.4508,521.6598 737.7633,521.3505 738.3883,521.3505 738.7008,521.0411 739.9508,521.0411 740.2633,520.7317 740.8883,520.7317 741.2008,520.4223 742.1383,520.4223 742.4508,520.113 744.3258,520.113 744.6383,519.8036 745.8883,519.8036 746.2008,519.4942 747.1383,519.4942 747.4508,519.1848 748.3883,519.1848 748.7008,518.8755 750.2633,518.8755 750.5758,518.5661 750.8883,518.5661 751.2008,518.2567 752.1383,518.2567 752.4508,517.9473 753.7008,517.9473 754.0133,517.638 755.5758,517.638 755.8883,517.3286 756.5133,517.3286 756.8258,517.0192 757.7633,517.0192 758.0758,516.7098 758.7008,516.7098 759.0133,516.4005 759.9508,516.4005 760.2633,516.0911 761.2008,516.0911 761.5133,515.7817 762.4508,515.7817 762.7633,515.4723 764.0133,515.4723 764.3258,515.163 764.6383,515.163 764.9508,514.8536 765.5758,514.8536 765.8883,514.5442 767.4508,514.5442 767.7633,514.2348 768.3883,514.2348 768.7008,513.9255 770.2633,513.9255 770.5758,513.6161 770.8883,513.6161 771.2008,513.3067 772.4508,513.3067 772.7633,512.9973 773.7008,512.9973 774.0133,512.688 774.9508,512.688 775.2633,512.3786 775.8883,512.3786 776.2008,512.0692 777.1383,512.0692 777.4508,511.7598 778.3883,511.7598 778.7008,511.4505 779.6383,511.4505 779.9508,511.1411 781.2008,511.1411 781.5133,510.8317 782.4508,510.8317 782.7633,510.5223 784.0133,510.5223 784.3258,510.213 785.2633,510.213 785.5758,509.9036 786.8258,509.9036 787.1383,509.5942 788.0758,509.5942 788.3883,509.2848 789.3258,509.2848 789.6383,508.9755 790.8883,508.9755 791.2008,508.6661 792.1383,508.6661 792.4508,508.3567 793.3883,508.3567 793.7008,508.0473 794.9508,508.0473 795.2633,507.738 796.2008,507.738 796.5133,507.4286 797.4508,507.4286 797.7633,507.1192 799.0133,507.1192 799.3258,506.8098 800.5758,506.8098 800.8883,506.5005 801.8258,506.5005 802.1383,506.1911 802.7633,506.1911 803.0758,505.8817 804.0133,505.8817 804.3258,505.5723 804.9508,505.5723 805.2633,505.263 806.5133,505.263 806.8258,504.9536 807.7633,504.9536 808.0758,504.6442 809.0133,504.6442 809.3258,504.3348 809.9508,504.3348 810.2633,504.0255 810.8883,504.0255 811.2008,503.7161 812.4508,503.7161 812.7633,503.4067 813.7008,503.4067 814.0133,503.0973 815.2633,503.0973 815.5758,502.788 816.5133,502.788 816.8258,502.4786 817.4508,502.4786 817.7633,502.1692 819.0133,502.1692 819.3258,501.8598 820.2633,501.8598 820.5758,501.5505 821.8258,501.5505 822.1383,501.2411 823.3883,501.2411 823.7008,500.9317 824.6383,500.9317 824.9508,500.6223 825.8883,500.6223 826.2008,500.313 827.1383,500.313 827.4508,500.0036 828.7008,500.0036 829.0133,499.6942 829.3258,499.6942 829.6383,499.3848 831.2008,499.3848 831.5133,499.0755 832.4508,499.0755 832.7633,498.7661 833.3883,498.7661 833.7008,498.4567 835.2633,498.4567 835.8883,497.838 837.4508,497.838 837.7633,497.5286 838.7008,497.5286 839.0133,497.2192 839.9508,497.2192 840.2633,496.9098 841.5133,496.9098 841.8258,496.6005 842.7633,496.6005 843.0758,496.2911 843.7008,496.2911 844.0133,495.9817 844.6383,495.9817 844.9508,495.6723 845.8883,495.6723 846.2008,495.363 847.4508,495.363 847.7633,495.0536 848.7008,495.0536 849.0133,494.7442 849.6383,494.7442 849.9508,494.4348 851.2008,494.4348 851.5133,494.1255 852.7633,494.1255 853.0758,493.8161 853.7008,493.8161 854.0133,493.5067 854.9508,493.5067 855.2633,493.1973 856.5133,493.1973 856.8258,492.888 858.0758,492.888 858.3883,492.5786 859.3258,492.5786 859.6383,492.2692 861.2008,492.2692 861.5133,491.9598 862.1383,491.9598 862.4508,491.6505 863.3883,491.6505 863.7008,491.3411 864.6383,491.3411 864.9508,491.0317 865.8883,491.0317 866.2008,490.7223 867.7633,490.7223 868.0758,490.413 869.0133,490.413 869.3258,490.1036 870.5758,490.1036 870.8883,489.7942 871.2008,489.7942 871.5133,489.4848 873.0758,489.4848 873.3883,489.1755 874.0133,489.1755 874.3258,488.8661 874.9508,488.8661 875.2633,488.5567 876.5133,488.5567 876.8258,488.2473 877.1383,488.2473 877.4508,487.938 878.3883,487.938 878.7008,487.6286 879.9508,487.6286 880.2633,487.3192 881.5133,487.3192 881.8258,487.0098 883.3883,487.0098 883.7008,486.7005 884.6383,486.7005 884.9508,486.3911 885.8883,486.3911 886.2008,486.0817 887.1383,486.0817 887.4508,485.7723 888.7008,485.7723 889.0133,485.463 889.6383,485.463 889.9508,485.1536 890.2633,485.1536 890.5758,484.8442 892.1383,484.8442 892.4508,484.5348 893.3883,484.5348 893.7008,484.2255 894.3258,484.2255 894.6383,483.9161 895.5758,483.9161 895.8883,483.6067 896.8258,483.6067 897.1383,483.2973 897.7633,483.2973 898.0758,482.988 899.0133,482.988 899.3258,482.6786 900.2633,482.6786 900.5758,482.3692 901.2008,482.3692 901.5133,482.0598 902.4508,482.0598 902.7633,481.7505 903.3883,481.7505 903.7008,481.4411 904.0133,481.4411 904.3258,481.1317 905.2633,481.1317 905.5758,480.8223 907.1383,480.8223 907.4508,480.513 908.0758,480.513 908.3883,480.2036 909.3258,480.2036 909.6383,479.8942 910.2633,479.8942 910.5758,479.5848 911.5133,479.5848 911.8258,479.2755 912.4508,479.2755 912.7633,478.9661 913.3883,478.9661 913.7008,478.6567 914.9508,478.6567 915.2633,478.3473 916.8258,478.3473 917.1383,478.038 918.0758,478.038 918.3883,477.7286 919.3258,477.7286 919.6383,477.4192 919.9508,477.4192 920.2633,477.1098 921.2008,477.1098 921.5133,476.8005 922.4508,476.8005 922.7633,476.4911 923.7008,476.4911 924.0133,476.1817 925.2633,476.1817 925.5758,475.8723 926.8258,475.8723 927.1383,475.563 929.0133,475.563 929.3258,475.8723 928.3883,476.8005 928.3883,477.1098 929.3258,478.038 929.3258,478.3473 929.0133,478.6567 928.3883,478.6567 928.0758,478.9661 927.7633,478.9661 927.4508,479.2755 927.1383,479.2755 926.8258,479.5848 926.2008,479.5848 925.8883,479.8942 925.5758,479.8942 925.2633,480.2036 924.9508,480.2036 924.6383,480.513 924.3258,480.513 924.0133,480.8223 923.7008,480.8223 923.3883,481.1317 922.4508,481.1317 922.1383,481.4411 921.8258,481.4411 921.5133,481.7505 920.8883,481.7505 920.5758,482.0598 919.9508,482.0598 919.6383,482.3692 919.3258,482.3692 919.0133,482.6786 918.3883,482.6786 918.0758,482.988 917.7633,482.988 917.4508,483.2973 917.1383,483.2973 916.8258,483.6067 916.2008,483.6067 915.8883,483.9161 915.5758,483.9161 915.2633,484.2255 914.9508,484.2255 914.6383,484.5348 914.3258,484.5348 914.0133,484.8442 913.7008,484.8442 913.3883,485.1536 913.0758,485.1536 912.7633,485.463 912.4508,485.463 912.1383,485.7723 911.8258,485.7723 911.5133,486.0817 911.2008,486.0817 910.8883,486.3911 910.2633,486.3911 909.9508,486.7005 909.6383,486.7005 909.3258,487.0098 908.7008,487.0098 908.3883,487.3192 908.0758,487.3192 907.7633,487.6286 907.4508,487.6286 907.1383,487.938 906.8258,487.938 906.5133,488.2473 906.2008,488.2473 905.8883,488.5567 905.2633,488.5567 904.9508,488.8661 904.6383,488.8661 904.3258,489.1755 904.0133,489.1755 903.7008,489.4848 903.0758,489.4848 902.7633,489.7942 902.4508,489.7942 902.1383,490.1036 901.8258,490.1036 901.5133,490.413 901.2008,490.413 900.8883,490.7223 900.5758,490.7223 900.2633,491.0317 899.9508,491.0317 899.6383,491.3411 899.0133,491.3411 898.7008,491.6505 898.0758,491.6505 897.7633,491.9598 897.4508,491.9598 897.1383,492.2692 896.8258,492.2692 896.5133,492.5786 895.8883,492.5786 895.5758,492.888 895.2633,492.888 894.9508,493.1973 894.3258,493.1973 894.0133,493.5067 893.7008,493.5067 893.3883,493.8161 892.7633,493.8161 892.4508,494.1255 892.1383,494.1255 891.8258,494.4348 891.5133,494.4348 891.2008,494.7442 890.5758,494.7442 889.9508,495.363 889.3258,495.363 889.0133,495.6723 888.7008,495.6723 888.3883,495.9817 888.0758,495.9817 887.7633,496.2911 887.1383,496.2911 886.8258,496.6005 886.5133,496.6005 886.2008,496.9098 885.8883,496.9098 885.5758,497.2192 885.2633,497.2192 884.9508,497.5286 884.6383,497.5286 884.3258,497.838 884.0133,497.838 883.7008,498.1473 883.3883,498.1473 883.0758,498.4567 882.4508,498.4567 882.1383,498.7661 881.8258,498.7661 881.5133,499.0755 881.2008,499.0755 880.8883,499.3848 880.5758,499.3848 880.2633,499.6942 879.9508,499.6942 879.6383,500.0036 879.3258,500.0036 879.0133,500.313 878.3883,500.313 878.0758,500.6223 877.7633,500.6223 877.4508,500.9317 876.8258,500.9317 876.5133,501.2411 875.8883,501.2411 875.2633,501.8598 874.6383,501.8598 874.3258,502.1692 874.0133,502.1692 873.7008,502.4786 873.3883,502.4786 873.0758,502.788 872.7633,502.788 872.4508,503.0973 872.1383,503.0973 871.8258,503.4067 871.2008,503.4067 870.8883,503.7161 870.5758,503.7161 870.2633,504.0255 869.9508,504.0255 869.6383,504.3348 869.3258,504.3348 869.0133,504.6442 868.7008,504.6442 868.3883,504.9536 868.0758,504.9536 867.7633,505.263 867.4508,505.263 867.1383,505.5723 866.8258,505.5723 866.5133,505.8817 865.8883,505.8817 865.5758,506.1911 865.2633,506.1911 864.9508,506.5005 864.6383,506.5005 864.3258,506.8098 864.0133,506.8098 863.7008,507.1192 863.3883,507.1192 863.0758,507.4286 862.7633,507.4286 862.4508,507.738 861.8258,507.738 861.5133,508.0473 861.2008,508.0473 860.5758,508.6661 860.2633,508.6661 859.9508,508.9755 859.6383,508.9755 859.3258,509.2848 858.7008,509.2848 858.3883,509.5942 858.0758,509.5942 857.7633,509.9036 857.4508,509.9036 857.1383,510.213 856.8258,510.213 856.5133,510.5223 856.2008,510.5223 855.8883,510.8317 855.5758,510.8317 855.2633,511.1411 854.9508,511.1411 854.6383,511.4505 854.0133,511.4505 853.7008,511.7598 853.3883,511.7598 853.0758,512.0692 852.7633,512.0692 852.4508,512.3786 852.1383,512.3786 851.8258,512.688 851.5133,512.688 851.2008,512.9973 850.8883,512.9973 850.5758,513.3067 850.2633,513.3067 849.9508,513.6161 849.6383,513.6161 849.3258,513.9255 848.7008,513.9255 848.3883,514.2348 848.0758,514.2348 847.7633,514.5442 847.4508,514.5442 847.1383,514.8536 846.8258,514.8536 846.5133,515.163 846.2008,515.163 845.8883,515.4723 845.5758,515.4723 845.2633,515.7817 844.9508,515.7817 844.6383,516.0911 844.3258,516.0911 844.0133,516.4005 843.3883,516.4005 843.0758,516.7098 842.7633,516.7098 842.4508,517.0192 842.1383,517.0192 841.8258,517.3286 841.5133,517.3286 841.2008,517.638 840.8883,517.638 840.5758,517.9473 840.2633,517.9473 839.9508,518.2567 839.6383,518.2567 839.3258,518.5661 839.0133,518.5661 838.7008,518.8755 838.3883,518.8755 838.0758,519.1848 837.7633,519.1848 837.4508,519.4942 837.1383,519.4942 836.8258,519.8036 836.2008,519.8036 835.5758,520.4223 834.9508,520.4223 834.6383,520.7317 834.3258,520.7317 834.0133,521.0411 833.7008,521.0411 833.3883,521.3505 833.0758,521.3505 832.7633,521.6598 832.4508,521.6598 832.1383,521.9692 831.8258,521.9692 831.5133,522.2786 831.2008,522.2786 830.8883,522.588 830.5758,522.588 830.2633,522.8973 829.9508,522.8973 829.6383,523.2067 829.3258,523.2067 829.0133,523.5161 828.7008,523.5161 828.3883,523.8255 828.0758,523.8255 827.7633,524.1348 827.1383,524.1348 826.5133,524.7536 825.8883,524.7536 825.5758,525.063 825.2633,525.063 824.9508,525.3723 824.6383,525.3723 824.3258,525.6817 824.0133,525.6817 823.7008,525.9911 823.3883,525.9911 823.0758,526.3005 822.7633,526.3005 822.4508,526.6098 821.8258,526.6098 821.5133,526.9192 821.2008,526.9192 820.8883,527.2286 820.5758,527.2286 820.2633,527.538 819.9508,527.538 819.6383,527.8473 819.3258,527.8473 819.0133,528.1567 818.7008,528.1567 818.3883,528.4661 818.0758,528.4661 817.7633,528.7755 817.4508,528.7755 817.1383,529.0848 816.5133,529.0848 816.2008,529.3942 815.8883,529.3942 815.5758,529.7036 815.2633,529.7036 814.9508,530.013 814.6383,530.013 814.3258,530.3223 814.0133,530.3223 813.7008,530.6317 813.3883,530.6317 813.0758,530.9411 812.4508,530.9411 812.1383,531.2505 811.8258,531.2505 811.5133,531.5598 811.2008,531.5598 810.8883,531.8692 810.5758,531.8692 810.2633,532.1786 809.9508,532.1786 809.6383,532.488 809.3258,532.488 809.0133,532.7973 808.7008,532.7973 808.3883,533.1067 807.7633,533.1067 807.4508,533.4161 807.1383,533.4161 806.5133,534.0348 805.8883,534.0348 805.2633,534.6536 804.6383,534.6536 804.3258,534.963 804.0133,534.963 803.7008,535.2723 803.3883,535.2723 803.0758,535.5817 802.4508,535.5817 802.1383,535.8911 801.8258,535.8911 801.5133,536.2005 801.2008,536.2005 800.8883,536.5098 800.5758,536.5098 800.2633,536.8192 799.9508,536.8192 799.6383,537.1286 799.3258,537.1286 799.0133,537.438 798.7008,537.438 798.3883,537.7473 797.7633,537.7473 797.4508,538.0567 797.1383,538.0567 796.5133,538.6755 795.8883,538.6755 795.2633,539.2942 794.6383,539.2942 794.3258,539.6036 794.0133,539.6036 793.7008,539.913 793.3883,539.913 793.0758,540.2223 792.7633,540.2223 792.4508,540.5317 791.8258,540.5317 791.2008,541.1505 790.5758,541.1505 790.2633,541.4598 789.9508,541.4598 789.6383,541.7692 789.3258,541.7692 789.0133,542.0786 788.7008,542.0786 787.4508,543.3161 787.1383,543.3161 786.8258,543.0067 786.8258,543.3161 786.5133,543.6255 786.5133,543.9348 786.2008,544.2442 784.9508,543.0067 784.6383,543.3161 784.3258,543.3161 783.7008,543.9348 783.0758,543.9348 782.7633,544.2442 782.4508,544.2442 782.1383,544.5536 781.8258,544.5536 781.5133,544.863 781.2008,544.863 780.5758,545.4817 780.8883,545.7911 780.8883,547.338 781.2008,547.6473 780.8883,547.9567 780.8883,548.5755 780.5758,548.8848 780.5758,549.813 780.8883,550.1223 780.8883,557.238 780.2633,557.8567 780.5758,558.1661 780.5758,559.4036 780.8883,559.713 780.5758,560.0223 780.5758,560.6411 780.8883,560.9505 780.8883,562.188 781.2008,562.4973 781.2008,568.3755 780.8883,568.6848 781.2008,568.9942 781.2008,569.9223 781.5133,570.2317 781.8258,569.9223 782.7633,569.9223 783.7008,568.9942 784.3258,568.9942 784.9508,568.3755 785.2633,568.3755 785.5758,568.0661 785.8883,568.0661 786.5133,567.4473 786.8258,567.4473 787.4508,566.8286 787.7633,566.8286 788.0758,566.5192 788.3883,566.5192 789.0133,565.9005 789.6383,565.9005 790.2633,565.2817 790.5758,565.2817 791.2008,564.663 791.5133,564.663 792.1383,564.0442 792.4508,564.0442 792.7633,563.7348 793.0758,563.7348 793.7008,563.1161 794.0133,563.1161 794.3258,562.8067 794.6383,562.8067 795.2633,562.188 795.5758,562.188 795.8883,561.8786 796.2008,561.8786 796.8258,561.2598 797.1383,561.2598 797.4508,560.9505 797.7633,560.9505 798.3883,560.3317 798.7008,560.3317 799.3258,559.713 799.6383,559.713 800.2633,559.0942 800.8883,559.0942 801.8258,558.1661 802.1383,558.1661 802.4508,557.8567 802.7633,557.8567 803.3883,557.238 803.7008,557.238 804.0133,556.9286 804.3258,556.9286 804.9508,556.3098 805.2633,556.3098 805.5758,556.0005 805.8883,556.0005 806.2008,555.6911 806.5133,555.6911 807.1383,555.0723 807.4508,555.0723 807.7633,554.763 808.0758,554.763 808.3883,554.4536 808.7008,554.4536 809.3258,553.8348 809.9508,553.8348 810.5758,554.4536 810.5758,554.763 811.5133,555.6911 811.5133,556.0005 812.1383,556.6192 812.1383,556.9286 812.4508,557.238 812.7633,557.238 812.7633,557.5473 813.0758,557.8567 814.3258,559.0942 814.6383,559.0942 814.9508,559.4036 814.9508,559.713 815.2633,560.0223 815.5758,560.0223 815.8883,560.3317 815.5758,560.6411 815.5758,560.9505 815.8883,561.2598 815.8883,562.188 816.5133,562.8067 816.5133,563.1161 816.8258,563.4255 816.8258,563.7348 817.7633,564.663 817.4508,564.9723 817.4508,565.5911 817.7633,565.9005 817.7633,566.2098 818.0758,566.5192 818.0758,567.138 818.3883,567.4473 818.7008,567.4473 818.3883,567.7567 818.3883,568.0661 818.7008,568.3755 819.0133,568.3755 818.7008,568.6848 818.7008,568.9942 819.3258,569.613 819.3258,569.9223 819.6383,570.2317 819.6383,570.5411 819.9508,570.8505 819.9508,571.4692 820.2633,571.7786 820.2633,572.088 820.5758,572.3973 820.5758,572.7067 820.8883,573.0161 820.5758,573.3255 821.2008,573.9442 821.2008,574.2536 821.5133,574.563 821.5133,574.8723 821.8258,575.1817 821.8258,575.8005 822.1383,576.1098 822.1383,576.4192 822.4508,576.7286 822.4508,577.038 822.7633,577.3473 822.7633,578.2755 823.0758,578.5848 823.0758,578.8942 823.3883,579.2036 823.3883,580.1317 824.0133,580.7505 824.0133,581.3692 824.3258,581.6786 824.3258,581.988 824.6383,582.2973 824.6383,582.9161 824.9508,583.2255 824.9508,583.5348 825.2633,583.8442 825.2633,584.463 825.5758,584.7723 825.5758,585.3911 825.8883,585.7005 825.8883,586.3192 826.2008,586.6286 826.2008,587.2473 826.5133,587.5567 826.5133,587.8661 826.8258,588.1755 826.8258,588.7942 827.1383,589.1036 827.1383,589.413 827.4508,589.7223 827.4508,590.0317 828.0758,590.6505 827.7633,590.9598 827.7633,591.2692 828.0758,591.5786 828.0758,592.1973 828.3883,592.5067 828.7008,592.5067 828.3883,592.8161 829.3258,593.7442 829.3258,594.0536 829.6383,594.363 829.6383,595.2911 829.9508,595.6005 829.6383,595.9098 829.6383,596.2192 830.2633,596.838 829.9508,597.1473 830.5758,597.7661 830.5758,598.3848 831.2008,599.0036 830.8883,599.313 831.5133,599.9317 831.2008,600.2411 831.5133,600.5505 831.5133,601.1692 831.8258,601.4786 831.8258,602.0973 832.1383,602.4067 832.1383,602.7161 832.4508,603.0255 832.4508,603.6442 832.7633,603.9536 832.7633,604.5723 833.0758,604.8817 833.0758,605.5005 833.3883,605.8098 833.3883,606.738 833.7008,607.0473 833.7008,607.3567 834.0133,607.6661 834.0133,608.2848 834.3258,608.5942 834.3258,608.9036 834.6383,609.213 834.6383,609.5223 834.9508,609.8317 834.9508,610.7598 835.2633,611.0692 835.2633,611.3786 835.5758,611.688 835.5758,612.3067 835.8883,612.6161 835.8883,612.9255 836.2008,613.2348 836.2008,613.8536 836.5133,614.163 836.5133,615.0911 836.8258,615.4005 836.8258,615.7098 837.1383,616.0192 837.1383,616.638 837.4508,616.9473 837.4508,617.5661 837.7633,617.8755 837.7633,618.4942 838.3883,619.113 838.3883,619.7317 838.7008,620.0411 838.7008,620.6598 839.0133,620.9692 839.0133,621.2786 839.3258,621.588 839.3258,622.2067 839.6383,622.5161 839.6383,623.4442 839.9508,623.7536 839.9508,624.3723 840.2633,624.6817 840.2633,624.9911 840.5758,625.3005 840.5758,626.2286 840.8883,626.538 840.8883,627.1567 841.2008,627.4661 841.2008,627.7755 841.8258,628.3942 841.8258,629.013 842.1383,629.3223 842.1383,630.8692 841.8258,631.1786 841.8258,631.488 842.1383,631.7973 842.1383,632.1067 843.0758,633.0348 843.0758,633.3442 842.7633,633.6536 842.7633,634.2723 842.1383,634.8911 841.5133,634.8911 841.2008,634.5817 840.8883,634.5817 840.5758,634.2723 840.5758,634.5817 840.8883,634.5817"/>
    <polyline fill="none" stroke="#000000" points="840.5758,634.5817 840.2633,634.8911 839.3258,634.8911 839.0133,634.5817 838.7008,634.5817 838.3883,634.2723 838.0758,634.2723 837.7633,633.963 837.4508,633.963 837.1383,633.6536 836.5133,633.6536 835.8883,633.0348 835.5758,633.0348"/>
    <polyline fill="none" stroke="#000000" points="840.5758,634.2723 839.9508,633.6536 839.6383,633.6536 839.3258,633.3442 839.0133,633.3442 838.3883,632.7255 838.0758,632.7255 837.7633,632.4161 837.4508,632.4161 837.1383,632.1067 836.5133,632.1067 836.2008,631.7973 835.8883,631.7973 835.5758,631.488 835.2633,631.488 834.6383,630.8692 834.3258,630.8692 834.0133,630.5598 833.3883,630.5598 833.0758,630.2505 832.7633,630.2505 832.4508,629.9411 832.1383,629.9411 831.8258,629.6317 831.5133,629.6317 831.2008,629.3223 830.8883,629.3223 830.5758,629.013 830.2633,629.013 829.9508,628.7036 829.6383,628.7036 829.3258,628.3942 829.0133,628.3942 828.7008,628.0848 828.0758,628.0848 827.7633,627.7755 827.4508,627.7755 827.1383,627.4661 826.8258,627.4661 826.5133,627.1567 826.2008,627.1567 825.8883,626.8473 825.5758,626.8473 825.2633,626.538 824.9508,626.538 824.6383,626.2286 824.3258,626.2286 824.0133,625.9192 823.7008,625.9192 823.3883,625.6098 822.7633,625.6098 822.4508,625.3005 822.1383,625.3005 821.8258,624.9911 821.2008,624.9911 820.8883,624.6817 820.5758,624.6817 820.2633,624.3723 819.6383,624.3723 819.3258,624.063 818.7008,624.063 818.3883,623.7536 817.7633,623.7536 817.4508,623.4442 817.1383,623.4442 816.8258,623.1348 816.2008,623.1348 815.8883,622.8255 815.2633,622.8255 814.9508,622.5161 814.6383,622.5161 814.3258,622.2067 813.7008,622.2067 813.3883,621.8973 812.7633,621.8973 812.4508,621.588 811.5133,621.588 811.2008,621.2786 810.8883,621.2786 810.5758,620.9692 810.2633,620.9692 809.9508,620.6598 809.6383,620.6598 809.3258,620.3505 808.7008,620.3505 808.3883,620.0411 807.7633,620.0411 807.4508,619.7317 807.1383,619.7317 806.8258,619.4223 806.2008,619.4223 805.8883,619.113 805.2633,619.113 804.9508,618.8036 804.6383,618.8036 804.3258,618.4942 803.7008,618.4942 803.3883,618.1848 803.0758,618.1848 802.7633,617.8755 802.4508,617.8755 802.1383,617.5661 801.5133,617.5661 801.2008,617.2567 800.8883,617.2567 800.5758,616.9473 800.2633,616.9473 799.9508,616.638 799.6383,616.638 799.3258,616.3286 799.0133,616.3286 798.7008,616.0192 798.0758,616.0192 797.7633,615.7098 797.4508,615.7098 797.1383,615.4005 796.5133,615.4005 796.2008,615.0911 795.8883,615.0911 795.5758,614.7817 795.2633,614.7817 794.9508,614.4723 794.6383,614.4723 794.3258,614.163 794.0133,614.163 793.7008,613.8536 793.3883,613.8536 793.0758,613.5442 792.7633,613.5442 792.4508,613.2348 791.8258,613.2348 791.5133,612.9255 791.2008,612.9255 790.8883,612.6161 790.5758,612.6161 790.2633,612.3067 789.9508,612.3067 789.6383,611.9973 789.0133,611.9973 788.7008,611.688 788.3883,611.688 788.0758,611.3786 787.7633,611.3786 787.4508,611.0692 786.8258,611.0692 786.2008,610.4505 785.8883,610.4505 785.5758,610.1411 785.2633,610.4505 784.9508,610.4505 784.3258,609.8317 784.0133,610.1411"/>
    <polyline fill="none" stroke="#000000" points="770.2633,620.9692 769.6383,620.9692 769.3258,621.2786 769.3258,621.8973"/>
    <line x1="769.3258" x2="769.0133" y1="621.588" y2="621.8973"/>
    <polyline fill="none" stroke="#000000" points="757.1383,594.6723 757.1383,594.363 756.5133,593.7442 756.2008,593.7442 755.8883,594.0536"/>
    <polyline fill="none" stroke="#000000" points="755.8883,594.363 755.8883,594.0536 755.5758,594.0536"/>
    <line x1="752.1383" x2="751.8258" y1="594.363" y2="594.363"/>
    <polyline fill="none" stroke="#000000" points="751.8258,594.0536 753.0758,595.2911 753.3883,595.2911 753.7008,595.6005 754.0133,595.6005 754.3258,595.9098 754.6383,595.9098 755.5758,596.838 755.8883,596.838 756.2008,597.1473 756.5133,597.1473 756.8258,597.4567 757.1383,597.4567 757.4508,597.7661 757.7633,597.7661 758.3883,598.3848 758.7008,598.3848 759.6383,599.313 759.9508,599.313 760.5758,599.9317 760.8883,599.9317 761.2008,600.2411 761.8258,600.2411 762.1383,600.5505 762.4508,600.5505 762.7633,600.8598 763.0758,600.8598 763.3883,601.1692 763.7008,601.1692 764.0133,601.4786 764.6383,601.4786 764.9508,601.788 765.2633,601.788 765.5758,602.0973 766.2008,602.0973 766.5133,602.4067 766.8258,602.4067 767.1383,602.7161 767.7633,602.7161 768.0758,603.0255 768.3883,603.0255 768.7008,603.3348 769.0133,603.3348 769.3258,603.6442 769.9508,603.6442 770.2633,603.9536 770.5758,603.9536 770.8883,604.263 771.5133,604.263 771.8258,604.5723 772.4508,604.5723 772.7633,604.8817 773.3883,604.8817 773.7008,605.1911 774.0133,605.1911 774.3258,605.5005 774.6383,605.5005 774.9508,605.8098 775.2633,605.8098 775.5758,606.1192 775.8883,606.1192 776.2008,606.4286 776.8258,606.4286 777.1383,606.738 777.4508,606.738 777.7633,607.0473 778.3883,607.0473 778.7008,607.3567 779.0133,607.3567 779.3258,607.6661 779.6383,607.6661 779.9508,607.9755 780.2633,607.9755 780.5758,608.2848 780.8883,608.2848 781.2008,608.5942 781.5133,608.5942 781.8258,608.9036 782.4508,608.9036 782.7633,609.213 783.0758,609.213 784.0133,610.1411 782.4508,611.688 782.1383,611.688 781.2008,612.6161 780.8883,612.6161 779.3258,614.163 779.0133,614.163 778.0758,615.0911 777.7633,615.0911 776.2008,616.638 775.8883,616.638 774.6383,617.8755 774.3258,617.8755 773.7008,618.4942 773.3883,618.4942 772.1383,619.7317 771.8258,619.7317 770.8883,620.6598 770.5758,620.6598 770.2633,620.9692 770.5758,621.2786 770.5758,621.588 769.9508,622.2067 769.6383,622.2067 769.3258,621.8973 769.0133,621.8973 768.3883,622.5161 768.0758,622.5161 766.2008,624.3723 765.8883,624.3723 764.9508,625.3005 764.6383,625.3005 763.7008,626.2286 763.3883,626.2286 762.1383,627.4661 761.8258,627.4661 761.2008,628.0848 760.8883,628.0848 760.5758,628.3942 760.5758,628.7036 760.2633,629.013 759.9508,629.013 759.6383,629.3223 759.3258,629.3223 758.3883,630.2505 758.0758,630.2505 757.1383,631.1786 756.8258,631.1786 756.2008,631.7973 755.8883,631.7973 754.9508,632.7255 754.6383,632.7255 753.7008,633.6536 753.3883,633.6536 752.4508,634.5817 752.1383,634.5817 751.5133,635.2005 751.2008,635.2005 749.9508,636.438 749.6383,636.438 747.4508,638.6036 747.1383,638.6036 746.2008,639.5317 745.8883,639.5317 745.5758,639.8411 745.5758,640.1505 745.2633,640.4598 744.6383,640.4598 743.3883,641.6973 743.0758,641.6973 741.2008,643.5536 740.8883,643.5536 739.3258,645.1005 739.0133,645.1005 738.7008,645.4098 738.0758,645.4098"/>
    <polyline fill="none" stroke="#000000" points="737.1383,642.6255 736.5133,642.0067 735.5758,642.0067 735.2633,642.3161 734.3258,642.3161"/>
    <polyline fill="none" stroke="#000000" points="738.0758,639.8411 737.1383,638.913 737.1383,638.2942 737.7633,637.6755 737.4508,637.3661 737.7633,637.0567 737.7633,636.7473"/>
    <line x1="737.7633" x2="738.0758" y1="637.0567" y2="637.0567"/>
    <line x1="737.7633" x2="738.7008" y1="637.6755" y2="638.6036"/>
    <polyline fill="none" stroke="#000000" points="739.0133,637.6755 739.3258,637.3661 739.3258,637.0567 739.6383,636.7473 739.6383,636.1286 739.9508,635.8192 739.9508,635.2005 740.2633,634.8911 740.2633,633.963 740.5758,633.6536 740.5758,633.3442 740.8883,633.0348 740.8883,632.1067 741.2008,631.7973 741.2008,630.8692 741.5133,630.5598 741.5133,629.3223 741.8258,629.013 741.8258,628.3942 742.1383,628.0848 742.1383,627.1567 742.4508,626.8473 742.4508,626.2286 742.7633,625.9192 742.7633,624.9911 743.0758,624.6817 743.0758,624.063 743.3883,623.7536 743.3883,622.8255 743.7008,622.5161 743.7008,621.8973 744.0133,621.588 744.0133,620.9692 744.3258,620.6598 744.3258,619.7317 744.6383,619.4223 744.6383,618.4942 744.9508,618.1848 744.9508,617.8755 745.2633,617.5661 745.2633,616.3286 745.5758,616.0192 745.5758,615.0911 745.8883,614.7817 745.8883,614.163 746.2008,613.8536 746.2008,612.6161 746.5133,612.3067 746.5133,611.688 746.8258,611.3786 746.8258,610.4505 747.1383,610.1411 747.1383,608.9036 747.4508,608.5942 747.4508,607.9755 747.7633,607.6661 747.7633,606.738 748.0758,606.4286 748.0758,605.5005 748.3883,605.1911 748.3883,604.5723 748.7008,604.263 748.7008,603.3348 749.0133,603.0255 749.0133,602.0973 749.3258,601.788 749.3258,601.1692 749.6383,600.8598 749.6383,599.9317 749.9508,599.6223 749.9508,599.0036 750.2633,598.6942 750.2633,597.7661 750.5758,597.4567 750.5758,596.5286 750.8883,596.2192 750.8883,595.6005 751.2008,595.2911 751.2008,594.9817 751.8258,594.363 751.8258,593.4348 751.5133,593.1255 751.2008,593.1255 750.5758,592.5067 750.2633,592.5067 749.0133,591.2692"/>
    <polyline fill="none" stroke="#000000" points="751.8258,593.4348 752.1383,593.1255 753.7008,593.1255 754.0133,593.4348 754.3258,593.4348 754.6383,593.7442 754.9508,593.7442 755.2633,594.0536 755.5758,594.0536 756.5133,594.9817 756.8258,594.9817 757.1383,594.6723 758.0758,595.6005 758.7008,595.6005 759.0133,595.9098 759.3258,595.9098 759.6383,596.2192 759.9508,596.2192 760.2633,596.5286 760.8883,596.5286 761.5133,597.1473 762.1383,597.1473 762.7633,597.7661 763.0758,597.7661 763.3883,598.0755 764.0133,598.0755 764.3258,598.3848 764.9508,598.3848 765.2633,598.6942 765.8883,598.6942 766.2008,599.0036 766.5133,599.0036 766.8258,599.313 767.1383,599.313 767.4508,599.6223 768.0758,599.6223 768.3883,599.9317 769.0133,599.9317 769.3258,600.2411 769.6383,600.2411 769.9508,600.5505 770.5758,600.5505 770.8883,600.8598 771.2008,600.8598 771.5133,601.1692 772.1383,601.1692 772.7633,601.788 773.3883,601.788 773.7008,602.0973 774.0133,602.0973 774.3258,602.4067 774.9508,602.4067 775.2633,602.7161 775.5758,602.7161 775.8883,603.0255 776.5133,603.0255 776.8258,603.3348 777.1383,603.3348 777.4508,603.6442 777.7633,603.6442 778.0758,603.9536 778.7008,603.9536 779.0133,604.263 779.6383,604.263 779.9508,604.5723 780.2633,604.5723 780.5758,604.8817 780.8883,604.8817 781.2008,605.1911 781.8258,605.1911 782.1383,605.5005 782.7633,605.5005 783.0758,605.8098 783.3883,605.8098 783.7008,606.1192 784.3258,606.1192 784.6383,606.4286 785.2633,606.4286 785.5758,606.738 785.8883,606.738 786.2008,607.0473 786.5133,607.0473 786.8258,607.3567 787.1383,607.3567 787.4508,607.6661 787.7633,607.6661 788.0758,607.9755 788.3883,607.9755 788.7008,608.2848 789.3258,608.2848 789.6383,608.5942 789.9508,608.5942 790.2633,608.9036 790.8883,608.9036 791.5133,609.5223 792.1383,609.5223 792.4508,609.8317 792.7633,609.8317 793.0758,610.1411 793.7008,610.1411 794.0133,610.4505 794.3258,610.4505 794.6383,610.7598 794.9508,610.7598 795.2633,611.0692 795.5758,611.0692 795.8883,611.3786 796.2008,611.3786 796.5133,611.688 796.8258,611.688 797.1383,611.9973 797.4508,611.9973 797.7633,612.3067 798.0758,612.3067 798.3883,612.6161 798.7008,612.6161 799.0133,612.9255 799.6383,612.9255 799.9508,613.2348 800.5758,613.2348 801.2008,613.8536 801.5133,613.8536 801.8258,614.163 802.4508,614.163 803.0758,614.7817 803.3883,614.7817 803.7008,615.0911 804.3258,615.0911 804.6383,615.4005 804.9508,615.4005 805.2633,615.7098 805.5758,615.7098 805.8883,616.0192 806.5133,616.0192 806.8258,616.3286 807.1383,616.3286 807.4508,616.638 807.7633,616.638 808.0758,616.9473 808.3883,616.9473 808.7008,617.2567 809.0133,617.2567 809.3258,617.5661 809.9508,617.5661 810.2633,617.8755 810.5758,617.8755 810.8883,618.1848 811.5133,618.1848 811.8258,618.4942 812.1383,618.4942 812.4508,618.8036 812.7633,618.8036 813.0758,619.113 813.3883,619.113 813.7008,619.4223 814.3258,619.4223 814.6383,619.7317 814.9508,619.7317 815.2633,620.0411 815.8883,620.0411 816.2008,620.3505 816.5133,620.3505 816.8258,620.6598 817.4508,620.6598 817.7633,620.9692 818.0758,620.9692 818.3883,621.2786 819.0133,621.2786 819.3258,621.588 819.9508,621.588 820.2633,621.8973 820.5758,621.8973 820.8883,622.2067 821.5133,622.2067 821.8258,622.5161 822.4508,622.5161 822.7633,622.8255 823.3883,622.8255 823.7008,623.1348 824.0133,623.1348 824.3258,623.4442 824.9508,623.4442 825.2633,623.7536 825.8883,623.7536 826.2008,624.063 826.5133,624.063 826.8258,624.3723 827.1383,624.3723 827.4508,624.6817 827.7633,624.6817 828.0758,624.9911 828.3883,624.9911 828.7008,625.3005 829.3258,625.3005 829.9508,625.9192 830.5758,625.9192 830.8883,626.2286 831.2008,626.2286 831.8258,626.8473 832.4508,626.8473 832.7633,627.1567 833.0758,627.1567 833.3883,627.4661 833.7008,627.4661 834.0133,627.7755 834.3258,627.7755 834.6383,628.0848 834.9508,628.0848 835.2633,628.3942 835.5758,628.3942 836.2008,629.013 836.5133,629.013 836.8258,629.3223 837.1383,629.3223 837.4508,629.6317 837.7633,629.6317 838.0758,629.9411 838.3883,629.9411 839.0133,630.5598 839.3258,630.5598 839.6383,630.8692 839.9508,630.8692 840.2633,631.1786 841.8258,631.1786"/>
    <line x1="841.8258" x2="841.5133" y1="631.488" y2="631.1786"/>
    <polyline fill="none" stroke="#000000" points="843.0758,633.0348 844.0133,632.1067 844.0133,631.488 844.3258,631.1786 844.3258,630.5598 844.6383,630.2505 844.6383,629.6317 844.9508,629.3223 844.9508,629.013 845.2633,628.7036 845.2633,628.3942 845.5758,628.0848 845.5758,627.7755 845.8883,627.4661 845.8883,627.1567 846.2008,626.8473 846.2008,626.538 846.5133,626.2286 846.5133,625.9192 847.1383,625.3005 847.1383,624.9911 847.4508,624.6817 847.4508,624.3723 847.7633,624.063 847.7633,623.7536 848.0758,623.4442 848.0758,623.1348 848.3883,622.8255 848.3883,622.5161 849.0133,621.8973 849.0133,621.2786 849.9508,620.3505 849.9508,620.0411 850.2633,619.7317 850.2633,619.4223 850.5758,619.113 850.5758,618.8036 850.8883,618.4942 850.8883,618.1848 851.2008,617.8755 851.2008,617.5661 851.5133,617.2567 851.5133,616.9473 852.1383,616.3286 852.1383,616.0192 852.4508,615.7098 852.4508,615.4005 853.0758,614.7817 853.0758,614.4723 853.3883,614.163 853.3883,613.5442 854.3258,612.6161 854.3258,612.3067 854.9508,611.688 854.9508,611.0692 855.5758,610.4505 855.5758,610.1411 855.8883,609.8317 855.8883,609.5223 856.8258,608.5942 856.8258,608.2848 857.1383,607.9755 857.1383,607.6661 857.4508,607.3567 857.4508,607.0473 857.7633,606.738 857.7633,606.4286 858.3883,605.8098 858.3883,605.5005 859.0133,604.8817 859.0133,604.5723 859.3258,604.263 859.3258,603.9536 859.9508,603.3348 859.9508,603.0255 860.2633,602.7161 860.2633,602.4067 860.5758,602.0973 860.5758,601.788 861.2008,601.1692 861.2008,600.8598 861.8258,600.2411 861.8258,599.9317 862.1383,599.6223 862.1383,599.313 862.4508,599.0036 862.4508,598.6942 862.7633,598.3848 862.7633,598.0755 863.3883,597.4567 863.3883,596.838 864.0133,596.2192 864.0133,595.6005 864.6383,594.9817 864.6383,594.6723 865.5758,593.7442 865.5758,593.4348 865.8883,593.1255 865.8883,592.8161 866.2008,592.5067 866.2008,592.1973 866.8258,591.5786 866.8258,591.2692 867.4508,590.6505 867.7633,590.6505 868.0758,590.3411 868.0758,589.1036 868.3883,588.7942 868.3883,588.4848 868.7008,588.1755 868.7008,587.8661 869.0133,587.5567 869.0133,587.2473 869.6383,586.6286 869.6383,586.3192 869.9508,586.0098 869.9508,585.7005 870.2633,585.3911 870.2633,585.0817 870.8883,584.463 870.8883,584.1536 871.5133,583.5348 871.5133,583.2255 871.8258,582.9161 871.8258,582.6067 872.4508,581.988 872.4508,581.6786 872.7633,581.3692 872.7633,581.0598 873.3883,580.4411 873.3883,580.1317 873.7008,579.8223 873.7008,579.513 874.0133,579.2036 874.0133,578.8942 874.6383,578.2755 874.6383,577.9661 875.2633,577.3473 875.2633,576.7286 875.8883,576.1098 875.8883,575.8005 876.5133,575.1817 876.5133,574.8723 877.1383,574.2536 877.1383,573.6348 877.4508,573.3255 877.4508,573.0161 877.7633,572.7067 877.7633,572.3973 878.0758,572.088 878.0758,571.7786 878.3883,571.4692 878.3883,571.1598 879.6383,569.9223 879.6383,569.3036 879.9508,568.9942 879.9508,568.6848 880.5758,568.0661 880.5758,567.4473 881.2008,566.8286 881.2008,566.5192 881.8258,565.9005 881.8258,565.5911 882.1383,565.2817 882.1383,564.9723 882.7633,564.3536 882.7633,563.7348 883.3883,563.1161 883.3883,562.4973 884.0133,561.8786 884.0133,561.5692 884.3258,561.2598 884.3258,560.9505 884.9508,560.3317 884.9508,560.0223 885.2633,559.713 885.2633,559.4036 885.5758,559.0942 885.5758,558.7848 886.2008,558.1661 886.2008,557.8567 886.8258,557.238 886.8258,556.9286 887.1383,556.6192 887.1383,556.3098 887.4508,556.0005 887.4508,555.6911 887.7633,555.3817 887.7633,555.0723 888.0758,554.763 888.0758,554.4536 889.0133,553.5255 889.0133,553.2161 889.3258,552.9067 889.3258,552.5973 889.6383,552.288 889.6383,551.9786 890.2633,551.3598 890.2633,551.0505 890.8883,550.4317 890.8883,550.1223 891.2008,549.813 891.2008,549.5036 891.5133,549.1942 891.5133,548.8848 892.1383,548.2661 892.1383,547.9567 892.4508,547.6473 892.4508,547.0286 893.3883,546.1005 893.3883,545.7911 893.7008,545.4817 893.7008,545.1723 894.0133,544.863 894.0133,544.5536 894.3258,544.2442 894.3258,543.9348 894.6383,543.6255 894.6383,543.3161 895.2633,542.6973 895.2633,542.388 895.8883,541.7692 895.8883,541.4598 896.2008,541.1505 896.2008,540.8411 896.8258,540.2223 896.8258,539.913 897.1383,539.6036 897.1383,539.2942 897.7633,538.6755 897.7633,538.3661 898.0758,538.0567 898.0758,537.7473 898.3883,537.438 898.3883,537.1286 899.0133,536.5098 899.0133,536.2005 899.3258,535.8911 899.3258,535.5817 899.9508,534.963 899.9508,534.6536 900.5758,534.0348 900.5758,533.7255 900.8883,533.4161 900.8883,533.1067 901.5133,532.488 901.5133,532.1786 902.1383,531.5598 902.1383,530.9411 902.7633,530.3223 902.7633,530.013 903.3883,529.3942 903.3883,528.7755 904.3258,527.8473 904.3258,527.538 904.6383,527.2286 904.6383,526.9192 905.2633,526.3005 905.2633,525.9911 905.5758,525.6817 905.5758,525.3723 906.2008,524.7536 906.2008,524.4442 906.8258,523.8255 906.8258,523.5161 907.1383,523.2067 907.1383,522.8973 907.7633,522.2786 907.7633,521.6598 908.3883,521.0411 908.3883,520.7317 908.7008,520.4223 908.7008,520.113 909.3258,519.4942 909.3258,519.1848 909.9508,518.5661 909.9508,518.2567 910.2633,517.9473 910.2633,517.638 910.8883,517.0192 910.8883,516.7098 911.2008,516.4005 911.2008,516.0911 911.8258,515.4723 911.8258,515.163 912.4508,514.5442 912.4508,513.9255 913.0758,513.3067 913.0758,512.9973 913.3883,512.688 913.3883,512.3786 914.0133,511.7598 914.0133,511.4505 914.6383,510.8317 914.6383,510.5223 914.9508,510.213 914.9508,509.9036 915.5758,509.2848 915.5758,508.9755 915.8883,508.6661 915.8883,508.3567 916.5133,507.738 916.5133,507.4286 916.8258,507.1192 916.8258,506.8098 917.4508,506.1911 917.4508,505.8817 917.7633,505.5723 917.7633,505.263 918.3883,504.6442 918.3883,504.3348 918.7008,504.0255 918.7008,503.7161 919.3258,503.0973 919.3258,502.788 919.6383,502.4786 919.6383,502.1692 920.2633,501.5505 920.2633,501.2411 920.8883,500.6223 920.8883,500.313 921.5133,499.6942 921.5133,499.3848 921.8258,499.0755 921.8258,498.7661 922.4508,498.1473 922.4508,497.838 923.0758,497.2192 923.0758,496.9098 923.7008,496.2911 923.7008,495.9817 924.0133,495.6723 924.0133,495.363 924.9508,494.4348 924.9508,494.1255 925.2633,493.8161 925.2633,493.5067 925.5758,493.1973 925.5758,492.888 926.2008,492.2692 926.2008,491.9598 926.8258,491.3411 926.8258,491.0317 927.1383,490.7223 927.1383,490.413 927.7633,489.7942 927.7633,489.4848 928.0758,489.1755 928.0758,488.8661 929.0133,487.938 929.0133,487.6286 929.9508,486.7005 929.9508,486.3911 930.8883,485.463 930.8883,485.1536 931.5133,484.5348 931.5133,484.2255 932.4508,483.2973 932.4508,482.988 933.0758,482.3692 933.0758,482.0598 934.3258,480.8223 934.3258,480.513 934.9508,479.8942 934.9508,479.2755 935.2633,478.9661 935.2633,478.6567 935.5758,478.3473 935.5758,477.1098 934.6383,476.1817 932.7633,476.1817 932.4508,476.4911 932.1383,476.1817 931.5133,476.1817"/>
    <polyline fill="none" stroke="#000000" points="932.4508,476.4911 932.4508,477.1098 932.7633,477.1098 934.9508,479.2755"/>
    <polyline fill="none" stroke="#000000" points="934.6383,480.2036 933.0758,478.6567 933.0758,478.3473 932.4508,477.7286 932.1383,477.7286 932.1383,477.4192 932.4508,477.1098"/>
    <line x1="932.4508" x2="932.7633" y1="476.8005" y2="477.1098"/>
    <line x1="932.4508" x2="932.1383" y1="477.7286" y2="477.4192"/>
    <polyline fill="none" stroke="#000000" points="932.1383,477.7286 931.2008,478.6567 931.2008,478.9661 930.8883,479.2755 930.8883,479.5848 930.5758,479.8942 930.2633,479.8942 929.9508,480.2036 930.5758,480.8223 930.8883,480.8223 931.2008,480.513 930.5758,479.8942"/>
    <polyline fill="none" stroke="#000000" points="929.9508,480.2036 929.6383,480.2036 929.3258,480.513 929.0133,480.513 928.3883,481.1317 928.0758,481.1317 927.7633,481.4411 927.4508,481.4411 926.8258,482.0598 926.5133,482.0598 926.2008,482.3692 925.8883,482.3692 925.2633,482.988 924.9508,482.988 924.3258,483.6067 924.0133,483.6067 923.3883,484.2255 923.0758,484.2255 922.7633,484.5348 922.4508,484.5348 921.8258,485.1536 921.5133,485.1536 920.8883,485.7723 920.5758,485.7723 920.2633,486.0817 919.9508,486.0817 919.3258,486.7005 919.0133,486.7005 918.7008,487.0098 918.3883,487.0098 917.7633,487.6286 917.4508,487.6286 917.1383,487.938 916.8258,487.938 916.2008,488.5567 915.8883,488.5567 915.2633,489.1755 914.9508,489.1755 914.3258,489.7942 914.0133,489.7942 913.3883,490.413 913.0758,490.413 912.7633,490.7223 913.0758,491.0317 913.0758,491.3411 912.7633,491.6505 912.1383,491.0317 911.8258,491.3411 911.5133,491.3411 911.2008,491.6505 910.8883,491.6505 910.2633,492.2692 909.6383,492.2692 908.7008,493.1973 908.3883,493.1973 907.7633,493.8161 907.4508,493.8161 906.8258,494.4348 906.5133,494.4348 905.8883,495.0536 905.5758,495.0536 904.9508,495.6723 904.6383,495.6723 904.0133,496.2911 903.7008,496.2911 903.3883,496.6005 903.0758,496.6005 902.7633,496.9098 902.4508,496.9098 901.8258,497.5286 901.5133,497.5286 901.2008,497.838 900.8883,497.838 900.5758,498.1473 900.2633,498.1473 899.6383,498.7661 899.3258,498.7661 898.7008,499.3848 898.3883,499.3848 898.0758,499.6942 897.7633,499.6942 897.1383,500.313 896.8258,500.313 896.5133,500.6223 896.2008,500.6223 895.8883,500.9317 895.5758,500.9317 894.9508,501.5505 894.6383,501.5505 894.0133,502.1692 893.7008,502.1692 893.0758,502.788 893.0758,503.0973 892.4508,503.7161 892.1383,503.7161 891.8258,503.4067 891.5133,503.7161 891.2008,503.7161 889.6383,505.263 889.3258,505.263 889.0133,504.9536 888.3883,505.5723 888.0758,505.5723 887.4508,506.1911 887.1383,506.1911 886.8258,506.5005 886.5133,506.5005 886.2008,506.8098 885.8883,506.8098 885.5758,507.1192 885.5758,507.4286 884.9508,508.0473 884.6383,508.0473 884.3258,507.738 884.0133,508.0473 884.0133,508.3567 883.3883,508.9755 883.0758,508.9755 882.7633,508.6661 881.8258,509.5942 881.5133,509.5942 881.2008,509.9036 880.8883,509.9036 880.5758,510.213 880.5758,510.5223 879.9508,511.1411 879.6383,511.1411 879.3258,510.8317 878.7008,511.4505 878.3883,511.4505 877.7633,512.0692 877.4508,512.0692 877.1383,512.3786 876.8258,512.0692 876.5133,512.0692 875.5758,512.9973 875.2633,512.9973 874.9508,513.3067 875.2633,513.6161 875.2633,513.9255 874.9508,514.2348 874.6383,514.2348 874.0133,514.8536 873.7008,514.8536 873.3883,514.5442 873.0758,514.8536 873.0758,515.163 872.4508,515.7817 872.1383,515.7817 871.8258,515.4723 871.5133,515.7817 871.2008,515.7817 870.5758,516.4005 870.2633,516.4005 869.6383,517.0192 869.3258,517.3286 869.3258,517.638 869.0133,517.9473 868.7008,517.9473 868.3883,517.638 868.0758,517.9473 867.7633,517.9473 867.4508,518.2567 867.1383,518.2567 866.2008,519.1848 865.8883,519.1848 865.5758,519.4942 865.2633,519.4942 864.6383,520.113 864.3258,520.113 863.7008,520.7317 863.3883,520.7317 863.0758,521.0411 862.7633,521.0411 862.1383,521.6598 861.8258,521.6598 861.2008,522.2786 860.8883,522.2786 860.5758,522.588 860.2633,522.588 859.9508,522.8973 859.6383,522.8973 859.0133,523.5161 858.7008,523.5161 858.0758,524.1348 857.7633,524.1348 857.1383,524.7536 856.5133,524.7536 855.5758,525.6817 855.2633,525.6817 854.6383,526.3005 854.3258,526.3005 854.0133,526.6098 853.7008,526.6098 853.0758,527.2286 852.7633,527.2286 852.4508,527.538 852.1383,527.538 851.5133,528.1567 851.2008,528.1567 850.8883,528.4661 850.5758,528.4661 849.9508,529.0848 849.6383,529.0848 849.0133,529.7036 848.7008,529.7036 848.3883,530.013 848.0758,530.013 847.4508,530.6317 847.1383,530.6317 846.8258,530.9411 846.5133,530.9411 845.8883,531.5598 845.8883,531.8692 845.5758,532.1786 845.2633,532.1786 844.9508,531.8692 844.3258,532.488 844.0133,532.488 843.3883,533.1067 843.0758,533.1067 842.7633,533.4161 842.7633,533.7255 842.4508,534.0348 842.1383,534.0348 841.8258,533.7255 840.8883,534.6536 840.5758,534.6536 840.2633,534.963 839.9508,534.963 839.3258,535.5817 839.0133,535.5817 838.7008,535.8911 838.3883,535.8911 837.7633,536.5098 837.4508,536.5098 837.1383,536.8192 836.8258,536.8192 835.2633,538.3661 834.9508,538.3661 834.3258,538.9848 834.0133,538.9848 833.7008,538.6755 833.3883,538.9848 833.3883,539.2942 832.7633,539.913 832.4508,539.913 832.1383,539.6036 831.5133,540.2223 831.2008,540.2223 830.5758,540.8411 830.2633,540.8411 829.9508,541.1505 829.6383,541.1505 829.0133,541.7692 828.7008,541.4598 828.3883,541.4598 827.7633,542.0786 827.7633,542.388 827.4508,542.6973 827.1383,542.6973 826.5133,543.3161 826.2008,543.3161 825.5758,543.9348 825.5758,544.863 825.2633,545.1723 824.9508,545.1723 824.3258,544.5536 824.0133,544.863 823.7008,544.863 822.7633,545.7911 823.3883,546.4098 823.7008,546.1005 824.0133,546.1005 824.3258,545.7911 824.0133,545.4817 823.7008,545.7911 823.7008,546.1005"/>
    <polyline fill="none" stroke="#000000" points="824.0133,546.1005 823.7008,545.7911 823.7008,545.4817 823.3883,545.1723"/>
    <line x1="823.7008" x2="824.0133" y1="545.4817" y2="545.4817"/>
    <polyline fill="none" stroke="#000000" points="824.3258,544.5536 824.6383,544.2442 824.9508,544.2442 825.2633,543.9348"/>
    <polyline fill="none" stroke="#000000" points="825.5758,543.9348 825.2633,543.9348 825.5758,544.2442"/>
    <line x1="827.7633" x2="828.0758" y1="542.388" y2="542.388"/>
    <polyline fill="none" stroke="#000000" points="827.7633,542.0786 828.0758,542.388 828.3883,542.388 829.0133,541.7692"/>
    <polyline fill="none" stroke="#000000" points="832.1383,539.6036 832.1383,539.2942 832.4508,538.9848 833.0758,538.9848 833.3883,539.2942"/>
    <line x1="833.3883" x2="833.0758" y1="538.9848" y2="538.9848"/>
    <polyline fill="none" stroke="#000000" points="833.7008,538.6755 833.7008,538.3661 834.0133,538.0567 834.6383,538.0567 835.2633,537.438 835.5758,537.438 835.8883,537.7473"/>
    <line x1="834.9508" x2="834.6383" y1="538.3661" y2="538.0567"/>
    <polyline fill="none" stroke="#000000" points="822.7633,545.7911 822.4508,545.7911 822.1383,546.1005 822.4508,546.4098 822.1383,546.7192 822.1383,547.0286 821.8258,547.338 821.5133,547.0286 821.2008,547.338 821.2008,547.6473 820.8883,547.9567 820.5758,547.6473 820.5758,547.9567 819.9508,548.5755 819.3258,547.9567 819.3258,547.6473 819.0133,547.9567 819.3258,547.9567"/>
    <polyline fill="none" stroke="#000000" points="819.3258,547.6473 819.6383,547.338 819.9508,547.338"/>
    <polyline fill="none" stroke="#000000" points="820.2633,547.338 819.9508,547.338 820.2633,547.0286"/>
    <polyline fill="none" stroke="#000000" points="820.5758,547.6473 820.2633,547.338 820.2633,547.0286 820.5758,546.7192 820.8883,546.7192 821.5133,546.1005 822.1383,546.1005"/>
    <line x1="821.5133" x2="821.2008" y1="547.0286" y2="547.0286"/>
    <polyline fill="none" stroke="#000000" points="821.2008,547.338 821.2008,547.0286 820.8883,546.7192"/>
    <line x1="820.8883" x2="820.5758" y1="547.9567" y2="547.9567"/>
    <polyline fill="none" stroke="#000000" points="819.0133,547.9567 818.7008,548.2661 818.0758,548.2661 816.2008,550.1223 815.8883,550.1223 815.5758,550.4317 815.2633,550.4317 814.0133,551.6692 814.0133,552.9067 814.3258,553.2161 813.7008,553.8348 813.7008,554.4536 813.3883,554.763 813.3883,555.0723 813.0758,555.3817 813.0758,556.0005 812.1383,556.9286"/>
    <line x1="812.1383" x2="812.4508" y1="556.6192" y2="556.6192"/>
    <polyline fill="none" stroke="#000000" points="812.7633,556.3098 813.0758,556.6192 813.0758,556.9286 812.7633,557.238"/>
    <line x1="812.7633" x2="812.4508" y1="557.5473" y2="557.238"/>
    <line x1="814.6383" x2="814.9508" y1="559.0942" y2="559.0942"/>
    <polyline fill="none" stroke="#000000" points="814.9508,559.4036 814.9508,559.0942 815.2633,558.7848 815.2633,558.4755 815.5758,558.1661 814.9508,557.5473 814.9508,556.6192 815.5758,556.0005 815.2633,555.6911 815.2633,553.5255 815.5758,553.2161 815.5758,551.6692 814.9508,551.0505 814.9508,550.7411"/>
    <line x1="814.9508" x2="814.6383" y1="551.0505" y2="551.0505"/>
    <line x1="816.2008" x2="816.5133" y1="550.1223" y2="550.1223"/>
    <polyline fill="none" stroke="#000000" points="816.5133,549.813 816.5133,550.1223 817.1383,550.7411 817.1383,555.0723 818.0758,556.0005 818.0758,556.3098 818.3883,556.6192 818.3883,557.238 818.7008,557.5473 818.7008,558.7848 819.0133,559.0942 819.0133,559.713 819.3258,560.0223 819.3258,560.3317 819.6383,560.6411 819.6383,561.5692 819.9508,561.8786 819.9508,562.8067 820.2633,563.1161 820.2633,564.0442 820.5758,564.3536 820.5758,565.2817 820.8883,565.5911 820.8883,566.8286 820.5758,567.138 820.5758,567.7567 820.8883,568.0661 821.2008,567.7567 821.8258,568.3755 821.8258,568.9942 822.1383,569.3036 822.1383,570.2317 822.4508,570.5411 822.4508,570.8505 822.7633,571.1598 822.7633,572.088 823.0758,572.3973 823.0758,573.0161 823.3883,573.3255 823.3883,574.563 823.7008,574.8723 823.7008,575.1817 824.0133,575.4911 824.0133,576.1098 824.3258,576.4192 824.3258,576.7286 824.6383,577.038 824.6383,578.2755 824.9508,578.5848 824.9508,579.2036 825.2633,579.513 825.2633,580.1317 825.5758,580.4411 825.5758,581.0598 825.8883,581.3692 825.8883,582.6067 826.2008,582.9161 826.2008,583.2255 826.5133,583.5348 826.5133,584.1536 826.8258,584.463 826.8258,585.3911 827.1383,585.7005 827.1383,586.3192 827.4508,586.6286 827.4508,587.2473 827.7633,587.5567 827.7633,588.1755 828.0758,588.4848 828.0758,589.413 827.4508,590.0317"/>
    <line x1="827.4508" x2="827.7633" y1="589.7223" y2="589.7223"/>
    <polyline fill="none" stroke="#000000" points="828.0758,589.413 828.3883,589.7223 828.3883,590.3411 828.0758,590.6505"/>
    <polyline fill="none" stroke="#000000" points="828.3883,590.3411 828.7008,590.6505 828.7008,591.2692 828.0758,591.888"/>
    <line x1="828.0758" x2="828.3883" y1="591.5786" y2="591.5786"/>
    <polyline fill="none" stroke="#000000" points="828.7008,591.2692 829.0133,591.5786 829.0133,592.1973 829.3258,592.5067 829.3258,593.1255 829.0133,593.4348"/>
    <line x1="828.3883" x2="828.3883" y1="592.8161" y2="592.5067"/>
    <line x1="828.7008" x2="829.0133" y1="592.5067" y2="592.1973"/>
    <polyline fill="none" stroke="#000000" points="830.5758,597.7661 831.2008,597.7661 831.5133,598.0755 831.5133,598.6942 831.8258,599.0036 831.8258,599.6223 831.5133,599.9317"/>
    <line x1="831.2008" x2="831.5133" y1="599.0036" y2="598.6942"/>
    <line x1="830.8883" x2="830.5758" y1="597.7661" y2="598.0755"/>
    <polyline fill="none" stroke="#000000" points="821.5133,574.563 821.8258,574.2536 821.8258,573.9442 821.5133,573.6348"/>
    <polyline fill="none" stroke="#000000" points="821.2008,573.9442 821.5133,573.6348 821.5133,573.3255 821.2008,573.0161 820.8883,573.0161"/>
    <line x1="818.7008" x2="818.7008" y1="568.6848" y2="568.3755"/>
    <line x1="818.3883" x2="818.3883" y1="567.7567" y2="567.4473"/>
    <polyline fill="none" stroke="#000000" points="818.7008,567.4473 819.0133,567.138 819.0133,566.5192 818.7008,566.2098"/>
    <line x1="818.3883" x2="818.0758" y1="566.5192" y2="566.5192"/>
    <polyline fill="none" stroke="#000000" points="818.0758,566.8286 818.7008,566.2098 818.7008,565.9005 818.3883,565.5911 818.3883,564.9723 818.0758,564.663 818.3883,564.3536 818.3883,564.0442 818.0758,563.7348"/>
    <polyline fill="none" stroke="#000000" points="817.4508,564.3536 818.0758,563.7348 818.0758,562.8067 817.7633,562.4973 817.7633,561.8786 817.4508,561.5692"/>
    <polyline fill="none" stroke="#000000" points="816.5133,562.8067 817.1383,562.188 817.1383,561.8786 817.4508,561.5692 817.1383,561.2598 817.1383,560.6411 816.5133,560.0223"/>
    <polyline fill="none" stroke="#000000" points="815.8883,560.3317 816.2008,560.3317 816.5133,560.0223 816.5133,558.4755 816.2008,558.1661 816.5133,557.8567 816.5133,556.3098 817.4508,555.3817"/>
    <polyline fill="none" stroke="#000000" points="816.5133,556.3098 815.8883,556.3098 815.5758,556.0005"/>
    <line x1="816.2008" x2="816.5133" y1="556.3098" y2="556.6192"/>
    <polyline fill="none" stroke="#000000" points="817.7633,557.5473 817.7633,558.4755 818.0758,558.7848 818.0758,560.0223 818.3883,560.3317 818.3883,560.9505 818.7008,561.2598 818.7008,561.8786 819.0133,562.188 819.0133,563.1161 819.3258,563.4255 819.3258,564.3536"/>
    <line x1="818.0758" x2="817.7633" y1="564.663" y2="564.663"/>
    <line x1="818.3883" x2="817.7633" y1="565.5911" y2="566.2098"/>
    <line x1="817.7633" x2="818.0758" y1="565.9005" y2="565.9005"/>
    <polyline fill="none" stroke="#000000" points="820.8883,566.8286 821.2008,567.138 821.2008,567.7567"/>
    <line x1="816.2008" x2="815.5758" y1="558.1661" y2="558.1661"/>
    <line x1="815.2633" x2="814.9508" y1="553.8348" y2="553.5255"/>
    <polyline fill="none" stroke="#000000" points="815.2633,553.5255 814.6383,553.5255 814.3258,553.2161"/>
    <polyline fill="none" stroke="#000000" points="804.3258,532.488 803.7008,531.8692 804.0133,531.5598 804.3258,531.5598"/>
    <polyline fill="none" stroke="#000000" points="804.6383,531.8692 804.3258,531.5598 804.6383,531.2505 804.9508,531.5598"/>
    <line x1="804.0133" x2="804.0133" y1="532.1786" y2="532.488"/>
    <polyline fill="none" stroke="#000000" points="803.7008,531.8692 803.3883,531.8692 803.0758,532.1786 803.0758,532.488 802.7633,532.1786 803.0758,532.1786"/>
    <polyline fill="none" stroke="#000000" points="802.7633,532.1786 802.4508,532.1786 802.1383,532.488 801.8258,532.488 801.5133,532.7973 802.1383,533.4161 801.8258,533.4161 801.5133,533.7255 801.2008,533.7255 800.8883,534.0348 800.5758,533.7255 800.2633,534.0348 800.2633,534.3442 799.9508,534.6536 799.3258,534.6536 799.0133,534.963 798.3883,534.963 797.7633,535.5817 797.4508,535.2723 797.4508,535.5817 797.1383,535.8911 796.8258,535.5817 796.8258,535.8911 797.1383,535.8911"/>
    <polyline fill="none" stroke="#000000" points="796.8258,535.8911 796.2008,536.5098 795.8883,536.5098"/>
    <polyline fill="none" stroke="#000000" points="795.5758,535.8911 795.2633,535.5817 795.5758,535.5817"/>
    <polyline fill="none" stroke="#000000" points="795.2633,535.5817 794.9508,535.8911 794.6383,535.8911 794.3258,536.2005 794.0133,536.2005 793.7008,536.5098 793.3883,536.5098 793.0758,536.8192 792.4508,536.8192 792.1383,537.1286 791.8258,537.1286 791.5133,537.438 791.2008,537.438 790.8883,537.7473 790.5758,537.7473 790.2633,538.0567 789.6383,538.0567 789.3258,538.3661 789.0133,538.3661 788.7008,538.6755 788.3883,538.6755 788.0758,538.9848 787.7633,538.9848 787.4508,539.2942 787.1383,539.2942 786.8258,539.6036 786.2008,539.6036 785.5758,540.2223 785.2633,540.2223 784.9508,540.5317 784.6383,540.5317 784.3258,540.8411 783.7008,540.8411 783.0758,541.4598 782.4508,541.4598 782.1383,541.7692 781.5133,541.7692 780.8883,542.388 780.5758,542.388 780.2633,542.6973 779.6383,542.6973 779.0133,543.3161 779.3258,543.3161 779.6383,543.6255 780.8883,544.863 780.8883,545.1723"/>
    <line x1="780.8883" x2="781.2008" y1="544.863" y2="544.863"/>
    <polyline fill="none" stroke="#000000" points="780.5758,545.4817 780.2633,545.7911 779.3258,545.7911 778.3883,544.863 778.3883,544.5536 777.7633,543.9348"/>
    <polyline fill="none" stroke="#000000" points="779.0133,543.3161 778.3883,543.3161 776.5133,545.1723 776.2008,545.1723 775.8883,545.4817 774.9508,545.4817 774.3258,546.1005 774.3258,546.7192 773.0758,547.9567 773.0758,548.2661 773.3883,548.5755 774.0133,548.5755 774.3258,548.2661 774.6383,548.2661 774.9508,548.5755 775.5758,548.5755 776.2008,549.1942 776.8258,549.1942 777.4508,549.813 777.4508,550.4317 777.7633,550.4317 778.0758,550.7411 778.0758,551.0505 779.0133,551.9786 779.0133,552.288 778.7008,552.5973 778.7008,552.9067 779.0133,553.2161 779.0133,553.8348 779.3258,554.1442 779.3258,556.3098 779.6383,556.6192 779.6383,557.5473 779.9508,557.8567 780.2633,557.8567"/>
    <polyline fill="none" stroke="#000000" points="782.1383,558.1661 782.1383,559.713 781.8258,560.0223 781.5133,559.713 780.8883,559.713"/>
    <polyline fill="none" stroke="#000000" points="780.8883,560.9505 781.5133,560.9505 781.8258,561.2598 781.8258,561.8786 781.2008,562.4973"/>
    <line x1="780.8883" x2="781.2008" y1="561.2598" y2="560.9505"/>
    <polyline fill="none" stroke="#000000" points="776.8258,561.5692 777.1383,561.2598 777.1383,560.6411 776.8258,560.3317 777.1383,560.0223 777.1383,559.4036 776.5133,558.7848"/>
    <line x1="776.5133" x2="776.5133" y1="558.1661" y2="557.8567"/>
    <polyline fill="none" stroke="#000000" points="776.8258,557.8567 777.1383,557.5473 777.1383,556.6192 776.8258,556.3098 777.1383,556.0005 777.1383,555.6911 776.8258,555.3817"/>
    <line x1="776.8258" x2="776.5133" y1="556.3098" y2="556.3098"/>
    <line x1="776.5133" x2="776.8258" y1="560.3317" y2="560.3317"/>
    <polyline fill="none" stroke="#000000" points="776.5133,561.5692 776.5133,562.188 776.8258,562.188"/>
    <polyline fill="none" stroke="#000000" points="776.5133,562.188 776.2008,562.4973 776.2008,563.1161 776.5133,563.4255 776.2008,563.7348 776.5133,564.0442 776.5133,565.2817 776.8258,565.5911"/>
    <line x1="776.8258" x2="776.5133" y1="563.4255" y2="563.4255"/>
    <polyline fill="none" stroke="#000000" points="781.2008,569.9223 781.2008,570.2317 781.5133,570.2317"/>
    <polyline fill="none" stroke="#000000" points="781.2008,570.2317 780.2633,571.1598 779.9508,571.1598 779.6383,571.4692 779.3258,571.4692 778.7008,572.088 778.3883,572.088 778.0758,572.3973 777.7633,572.3973"/>
    <line x1="777.7633" x2="778.0758" y1="572.088" y2="572.3973"/>
    <polyline fill="none" stroke="#000000" points="782.4508,556.6192 782.4508,554.763 782.1383,554.4536 782.1383,553.8348 782.4508,553.5255 782.4508,551.9786 782.1383,551.6692 782.4508,551.3598 782.4508,549.5036 782.1383,549.1942 782.1383,548.5755 781.2008,547.6473"/>
    <polyline fill="none" stroke="#000000" points="780.5758,549.5036 780.2633,549.813 780.5758,549.813"/>
    <line x1="779.3258" x2="779.3258" y1="543.3161" y2="543.0067"/>
    <polyline fill="none" stroke="#000000" points="774.9508,545.4817 774.0133,544.5536 773.7008,544.5536"/>
    <polyline fill="none" stroke="#000000" points="770.8883,550.1223 770.5758,549.813 770.2633,550.1223 769.6383,550.1223 769.3258,550.4317 769.0133,550.4317 768.7008,550.7411 768.3883,550.7411 768.0758,551.0505 767.7633,551.0505 767.4508,551.3598 767.1383,551.3598 766.8258,551.6692 766.5133,551.6692 766.2008,551.9786"/>
    <line x1="770.2633" x2="770.5758" y1="550.1223" y2="550.4317"/>
    <polyline fill="none" stroke="#000000" points="758.3883,546.1005 756.5133,546.1005 756.2008,546.4098 752.4508,546.4098 752.1383,546.7192 750.8883,546.7192 750.5758,546.4098 750.2633,546.7192 747.4508,546.7192 747.1383,547.0286 746.8258,547.0286 746.5133,546.7192 746.2008,546.7192 745.8883,547.0286 745.5758,546.7192 745.2633,546.7192 744.9508,547.0286 741.2008,547.0286"/>
    <line x1="715.2633" x2="714.9508" y1="575.8005" y2="575.8005"/>
    <polyline fill="none" stroke="#000000" points="714.0133,575.4911 713.3883,574.8723 712.7633,574.8723 712.4508,574.563 711.8258,574.563"/>
    <polyline fill="none" stroke="#000000" points="711.5133,574.563 711.8258,574.563 711.5133,574.8723"/>
    <polyline fill="none" stroke="#000000" points="711.2008,575.1817 711.5133,574.8723 711.5133,574.563 710.5758,573.6348 709.9508,573.6348 709.6383,573.3255 708.0758,573.3255 707.7633,573.0161"/>
    <line x1="707.7633" x2="708.0758" y1="573.3255" y2="573.3255"/>
    <polyline fill="none" stroke="#000000" points="707.4508,573.6348 707.7633,573.3255 707.7633,573.0161 707.1383,572.3973 706.2008,572.3973"/>
    <line x1="705.5758" x2="705.2633" y1="571.7786" y2="572.088"/>
    <polyline fill="none" stroke="#000000" points="705.2633,571.7786 705.2633,572.088 704.6383,572.7067 704.6383,573.3255"/>
    <line x1="704.6383" x2="704.3258" y1="573.0161" y2="573.3255"/>
    <polyline fill="none" stroke="#000000" points="703.3883,572.7067 703.3883,572.3973 704.3258,571.4692"/>
    <polyline fill="none" stroke="#000000" points="703.0758,571.1598 702.4508,571.7786 702.4508,572.088 702.1383,572.3973"/>
    <line x1="703.0758" x2="703.3883" y1="572.7067" y2="572.3973"/>
    <polyline fill="none" stroke="#000000" points="705.5758,573.3255 705.5758,573.0161 706.2008,572.3973 705.5758,571.7786 705.2633,571.7786 704.9508,571.4692 704.3258,571.4692 704.0133,571.1598 703.0758,571.1598 702.4508,570.5411 700.8883,570.5411"/>
    <polyline fill="none" stroke="#000000" points="700.5758,570.5411 700.8883,570.5411 700.5758,570.8505"/>
    <line x1="697.7633" x2="697.4508" y1="569.3036" y2="568.9942"/>
    <polyline fill="none" stroke="#000000" points="697.4508,569.3036 697.4508,568.9942 697.1383,568.6848 696.2008,568.6848 695.2633,567.7567 693.7008,567.7567 693.3883,567.4473 693.0758,567.4473 692.7633,567.7567"/>
    <line x1="695.2633" x2="695.5758" y1="568.9942" y2="568.6848"/>
    <polyline fill="none" stroke="#000000" points="695.5758,568.9942 695.5758,568.6848 695.8883,568.3755"/>
    <line x1="709.0133" x2="709.3258" y1="575.1817" y2="574.8723"/>
    <polyline fill="none" stroke="#000000" points="709.3258,575.1817 709.3258,574.2536 709.9508,573.6348"/>
    <polyline fill="none" stroke="#000000" points="697.4508,549.813 697.1383,549.5036 696.5133,549.5036 696.2008,549.813 695.8883,549.5036 695.2633,549.5036 694.9508,549.813"/>
    <polyline fill="none" stroke="#000000" points="694.9508,550.1223 694.6383,550.4317 691.5133,550.4317 691.2008,550.7411 690.8883,550.4317 690.2633,550.4317 689.9508,550.7411 680.5758,550.7411 680.2633,551.0505 678.7008,551.0505 678.3883,550.7411 675.8883,550.7411 675.5758,551.0505 675.2633,550.7411 674.9508,550.7411 674.6383,551.0505 674.3258,550.7411 674.0133,551.0505 673.3883,551.0505 673.0758,550.7411 672.4508,550.7411 672.1383,551.0505 663.7008,551.0505 663.3883,551.3598 663.0758,551.0505 662.7633,551.3598 662.1383,551.3598 661.8258,551.0505 661.5133,551.0505 661.2008,551.3598 660.8883,551.3598 660.5758,551.0505 659.3258,551.0505 659.0133,551.3598 656.8258,551.3598 656.5133,551.6692 656.2008,551.6692 655.5758,552.288 655.5758,552.9067"/>
    <line x1="655.5758" x2="655.2633" y1="552.5973" y2="552.9067"/>
    <line x1="656.5133" x2="656.8258" y1="553.5255" y2="553.2161"/>
    <polyline fill="none" stroke="#000000" points="656.8258,553.5255 656.8258,551.9786 656.5133,551.6692"/>
    <polyline fill="none" stroke="#000000" points="784.9508,543.0067 785.2633,542.6973 785.2633,542.388 785.5758,542.0786 785.8883,542.0786"/>
    <polyline fill="none" stroke="#000000" points="786.5133,541.7692 787.1383,542.388 787.1383,542.6973"/>
    <line x1="787.1383" x2="787.4508" y1="542.388" y2="542.6973"/>
    <polyline fill="none" stroke="#000000" points="787.7633,543.0067 787.4508,542.6973 787.1383,542.6973 786.8258,543.0067 785.8883,542.0786 786.2008,541.7692 786.5133,541.7692 787.1383,541.1505 787.4508,541.1505 787.7633,540.8411 788.0758,540.8411 788.3883,540.5317 788.7008,540.5317 789.0133,540.2223 789.3258,540.2223 789.9508,539.6036 790.2633,539.6036"/>
    <line x1="790.5758" x2="790.8883" y1="539.2942" y2="539.2942"/>
    <polyline fill="none" stroke="#000000" points="790.8883,539.6036 790.5758,539.913 790.2633,539.6036 790.5758,539.2942 790.8883,539.6036 790.8883,539.2942 791.2008,538.9848 791.5133,538.9848 791.8258,538.6755 792.1383,538.6755 792.4508,538.3661 792.7633,538.3661 793.0758,538.0567 793.3883,538.0567 793.7008,537.7473 794.0133,537.7473 794.6383,537.1286 795.2633,537.1286 795.8883,536.5098 795.5758,536.2005 795.5758,535.5817 795.8883,535.2723 796.2008,535.2723 796.5133,534.963 796.8258,535.2723"/>
    <polyline fill="none" stroke="#000000" points="796.8258,535.5817 796.8258,535.2723 797.7633,534.3442 798.0758,534.6536"/>
    <polyline fill="none" stroke="#000000" points="798.3883,534.963 798.0758,534.6536 798.7008,534.0348 799.0133,534.0348 799.6383,534.6536"/>
    <polyline fill="none" stroke="#000000" points="799.3258,534.6536 799.3258,534.0348 799.6383,533.7255 799.9508,533.7255 800.2633,533.4161"/>
    <polyline fill="none" stroke="#000000" points="800.5758,533.4161 800.2633,533.4161 800.5758,533.7255 800.5758,533.4161 801.2008,532.7973 801.5133,532.7973"/>
    <line x1="801.8258" x2="801.8258" y1="533.1067" y2="533.4161"/>
    <polyline fill="none" stroke="#000000" points="802.1383,533.4161 802.4508,533.1067 802.4508,532.7973 802.1383,532.488"/>
    <polyline fill="none" stroke="#000000" points="802.4508,532.7973 802.7633,533.1067 803.0758,532.7973"/>
    <polyline fill="none" stroke="#000000" points="803.3883,532.7973 803.0758,532.7973 803.0758,532.488 803.3883,532.7973 803.7008,532.7973 804.0133,532.488 804.3258,532.488 804.6383,532.1786 804.6383,531.8692 804.9508,531.5598 805.2633,531.5598 805.5758,531.2505 805.8883,531.2505 806.2008,530.9411 806.5133,530.9411 806.8258,530.6317 807.1383,530.6317 807.4508,530.3223 808.0758,530.3223 808.3883,530.013 808.7008,530.013 809.0133,529.7036 809.3258,529.7036 809.6383,529.3942 809.9508,529.3942 810.2633,529.0848 810.5758,529.0848 810.8883,528.7755 811.2008,528.7755 811.5133,528.4661 811.8258,528.4661 812.1383,528.1567 812.4508,528.1567 812.7633,527.8473 813.0758,527.8473 813.3883,527.538 814.0133,527.538 814.3258,527.2286 814.6383,527.2286 814.9508,526.9192 815.2633,526.9192 815.5758,526.6098 816.2008,526.6098 816.5133,526.3005 816.8258,526.3005 817.1383,525.9911 817.4508,525.9911 817.7633,525.6817 818.0758,525.6817 818.3883,525.3723 818.7008,525.3723 819.0133,525.063 819.6383,525.063 820.2633,524.4442 820.5758,524.4442 820.8883,524.1348 821.2008,524.1348 821.5133,523.8255 821.8258,523.8255 822.1383,523.5161 822.4508,523.5161 822.7633,523.2067 823.0758,523.2067 823.3883,522.8973 823.7008,522.8973 824.0133,522.588 824.3258,522.588 824.6383,522.2786 824.9508,522.2786 825.2633,521.9692 825.5758,521.9692 825.8883,521.6598 826.2008,521.6598 826.5133,521.3505 826.8258,521.3505 827.1383,521.0411 827.4508,521.0411 827.7633,520.7317 828.3883,520.7317 829.0133,520.113 829.3258,520.113 829.6383,519.8036 830.2633,519.8036 830.5758,519.4942 830.8883,519.4942 831.2008,519.1848 831.5133,519.1848 831.8258,518.8755 832.1383,518.8755 832.4508,518.5661 832.7633,518.5661 833.0758,518.2567 833.3883,518.2567 833.7008,517.9473 834.0133,517.9473 834.3258,517.638 834.6383,517.638 834.9508,517.3286 835.2633,517.3286 835.5758,517.0192 836.2008,517.0192 836.5133,516.7098 836.8258,516.7098 837.1383,516.4005 837.4508,516.4005 837.7633,516.0911 838.0758,516.0911 838.3883,515.7817 839.0133,515.7817 839.3258,515.4723 839.6383,515.4723 839.9508,515.163 840.2633,515.163 840.5758,514.8536 840.8883,514.8536 841.2008,514.5442 841.5133,514.5442 841.8258,514.2348 842.4508,514.2348 843.0758,513.6161 843.7008,513.6161 844.0133,513.3067 844.3258,513.3067 844.6383,512.9973 844.9508,512.9973 845.2633,512.688 845.5758,512.688 845.8883,512.3786 846.2008,512.3786 846.5133,512.0692 847.1383,512.0692 847.4508,511.7598 847.7633,511.7598 848.0758,511.4505 848.3883,511.4505 848.7008,511.1411 849.3258,511.1411 849.9508,510.5223 850.5758,510.5223 851.2008,509.9036 851.8258,509.9036 852.4508,509.2848 852.7633,509.5942 853.0758,509.5942 853.7008,508.9755 854.3258,508.9755 854.6383,508.6661 854.6383,508.3567 854.9508,508.6661 855.2633,508.3567 855.5758,508.3567 856.5133,507.4286 856.8258,507.738 857.4508,507.1192 857.7633,507.4286 858.3883,506.8098 858.7008,506.8098 859.3258,506.1911 859.6383,506.1911 859.9508,505.8817 860.2633,505.8817 860.5758,505.5723 861.2008,505.5723 861.8258,504.9536 862.1383,504.9536 862.4508,504.6442 863.3883,504.6442 863.7008,504.3348 864.3258,504.3348 864.6383,504.0255 864.9508,504.0255 865.2633,503.7161 865.5758,503.7161 865.8883,503.4067 866.2008,503.4067 866.8258,502.788 867.4508,502.788 868.0758,502.1692 868.3883,502.1692 868.7008,501.8598 869.3258,501.8598 869.6383,501.5505 869.9508,501.5505 870.2633,501.2411 870.8883,501.2411 871.5133,500.6223 872.1383,500.6223 872.4508,500.313 872.7633,500.313 873.0758,500.0036 873.7008,500.0036 874.0133,499.6942 874.3258,499.6942 874.6383,499.3848 874.9508,499.3848 875.2633,499.0755 875.5758,499.0755"/>
    <line x1="876.2008" x2="876.5133" y1="498.7661" y2="498.7661"/>
    <polyline fill="none" stroke="#000000" points="876.5133,499.0755 876.2008,498.7661 875.8883,498.7661 875.5758,499.0755 876.2008,499.6942 875.5758,500.313 875.2633,500.313 874.9508,500.6223 874.3258,500.6223 874.0133,500.9317 873.7008,500.9317 873.3883,501.2411 872.7633,501.2411 872.1383,501.8598"/>
    <polyline fill="none" stroke="#000000" points="876.2008,499.6942 876.5133,500.0036 876.8258,499.6942"/>
    <polyline fill="none" stroke="#000000" points="876.8258,499.3848 876.5133,499.0755 876.5133,498.7661 876.8258,498.4567 877.1383,498.4567 877.4508,498.1473 877.7633,498.1473 878.0758,497.838 878.3883,497.838 878.7008,497.5286 879.3258,497.5286 879.6383,497.2192 879.9508,497.2192 880.2633,496.9098 880.5758,496.9098 880.8883,496.6005 881.2008,496.6005 881.5133,496.2911 881.8258,496.2911 882.1383,495.9817 882.7633,495.9817 883.0758,495.6723 883.3883,495.6723 883.7008,495.363 884.0133,495.363 884.3258,495.0536 884.9508,495.0536 885.2633,494.7442 885.5758,494.7442 885.8883,494.4348 886.2008,494.4348 886.5133,494.1255 886.8258,494.1255"/>
    <polyline fill="none" stroke="#000000" points="887.4508,494.7442 886.8258,494.1255 887.1383,493.8161 887.4508,493.8161 887.7633,493.5067 888.3883,493.5067 888.7008,493.1973 889.3258,493.1973 889.6383,492.888 889.9508,492.888 890.2633,492.5786 890.5758,492.888 891.2008,492.2692 891.5133,492.2692 891.8258,492.5786"/>
    <line x1="891.2008" x2="890.8883" y1="493.5067" y2="493.5067"/>
    <line x1="890.8883" x2="890.5758" y1="493.1973" y2="492.888"/>
    <polyline fill="none" stroke="#000000" points="877.1383,499.6942 876.8258,499.3848 876.8258,499.6942 877.1383,499.6942 877.4508,499.3848 877.7633,499.3848 878.0758,499.0755 878.3883,499.0755 878.7008,498.7661 879.3258,498.7661 879.6383,498.4567 879.9508,498.4567 880.2633,498.1473 880.5758,498.1473 880.8883,497.838 881.2008,497.838 881.5133,497.5286 882.1383,497.5286 882.4508,497.2192 882.7633,497.2192 883.0758,496.9098 883.3883,496.9098 883.7008,496.6005 884.3258,496.6005 884.6383,496.2911 884.9508,496.2911 885.2633,495.9817 885.5758,495.9817 885.8883,495.6723 886.2008,495.6723 886.5133,495.363 886.8258,495.363 887.4508,494.7442 887.7633,495.0536 888.0758,494.7442 888.3883,494.7442 888.7008,494.4348 889.3258,494.4348 889.6383,494.1255 889.9508,494.1255 890.2633,493.8161 890.5758,493.8161 890.8883,493.5067 890.8883,493.1973 891.2008,493.5067 891.5133,493.1973 891.5133,492.888 892.1383,492.2692 892.4508,492.2692 892.7633,491.9598 893.3883,491.9598 893.7008,491.6505 894.0133,491.6505 894.3258,491.3411 894.6383,491.3411 894.9508,491.0317 895.5758,491.0317 895.8883,490.7223 896.2008,490.7223 896.5133,490.413 896.8258,490.413 897.1383,490.1036 897.4508,490.1036 897.7633,489.7942 898.0758,489.7942 898.3883,489.4848 899.0133,489.4848 899.6383,488.8661 900.2633,488.8661 900.5758,488.5567 901.2008,488.5567 901.5133,488.2473 901.8258,488.2473 902.1383,487.938 902.4508,487.938 902.7633,487.6286 903.0758,487.6286 903.3883,487.3192 904.0133,487.3192 904.3258,487.0098 904.6383,487.0098 904.9508,486.7005 905.2633,486.7005 905.5758,486.3911 905.8883,486.3911 906.2008,486.0817 906.8258,486.0817 907.1383,485.7723 907.7633,485.7723 908.0758,485.463 908.3883,485.463 908.7008,485.1536 909.0133,485.1536 909.3258,484.8442 909.9508,484.8442 910.2633,484.5348 910.5758,484.5348 910.8883,484.2255 911.2008,484.2255 911.5133,483.9161 911.8258,483.9161 912.1383,483.6067 912.7633,483.6067 913.0758,483.2973 913.3883,483.2973 913.7008,482.988 914.0133,482.988 914.3258,482.6786 914.9508,482.6786 915.2633,482.3692 915.5758,482.3692 915.8883,482.0598 916.5133,482.0598 916.8258,481.7505 917.1383,481.7505 917.4508,481.4411 917.7633,481.4411 918.0758,481.1317 918.3883,481.1317 918.7008,480.8223 919.0133,480.8223 919.3258,480.513 919.6383,480.513 919.9508,480.2036 920.5758,480.2036 920.8883,479.8942 921.2008,479.8942 921.5133,479.5848 921.8258,479.5848 922.1383,479.2755 922.7633,479.2755 923.0758,478.9661 923.3883,478.9661 923.7008,478.6567 924.0133,478.6567 924.3258,478.3473 924.9508,478.3473 925.2633,478.038 925.5758,478.038 925.8883,477.7286 926.2008,477.7286 926.5133,477.4192 927.1383,477.4192 927.4508,477.1098"/>
    <line x1="928.0758" x2="928.3883" y1="477.1098" y2="476.8005"/>
    <polyline fill="none" stroke="#000000" points="928.3883,477.1098 927.4508,477.1098 927.1383,476.8005 927.1383,476.1817 926.8258,475.8723"/>
    <polyline fill="none" stroke="#000000" points="929.3258,475.8723 930.2633,475.8723 930.5758,475.563 930.8883,475.563 931.5133,476.1817 929.3258,478.3473"/>
    <line x1="929.3258" x2="929.6383" y1="478.038" y2="478.038"/>
    <polyline fill="none" stroke="#000000" points="931.2008,478.9661 932.1383,479.8942 933.0758,478.9661"/>
    <polyline fill="none" stroke="#000000" points="933.0758,478.6567 933.0758,478.9661 933.3883,478.9661"/>
    <line x1="885.5758" x2="885.2633" y1="507.1192" y2="507.1192"/>
    <polyline fill="none" stroke="#000000" points="885.5758,507.4286 885.2633,507.1192 884.6383,507.1192 884.3258,507.4286 884.3258,507.738"/>
    <line x1="884.0133" x2="883.7008" y1="508.0473" y2="508.0473"/>
    <polyline fill="none" stroke="#000000" points="884.0133,508.3567 883.7008,508.0473 883.0758,508.0473 882.7633,508.3567 882.7633,508.6661"/>
    <polyline fill="none" stroke="#000000" points="880.5758,510.213 879.6383,510.213 879.3258,510.5223 879.3258,510.8317"/>
    <line x1="880.2633" x2="880.5758" y1="510.213" y2="510.5223"/>
    <polyline fill="none" stroke="#000000" points="877.1383,512.3786 877.1383,512.688 876.5133,513.3067 875.8883,513.3067 875.2633,513.9255"/>
    <line x1="875.2633" x2="875.5758" y1="513.6161" y2="513.6161"/>
    <line x1="875.8883" x2="875.5758" y1="513.3067" y2="512.9973"/>
    <polyline fill="none" stroke="#000000" points="874.9508,513.3067 874.6383,513.3067 874.3258,513.6161 874.3258,513.9255 874.6383,514.2348"/>
    <polyline fill="none" stroke="#000000" points="874.3258,513.9255 874.0133,513.6161 874.3258,513.6161"/>
    <polyline fill="none" stroke="#000000" points="874.0133,513.6161 873.3883,514.2348 873.3883,514.5442"/>
    <line x1="858.3883" x2="858.0758" y1="506.8098" y2="506.8098"/>
    <polyline fill="none" stroke="#000000" points="858.0758,507.1192 858.0758,506.8098 857.7633,506.5005 857.4508,506.8098 857.4508,507.1192"/>
    <line x1="854.9508" x2="854.6383" y1="508.6661" y2="508.6661"/>
    <polyline fill="none" stroke="#000000" points="890.2633,548.8848 889.6383,549.5036 889.6383,550.1223 890.2633,550.7411 890.2633,551.0505"/>
    <line x1="890.2633" x2="890.5758" y1="550.7411" y2="550.7411"/>
    <line x1="891.2008" x2="890.8883" y1="549.813" y2="549.5036"/>
    <polyline fill="none" stroke="#000000" points="891.2008,549.5036 890.8883,549.5036 890.2633,548.8848 890.2633,548.5755 890.5758,548.2661 891.5133,549.1942"/>
    <line x1="891.5133" x2="891.2008" y1="548.8848" y2="548.8848"/>
    <polyline fill="none" stroke="#000000" points="892.1383,548.2661 891.8258,547.9567 892.1383,547.9567"/>
    <polyline fill="none" stroke="#000000" points="892.4508,547.338 892.1383,547.0286 892.4508,547.0286"/>
    <line x1="888.3883" x2="888.3883" y1="553.2161" y2="553.5255"/>
    <line x1="888.0758" x2="887.7633" y1="553.5255" y2="553.2161"/>
    <polyline fill="none" stroke="#000000" points="888.7008,553.8348 888.3883,553.5255 888.0758,553.5255 888.3883,553.2161 888.0758,552.9067 887.4508,553.5255 887.4508,553.8348 888.0758,554.4536"/>
    <polyline fill="none" stroke="#000000" points="877.7633,572.3973 877.4508,572.088 876.8258,572.088 876.5133,572.3973 877.4508,573.3255"/>
    <line x1="877.4508" x2="877.1383" y1="573.0161" y2="573.0161"/>
    <polyline fill="none" stroke="#000000" points="876.5133,574.8723 876.2008,574.8723 876.5133,575.1817"/>
    <polyline fill="none" stroke="#000000" points="868.0758,589.1036 867.4508,589.1036 867.1383,589.413 867.1383,589.7223 866.8258,590.0317 866.8258,590.3411 867.1383,590.6505 867.1383,590.9598"/>
    <line x1="867.1383" x2="867.4508" y1="590.6505" y2="590.6505"/>
    <line x1="868.0758" x2="867.7633" y1="589.413" y2="589.1036"/>
    <line x1="802.7633" x2="802.4508" y1="533.1067" y2="533.1067"/>
    <line x1="801.5133" x2="801.2008" y1="533.7255" y2="533.4161"/>
    <polyline fill="none" stroke="#000000" points="801.2008,533.7255 801.2008,533.4161 800.8883,533.1067"/>
    <line x1="800.2633" x2="799.9508" y1="534.0348" y2="533.7255"/>
    <line x1="799.3258" x2="799.0133" y1="534.0348" y2="534.0348"/>
    <line x1="797.7633" x2="797.4508" y1="535.5817" y2="535.5817"/>
    <line x1="797.4508" x2="797.1383" y1="535.2723" y2="534.963"/>
    <line x1="787.1383" x2="786.8258" y1="543.3161" y2="543.3161"/>
  </g>
</svg>
