<?xml version="1.0" encoding="utf-8" ?>
<svg xmlns="http://www.w3.org/2000/svg" xmlns:cc="http://creativecommons.org/ns" xmlns:dc="http://purl.org/dc/elements/1.1/" xmlns:ev="http://www.w3.org/2001/xml-events" xmlns:inkscape="http://www.inkscape.org/namespaces/inkscape" xmlns:rdf="http://www.w3.org/1999/02/22-rdf-syntax-ns" xmlns:sodipodi="http://sodipodi.sourceforge.net/DTD/sodipodi-0.dtd" xmlns:xlink="http://www.w3.org/1999/xlink" baseProfile="tiny" height="18.13937926cm" version="1.2" viewBox="0 0 1110.236799590551 685.5828379940712" width="29.37501532cm">
  <metadata>
    <rdf:RDF>
      <cc:Work>
        <dc:format>image/svg+xml</dc:format>
        <dc:source/>
        <dc:date>2026-01-19T22:49:07.779735</dc:date>
      </cc:Work>
    </rdf:RDF>
  </metadata>
  <defs/>
  <g fill="none" id="layer1" inkscape:groupmode="layer" inkscape:label="1" stroke="#0000ff" stroke-width="1.0" style="display:inline">
    <polyline fill="none" stroke="#000000" points="9.0625,78.3218 10.0,79.25 14.375,79.25 14.6875,78.9406 19.6875,78.9406 20.0,79.25 20.3125,78.9406 20.625,79.25 20.9375,79.25 21.25,78.9406 22.5,78.9406 22.8125,79.25 23.4375,79.25 23.75,78.9406 24.0625,79.25 25.0,79.25 25.3125,78.9406 25.625,78.9406 25.9375,79.25 26.25,78.9406 26.5625,78.9406 26.875,79.25 27.1875,78.9406 47.8125,78.9406 48.125,79.25 48.125,79.5593 48.4375,79.8687 49.0625,79.8687 49.375,79.5593"/>
    <polyline fill="none" stroke="#000000" points="49.6875,79.5593 49.375,79.25 49.375,79.5593 49.6875,79.5593 50.0,79.8687 50.625,79.25 52.5,79.25 52.8125,79.5593 53.125,79.25 55.3125,79.25 55.625,78.9406 59.0625,78.9406 59.375,78.6312 59.6875,78.6312 60.0,78.9406 60.625,78.9406 60.9375,78.6312 61.25,78.9406 65.9375,78.9406 66.25,78.6312 66.5625,78.9406 70.0,78.9406 70.3125,78.6312 70.625,78.9406 71.5625,78.9406 71.875,78.6312 72.1875,78.6312 72.5,78.9406 72.8125,78.6312 73.4375,78.6312 73.75,78.9406 74.0625,78.9406 74.375,78.6312 81.875,78.6312 82.1875,78.3218 82.5,78.6312 82.8125,78.3218 90.3125,78.3218 90.625,78.0125 90.9375,78.3218 92.8125,78.3218 93.125,78.0125 93.75,78.0125 94.0625,78.3218 94.375,78.3218 94.6875,78.0125 103.1251,78.0125 103.4376,77.7031 115.6251,77.7031 116.2501,77.0843"/>
    <polyline fill="none" stroke="#000000" points="117.1876,77.0843 116.2501,77.0843 115.6251,76.4656 112.5001,76.4656 111.5626,75.5375 111.8751,75.2281 112.8126,75.2281 113.1251,74.9187 115.0001,74.9187 115.3126,74.6093 117.1876,74.6093 117.8126,73.9906 118.4376,73.9906 118.7501,74.3 118.7501,74.6093 119.0626,74.9187 119.3751,74.6093 120.3126,74.6093 120.6251,74.9187"/>
    <polyline fill="none" stroke="#000000" points="119.3751,75.8468 119.0626,75.5375 119.0626,74.9187"/>
    <polyline fill="none" stroke="#000000" points="118.7501,74.6093 118.4376,74.9187 117.8126,74.9187 117.5001,74.6093 117.5001,74.3"/>
    <line x1="117.5001" x2="117.1876" y1="74.6093" y2="74.6093"/>
    <polyline fill="none" stroke="#000000" points="122.5001,74.6093 122.8126,74.9187 122.8126,75.2281 123.7501,76.1562 124.0626,75.8468 124.6876,75.8468 125.6251,76.775 125.6251,77.0843 126.2501,77.7031 125.9376,77.7031 125.3126,78.3218 125.3126,78.9406 124.6876,79.5593 124.0626,79.5593 123.7501,79.8687 123.7501,80.1781 123.4376,80.4875 123.1251,80.4875 122.5001,81.1062 121.8751,81.1062 121.5626,81.4156 121.2501,81.4156 120.9376,81.725 120.6251,81.725 120.3126,82.0343 120.0001,82.0343 119.6876,82.3437 119.0626,82.3437 118.7501,82.6531 118.4376,82.6531 118.1251,82.9625 117.5001,82.9625 117.1876,83.2718 116.8751,83.2718 116.5626,83.5812 116.2501,83.5812 115.9376,83.8906 115.6251,83.8906 115.3126,84.2 115.9376,84.8187 116.2501,84.8187 116.5626,84.5093 115.9376,83.8906"/>
    <polyline fill="none" stroke="#000000" points="115.3126,84.2 115.0001,84.2 114.6876,84.5093 114.6876,84.8187 115.0001,85.1281 115.6251,85.1281 115.9376,84.8187"/>
    <polyline fill="none" stroke="#000000" points="114.6876,84.8187 114.3751,84.8187 114.6876,84.5093"/>
    <polyline fill="none" stroke="#000000" points="114.3751,84.8187 114.0626,85.1281 113.1251,85.1281 111.8751,86.3656 111.8751,86.675 111.5626,86.9843 110.9376,86.3656 110.3126,86.9843 110.0001,86.9843 109.6876,87.2937 109.3751,87.2937 109.0626,87.6031 108.7501,87.6031 108.4376,87.9125 108.1251,87.9125 107.8126,88.2218 106.5626,88.2218 106.2501,88.5312 105.9376,88.5312 105.0001,89.4593 104.3751,89.4593 104.0626,89.7687 103.4376,89.7687 103.1251,90.0781 102.8126,90.0781 102.5001,90.3875 101.8751,90.3875 101.5626,90.6968 101.2501,90.6968 100.9376,91.0062 100.6251,91.0062 100.3126,91.3156 100.0001,91.3156 99.6876,91.625 99.3751,91.625 98.7501,92.2437 98.1251,92.2437 97.8126,92.5531 97.5,92.5531 96.875,93.1718 96.5625,93.1718 96.25,93.4812 95.625,93.4812 95.3125,93.7906 95.0,93.7906 94.375,94.4093 94.0625,94.4093 93.75,94.7187 93.4375,94.7187 93.125,95.0281 92.8125,95.0281 92.1875,95.6468 91.5625,95.6468 90.9375,96.2656 90.625,96.2656 90.3125,96.575 90.0,96.575 89.6875,96.8843 89.375,96.8843 89.0625,97.1937 88.75,97.1937 88.4375,97.5031 88.125,97.5031 87.5,98.1219 87.1875,98.1219 86.5625,98.7407 86.25,98.7407 85.9375,99.0501 85.3125,99.0501 84.6875,99.6688 84.375,99.6688 84.0625,99.9782 83.75,99.9782 83.4375,100.2876 83.125,100.2876 82.8125,100.5969 82.5,100.5969 82.1875,100.9063 81.875,100.9063 81.25,101.5251 80.9375,101.5251 80.625,101.8344 80.3125,101.8344 79.6875,102.4532 79.375,102.4532 79.0625,102.7626 78.75,102.7626 78.4375,103.0719 77.8125,103.0719 77.1875,103.6907 76.875,103.6907 76.25,104.3094 75.9375,104.3094 75.3125,104.9282 75.0,104.9282 74.6875,105.2376 74.375,105.2376 74.0625,105.5469 73.75,105.5469 73.125,106.1657 72.8125,106.1657 72.5,106.4751 72.1875,106.4751 71.5625,107.0938 70.625,107.0938 70.0,107.7126"/>
    <line x1="70.0" x2="70.3125" y1="107.4032" y2="107.4032"/>
    <polyline fill="none" stroke="#000000" points="68.4375,105.5469 68.4375,105.2376 69.6875,104.0001 70.3125,104.0001 70.625,103.6907 70.9375,103.6907 71.25,103.3813 71.5625,103.3813 71.875,103.0719 72.1875,103.0719 72.8125,102.4532 73.4375,102.4532 73.75,102.1438 74.0625,102.1438 74.375,101.8344 74.6875,101.8344 75.0,101.5251 75.3125,101.5251 75.625,101.2157 75.9375,101.2157 76.25,100.9063 76.5625,100.9063 76.875,100.5969 77.1875,100.5969 77.5,100.2876 77.8125,100.2876 78.125,99.9782 78.4375,99.9782 78.75,99.6688 79.0625,99.6688 79.375,99.3594 79.6875,99.3594 80.0,99.0501 80.3125,99.0501 80.9375,98.4313 81.25,98.4313 81.875,97.8126 82.1875,97.8126 82.5,97.5031 82.8125,97.5031 83.125,97.1937 83.4375,97.1937 84.0625,96.575 84.375,96.575 84.6875,96.2656 85.0,96.2656 85.3125,95.9562 85.625,95.9562 85.9375,95.6468 86.25,95.6468 86.5625,95.3375 86.875,95.3375 87.1875,95.0281 87.5,95.0281 87.8125,94.7187 88.125,94.7187 88.4375,94.4093 88.75,94.4093 89.0625,94.1 89.375,94.1 89.6875,93.7906 90.0,93.7906 90.3125,93.4812 90.9375,93.4812 91.5625,92.8625 91.875,92.8625 92.1875,92.5531 92.5,92.5531 92.8125,92.2437 93.125,92.2437 93.4375,91.9343 93.75,91.9343 94.0625,91.625 94.375,91.625 95.0,91.0062 95.3125,91.0062 95.625,90.6968 96.25,90.6968 96.5625,90.3875 96.875,90.3875 97.1875,90.0781 97.5,90.0781 97.8126,89.7687 98.1251,89.7687 98.4376,89.4593 98.7501,89.4593 99.0626,89.15 99.3751,89.15 99.6876,88.8406 100.0001,88.8406 100.3126,88.5312 100.6251,88.5312 100.9376,88.2218 101.2501,88.2218 101.5626,87.9125 101.8751,87.9125 102.1876,87.6031 102.5001,87.6031 102.8126,87.2937 103.1251,87.2937 103.4376,86.9843 103.7501,86.9843 104.0626,86.675 104.3751,86.675 104.6876,86.3656 105.0001,86.3656 105.3126,86.0562 105.6251,86.0562 105.9376,85.7468 106.2501,85.7468 106.5626,85.4375 106.8751,85.4375 107.1876,85.1281 107.5001,85.1281 107.8126,84.8187 108.1251,84.8187 108.4376,84.5093 108.7501,84.5093 109.0626,84.2 109.3751,84.2 109.6876,83.8906 110.0001,83.8906 110.3126,83.5812 110.6251,83.5812 110.9376,83.2718 111.2501,83.2718 111.5626,82.9625 111.8751,82.9625 112.1876,82.6531 112.5001,82.6531 112.8126,82.3437 113.1251,82.3437 113.4376,82.0343 113.7501,82.0343 114.0626,81.725 114.3751,81.725 114.6876,81.4156 115.0001,81.4156 115.3126,81.1062 115.6251,81.1062 115.9376,80.7968 116.2501,80.7968 116.5626,80.4875 116.8751,80.4875 117.1876,80.1781 117.8126,80.1781 118.1251,79.8687 118.4376,79.8687"/>
    <polyline fill="none" stroke="#000000" points="118.7501,79.8687 118.4376,79.8687 118.7501,80.1781 118.7501,79.8687 119.0626,79.5593 119.3751,79.5593 119.6876,79.25 120.6251,79.25 120.9376,78.9406 121.2501,78.9406 121.8751,78.3218 121.5626,78.0125 121.2501,78.0125 120.9376,77.7031 118.4376,77.7031 118.1251,77.3937 117.5001,77.3937 117.1876,77.0843 117.8126,76.4656 118.7501,76.4656 119.3751,75.8468 119.6876,76.1562 120.0001,75.8468 120.0001,75.5375 120.9376,74.6093 122.5001,74.6093 123.1251,73.9906 125.0001,73.9906 125.3126,73.6812 126.5626,73.6812 126.8751,73.9906 126.5626,74.3 126.5626,75.2281 126.8751,75.5375 127.5001,75.5375"/>
    <line x1="127.5001" x2="127.1876" y1="75.8468" y2="75.5375"/>
    <polyline fill="none" stroke="#000000" points="126.5626,75.2281 125.9376,75.8468 125.9376,76.1562 125.6251,76.4656 125.6251,76.775 124.6876,77.7031 123.4376,77.7031 123.1251,78.0125 122.8126,78.0125 122.5001,78.3218 121.8751,78.3218"/>
    <line x1="123.4376" x2="123.4376" y1="77.7031" y2="77.3937"/>
    <polyline fill="none" stroke="#000000" points="123.7501,77.7031 123.4376,77.3937 123.4376,76.775 123.7501,76.4656 123.7501,76.1562"/>
    <line x1="125.3126" x2="125.6251" y1="76.4656" y2="76.4656"/>
    <line x1="125.6251" x2="125.3126" y1="77.0843" y2="77.0843"/>
    <polygon points="126.2501,77.3937 125.9376,77.7031 125.9376,77.3937"/>
    <polyline fill="none" stroke="#000000" points="127.1876,76.4656 127.5001,76.775 127.5001,77.7031"/>
    <line x1="127.5001" x2="127.8126" y1="77.3937" y2="77.7031"/>
    <polyline fill="none" stroke="#000000" points="129.3751,78.6312 129.0626,78.9406 129.0626,79.8687 129.3751,80.1781 130.3126,80.1781 130.6251,79.8687"/>
    <line x1="130.6251" x2="130.9376" y1="79.5593" y2="79.8687"/>
    <polyline fill="none" stroke="#000000" points="129.3751,80.1781 129.0626,80.4875 129.0626,82.6531 129.3751,82.9625 129.3751,83.5812 129.6876,83.8906 129.3751,84.2 130.0001,84.8187 129.3751,85.4375 129.6876,85.7468 129.3751,86.0562 129.3751,86.9843 129.6876,87.2937 130.0001,87.2937 129.6876,87.6031 129.6876,88.2218 129.3751,88.5312 129.3751,89.4593 129.6876,89.7687 129.3751,90.0781 129.3751,90.6968 129.6876,91.0062 130.0001,91.0062 129.6876,91.3156 130.3126,91.9343 130.3126,92.5531 130.0001,92.8625 130.3126,93.1718 130.3126,94.7187 130.0001,95.0281 130.0001,95.3375 130.3126,95.6468 130.3126,95.9562 130.0001,96.2656 130.3126,96.575 130.3126,97.1937 130.0001,97.5031 130.3126,97.8126 130.3126,100.5969 130.6251,100.9063 130.6251,101.2157 130.9376,101.5251 130.9376,101.8344 130.0001,102.7626 129.6876,102.7626 129.0626,103.3813 128.7501,103.3813 128.4376,103.6907 128.1251,103.6907 127.1876,104.6188 126.5626,104.6188 125.6251,105.5469 125.3126,105.5469 125.0001,105.8563 124.6876,105.8563 124.0626,106.4751 123.7501,106.4751 123.1251,107.0938 122.8126,107.0938 122.5001,107.4032 122.1876,107.4032 121.5626,108.0219 121.2501,108.0219 120.6251,108.6407 120.3126,108.6407 119.6876,109.2594 119.3751,109.2594 119.0626,109.5688 118.7501,109.5688 117.8126,110.4969 117.5001,110.4969 117.1876,110.8063 116.8751,110.8063 116.2501,111.4251 115.9376,111.4251 115.6251,111.7344 115.3126,111.7344 114.6876,112.3532 114.3751,112.3532 114.0626,112.6626 113.7501,112.6626 112.8126,113.5907 112.5001,113.5907 112.1876,113.9001 111.8751,113.9001 111.2501,114.5188 110.9376,114.5188 110.6251,114.8282 110.3126,114.8282 110.0001,115.1376 109.6876,115.1376 109.0626,115.7563 108.7501,115.7563 108.4376,116.0657 108.1251,116.0657 107.5001,116.6844 107.1876,116.6844 106.2501,117.6126 105.9376,117.6126 105.6251,117.9219 105.3126,117.9219 105.0001,118.2313 104.6876,118.2313 104.0626,118.8501 103.7501,118.8501 102.8126,119.7782 102.8126,120.0876 102.1876,120.7063 101.2501,120.7063 100.3126,121.6344 100.3126,122.2532 100.0001,122.5626 100.0001,124.1094 99.6876,124.4188 99.6876,124.7282 99.3751,125.0376 99.3751,125.9657 99.0626,126.2751 99.0626,127.2032 98.7501,127.5126 98.7501,127.8219 98.4376,128.1313 98.4376,129.0594 98.1251,129.3688 98.1251,130.2969 97.8126,130.6063 97.8126,131.8438 97.5,132.1532 97.5,133.3907 97.1875,133.7001 97.1875,134.6282 96.875,134.9376 96.875,135.8657 96.5625,136.1751 96.5625,137.1032 96.25,137.4126 96.25,138.6501 95.9375,138.9594 95.9375,139.8876 95.625,140.1969 95.625,141.1251 95.3125,141.4344 95.3125,142.0532 95.0,142.3626 95.0,143.2907 94.6875,143.6001 94.6875,144.5282 94.375,144.8376 94.375,145.7657 94.0625,146.0751 94.0625,147.0032 93.75,147.3126 93.75,148.8594 93.4375,149.1688 93.4375,149.4782 93.125,149.7876 93.125,151.3344 92.8125,151.6438 92.8125,155.0469 92.5,155.3563 92.5,157.2126 92.1875,157.5219 92.1875,159.0688 91.875,159.3782 91.875,160.9251 91.5625,161.2344 91.5625,162.7813 91.25,163.0907 91.25,164.0188 90.9375,164.3282 90.9375,166.1844 91.5625,166.8032 91.875,166.8032 92.1875,167.1126 92.1875,167.7313 91.875,168.0407 91.875,168.6594 91.25,169.2782 91.25,169.8969 90.9375,170.2063 90.9375,170.8251 90.625,171.1344 90.625,171.7532 90.3125,172.0626 90.3125,173.3001 89.6875,173.9188 88.75,173.9188 88.4375,174.2282"/>
    <line x1="88.125" x2="88.125" y1="174.2282" y2="174.5376"/>
    <line x1="90.0" x2="90.3125" y1="173.6094" y2="173.6094"/>
    <polyline fill="none" stroke="#000000" points="90.3125,173.3001 90.3125,173.6094 90.625,173.9188 90.625,174.5376 90.9375,174.8469"/>
    <polyline fill="none" stroke="#000000" points="90.9375,175.1563 91.25,174.8469 90.9375,174.8469 90.9375,175.1563 90.625,175.4657 90.625,175.7751 90.0,176.3938 89.375,176.3938 88.4375,175.4657 88.4375,175.1563 88.125,174.8469 88.125,174.5376 88.4375,174.2282 88.125,174.2282 87.5,173.6094 87.5,172.6813 87.1875,172.3719 87.1875,172.0626 87.5,171.7532 86.875,171.1344 86.875,169.5876 86.5625,169.2782 86.5625,168.0407 86.25,167.7313 86.25,166.8032 85.9375,166.4938 85.9375,164.9469 85.625,164.6376 85.625,163.4001 85.3125,163.0907 85.3125,161.8532 85.0,161.5438 85.0,160.6157 84.6875,160.3063 84.6875,159.3782 84.375,159.0688 84.375,158.4501 84.0625,158.1407 84.0625,157.2126 83.75,156.9032 83.75,155.9751 83.4375,155.6657 83.4375,154.1188 83.125,153.8094 83.125,153.5001 82.8125,153.1907 82.8125,152.2626 82.5,151.9532 82.5,151.3344 82.1875,151.0251 82.1875,150.0969 81.875,149.7876 81.875,149.4782 81.5625,149.1688 81.5625,148.2407 81.25,147.9313 81.25,146.6938 80.9375,146.3844 80.9375,145.4563 80.625,145.1469 80.625,144.2188 80.3125,143.9094 80.3125,143.2907 80.0,142.9813 80.0,142.0532 79.6875,141.7438 79.6875,140.8157 79.375,140.5063 79.375,139.8876 79.0625,139.5782 79.0625,138.6501 78.75,138.3407 78.75,137.7219 78.4375,137.4126 78.4375,136.1751 78.125,135.8657 78.125,135.2469 77.8125,134.9376 77.8125,134.0094 77.5,133.7001 77.5,133.0813 77.1875,132.7719 77.1875,131.8438 76.875,131.5344 76.875,130.9157 76.5625,130.6063 76.5625,129.9876 76.25,129.6782 76.25,128.7501 75.9375,128.4407 75.9375,127.8219 75.625,127.5126 75.625,126.5844 75.3125,126.2751 75.3125,125.3469 75.0,125.0376 75.0,124.7282 74.6875,124.4188 74.6875,123.8001 74.375,123.4907 74.375,122.5626 74.0625,122.2532 74.0625,121.3251 73.75,121.0157 73.75,120.3969 73.4375,120.0876 73.4375,119.4688 73.125,119.1594 73.125,117.9219 72.8125,117.6126 72.8125,117.3032 72.5,116.9938 72.5,116.0657 72.1875,115.7563 72.1875,115.1376 71.875,114.8282 71.875,114.2094 71.5625,113.9001 71.5625,113.2813 71.25,112.9719 71.25,112.0438 70.9375,111.7344 70.9375,109.8782 70.625,109.5688 70.625,108.9501 70.0,108.3313 70.0,107.4032 68.75,106.1657 68.75,105.8563 68.125,105.2376 67.5,105.2376 67.1875,104.9282 65.9375,106.1657 65.625,106.1657 64.6875,105.2376 64.6875,104.9282 64.375,104.6188 63.75,105.2376 63.4375,105.2376 63.125,104.9282 62.8125,104.9282 62.5,104.6188 61.875,104.6188 61.25,104.0001 61.25,103.6907 60.625,103.0719 60.0,103.6907 59.6875,103.6907 58.75,102.7626 58.4375,103.0719 58.125,103.0719 57.8125,102.7626 57.1875,102.7626 56.5625,102.1438 55.625,102.1438 55.3125,101.8344 54.6875,101.8344 54.0625,101.2157 54.0625,100.9063 53.75,100.5969 53.75,99.9782 53.4375,99.6688 52.8125,99.6688 52.5,99.3594 51.875,99.3594 51.5625,99.0501 51.25,99.0501 50.9375,98.7407 50.625,98.7407 49.6875,99.6688 49.0625,99.0501 49.0625,98.7407 48.75,98.4313 48.4375,98.4313 48.125,98.7407 47.1875,98.7407 46.5625,98.1219 46.5625,97.8126 45.625,96.8843 45.3125,96.8843 45.0,96.575 44.6875,96.575 44.375,96.2656 43.75,96.2656 43.4375,95.9562 42.8125,95.9562 42.5,95.6468 42.1875,95.6468 41.875,95.3375 41.5625,95.3375 41.25,95.0281 40.625,95.0281 40.3125,94.7187 40.0,94.7187 39.6875,94.4093 39.0625,94.4093 38.75,94.1 38.125,94.1 37.8125,93.7906 37.1875,93.7906 36.875,93.4812 36.25,93.4812 35.9375,93.1718 35.625,93.1718 35.3125,92.8625 35.0,92.8625 34.6875,92.5531 34.0625,92.5531 33.75,92.2437 33.4375,92.2437 33.125,91.9343 32.8125,91.9343 32.5,91.625 31.875,91.625 31.5625,91.3156 31.25,91.3156 30.9375,91.0062 30.625,91.0062 30.3125,90.6968 30.0,90.6968 29.6875,90.3875 28.75,90.3875 28.4375,90.0781 28.125,90.0781 27.8125,89.7687 27.5,89.7687 27.1875,89.4593 26.875,89.4593 26.5625,89.15 26.25,89.15 25.9375,88.8406 25.3125,88.8406 25.0,88.5312 24.375,88.5312 24.0625,88.2218 23.75,88.2218 23.4375,87.9125 23.125,87.9125 22.8125,87.6031 22.1875,87.6031 21.875,87.2937 21.5625,87.2937 21.25,86.9843 20.625,86.9843 20.3125,86.675 20.0,86.675 19.6875,86.3656 19.0625,86.3656 18.75,86.0562 18.4375,86.0562 18.125,85.7468 17.5,85.7468 17.1875,85.4375 16.25,85.4375 15.9375,85.1281 15.625,85.1281 15.3125,84.8187 15.0,84.8187 14.6875,84.5093 13.75,84.5093 13.4375,84.2 13.125,84.2 12.8125,83.8906 11.5625,83.8906 11.25,83.5812 10.9375,83.5812 10.625,83.2718 10.3125,83.2718 10.0,82.9625 9.375,82.9625 8.75,82.3437 7.5,82.3437 7.1875,82.0343 6.5625,82.0343 6.25,81.725 5.625,81.725 5.0,81.1062 5.0,79.8687 5.625,79.25 5.9375,79.25 6.25,78.9406 7.1875,78.9406 7.5,78.6312 8.75,78.6312 10.0,77.3937 10.3125,77.3937 10.625,77.0843 10.9375,77.0843 11.25,76.775 11.5625,76.775 11.875,76.4656 12.8125,76.4656 13.125,76.1562 13.4375,76.1562 13.75,75.8468 14.0625,75.8468 14.375,75.5375 15.0,75.5375 15.3125,75.2281 15.625,75.2281 15.9375,74.9187 16.5625,74.9187 16.875,74.6093 17.5,74.6093 17.8125,74.3 18.4375,74.3 18.75,73.9906 19.0625,73.9906 19.375,73.6812 20.0,73.6812 20.3125,73.3718 20.625,73.3718 20.9375,73.0625 21.25,73.0625 21.5625,72.7531 21.875,72.7531 22.1875,72.4437 22.5,72.4437 22.8125,72.1343 23.4375,72.1343 23.75,71.825 24.0625,71.825 24.6875,71.2062 25.0,71.2062 25.3125,70.8968 25.625,70.8968 25.9375,70.5875 26.5625,70.5875 26.875,70.2781 27.1875,70.2781 27.8125,69.6593 28.125,69.6593 28.4375,69.35 29.0625,69.35 29.375,69.0406 29.6875,69.0406 30.0,68.7312 30.3125,68.7312 30.625,68.4218 31.25,68.4218 31.5625,68.1125 31.875,68.1125 32.1875,67.8031 32.5,67.8031 32.8125,67.4937 33.4375,67.4937 33.75,67.1843 34.0625,67.1843 34.375,66.875 34.6875,66.875 35.0,66.5656 35.3125,66.5656 35.625,66.2562 35.9375,66.2562 36.25,65.9468 36.5625,65.9468 36.875,65.6375 37.1875,65.6375 37.5,65.3281 37.8125,65.3281 38.4375,64.7093 38.75,64.7093 39.0625,64.4 39.375,64.4 39.6875,64.0906 40.0,64.0906 40.3125,63.7812 40.625,63.7812 41.25,63.1625 42.5,63.1625 43.125,62.5437 43.4375,62.5437 44.0625,61.925 44.375,61.925 44.6875,61.6156 45.0,61.6156 45.9375,60.6875 46.25,60.6875 46.875,60.0687 47.1875,60.0687 47.5,59.7593 48.125,59.7593 48.4375,59.45 48.4375,59.1406 48.75,58.8312 49.0625,58.5218 49.375,58.5218 49.6875,58.2125 52.1875,58.2125 52.5,57.9031 55.0,57.9031 55.3125,57.5937 57.1875,57.5937 57.5,57.2843 59.0625,57.2843 59.375,56.975 61.25,56.975 61.5625,56.6656 62.8125,56.6656 63.125,56.3562 64.0625,56.3562 64.375,56.0468 67.1875,56.0468 67.5,55.7375 68.4375,55.7375 68.75,55.4281 70.0,55.4281 70.3125,55.1187 71.5625,55.1187 71.875,54.8093 73.125,54.8093 73.4375,54.5 74.375,54.5 74.6875,54.1906 75.625,54.1906 75.9375,53.8812 77.5,53.8812 77.8125,53.5718 79.0625,53.5718 79.375,53.2625 81.25,53.2625 81.5625,52.9531 82.8125,52.9531 83.125,52.6437 84.0625,52.6437 84.375,52.3343 85.3125,52.3343 85.625,52.025 86.875,52.025 87.1875,51.7156 88.4375,51.7156 88.75,51.4062 89.375,51.4062 89.6875,51.0968 90.625,51.0968 90.9375,50.7875 91.5625,50.7875 91.875,50.4781 93.125,50.4781 93.4375,50.1687 94.0625,50.1687 94.375,49.8593 95.3125,49.8593 95.625,49.55 97.5,49.55 97.8126,49.2406 99.0626,49.2406 99.3751,48.9312 100.3126,48.9312 100.6251,48.6218 101.5626,48.6218 101.8751,48.3125 103.4376,48.3125 103.7501,48.0031 104.0626,48.0031 104.3751,47.6937 105.3126,47.6937 105.6251,47.3843 106.8751,47.3843 107.1876,47.075 108.7501,47.075 109.0626,46.7656 109.6876,46.7656 110.0001,46.4562 110.9376,46.4562 111.2501,46.1468 111.8751,46.1468 112.1876,45.8375 113.1251,45.8375 113.4376,45.5281 114.3751,45.5281 114.6876,45.2187 115.6251,45.2187 115.9376,44.9093 117.1876,44.9093 117.5001,44.6 117.8126,44.6 118.1251,44.2906 118.7501,44.2906 119.0626,43.9812 120.6251,43.9812 120.9376,43.6718 121.5626,43.6718 121.8751,43.3625 123.4376,43.3625 123.7501,43.0531 124.0626,43.0531 124.3751,42.7437 125.6251,42.7437 125.9376,42.4343 126.8751,42.4343 127.1876,42.125 128.1251,42.125 128.4376,41.8156 129.0626,41.8156 129.3751,41.5062 130.3126,41.5062 130.6251,41.1968 131.5626,41.1968 131.8751,40.8875 132.8126,40.8875 133.1251,40.5781 134.3751,40.5781 134.6876,40.2687 135.6251,40.2687 135.9376,39.9593 137.1876,39.9593 137.5001,39.65 138.4376,39.65 138.7501,39.3406 140.0001,39.3406 140.3126,39.0312 141.2501,39.0312 141.5626,38.7218 142.5001,38.7218 142.8126,38.4125 144.0626,38.4125 144.3751,38.1031 145.3126,38.1031 145.6251,37.7937 146.5626,37.7937 146.8751,37.4843 148.1251,37.4843 148.4376,37.175 149.3751,37.175 149.6876,36.8656 150.6251,36.8656 150.9376,36.5562 152.1876,36.5562 152.5001,36.2468 153.7501,36.2468 154.0626,35.9375 155.0001,35.9375 155.3126,35.6281 155.9376,35.6281 156.2501,35.3187 157.1876,35.3187 157.5001,35.0093 158.1251,35.0093 158.4376,34.7 159.6876,34.7 160.0001,34.3906 160.9376,34.3906 161.2501,34.0812 162.1876,34.0812 162.5001,33.7718 163.1251,33.7718 163.4376,33.4625 164.0626,33.4625 164.3751,33.1531 165.6251,33.1531 165.9376,32.8437 166.8751,32.8437 167.1876,32.5343 168.4376,32.5343 168.7501,32.225 169.6876,32.225 170.0001,31.9156 170.6251,31.9156 170.9376,31.6062 172.1876,31.6062 172.5001,31.2968 173.4376,31.2968 173.7501,30.9875 175.0001,30.9875 175.3126,30.6781 176.5626,30.6781 176.8751,30.3687 177.8126,30.3687 178.1251,30.0593 179.0626,30.0593 179.3751,29.75 180.3126,29.75 180.6251,29.4406 181.8751,29.4406 182.1876,29.1312 182.5001,29.1312 182.8126,28.8218 184.3751,28.8218 184.6876,28.5125 185.6251,28.5125 185.9376,28.2031 186.5626,28.2031 186.8751,27.8937 188.4376,27.8937 189.0626,27.275 190.6251,27.275 190.9376,26.9656 191.8751,26.9656 192.1876,26.6562 193.1251,26.6562 193.4376,26.3468 194.6876,26.3468 195.0001,26.0375 195.9376,26.0375 196.2501,25.7281 196.8751,25.7281 197.1876,25.4187 197.8126,25.4187 198.1251,25.1093 199.0626,25.1093 199.3751,24.8 200.6251,24.8 200.9376,24.4906 201.8751,24.4906 202.1876,24.1812 202.8126,24.1812 203.1251,23.8718 204.3751,23.8718 204.6876,23.5625 205.9376,23.5625 206.2501,23.2531 206.8751,23.2531 207.1876,22.9437 208.1251,22.9437 208.4376,22.6343 209.6876,22.6343 210.0001,22.325 211.2501,22.325 211.5626,22.0156 212.5001,22.0156 212.8126,21.7062 214.3751,21.7062 214.6876,21.3968 215.3126,21.3968 215.6251,21.0875 216.5626,21.0875 216.8751,20.7781 217.8126,20.7781 218.1251,20.4687 219.0626,20.4687 219.3751,20.1593 220.9376,20.1593 221.2501,19.85 222.1876,19.85 222.5001,19.5406 223.7501,19.5406 224.0626,19.2312 224.3751,19.2312 224.6876,18.9218 226.2501,18.9218 226.5626,18.6125 227.1876,18.6125 227.5001,18.3031 228.1251,18.3031 228.4376,17.9937 229.6876,17.9937 230.0001,17.6843 230.3126,17.6843 230.6251,17.375 231.5626,17.375 231.8751,17.0656 233.1251,17.0656 233.4376,16.7562 234.6876,16.7562 235.0001,16.4468 236.5626,16.4468 236.8751,16.1375 237.8126,16.1375 238.1251,15.8281 239.0626,15.8281 239.3751,15.5187 240.3126,15.5187 240.6251,15.2093 241.8751,15.2093 242.1876,14.9 242.8126,14.9 243.1251,14.5906 243.4376,14.5906 243.7501,14.2812 245.3126,14.2812 245.6251,13.9718 246.5626,13.9718 246.8751,13.6625 247.5001,13.6625 247.8126,13.3531 248.7501,13.3531 249.0626,13.0437 250.0001,13.0437 250.3126,12.7343 250.9376,12.7343 251.2501,12.425 252.1876,12.425 252.5001,12.1156 253.4376,12.1156 253.7501,11.8062 254.3751,11.8062 254.6876,11.4968 255.6251,11.4968 255.9376,11.1875 256.5626,11.1875 256.8751,10.8781 257.1876,10.8781 257.5001,10.5687 258.4376,10.5687 258.7501,10.2593 260.3126,10.2593 260.6251,9.95 261.2501,9.95 261.5626,9.6406 262.5001,9.6406 262.8126,9.3312 263.4376,9.3312 263.7501,9.0218 264.6876,9.0218 265.0001,8.7125 265.6251,8.7125 265.9376,8.4031 266.5626,8.4031 266.8751,8.0937 268.1251,8.0937 268.4376,7.7843 270.0001,7.7843 270.3126,7.475 271.2501,7.475 271.5626,7.1656 272.5001,7.1656 272.8126,6.8562 273.1251,6.8562 273.4376,6.5468 274.3751,6.5468 274.6876,6.2375 275.6251,6.2375 275.9376,5.9281 276.8751,5.9281 277.1876,5.6187 278.4376,5.6187 278.7501,5.3093 280.0001,5.3093 280.3126,5.0 282.1876,5.0 282.5001,5.3093 281.5626,6.2375 281.5626,6.5468 282.5001,7.475 282.5001,7.7843 282.1876,8.0937 281.5626,8.0937 281.2501,8.4031 280.9376,8.4031 280.6251,8.7125 280.3126,8.7125 280.0001,9.0218 279.3751,9.0218 279.0626,9.3312 278.7501,9.3312 278.4376,9.6406 278.1251,9.6406 277.8126,9.95 277.5001,9.95 277.1876,10.2593 276.8751,10.2593 276.5626,10.5687 275.6251,10.5687 275.3126,10.8781 275.0001,10.8781 274.6876,11.1875 274.0626,11.1875 273.7501,11.4968 273.1251,11.4968 272.8126,11.8062 272.5001,11.8062 272.1876,12.1156 271.5626,12.1156 271.2501,12.425 270.9376,12.425 270.6251,12.7343 270.3126,12.7343 270.0001,13.0437 269.3751,13.0437 269.0626,13.3531 268.7501,13.3531 268.4376,13.6625 268.1251,13.6625 267.8126,13.9718 267.5001,13.9718 267.1876,14.2812 266.8751,14.2812 266.5626,14.5906 266.2501,14.5906 265.9376,14.9 265.6251,14.9 265.3126,15.2093 265.0001,15.2093 264.6876,15.5187 264.3751,15.5187 264.0626,15.8281 263.4376,15.8281 263.1251,16.1375 262.8126,16.1375 262.5001,16.4468 261.8751,16.4468 261.5626,16.7562 261.2501,16.7562 260.9376,17.0656 260.6251,17.0656 260.3126,17.375 260.0001,17.375 259.6876,17.6843 259.3751,17.6843 259.0626,17.9937 258.4376,17.9937 258.1251,18.3031 257.8126,18.3031 257.5001,18.6125 257.1876,18.6125 256.8751,18.9218 256.2501,18.9218 255.9376,19.2312 255.6251,19.2312 255.3126,19.5406 255.0001,19.5406 254.6876,19.85 254.3751,19.85 254.0626,20.1593 253.7501,20.1593 253.4376,20.4687 253.1251,20.4687 252.8126,20.7781 252.1876,20.7781 251.8751,21.0875 251.2501,21.0875 250.9376,21.3968 250.6251,21.3968 250.3126,21.7062 250.0001,21.7062 249.6876,22.0156 249.0626,22.0156 248.7501,22.325 248.4376,22.325 248.1251,22.6343 247.5001,22.6343 247.1876,22.9437 246.8751,22.9437 246.5626,23.2531 245.9376,23.2531 245.6251,23.5625 245.3126,23.5625 245.0001,23.8718 244.6876,23.8718 244.3751,24.1812 243.7501,24.1812 243.1251,24.8 242.5001,24.8 242.1876,25.1093 241.8751,25.1093 241.5626,25.4187 241.2501,25.4187 240.9376,25.7281 240.3126,25.7281 240.0001,26.0375 239.6876,26.0375 239.3751,26.3468 239.0626,26.3468 238.7501,26.6562 238.4376,26.6562 238.1251,26.9656 237.8126,26.9656 237.5001,27.275 237.1876,27.275 236.8751,27.5843 236.5626,27.5843 236.2501,27.8937 235.6251,27.8937 235.3126,28.2031 235.0001,28.2031 234.6876,28.5125 234.3751,28.5125 234.0626,28.8218 233.7501,28.8218 233.4376,29.1312 233.1251,29.1312 232.8126,29.4406 232.5001,29.4406 232.1876,29.75 231.5626,29.75 231.2501,30.0593 230.9376,30.0593 230.6251,30.3687 230.0001,30.3687 229.6876,30.6781 229.0626,30.6781 228.4376,31.2968 227.8126,31.2968 227.5001,31.6062 227.1876,31.6062 226.8751,31.9156 226.5626,31.9156 226.2501,32.225 225.9376,32.225 225.6251,32.5343 225.3126,32.5343 225.0001,32.8437 224.3751,32.8437 224.0626,33.1531 223.7501,33.1531 223.4376,33.4625 223.1251,33.4625 222.8126,33.7718 222.5001,33.7718 222.1876,34.0812 221.8751,34.0812 221.5626,34.3906 221.2501,34.3906 220.9376,34.7 220.6251,34.7 220.3126,35.0093 220.0001,35.0093 219.6876,35.3187 219.0626,35.3187 218.7501,35.6281 218.4376,35.6281 218.1251,35.9375 217.8126,35.9375 217.5001,36.2468 217.1876,36.2468 216.8751,36.5562 216.5626,36.5562 216.2501,36.8656 215.9376,36.8656 215.6251,37.175 215.0001,37.175 214.6876,37.4843 214.3751,37.4843 213.7501,38.1031 213.4376,38.1031 213.1251,38.4125 212.8126,38.4125 212.5001,38.7218 211.8751,38.7218 211.5626,39.0312 211.2501,39.0312 210.9376,39.3406 210.6251,39.3406 210.3126,39.65 210.0001,39.65 209.6876,39.9593 209.3751,39.9593 209.0626,40.2687 208.7501,40.2687 208.4376,40.5781 208.1251,40.5781 207.8126,40.8875 207.1876,40.8875 206.8751,41.1968 206.5626,41.1968 206.2501,41.5062 205.9376,41.5062 205.6251,41.8156 205.3126,41.8156 205.0001,42.125 204.6876,42.125 204.3751,42.4343 204.0626,42.4343 203.7501,42.7437 203.4376,42.7437 203.1251,43.0531 202.8126,43.0531 202.5001,43.3625 201.8751,43.3625 201.5626,43.6718 201.2501,43.6718 200.9376,43.9812 200.6251,43.9812 200.3126,44.2906 200.0001,44.2906 199.6876,44.6 199.3751,44.6 199.0626,44.9093 198.7501,44.9093 198.4376,45.2187 198.1251,45.2187 197.8126,45.5281 197.5001,45.5281 197.1876,45.8375 196.5626,45.8375 196.2501,46.1468 195.9376,46.1468 195.6251,46.4562 195.3126,46.4562 195.0001,46.7656 194.6876,46.7656 194.3751,47.075 194.0626,47.075 193.7501,47.3843 193.4376,47.3843 193.1251,47.6937 192.8126,47.6937 192.5001,48.0031 192.1876,48.0031 191.8751,48.3125 191.5626,48.3125 191.2501,48.6218 190.9376,48.6218 190.6251,48.9312 190.3126,48.9312 190.0001,49.2406 189.3751,49.2406 188.7501,49.8593 188.1251,49.8593 187.8126,50.1687 187.5001,50.1687 187.1876,50.4781 186.8751,50.4781 186.5626,50.7875 186.2501,50.7875 185.9376,51.0968 185.6251,51.0968 185.3126,51.4062 185.0001,51.4062 184.6876,51.7156 184.3751,51.7156 184.0626,52.025 183.7501,52.025 183.4376,52.3343 183.1251,52.3343 182.8126,52.6437 182.5001,52.6437 182.1876,52.9531 181.8751,52.9531 181.5626,53.2625 181.2501,53.2625 180.9376,53.5718 180.3126,53.5718 179.6876,54.1906 179.0626,54.1906 178.7501,54.5 178.4376,54.5 178.1251,54.8093 177.8126,54.8093 177.5001,55.1187 177.1876,55.1187 176.8751,55.4281 176.5626,55.4281 176.2501,55.7375 175.9376,55.7375 175.6251,56.0468 175.0001,56.0468 174.6876,56.3562 174.3751,56.3562 174.0626,56.6656 173.7501,56.6656 173.4376,56.975 173.1251,56.975 172.8126,57.2843 172.5001,57.2843 172.1876,57.5937 171.8751,57.5937 171.5626,57.9031 171.2501,57.9031 170.9376,58.2125 170.6251,58.2125 170.3126,58.5218 169.6876,58.5218 169.3751,58.8312 169.0626,58.8312 168.7501,59.1406 168.4376,59.1406 168.1251,59.45 167.8126,59.45 167.5001,59.7593 167.1876,59.7593 166.8751,60.0687 166.5626,60.0687 166.2501,60.3781 165.6251,60.3781 165.3126,60.6875 165.0001,60.6875 164.6876,60.9968 164.3751,60.9968 164.0626,61.3062 163.7501,61.3062 163.4376,61.6156 163.1251,61.6156 162.8126,61.925 162.5001,61.925 162.1876,62.2343 161.8751,62.2343 161.5626,62.5437 160.9376,62.5437 160.6251,62.8531 160.3126,62.8531 159.6876,63.4718 159.0626,63.4718 158.4376,64.0906 157.8126,64.0906 157.5001,64.4 157.1876,64.4 156.8751,64.7093 156.5626,64.7093 156.2501,65.0187 155.6251,65.0187 155.3126,65.3281 155.0001,65.3281 154.6876,65.6375 154.3751,65.6375 154.0626,65.9468 153.7501,65.9468 153.4376,66.2562 153.1251,66.2562 152.8126,66.5656 152.5001,66.5656 152.1876,66.875 151.8751,66.875 151.5626,67.1843 150.9376,67.1843 150.6251,67.4937 150.3126,67.4937 149.6876,68.1125 149.0626,68.1125 148.4376,68.7312 147.8126,68.7312 147.5001,69.0406 147.1876,69.0406 146.8751,69.35 146.5626,69.35 146.2501,69.6593 145.9376,69.6593 145.6251,69.9687 145.0001,69.9687 144.3751,70.5875 143.7501,70.5875 143.4376,70.8968 143.1251,70.8968 142.8126,71.2062 142.5001,71.2062 142.1876,71.5156 141.8751,71.5156 140.6251,72.7531 140.3126,72.7531 140.0001,72.4437 140.0001,72.7531 139.6876,73.0625 139.6876,73.3718 139.3751,73.6812 138.1251,72.4437 137.8126,72.7531 137.5001,72.7531 136.8751,73.3718 136.2501,73.3718 135.9376,73.6812 135.6251,73.6812 135.3126,73.9906 135.0001,73.9906 134.6876,74.3 134.3751,74.3 133.7501,74.9187 134.0626,75.2281 134.0626,76.775 134.3751,77.0843 134.0626,77.3937 134.0626,78.0125 133.7501,78.3218 133.7501,79.25 134.0626,79.5593 134.0626,86.675 133.4376,87.2937 133.7501,87.6031 133.7501,88.8406 134.0626,89.15 133.7501,89.4593 133.7501,90.0781 134.0626,90.3875 134.0626,91.625 134.3751,91.9343 134.3751,97.8126 134.0626,98.1219 134.3751,98.4313 134.3751,99.3594 134.6876,99.6688 135.0001,99.3594 135.9376,99.3594 136.8751,98.4313 137.5001,98.4313 138.1251,97.8126 138.4376,97.8126 138.7501,97.5031 139.0626,97.5031 139.6876,96.8843 140.0001,96.8843 140.6251,96.2656 140.9376,96.2656 141.2501,95.9562 141.5626,95.9562 142.1876,95.3375 142.8126,95.3375 143.4376,94.7187 143.7501,94.7187 144.3751,94.1 144.6876,94.1 145.3126,93.4812 145.6251,93.4812 145.9376,93.1718 146.2501,93.1718 146.8751,92.5531 147.1876,92.5531 147.5001,92.2437 147.8126,92.2437 148.4376,91.625 148.7501,91.625 149.0626,91.3156 149.3751,91.3156 150.0001,90.6968 150.3126,90.6968 150.6251,90.3875 150.9376,90.3875 151.5626,89.7687 151.8751,89.7687 152.5001,89.15 152.8126,89.15 153.4376,88.5312 154.0626,88.5312 155.0001,87.6031 155.3126,87.6031 155.6251,87.2937 155.9376,87.2937 156.5626,86.675 156.8751,86.675 157.1876,86.3656 157.5001,86.3656 158.1251,85.7468 158.4376,85.7468 158.7501,85.4375 159.0626,85.4375 159.3751,85.1281 159.6876,85.1281 160.3126,84.5093 160.6251,84.5093 160.9376,84.2 161.2501,84.2 161.5626,83.8906 161.8751,83.8906 162.5001,83.2718 163.1251,83.2718 163.7501,83.8906 163.7501,84.2 164.6876,85.1281 164.6876,85.4375 165.3126,86.0562 165.3126,86.3656 165.6251,86.675 165.9376,86.675 165.9376,86.9843 166.2501,87.2937 167.5001,88.5312 167.8126,88.5312 168.1251,88.8406 168.1251,89.15 168.4376,89.4593 168.7501,89.4593 169.0626,89.7687 168.7501,90.0781 168.7501,90.3875 169.0626,90.6968 169.0626,91.625 169.6876,92.2437 169.6876,92.5531 170.0001,92.8625 170.0001,93.1718 170.9376,94.1 170.6251,94.4093 170.6251,95.0281 170.9376,95.3375 170.9376,95.6468 171.2501,95.9562 171.2501,96.575 171.5626,96.8843 171.8751,96.8843 171.5626,97.1937 171.5626,97.5031 171.8751,97.8126 172.1876,97.8126 171.8751,98.1219 171.8751,98.4313 172.5001,99.0501 172.5001,99.3594 172.8126,99.6688 172.8126,99.9782 173.1251,100.2876 173.1251,100.9063 173.4376,101.2157 173.4376,101.5251 173.7501,101.8344 173.7501,102.1438 174.0626,102.4532 173.7501,102.7626 174.3751,103.3813 174.3751,103.6907 174.6876,104.0001 174.6876,104.3094 175.0001,104.6188 175.0001,105.2376 175.3126,105.5469 175.3126,105.8563 175.6251,106.1657 175.6251,106.4751 175.9376,106.7844 175.9376,107.7126 176.2501,108.0219 176.2501,108.3313 176.5626,108.6407 176.5626,109.5688 177.1876,110.1876 177.1876,110.8063 177.5001,111.1157 177.5001,111.4251 177.8126,111.7344 177.8126,112.3532 178.1251,112.6626 178.1251,112.9719 178.4376,113.2813 178.4376,113.9001 178.7501,114.2094 178.7501,114.8282 179.0626,115.1376 179.0626,115.7563 179.3751,116.0657 179.3751,116.6844 179.6876,116.9938 179.6876,117.3032 180.0001,117.6126 180.0001,118.2313 180.3126,118.5407 180.3126,118.8501 180.6251,119.1594 180.6251,119.4688 181.2501,120.0876 180.9376,120.3969 180.9376,120.7063 181.2501,121.0157 181.2501,121.6344 181.5626,121.9438 181.8751,121.9438 181.5626,122.2532 182.5001,123.1813 182.5001,123.4907 182.8126,123.8001 182.8126,124.7282 183.1251,125.0376 182.8126,125.3469 182.8126,125.6563 183.4376,126.2751 183.1251,126.5844 183.7501,127.2032 183.7501,127.8219 184.3751,128.4407 184.0626,128.7501 184.6876,129.3688 184.3751,129.6782 184.6876,129.9876 184.6876,130.6063 185.0001,130.9157 185.0001,131.5344 185.3126,131.8438 185.3126,132.1532 185.6251,132.4626 185.6251,133.0813 185.9376,133.3907 185.9376,134.0094 186.2501,134.3188 186.2501,134.9376 186.5626,135.2469 186.5626,136.1751 186.8751,136.4844 186.8751,136.7938 187.1876,137.1032 187.1876,137.7219 187.5001,138.0313 187.5001,138.3407 187.8126,138.6501 187.8126,138.9594 188.1251,139.2688 188.1251,140.1969 188.4376,140.5063 188.4376,140.8157 188.7501,141.1251 188.7501,141.7438 189.0626,142.0532 189.0626,142.3626 189.3751,142.6719 189.3751,143.2907 189.6876,143.6001 189.6876,144.5282 190.0001,144.8376 190.0001,145.1469 190.3126,145.4563 190.3126,146.0751 190.6251,146.3844 190.6251,147.0032 190.9376,147.3126 190.9376,147.9313 191.5626,148.5501 191.5626,149.1688 191.8751,149.4782 191.8751,150.0969 192.1876,150.4063 192.1876,150.7157 192.5001,151.0251 192.5001,151.6438 192.8126,151.9532 192.8126,152.8813 193.1251,153.1907 193.1251,153.8094 193.4376,154.1188 193.4376,154.4282 193.7501,154.7376 193.7501,155.6657 194.0626,155.9751 194.0626,156.5938 194.3751,156.9032 194.3751,157.2126 195.0001,157.8313 195.0001,158.4501 195.3126,158.7594 195.3126,160.3063 195.0001,160.6157 195.0001,160.9251 195.3126,161.2344 195.3126,161.5438 196.2501,162.4719 196.2501,162.7813 195.9376,163.0907 195.9376,163.7094 195.3126,164.3282 194.6876,164.3282 194.3751,164.0188 194.0626,164.0188 193.7501,163.7094 193.7501,164.0188 194.0626,164.0188"/>
    <polyline fill="none" stroke="#000000" points="193.7501,164.0188 193.4376,164.3282 192.5001,164.3282 192.1876,164.0188 191.8751,164.0188 191.5626,163.7094 191.2501,163.7094 190.9376,163.4001 190.6251,163.4001 190.3126,163.0907 189.6876,163.0907 189.0626,162.4719 188.7501,162.4719"/>
    <polyline fill="none" stroke="#000000" points="193.7501,163.7094 193.1251,163.0907 192.8126,163.0907 192.5001,162.7813 192.1876,162.7813 191.5626,162.1626 191.2501,162.1626 190.9376,161.8532 190.6251,161.8532 190.3126,161.5438 189.6876,161.5438 189.3751,161.2344 189.0626,161.2344 188.7501,160.9251 188.4376,160.9251 187.8126,160.3063 187.5001,160.3063 187.1876,159.9969 186.5626,159.9969 186.2501,159.6876 185.9376,159.6876 185.6251,159.3782 185.3126,159.3782 185.0001,159.0688 184.6876,159.0688 184.3751,158.7594 184.0626,158.7594 183.7501,158.4501 183.4376,158.4501 183.1251,158.1407 182.8126,158.1407 182.5001,157.8313 182.1876,157.8313 181.8751,157.5219 181.2501,157.5219 180.9376,157.2126 180.6251,157.2126 180.3126,156.9032 180.0001,156.9032 179.6876,156.5938 179.3751,156.5938 179.0626,156.2844 178.7501,156.2844 178.4376,155.9751 178.1251,155.9751 177.8126,155.6657 177.5001,155.6657 177.1876,155.3563 176.8751,155.3563 176.5626,155.0469 175.9376,155.0469 175.6251,154.7376 175.3126,154.7376 175.0001,154.4282 174.3751,154.4282 174.0626,154.1188 173.7501,154.1188 173.4376,153.8094 172.8126,153.8094 172.5001,153.5001 171.8751,153.5001 171.5626,153.1907 170.9376,153.1907 170.6251,152.8813 170.3126,152.8813 170.0001,152.5719 169.3751,152.5719 169.0626,152.2626 168.4376,152.2626 168.1251,151.9532 167.8126,151.9532 167.5001,151.6438 166.8751,151.6438 166.5626,151.3344 165.9376,151.3344 165.6251,151.0251 164.6876,151.0251 164.3751,150.7157 164.0626,150.7157 163.7501,150.4063 163.4376,150.4063 163.1251,150.0969 162.8126,150.0969 162.5001,149.7876 161.8751,149.7876 161.5626,149.4782 160.9376,149.4782 160.6251,149.1688 160.3126,149.1688 160.0001,148.8594 159.3751,148.8594 159.0626,148.5501 158.4376,148.5501 158.1251,148.2407 157.8126,148.2407 157.5001,147.9313 156.8751,147.9313 156.5626,147.6219 156.2501,147.6219 155.9376,147.3126 155.6251,147.3126 155.3126,147.0032 154.6876,147.0032 154.3751,146.6938 154.0626,146.6938 153.7501,146.3844 153.4376,146.3844 153.1251,146.0751 152.8126,146.0751 152.5001,145.7657 152.1876,145.7657 151.8751,145.4563 151.2501,145.4563 150.9376,145.1469 150.6251,145.1469 150.3126,144.8376 149.6876,144.8376 149.3751,144.5282 149.0626,144.5282 148.7501,144.2188 148.4376,144.2188 148.1251,143.9094 147.8126,143.9094 147.5001,143.6001 147.1876,143.6001 146.8751,143.2907 146.5626,143.2907 146.2501,142.9813 145.9376,142.9813 145.6251,142.6719 145.0001,142.6719 144.6876,142.3626 144.3751,142.3626 144.0626,142.0532 143.7501,142.0532 143.4376,141.7438 143.1251,141.7438 142.8126,141.4344 142.1876,141.4344 141.8751,141.1251 141.5626,141.1251 141.2501,140.8157 140.9376,140.8157 140.6251,140.5063 140.0001,140.5063 139.3751,139.8876 139.0626,139.8876 138.7501,139.5782 138.4376,139.8876 138.1251,139.8876 137.5001,139.2688 137.1876,139.5782"/>
    <polyline fill="none" stroke="#000000" points="123.4376,150.4063 122.8126,150.4063 122.5001,150.7157 122.5001,151.3344"/>
    <line x1="122.5001" x2="122.1876" y1="151.0251" y2="151.3344"/>
    <polyline fill="none" stroke="#000000" points="110.3126,124.1094 110.3126,123.8001 109.6876,123.1813 109.3751,123.1813 109.0626,123.4907"/>
    <polyline fill="none" stroke="#000000" points="109.0626,123.8001 109.0626,123.4907 108.7501,123.4907"/>
    <line x1="105.3126" x2="105.0001" y1="123.8001" y2="123.8001"/>
    <polyline fill="none" stroke="#000000" points="105.0001,123.4907 106.2501,124.7282 106.5626,124.7282 106.8751,125.0376 107.1876,125.0376 107.5001,125.3469 107.8126,125.3469 108.7501,126.2751 109.0626,126.2751 109.3751,126.5844 109.6876,126.5844 110.0001,126.8938 110.3126,126.8938 110.6251,127.2032 110.9376,127.2032 111.5626,127.8219 111.8751,127.8219 112.8126,128.7501 113.1251,128.7501 113.7501,129.3688 114.0626,129.3688 114.3751,129.6782 115.0001,129.6782 115.3126,129.9876 115.6251,129.9876 115.9376,130.2969 116.2501,130.2969 116.5626,130.6063 116.8751,130.6063 117.1876,130.9157 117.8126,130.9157 118.1251,131.2251 118.4376,131.2251 118.7501,131.5344 119.3751,131.5344 119.6876,131.8438 120.0001,131.8438 120.3126,132.1532 120.9376,132.1532 121.2501,132.4626 121.5626,132.4626 121.8751,132.7719 122.1876,132.7719 122.5001,133.0813 123.1251,133.0813 123.4376,133.3907 123.7501,133.3907 124.0626,133.7001 124.6876,133.7001 125.0001,134.0094 125.6251,134.0094 125.9376,134.3188 126.5626,134.3188 126.8751,134.6282 127.1876,134.6282 127.5001,134.9376 127.8126,134.9376 128.1251,135.2469 128.4376,135.2469 128.7501,135.5563 129.0626,135.5563 129.3751,135.8657 130.0001,135.8657 130.3126,136.1751 130.6251,136.1751 130.9376,136.4844 131.5626,136.4844 131.8751,136.7938 132.1876,136.7938 132.5001,137.1032 132.8126,137.1032 133.1251,137.4126 133.4376,137.4126 133.7501,137.7219 134.0626,137.7219 134.3751,138.0313 134.6876,138.0313 135.0001,138.3407 135.6251,138.3407 135.9376,138.6501 136.2501,138.6501 137.1876,139.5782 135.6251,141.1251 135.3126,141.1251 134.3751,142.0532 134.0626,142.0532 132.5001,143.6001 132.1876,143.6001 131.2501,144.5282 130.9376,144.5282 129.3751,146.0751 129.0626,146.0751 127.8126,147.3126 127.5001,147.3126 126.8751,147.9313 126.5626,147.9313 125.3126,149.1688 125.0001,149.1688 124.0626,150.0969 123.7501,150.0969 123.4376,150.4063 123.7501,150.7157 123.7501,151.0251 123.1251,151.6438 122.8126,151.6438 122.5001,151.3344 122.1876,151.3344 121.5626,151.9532 121.2501,151.9532 119.3751,153.8094 119.0626,153.8094 118.1251,154.7376 117.8126,154.7376 116.8751,155.6657 116.5626,155.6657 115.3126,156.9032 115.0001,156.9032 114.3751,157.5219 114.0626,157.5219 113.7501,157.8313 113.7501,158.1407 113.4376,158.4501 113.1251,158.4501 112.8126,158.7594 112.5001,158.7594 111.5626,159.6876 111.2501,159.6876 110.3126,160.6157 110.0001,160.6157 109.3751,161.2344 109.0626,161.2344 108.1251,162.1626 107.8126,162.1626 106.8751,163.0907 106.5626,163.0907 105.6251,164.0188 105.3126,164.0188 104.6876,164.6376 104.3751,164.6376 103.1251,165.8751 102.8126,165.8751 100.6251,168.0407 100.3126,168.0407 99.3751,168.9688 99.0626,168.9688 98.7501,169.2782 98.7501,169.5876 98.4376,169.8969 97.8126,169.8969 96.5625,171.1344 96.25,171.1344 94.375,172.9907 94.0625,172.9907 92.5,174.5376 92.1875,174.5376 91.875,174.8469 91.25,174.8469"/>
    <polyline fill="none" stroke="#000000" points="90.3125,172.0626 89.6875,171.4438 88.75,171.4438 88.4375,171.7532 87.5,171.7532"/>
    <polyline fill="none" stroke="#000000" points="91.25,169.2782 90.3125,168.3501 90.3125,167.7313 90.9375,167.1126 90.625,166.8032 90.9375,166.4938 90.9375,166.1844"/>
    <line x1="90.9375" x2="91.25" y1="166.4938" y2="166.4938"/>
    <line x1="90.9375" x2="91.875" y1="167.1126" y2="168.0407"/>
    <polyline fill="none" stroke="#000000" points="92.1875,167.1126 92.5,166.8032 92.5,166.4938 92.8125,166.1844 92.8125,165.5657 93.125,165.2563 93.125,164.6376 93.4375,164.3282 93.4375,163.4001 93.75,163.0907 93.75,162.7813 94.0625,162.4719 94.0625,161.5438 94.375,161.2344 94.375,160.3063 94.6875,159.9969 94.6875,158.7594 95.0,158.4501 95.0,157.8313 95.3125,157.5219 95.3125,156.5938 95.625,156.2844 95.625,155.6657 95.9375,155.3563 95.9375,154.4282 96.25,154.1188 96.25,153.5001 96.5625,153.1907 96.5625,152.2626 96.875,151.9532 96.875,151.3344 97.1875,151.0251 97.1875,150.4063 97.5,150.0969 97.5,149.1688 97.8126,148.8594 97.8126,147.9313 98.1251,147.6219 98.1251,147.3126 98.4376,147.0032 98.4376,145.7657 98.7501,145.4563 98.7501,144.5282 99.0626,144.2188 99.0626,143.6001 99.3751,143.2907 99.3751,142.0532 99.6876,141.7438 99.6876,141.1251 100.0001,140.8157 100.0001,139.8876 100.3126,139.5782 100.3126,138.3407 100.6251,138.0313 100.6251,137.4126 100.9376,137.1032 100.9376,136.1751 101.2501,135.8657 101.2501,134.9376 101.5626,134.6282 101.5626,134.0094 101.8751,133.7001 101.8751,132.7719 102.1876,132.4626 102.1876,131.5344 102.5001,131.2251 102.5001,130.6063 102.8126,130.2969 102.8126,129.3688 103.1251,129.0594 103.1251,128.4407 103.4376,128.1313 103.4376,127.2032 103.7501,126.8938 103.7501,125.9657 104.0626,125.6563 104.0626,125.0376 104.3751,124.7282 104.3751,124.4188 105.0001,123.8001 105.0001,122.8719 104.6876,122.5626 104.3751,122.5626 103.7501,121.9438 103.4376,121.9438 102.1876,120.7063"/>
    <polyline fill="none" stroke="#000000" points="105.0001,122.8719 105.3126,122.5626 106.8751,122.5626 107.1876,122.8719 107.5001,122.8719 107.8126,123.1813 108.1251,123.1813 108.4376,123.4907 108.7501,123.4907 109.6876,124.4188 110.0001,124.4188 110.3126,124.1094 111.2501,125.0376 111.8751,125.0376 112.1876,125.3469 112.5001,125.3469 112.8126,125.6563 113.1251,125.6563 113.4376,125.9657 114.0626,125.9657 114.6876,126.5844 115.3126,126.5844 115.9376,127.2032 116.2501,127.2032 116.5626,127.5126 117.1876,127.5126 117.5001,127.8219 118.1251,127.8219 118.4376,128.1313 119.0626,128.1313 119.3751,128.4407 119.6876,128.4407 120.0001,128.7501 120.3126,128.7501 120.6251,129.0594 121.2501,129.0594 121.5626,129.3688 122.1876,129.3688 122.5001,129.6782 122.8126,129.6782 123.1251,129.9876 123.7501,129.9876 124.0626,130.2969 124.3751,130.2969 124.6876,130.6063 125.3126,130.6063 125.9376,131.2251 126.5626,131.2251 126.8751,131.5344 127.1876,131.5344 127.5001,131.8438 128.1251,131.8438 128.4376,132.1532 128.7501,132.1532 129.0626,132.4626 129.6876,132.4626 130.0001,132.7719 130.3126,132.7719 130.6251,133.0813 130.9376,133.0813 131.2501,133.3907 131.8751,133.3907 132.1876,133.7001 132.8126,133.7001 133.1251,134.0094 133.4376,134.0094 133.7501,134.3188 134.0626,134.3188 134.3751,134.6282 135.0001,134.6282 135.3126,134.9376 135.9376,134.9376 136.2501,135.2469 136.5626,135.2469 136.8751,135.5563 137.5001,135.5563 137.8126,135.8657 138.4376,135.8657 138.7501,136.1751 139.0626,136.1751 139.3751,136.4844 139.6876,136.4844 140.0001,136.7938 140.3126,136.7938 140.6251,137.1032 140.9376,137.1032 141.2501,137.4126 141.5626,137.4126 141.8751,137.7219 142.5001,137.7219 142.8126,138.0313 143.1251,138.0313 143.4376,138.3407 144.0626,138.3407 144.6876,138.9594 145.3126,138.9594 145.6251,139.2688 145.9376,139.2688 146.2501,139.5782 146.8751,139.5782 147.1876,139.8876 147.5001,139.8876 147.8126,140.1969 148.1251,140.1969 148.4376,140.5063 148.7501,140.5063 149.0626,140.8157 149.3751,140.8157 149.6876,141.1251 150.0001,141.1251 150.3126,141.4344 150.6251,141.4344 150.9376,141.7438 151.2501,141.7438 151.5626,142.0532 151.8751,142.0532 152.1876,142.3626 152.8126,142.3626 153.1251,142.6719 153.7501,142.6719 154.3751,143.2907 154.6876,143.2907 155.0001,143.6001 155.6251,143.6001 156.2501,144.2188 156.5626,144.2188 156.8751,144.5282 157.5001,144.5282 157.8126,144.8376 158.1251,144.8376 158.4376,145.1469 158.7501,145.1469 159.0626,145.4563 159.6876,145.4563 160.0001,145.7657 160.3126,145.7657 160.6251,146.0751 160.9376,146.0751 161.2501,146.3844 161.5626,146.3844 161.8751,146.6938 162.1876,146.6938 162.5001,147.0032 163.1251,147.0032 163.4376,147.3126 163.7501,147.3126 164.0626,147.6219 164.6876,147.6219 165.0001,147.9313 165.3126,147.9313 165.6251,148.2407 165.9376,148.2407 166.2501,148.5501 166.5626,148.5501 166.8751,148.8594 167.5001,148.8594 167.8126,149.1688 168.1251,149.1688 168.4376,149.4782 169.0626,149.4782 169.3751,149.7876 169.6876,149.7876 170.0001,150.0969 170.6251,150.0969 170.9376,150.4063 171.2501,150.4063 171.5626,150.7157 172.1876,150.7157 172.5001,151.0251 173.1251,151.0251 173.4376,151.3344 173.7501,151.3344 174.0626,151.6438 174.6876,151.6438 175.0001,151.9532 175.6251,151.9532 175.9376,152.2626 176.5626,152.2626 176.8751,152.5719 177.1876,152.5719 177.5001,152.8813 178.1251,152.8813 178.4376,153.1907 179.0626,153.1907 179.3751,153.5001 179.6876,153.5001 180.0001,153.8094 180.3126,153.8094 180.6251,154.1188 180.9376,154.1188 181.2501,154.4282 181.5626,154.4282 181.8751,154.7376 182.5001,154.7376 183.1251,155.3563 183.7501,155.3563 184.0626,155.6657 184.3751,155.6657 185.0001,156.2844 185.6251,156.2844 185.9376,156.5938 186.2501,156.5938 186.5626,156.9032 186.8751,156.9032 187.1876,157.2126 187.5001,157.2126 187.8126,157.5219 188.1251,157.5219 188.4376,157.8313 188.7501,157.8313 189.3751,158.4501 189.6876,158.4501 190.0001,158.7594 190.3126,158.7594 190.6251,159.0688 190.9376,159.0688 191.2501,159.3782 191.5626,159.3782 192.1876,159.9969 192.5001,159.9969 192.8126,160.3063 193.1251,160.3063 193.4376,160.6157 195.0001,160.6157"/>
    <line x1="195.0001" x2="194.6876" y1="160.9251" y2="160.6157"/>
    <polyline fill="none" stroke="#000000" points="196.2501,162.4719 197.1876,161.5438 197.1876,160.9251 197.5001,160.6157 197.5001,159.9969 197.8126,159.6876 197.8126,159.0688 198.1251,158.7594 198.1251,158.4501 198.4376,158.1407 198.4376,157.8313 198.7501,157.5219 198.7501,157.2126 199.0626,156.9032 199.0626,156.5938 199.3751,156.2844 199.3751,155.9751 199.6876,155.6657 199.6876,155.3563 200.3126,154.7376 200.3126,154.4282 200.6251,154.1188 200.6251,153.8094 200.9376,153.5001 200.9376,153.1907 201.2501,152.8813 201.2501,152.5719 201.5626,152.2626 201.5626,151.9532 202.1876,151.3344 202.1876,150.7157 203.1251,149.7876 203.1251,149.4782 203.4376,149.1688 203.4376,148.8594 203.7501,148.5501 203.7501,148.2407 204.0626,147.9313 204.0626,147.6219 204.3751,147.3126 204.3751,147.0032 204.6876,146.6938 204.6876,146.3844 205.3126,145.7657 205.3126,145.4563 205.6251,145.1469 205.6251,144.8376 206.2501,144.2188 206.2501,143.9094 206.5626,143.6001 206.5626,142.9813 207.5001,142.0532 207.5001,141.7438 208.1251,141.1251 208.1251,140.5063 208.7501,139.8876 208.7501,139.5782 209.0626,139.2688 209.0626,138.9594 210.0001,138.0313 210.0001,137.7219 210.3126,137.4126 210.3126,137.1032 210.6251,136.7938 210.6251,136.4844 210.9376,136.1751 210.9376,135.8657 211.5626,135.2469 211.5626,134.9376 212.1876,134.3188 212.1876,134.0094 212.5001,133.7001 212.5001,133.3907 213.1251,132.7719 213.1251,132.4626 213.4376,132.1532 213.4376,131.8438 213.7501,131.5344 213.7501,131.2251 214.3751,130.6063 214.3751,130.2969 215.0001,129.6782 215.0001,129.3688 215.3126,129.0594 215.3126,128.7501 215.6251,128.4407 215.6251,128.1313 215.9376,127.8219 215.9376,127.5126 216.5626,126.8938 216.5626,126.2751 217.1876,125.6563 217.1876,125.0376 217.8126,124.4188 217.8126,124.1094 218.7501,123.1813 218.7501,122.8719 219.0626,122.5626 219.0626,122.2532 219.3751,121.9438 219.3751,121.6344 220.0001,121.0157 220.0001,120.7063 220.6251,120.0876 220.9376,120.0876 221.2501,119.7782 221.2501,118.5407 221.5626,118.2313 221.5626,117.9219 221.8751,117.6126 221.8751,117.3032 222.1876,116.9938 222.1876,116.6844 222.8126,116.0657 222.8126,115.7563 223.1251,115.4469 223.1251,115.1376 223.4376,114.8282 223.4376,114.5188 224.0626,113.9001 224.0626,113.5907 224.6876,112.9719 224.6876,112.6626 225.0001,112.3532 225.0001,112.0438 225.6251,111.4251 225.6251,111.1157 225.9376,110.8063 225.9376,110.4969 226.5626,109.8782 226.5626,109.5688 226.8751,109.2594 226.8751,108.9501 227.1876,108.6407 227.1876,108.3313 227.8126,107.7126 227.8126,107.4032 228.4376,106.7844 228.4376,106.1657 229.0626,105.5469 229.0626,105.2376 229.6876,104.6188 229.6876,104.3094 230.3126,103.6907 230.3126,103.0719 230.6251,102.7626 230.6251,102.4532 230.9376,102.1438 230.9376,101.8344 231.2501,101.5251 231.2501,101.2157 231.5626,100.9063 231.5626,100.5969 232.8126,99.3594 232.8126,98.7407 233.1251,98.4313 233.1251,98.1219 233.7501,97.5031 233.7501,96.8843 234.3751,96.2656 234.3751,95.9562 235.0001,95.3375 235.0001,95.0281 235.3126,94.7187 235.3126,94.4093 235.9376,93.7906 235.9376,93.1718 236.5626,92.5531 236.5626,91.9343 237.1876,91.3156 237.1876,91.0062 237.5001,90.6968 237.5001,90.3875 238.1251,89.7687 238.1251,89.4593 238.4376,89.15 238.4376,88.8406 238.7501,88.5312 238.7501,88.2218 239.3751,87.6031 239.3751,87.2937 240.0001,86.675 240.0001,86.3656 240.3126,86.0562 240.3126,85.7468 240.6251,85.4375 240.6251,85.1281 240.9376,84.8187 240.9376,84.5093 241.2501,84.2 241.2501,83.8906 242.1876,82.9625 242.1876,82.6531 242.5001,82.3437 242.5001,82.0343 242.8126,81.725 242.8126,81.4156 243.4376,80.7968 243.4376,80.4875 244.0626,79.8687 244.0626,79.5593 244.3751,79.25 244.3751,78.9406 244.6876,78.6312 244.6876,78.3218 245.3126,77.7031 245.3126,77.3937 245.6251,77.0843 245.6251,76.4656 246.5626,75.5375 246.5626,75.2281 246.8751,74.9187 246.8751,74.6093 247.1876,74.3 247.1876,73.9906 247.5001,73.6812 247.5001,73.3718 247.8126,73.0625 247.8126,72.7531 248.4376,72.1343 248.4376,71.825 249.0626,71.2062 249.0626,70.8968 249.3751,70.5875 249.3751,70.2781 250.0001,69.6593 250.0001,69.35 250.3126,69.0406 250.3126,68.7312 250.9376,68.1125 250.9376,67.8031 251.2501,67.4937 251.2501,67.1843 251.5626,66.875 251.5626,66.5656 252.1876,65.9468 252.1876,65.6375 252.5001,65.3281 252.5001,65.0187 253.1251,64.4 253.1251,64.0906 253.7501,63.4718 253.7501,63.1625 254.0626,62.8531 254.0626,62.5437 254.6876,61.925 254.6876,61.6156 255.3126,60.9968 255.3126,60.3781 255.9376,59.7593 255.9376,59.45 256.5626,58.8312 256.5626,58.2125 257.5001,57.2843 257.5001,56.975 257.8126,56.6656 257.8126,56.3562 258.4376,55.7375 258.4376,55.4281 258.7501,55.1187 258.7501,54.8093 259.3751,54.1906 259.3751,53.8812 260.0001,53.2625 260.0001,52.9531 260.3126,52.6437 260.3126,52.3343 260.9376,51.7156 260.9376,51.0968 261.5626,50.4781 261.5626,50.1687 261.8751,49.8593 261.8751,49.55 262.5001,48.9312 262.5001,48.6218 263.1251,48.0031 263.1251,47.6937 263.4376,47.3843 263.4376,47.075 264.0626,46.4562 264.0626,46.1468 264.3751,45.8375 264.3751,45.5281 265.0001,44.9093 265.0001,44.6 265.6251,43.9812 265.6251,43.3625 266.2501,42.7437 266.2501,42.4343 266.5626,42.125 266.5626,41.8156 267.1876,41.1968 267.1876,40.8875 267.8126,40.2687 267.8126,39.9593 268.1251,39.65 268.1251,39.3406 268.7501,38.7218 268.7501,38.4125 269.0626,38.1031 269.0626,37.7937 269.6876,37.175 269.6876,36.8656 270.0001,36.5562 270.0001,36.2468 270.6251,35.6281 270.6251,35.3187 270.9376,35.0093 270.9376,34.7 271.5626,34.0812 271.5626,33.7718 271.8751,33.4625 271.8751,33.1531 272.5001,32.5343 272.5001,32.225 272.8126,31.9156 272.8126,31.6062 273.4376,30.9875 273.4376,30.6781 274.0626,30.0593 274.0626,29.75 274.6876,29.1312 274.6876,28.8218 275.0001,28.5125 275.0001,28.2031 275.6251,27.5843 275.6251,27.275 276.2501,26.6562 276.2501,26.3468 276.8751,25.7281 276.8751,25.4187 277.1876,25.1093 277.1876,24.8 278.1251,23.8718 278.1251,23.5625 278.4376,23.2531 278.4376,22.9437 278.7501,22.6343 278.7501,22.325 279.3751,21.7062 279.3751,21.3968 280.0001,20.7781 280.0001,20.4687 280.3126,20.1593 280.3126,19.85 280.9376,19.2312 280.9376,18.9218 281.2501,18.6125 281.2501,18.3031 282.1876,17.375 282.1876,17.0656 283.1252,16.1375 283.1252,15.8281 284.0627,14.9 284.0627,14.5906 284.6877,13.9718 284.6877,13.6625 285.6252,12.7343 285.6252,12.425 286.2502,11.8062 286.2502,11.4968 287.5002,10.2593 287.5002,9.95 288.1252,9.3312 288.1252,8.7125 288.4377,8.4031 288.4377,8.0937 288.7502,7.7843 288.7502,6.5468 287.8127,5.6187 285.9377,5.6187 285.6252,5.9281 285.3127,5.6187 284.6877,5.6187"/>
    <polyline fill="none" stroke="#000000" points="285.6252,5.9281 285.6252,6.5468 285.9377,6.5468 288.1252,8.7125"/>
    <polyline fill="none" stroke="#000000" points="287.8127,9.6406 286.2502,8.0937 286.2502,7.7843 285.6252,7.1656 285.3127,7.1656 285.3127,6.8562 285.6252,6.5468"/>
    <line x1="285.6252" x2="285.9377" y1="6.2375" y2="6.5468"/>
    <line x1="285.6252" x2="285.3127" y1="7.1656" y2="6.8562"/>
    <polyline fill="none" stroke="#000000" points="285.3127,7.1656 284.3752,8.0937 284.3752,8.4031 284.0627,8.7125 284.0627,9.0218 283.7502,9.3312 283.4377,9.3312 283.1252,9.6406 283.7502,10.2593 284.0627,10.2593 284.3752,9.95 283.7502,9.3312"/>
    <polyline fill="none" stroke="#000000" points="283.1252,9.6406 282.8127,9.6406 282.5001,9.95 282.1876,9.95 281.5626,10.5687 281.2501,10.5687 280.9376,10.8781 280.6251,10.8781 280.0001,11.4968 279.6876,11.4968 279.3751,11.8062 279.0626,11.8062 278.4376,12.425 278.1251,12.425 277.5001,13.0437 277.1876,13.0437 276.5626,13.6625 276.2501,13.6625 275.9376,13.9718 275.6251,13.9718 275.0001,14.5906 274.6876,14.5906 274.0626,15.2093 273.7501,15.2093 273.4376,15.5187 273.1251,15.5187 272.5001,16.1375 272.1876,16.1375 271.8751,16.4468 271.5626,16.4468 270.9376,17.0656 270.6251,17.0656 270.3126,17.375 270.0001,17.375 269.3751,17.9937 269.0626,17.9937 268.4376,18.6125 268.1251,18.6125 267.5001,19.2312 267.1876,19.2312 266.5626,19.85 266.2501,19.85 265.9376,20.1593 266.2501,20.4687 266.2501,20.7781 265.9376,21.0875 265.3126,20.4687 265.0001,20.7781 264.6876,20.7781 264.3751,21.0875 264.0626,21.0875 263.4376,21.7062 262.8126,21.7062 261.8751,22.6343 261.5626,22.6343 260.9376,23.2531 260.6251,23.2531 260.0001,23.8718 259.6876,23.8718 259.0626,24.4906 258.7501,24.4906 258.1251,25.1093 257.8126,25.1093 257.1876,25.7281 256.8751,25.7281 256.5626,26.0375 256.2501,26.0375 255.9376,26.3468 255.6251,26.3468 255.0001,26.9656 254.6876,26.9656 254.3751,27.275 254.0626,27.275 253.7501,27.5843 253.4376,27.5843 252.8126,28.2031 252.5001,28.2031 251.8751,28.8218 251.5626,28.8218 251.2501,29.1312 250.9376,29.1312 250.3126,29.75 250.0001,29.75 249.6876,30.0593 249.3751,30.0593 249.0626,30.3687 248.7501,30.3687 248.1251,30.9875 247.8126,30.9875 247.1876,31.6062 246.8751,31.6062 246.2501,32.225 246.2501,32.5343 245.6251,33.1531 245.3126,33.1531 245.0001,32.8437 244.6876,33.1531 244.3751,33.1531 242.8126,34.7 242.5001,34.7 242.1876,34.3906 241.5626,35.0093 241.2501,35.0093 240.6251,35.6281 240.3126,35.6281 240.0001,35.9375 239.6876,35.9375 239.3751,36.2468 239.0626,36.2468 238.7501,36.5562 238.7501,36.8656 238.1251,37.4843 237.8126,37.4843 237.5001,37.175 237.1876,37.4843 237.1876,37.7937 236.5626,38.4125 236.2501,38.4125 235.9376,38.1031 235.0001,39.0312 234.6876,39.0312 234.3751,39.3406 234.0626,39.3406 233.7501,39.65 233.7501,39.9593 233.1251,40.5781 232.8126,40.5781 232.5001,40.2687 231.8751,40.8875 231.5626,40.8875 230.9376,41.5062 230.6251,41.5062 230.3126,41.8156 230.0001,41.5062 229.6876,41.5062 228.7501,42.4343 228.4376,42.4343 228.1251,42.7437 228.4376,43.0531 228.4376,43.3625 228.1251,43.6718 227.8126,43.6718 227.1876,44.2906 226.8751,44.2906 226.5626,43.9812 226.2501,44.2906 226.2501,44.6 225.6251,45.2187 225.3126,45.2187 225.0001,44.9093 224.6876,45.2187 224.3751,45.2187 223.7501,45.8375 223.4376,45.8375 222.8126,46.4562 222.5001,46.7656 222.5001,47.075 222.1876,47.3843 221.8751,47.3843 221.5626,47.075 221.2501,47.3843 220.9376,47.3843 220.6251,47.6937 220.3126,47.6937 219.3751,48.6218 219.0626,48.6218 218.7501,48.9312 218.4376,48.9312 217.8126,49.55 217.5001,49.55 216.8751,50.1687 216.5626,50.1687 216.2501,50.4781 215.9376,50.4781 215.3126,51.0968 215.0001,51.0968 214.3751,51.7156 214.0626,51.7156 213.7501,52.025 213.4376,52.025 213.1251,52.3343 212.8126,52.3343 212.1876,52.9531 211.8751,52.9531 211.2501,53.5718 210.9376,53.5718 210.3126,54.1906 209.6876,54.1906 208.7501,55.1187 208.4376,55.1187 207.8126,55.7375 207.5001,55.7375 207.1876,56.0468 206.8751,56.0468 206.2501,56.6656 205.9376,56.6656 205.6251,56.975 205.3126,56.975 204.6876,57.5937 204.3751,57.5937 204.0626,57.9031 203.7501,57.9031 203.1251,58.5218 202.8126,58.5218 202.1876,59.1406 201.8751,59.1406 201.5626,59.45 201.2501,59.45 200.6251,60.0687 200.3126,60.0687 200.0001,60.3781 199.6876,60.3781 199.0626,60.9968 199.0626,61.3062 198.7501,61.6156 198.4376,61.6156 198.1251,61.3062 197.5001,61.925 197.1876,61.925 196.5626,62.5437 196.2501,62.5437 195.9376,62.8531 195.9376,63.1625 195.6251,63.4718 195.3126,63.4718 195.0001,63.1625 194.0626,64.0906 193.7501,64.0906 193.4376,64.4 193.1251,64.4 192.5001,65.0187 192.1876,65.0187 191.8751,65.3281 191.5626,65.3281 190.9376,65.9468 190.6251,65.9468 190.3126,66.2562 190.0001,66.2562 188.4376,67.8031 188.1251,67.8031 187.5001,68.4218 187.1876,68.4218 186.8751,68.1125 186.5626,68.4218 186.5626,68.7312 185.9376,69.35 185.6251,69.35 185.3126,69.0406 184.6876,69.6593 184.3751,69.6593 183.7501,70.2781 183.4376,70.2781 183.1251,70.5875 182.8126,70.5875 182.1876,71.2062 181.8751,70.8968 181.5626,70.8968 180.9376,71.5156 180.9376,71.825 180.6251,72.1343 180.3126,72.1343 179.6876,72.7531 179.3751,72.7531 178.7501,73.3718 178.7501,74.3 178.4376,74.6093 178.1251,74.6093 177.5001,73.9906 177.1876,74.3 176.8751,74.3 175.9376,75.2281 176.5626,75.8468 176.8751,75.5375 177.1876,75.5375 177.5001,75.2281 177.1876,74.9187 176.8751,75.2281 176.8751,75.5375"/>
    <polyline fill="none" stroke="#000000" points="177.1876,75.5375 176.8751,75.2281 176.8751,74.9187 176.5626,74.6093"/>
    <line x1="176.8751" x2="177.1876" y1="74.9187" y2="74.9187"/>
    <polyline fill="none" stroke="#000000" points="177.5001,73.9906 177.8126,73.6812 178.1251,73.6812 178.4376,73.3718"/>
    <polyline fill="none" stroke="#000000" points="178.7501,73.3718 178.4376,73.3718 178.7501,73.6812"/>
    <line x1="180.9376" x2="181.2501" y1="71.825" y2="71.825"/>
    <polyline fill="none" stroke="#000000" points="180.9376,71.5156 181.2501,71.825 181.5626,71.825 182.1876,71.2062"/>
    <polyline fill="none" stroke="#000000" points="185.3126,69.0406 185.3126,68.7312 185.6251,68.4218 186.2501,68.4218 186.5626,68.7312"/>
    <line x1="186.5626" x2="186.2501" y1="68.4218" y2="68.4218"/>
    <polyline fill="none" stroke="#000000" points="186.8751,68.1125 186.8751,67.8031 187.1876,67.4937 187.8126,67.4937 188.4376,66.875 188.7501,66.875 189.0626,67.1843"/>
    <line x1="188.1251" x2="187.8126" y1="67.8031" y2="67.4937"/>
    <polyline fill="none" stroke="#000000" points="175.9376,75.2281 175.6251,75.2281 175.3126,75.5375 175.6251,75.8468 175.3126,76.1562 175.3126,76.4656 175.0001,76.775 174.6876,76.4656 174.3751,76.775 174.3751,77.0843 174.0626,77.3937 173.7501,77.0843 173.7501,77.3937 173.1251,78.0125 172.5001,77.3937 172.5001,77.0843 172.1876,77.3937 172.5001,77.3937"/>
    <polyline fill="none" stroke="#000000" points="172.5001,77.0843 172.8126,76.775 173.1251,76.775"/>
    <polyline fill="none" stroke="#000000" points="173.4376,76.775 173.1251,76.775 173.4376,76.4656"/>
    <polyline fill="none" stroke="#000000" points="173.7501,77.0843 173.4376,76.775 173.4376,76.4656 173.7501,76.1562 174.0626,76.1562 174.6876,75.5375 175.3126,75.5375"/>
    <line x1="174.6876" x2="174.3751" y1="76.4656" y2="76.4656"/>
    <polyline fill="none" stroke="#000000" points="174.3751,76.775 174.3751,76.4656 174.0626,76.1562"/>
    <line x1="174.0626" x2="173.7501" y1="77.3937" y2="77.3937"/>
    <polyline fill="none" stroke="#000000" points="172.1876,77.3937 171.8751,77.7031 171.2501,77.7031 169.3751,79.5593 169.0626,79.5593 168.7501,79.8687 168.4376,79.8687 167.1876,81.1062 167.1876,82.3437 167.5001,82.6531 166.8751,83.2718 166.8751,83.8906 166.5626,84.2 166.5626,84.5093 166.2501,84.8187 166.2501,85.4375 165.3126,86.3656"/>
    <line x1="165.3126" x2="165.6251" y1="86.0562" y2="86.0562"/>
    <polyline fill="none" stroke="#000000" points="165.9376,85.7468 166.2501,86.0562 166.2501,86.3656 165.9376,86.675"/>
    <line x1="165.9376" x2="165.6251" y1="86.9843" y2="86.675"/>
    <line x1="167.8126" x2="168.1251" y1="88.5312" y2="88.5312"/>
    <polyline fill="none" stroke="#000000" points="168.1251,88.8406 168.1251,88.5312 168.4376,88.2218 168.4376,87.9125 168.7501,87.6031 168.1251,86.9843 168.1251,86.0562 168.7501,85.4375 168.4376,85.1281 168.4376,82.9625 168.7501,82.6531 168.7501,81.1062 168.1251,80.4875 168.1251,80.1781"/>
    <line x1="168.1251" x2="167.8126" y1="80.4875" y2="80.4875"/>
    <line x1="169.3751" x2="169.6876" y1="79.5593" y2="79.5593"/>
    <polyline fill="none" stroke="#000000" points="169.6876,79.25 169.6876,79.5593 170.3126,80.1781 170.3126,84.5093 171.2501,85.4375 171.2501,85.7468 171.5626,86.0562 171.5626,86.675 171.8751,86.9843 171.8751,88.2218 172.1876,88.5312 172.1876,89.15 172.5001,89.4593 172.5001,89.7687 172.8126,90.0781 172.8126,91.0062 173.1251,91.3156 173.1251,92.2437 173.4376,92.5531 173.4376,93.4812 173.7501,93.7906 173.7501,94.7187 174.0626,95.0281 174.0626,96.2656 173.7501,96.575 173.7501,97.1937 174.0626,97.5031 174.3751,97.1937 175.0001,97.8126 175.0001,98.4313 175.3126,98.7407 175.3126,99.6688 175.6251,99.9782 175.6251,100.2876 175.9376,100.5969 175.9376,101.5251 176.2501,101.8344 176.2501,102.4532 176.5626,102.7626 176.5626,104.0001 176.8751,104.3094 176.8751,104.6188 177.1876,104.9282 177.1876,105.5469 177.5001,105.8563 177.5001,106.1657 177.8126,106.4751 177.8126,107.7126 178.1251,108.0219 178.1251,108.6407 178.4376,108.9501 178.4376,109.5688 178.7501,109.8782 178.7501,110.4969 179.0626,110.8063 179.0626,112.0438 179.3751,112.3532 179.3751,112.6626 179.6876,112.9719 179.6876,113.5907 180.0001,113.9001 180.0001,114.8282 180.3126,115.1376 180.3126,115.7563 180.6251,116.0657 180.6251,116.6844 180.9376,116.9938 180.9376,117.6126 181.2501,117.9219 181.2501,118.8501 180.6251,119.4688"/>
    <line x1="180.6251" x2="180.9376" y1="119.1594" y2="119.1594"/>
    <polyline fill="none" stroke="#000000" points="181.2501,118.8501 181.5626,119.1594 181.5626,119.7782 181.2501,120.0876"/>
    <polyline fill="none" stroke="#000000" points="181.5626,119.7782 181.8751,120.0876 181.8751,120.7063 181.2501,121.3251"/>
    <line x1="181.2501" x2="181.5626" y1="121.0157" y2="121.0157"/>
    <polyline fill="none" stroke="#000000" points="181.8751,120.7063 182.1876,121.0157 182.1876,121.6344 182.5001,121.9438 182.5001,122.5626 182.1876,122.8719"/>
    <line x1="181.5626" x2="181.5626" y1="122.2532" y2="121.9438"/>
    <line x1="181.8751" x2="182.1876" y1="121.9438" y2="121.6344"/>
    <polyline fill="none" stroke="#000000" points="183.7501,127.2032 184.3751,127.2032 184.6876,127.5126 184.6876,128.1313 185.0001,128.4407 185.0001,129.0594 184.6876,129.3688"/>
    <line x1="184.3751" x2="184.6876" y1="128.4407" y2="128.1313"/>
    <line x1="184.0626" x2="183.7501" y1="127.2032" y2="127.5126"/>
    <polyline fill="none" stroke="#000000" points="174.6876,104.0001 175.0001,103.6907 175.0001,103.3813 174.6876,103.0719"/>
    <polyline fill="none" stroke="#000000" points="174.3751,103.3813 174.6876,103.0719 174.6876,102.7626 174.3751,102.4532 174.0626,102.4532"/>
    <line x1="171.8751" x2="171.8751" y1="98.1219" y2="97.8126"/>
    <line x1="171.5626" x2="171.5626" y1="97.1937" y2="96.8843"/>
    <polyline fill="none" stroke="#000000" points="171.8751,96.8843 172.1876,96.575 172.1876,95.9562 171.8751,95.6468"/>
    <line x1="171.5626" x2="171.2501" y1="95.9562" y2="95.9562"/>
    <polyline fill="none" stroke="#000000" points="171.2501,96.2656 171.8751,95.6468 171.8751,95.3375 171.5626,95.0281 171.5626,94.4093 171.2501,94.1 171.5626,93.7906 171.5626,93.4812 171.2501,93.1718"/>
    <polyline fill="none" stroke="#000000" points="170.6251,93.7906 171.2501,93.1718 171.2501,92.2437 170.9376,91.9343 170.9376,91.3156 170.6251,91.0062"/>
    <polyline fill="none" stroke="#000000" points="169.6876,92.2437 170.3126,91.625 170.3126,91.3156 170.6251,91.0062 170.3126,90.6968 170.3126,90.0781 169.6876,89.4593"/>
    <polyline fill="none" stroke="#000000" points="169.0626,89.7687 169.3751,89.7687 169.6876,89.4593 169.6876,87.9125 169.3751,87.6031 169.6876,87.2937 169.6876,85.7468 170.6251,84.8187"/>
    <polyline fill="none" stroke="#000000" points="169.6876,85.7468 169.0626,85.7468 168.7501,85.4375"/>
    <line x1="169.3751" x2="169.6876" y1="85.7468" y2="86.0562"/>
    <polyline fill="none" stroke="#000000" points="170.9376,86.9843 170.9376,87.9125 171.2501,88.2218 171.2501,89.4593 171.5626,89.7687 171.5626,90.3875 171.8751,90.6968 171.8751,91.3156 172.1876,91.625 172.1876,92.5531 172.5001,92.8625 172.5001,93.7906"/>
    <line x1="171.2501" x2="170.9376" y1="94.1" y2="94.1"/>
    <line x1="171.5626" x2="170.9376" y1="95.0281" y2="95.6468"/>
    <line x1="170.9376" x2="171.2501" y1="95.3375" y2="95.3375"/>
    <polyline fill="none" stroke="#000000" points="174.0626,96.2656 174.3751,96.575 174.3751,97.1937"/>
    <line x1="169.3751" x2="168.7501" y1="87.6031" y2="87.6031"/>
    <line x1="168.4376" x2="168.1251" y1="83.2718" y2="82.9625"/>
    <polyline fill="none" stroke="#000000" points="168.4376,82.9625 167.8126,82.9625 167.5001,82.6531"/>
    <polyline fill="none" stroke="#000000" points="157.5001,61.925 156.8751,61.3062 157.1876,60.9968 157.5001,60.9968"/>
    <polyline fill="none" stroke="#000000" points="157.8126,61.3062 157.5001,60.9968 157.8126,60.6875 158.1251,60.9968"/>
    <line x1="157.1876" x2="157.1876" y1="61.6156" y2="61.925"/>
    <polyline fill="none" stroke="#000000" points="156.8751,61.3062 156.5626,61.3062 156.2501,61.6156 156.2501,61.925 155.9376,61.6156 156.2501,61.6156"/>
    <polyline fill="none" stroke="#000000" points="155.9376,61.6156 155.6251,61.6156 155.3126,61.925 155.0001,61.925 154.6876,62.2343 155.3126,62.8531 155.0001,62.8531 154.6876,63.1625 154.3751,63.1625 154.0626,63.4718 153.7501,63.1625 153.4376,63.4718 153.4376,63.7812 153.1251,64.0906 152.5001,64.0906 152.1876,64.4 151.5626,64.4 150.9376,65.0187 150.6251,64.7093 150.6251,65.0187 150.3126,65.3281 150.0001,65.0187 150.0001,65.3281 150.3126,65.3281"/>
    <polyline fill="none" stroke="#000000" points="150.0001,65.3281 149.3751,65.9468 149.0626,65.9468"/>
    <polyline fill="none" stroke="#000000" points="148.7501,65.3281 148.4376,65.0187 148.7501,65.0187"/>
    <polyline fill="none" stroke="#000000" points="148.4376,65.0187 148.1251,65.3281 147.8126,65.3281 147.5001,65.6375 147.1876,65.6375 146.8751,65.9468 146.5626,65.9468 146.2501,66.2562 145.6251,66.2562 145.3126,66.5656 145.0001,66.5656 144.6876,66.875 144.3751,66.875 144.0626,67.1843 143.7501,67.1843 143.4376,67.4937 142.8126,67.4937 142.5001,67.8031 142.1876,67.8031 141.8751,68.1125 141.5626,68.1125 141.2501,68.4218 140.9376,68.4218 140.6251,68.7312 140.3126,68.7312 140.0001,69.0406 139.3751,69.0406 138.7501,69.6593 138.4376,69.6593 138.1251,69.9687 137.8126,69.9687 137.5001,70.2781 136.8751,70.2781 136.2501,70.8968 135.6251,70.8968 135.3126,71.2062 134.6876,71.2062 134.0626,71.825 133.7501,71.825 133.4376,72.1343 132.8126,72.1343 132.1876,72.7531 132.5001,72.7531 132.8126,73.0625 134.0626,74.3 134.0626,74.6093"/>
    <line x1="134.0626" x2="134.3751" y1="74.3" y2="74.3"/>
    <polyline fill="none" stroke="#000000" points="133.7501,74.9187 133.4376,75.2281 132.5001,75.2281 131.5626,74.3 131.5626,73.9906 130.9376,73.3718"/>
    <polyline fill="none" stroke="#000000" points="132.1876,72.7531 131.5626,72.7531 129.6876,74.6093 129.3751,74.6093 129.0626,74.9187 128.1251,74.9187 127.5001,75.5375 127.5001,76.1562 126.2501,77.3937 126.2501,77.7031 126.5626,78.0125 127.1876,78.0125 127.5001,77.7031 127.8126,77.7031 128.1251,78.0125 128.7501,78.0125 129.3751,78.6312 130.0001,78.6312 130.6251,79.25 130.6251,79.8687 130.9376,79.8687 131.2501,80.1781 131.2501,80.4875 132.1876,81.4156 132.1876,81.725 131.8751,82.0343 131.8751,82.3437 132.1876,82.6531 132.1876,83.2718 132.5001,83.5812 132.5001,85.7468 132.8126,86.0562 132.8126,86.9843 133.1251,87.2937 133.4376,87.2937"/>
    <polyline fill="none" stroke="#000000" points="135.3126,87.6031 135.3126,89.15 135.0001,89.4593 134.6876,89.15 134.0626,89.15"/>
    <polyline fill="none" stroke="#000000" points="134.0626,90.3875 134.6876,90.3875 135.0001,90.6968 135.0001,91.3156 134.3751,91.9343"/>
    <line x1="134.0626" x2="134.3751" y1="90.6968" y2="90.3875"/>
    <polyline fill="none" stroke="#000000" points="130.0001,91.0062 130.3126,90.6968 130.3126,90.0781 130.0001,89.7687 130.3126,89.4593 130.3126,88.8406 129.6876,88.2218"/>
    <line x1="129.6876" x2="129.6876" y1="87.6031" y2="87.2937"/>
    <polyline fill="none" stroke="#000000" points="130.0001,87.2937 130.3126,86.9843 130.3126,86.0562 130.0001,85.7468 130.3126,85.4375 130.3126,85.1281 130.0001,84.8187"/>
    <line x1="130.0001" x2="129.6876" y1="85.7468" y2="85.7468"/>
    <line x1="129.6876" x2="130.0001" y1="89.7687" y2="89.7687"/>
    <polyline fill="none" stroke="#000000" points="129.6876,91.0062 129.6876,91.625 130.0001,91.625"/>
    <polyline fill="none" stroke="#000000" points="129.6876,91.625 129.3751,91.9343 129.3751,92.5531 129.6876,92.8625 129.3751,93.1718 129.6876,93.4812 129.6876,94.7187 130.0001,95.0281"/>
    <line x1="130.0001" x2="129.6876" y1="92.8625" y2="92.8625"/>
    <polyline fill="none" stroke="#000000" points="134.3751,99.3594 134.3751,99.6688 134.6876,99.6688"/>
    <polyline fill="none" stroke="#000000" points="134.3751,99.6688 133.4376,100.5969 133.1251,100.5969 132.8126,100.9063 132.5001,100.9063 131.8751,101.5251 131.5626,101.5251 131.2501,101.8344 130.9376,101.8344"/>
    <line x1="130.9376" x2="131.2501" y1="101.5251" y2="101.8344"/>
    <polyline fill="none" stroke="#000000" points="135.6251,86.0562 135.6251,84.2 135.3126,83.8906 135.3126,83.2718 135.6251,82.9625 135.6251,81.4156 135.3126,81.1062 135.6251,80.7968 135.6251,78.9406 135.3126,78.6312 135.3126,78.0125 134.3751,77.0843"/>
    <polyline fill="none" stroke="#000000" points="133.7501,78.9406 133.4376,79.25 133.7501,79.25"/>
    <line x1="132.5001" x2="132.5001" y1="72.7531" y2="72.4437"/>
    <polyline fill="none" stroke="#000000" points="128.1251,74.9187 127.1876,73.9906 126.8751,73.9906"/>
    <polyline fill="none" stroke="#000000" points="124.0626,79.5593 123.7501,79.25 123.4376,79.5593 122.8126,79.5593 122.5001,79.8687 122.1876,79.8687 121.8751,80.1781 121.5626,80.1781 121.2501,80.4875 120.9376,80.4875 120.6251,80.7968 120.3126,80.7968 120.0001,81.1062 119.6876,81.1062 119.3751,81.4156"/>
    <line x1="123.4376" x2="123.7501" y1="79.5593" y2="79.8687"/>
    <polyline fill="none" stroke="#000000" points="111.5626,75.5375 109.6876,75.5375 109.3751,75.8468 105.6251,75.8468 105.3126,76.1562 104.0626,76.1562 103.7501,75.8468 103.4376,76.1562 100.6251,76.1562 100.3126,76.4656 100.0001,76.4656 99.6876,76.1562 99.3751,76.1562 99.0626,76.4656 98.7501,76.1562 98.4376,76.1562 98.1251,76.4656 94.375,76.4656"/>
    <line x1="68.4375" x2="68.125" y1="105.2376" y2="105.2376"/>
    <polyline fill="none" stroke="#000000" points="67.1875,104.9282 66.5625,104.3094 65.9375,104.3094 65.625,104.0001 65.0,104.0001"/>
    <polyline fill="none" stroke="#000000" points="64.6875,104.0001 65.0,104.0001 64.6875,104.3094"/>
    <polyline fill="none" stroke="#000000" points="64.375,104.6188 64.6875,104.3094 64.6875,104.0001 63.75,103.0719 63.125,103.0719 62.8125,102.7626 61.25,102.7626 60.9375,102.4532"/>
    <line x1="60.9375" x2="61.25" y1="102.7626" y2="102.7626"/>
    <polyline fill="none" stroke="#000000" points="60.625,103.0719 60.9375,102.7626 60.9375,102.4532 60.3125,101.8344 59.375,101.8344"/>
    <line x1="58.75" x2="58.4375" y1="101.2157" y2="101.5251"/>
    <polyline fill="none" stroke="#000000" points="58.4375,101.2157 58.4375,101.5251 57.8125,102.1438 57.8125,102.7626"/>
    <line x1="57.8125" x2="57.5" y1="102.4532" y2="102.7626"/>
    <polyline fill="none" stroke="#000000" points="56.5625,102.1438 56.5625,101.8344 57.5,100.9063"/>
    <polyline fill="none" stroke="#000000" points="56.25,100.5969 55.625,101.2157 55.625,101.5251 55.3125,101.8344"/>
    <line x1="56.25" x2="56.5625" y1="102.1438" y2="101.8344"/>
    <polyline fill="none" stroke="#000000" points="58.75,102.7626 58.75,102.4532 59.375,101.8344 58.75,101.2157 58.4375,101.2157 58.125,100.9063 57.5,100.9063 57.1875,100.5969 56.25,100.5969 55.625,99.9782 54.0625,99.9782"/>
    <polyline fill="none" stroke="#000000" points="53.75,99.9782 54.0625,99.9782 53.75,100.2876"/>
    <line x1="50.9375" x2="50.625" y1="98.7407" y2="98.4313"/>
    <polyline fill="none" stroke="#000000" points="50.625,98.7407 50.625,98.4313 50.3125,98.1219 49.375,98.1219 48.4375,97.1937 46.875,97.1937 46.5625,96.8843 46.25,96.8843 45.9375,97.1937"/>
    <line x1="48.4375" x2="48.75" y1="98.4313" y2="98.1219"/>
    <polyline fill="none" stroke="#000000" points="48.75,98.4313 48.75,98.1219 49.0625,97.8126"/>
    <line x1="62.1875" x2="62.5" y1="104.6188" y2="104.3094"/>
    <polyline fill="none" stroke="#000000" points="62.5,104.6188 62.5,103.6907 63.125,103.0719"/>
    <polyline fill="none" stroke="#000000" points="50.625,79.25 50.3125,78.9406 49.6875,78.9406 49.375,79.25 49.0625,78.9406 48.4375,78.9406 48.125,79.25"/>
    <polyline fill="none" stroke="#000000" points="48.125,79.5593 47.8125,79.8687 44.6875,79.8687 44.375,80.1781 44.0625,79.8687 43.4375,79.8687 43.125,80.1781 33.75,80.1781 33.4375,80.4875 31.875,80.4875 31.5625,80.1781 29.0625,80.1781 28.75,80.4875 28.4375,80.1781 28.125,80.1781 27.8125,80.4875 27.5,80.1781 27.1875,80.4875 26.5625,80.4875 26.25,80.1781 25.625,80.1781 25.3125,80.4875 16.875,80.4875 16.5625,80.7968 16.25,80.4875 15.9375,80.7968 15.3125,80.7968 15.0,80.4875 14.6875,80.4875 14.375,80.7968 14.0625,80.7968 13.75,80.4875 12.5,80.4875 12.1875,80.7968 10.0,80.7968 9.6875,81.1062 9.375,81.1062 8.75,81.725 8.75,82.3437"/>
    <line x1="8.75" x2="8.4375" y1="82.0343" y2="82.3437"/>
    <line x1="9.6875" x2="10.0" y1="82.9625" y2="82.6531"/>
    <polyline fill="none" stroke="#000000" points="10.0,82.9625 10.0,81.4156 9.6875,81.1062"/>
    <polyline fill="none" stroke="#000000" points="138.1251,72.4437 138.4376,72.1343 138.4376,71.825 138.7501,71.5156 139.0626,71.5156"/>
    <polyline fill="none" stroke="#000000" points="139.6876,71.2062 140.3126,71.825 140.3126,72.1343"/>
    <line x1="140.3126" x2="140.6251" y1="71.825" y2="72.1343"/>
    <polyline fill="none" stroke="#000000" points="140.9376,72.4437 140.6251,72.1343 140.3126,72.1343 140.0001,72.4437 139.0626,71.5156 139.3751,71.2062 139.6876,71.2062 140.3126,70.5875 140.6251,70.5875 140.9376,70.2781 141.2501,70.2781 141.5626,69.9687 141.8751,69.9687 142.1876,69.6593 142.5001,69.6593 143.1251,69.0406 143.4376,69.0406"/>
    <line x1="143.7501" x2="144.0626" y1="68.7312" y2="68.7312"/>
    <polyline fill="none" stroke="#000000" points="144.0626,69.0406 143.7501,69.35 143.4376,69.0406 143.7501,68.7312 144.0626,69.0406 144.0626,68.7312 144.3751,68.4218 144.6876,68.4218 145.0001,68.1125 145.3126,68.1125 145.6251,67.8031 145.9376,67.8031 146.2501,67.4937 146.5626,67.4937 146.8751,67.1843 147.1876,67.1843 147.8126,66.5656 148.4376,66.5656 149.0626,65.9468 148.7501,65.6375 148.7501,65.0187 149.0626,64.7093 149.3751,64.7093 149.6876,64.4 150.0001,64.7093"/>
    <polyline fill="none" stroke="#000000" points="150.0001,65.0187 150.0001,64.7093 150.9376,63.7812 151.2501,64.0906"/>
    <polyline fill="none" stroke="#000000" points="151.5626,64.4 151.2501,64.0906 151.8751,63.4718 152.1876,63.4718 152.8126,64.0906"/>
    <polyline fill="none" stroke="#000000" points="152.5001,64.0906 152.5001,63.4718 152.8126,63.1625 153.1251,63.1625 153.4376,62.8531"/>
    <polyline fill="none" stroke="#000000" points="153.7501,62.8531 153.4376,62.8531 153.7501,63.1625 153.7501,62.8531 154.3751,62.2343 154.6876,62.2343"/>
    <line x1="155.0001" x2="155.0001" y1="62.5437" y2="62.8531"/>
    <polyline fill="none" stroke="#000000" points="155.3126,62.8531 155.6251,62.5437 155.6251,62.2343 155.3126,61.925"/>
    <polyline fill="none" stroke="#000000" points="155.6251,62.2343 155.9376,62.5437 156.2501,62.2343"/>
    <polyline fill="none" stroke="#000000" points="156.5626,62.2343 156.2501,62.2343 156.2501,61.925 156.5626,62.2343 156.8751,62.2343 157.1876,61.925 157.5001,61.925 157.8126,61.6156 157.8126,61.3062 158.1251,60.9968 158.4376,60.9968 158.7501,60.6875 159.0626,60.6875 159.3751,60.3781 159.6876,60.3781 160.0001,60.0687 160.3126,60.0687 160.6251,59.7593 161.2501,59.7593 161.5626,59.45 161.8751,59.45 162.1876,59.1406 162.5001,59.1406 162.8126,58.8312 163.1251,58.8312 163.4376,58.5218 163.7501,58.5218 164.0626,58.2125 164.3751,58.2125 164.6876,57.9031 165.0001,57.9031 165.3126,57.5937 165.6251,57.5937 165.9376,57.2843 166.2501,57.2843 166.5626,56.975 167.1876,56.975 167.5001,56.6656 167.8126,56.6656 168.1251,56.3562 168.4376,56.3562 168.7501,56.0468 169.3751,56.0468 169.6876,55.7375 170.0001,55.7375 170.3126,55.4281 170.6251,55.4281 170.9376,55.1187 171.2501,55.1187 171.5626,54.8093 171.8751,54.8093 172.1876,54.5 172.8126,54.5 173.4376,53.8812 173.7501,53.8812 174.0626,53.5718 174.3751,53.5718 174.6876,53.2625 175.0001,53.2625 175.3126,52.9531 175.6251,52.9531 175.9376,52.6437 176.2501,52.6437 176.5626,52.3343 176.8751,52.3343 177.1876,52.025 177.5001,52.025 177.8126,51.7156 178.1251,51.7156 178.4376,51.4062 178.7501,51.4062 179.0626,51.0968 179.3751,51.0968 179.6876,50.7875 180.0001,50.7875 180.3126,50.4781 180.6251,50.4781 180.9376,50.1687 181.5626,50.1687 182.1876,49.55 182.5001,49.55 182.8126,49.2406 183.4376,49.2406 183.7501,48.9312 184.0626,48.9312 184.3751,48.6218 184.6876,48.6218 185.0001,48.3125 185.3126,48.3125 185.6251,48.0031 185.9376,48.0031 186.2501,47.6937 186.5626,47.6937 186.8751,47.3843 187.1876,47.3843 187.5001,47.075 187.8126,47.075 188.1251,46.7656 188.4376,46.7656 188.7501,46.4562 189.3751,46.4562 189.6876,46.1468 190.0001,46.1468 190.3126,45.8375 190.6251,45.8375 190.9376,45.5281 191.2501,45.5281 191.5626,45.2187 192.1876,45.2187 192.5001,44.9093 192.8126,44.9093 193.1251,44.6 193.4376,44.6 193.7501,44.2906 194.0626,44.2906 194.3751,43.9812 194.6876,43.9812 195.0001,43.6718 195.6251,43.6718 196.2501,43.0531 196.8751,43.0531 197.1876,42.7437 197.5001,42.7437 197.8126,42.4343 198.1251,42.4343 198.4376,42.125 198.7501,42.125 199.0626,41.8156 199.3751,41.8156 199.6876,41.5062 200.3126,41.5062 200.6251,41.1968 200.9376,41.1968 201.2501,40.8875 201.5626,40.8875 201.8751,40.5781 202.5001,40.5781 203.1251,39.9593 203.7501,39.9593 204.3751,39.3406 205.0001,39.3406 205.6251,38.7218 205.9376,39.0312 206.2501,39.0312 206.8751,38.4125 207.5001,38.4125 207.8126,38.1031 207.8126,37.7937 208.1251,38.1031 208.4376,37.7937 208.7501,37.7937 209.6876,36.8656 210.0001,37.175 210.6251,36.5562 210.9376,36.8656 211.5626,36.2468 211.8751,36.2468 212.5001,35.6281 212.8126,35.6281 213.1251,35.3187 213.4376,35.3187 213.7501,35.0093 214.3751,35.0093 215.0001,34.3906 215.3126,34.3906 215.6251,34.0812 216.5626,34.0812 216.8751,33.7718 217.5001,33.7718 217.8126,33.4625 218.1251,33.4625 218.4376,33.1531 218.7501,33.1531 219.0626,32.8437 219.3751,32.8437 220.0001,32.225 220.6251,32.225 221.2501,31.6062 221.5626,31.6062 221.8751,31.2968 222.5001,31.2968 222.8126,30.9875 223.1251,30.9875 223.4376,30.6781 224.0626,30.6781 224.6876,30.0593 225.3126,30.0593 225.6251,29.75 225.9376,29.75 226.2501,29.4406 226.8751,29.4406 227.1876,29.1312 227.5001,29.1312 227.8126,28.8218 228.1251,28.8218 228.4376,28.5125 228.7501,28.5125"/>
    <line x1="229.3751" x2="229.6876" y1="28.2031" y2="28.2031"/>
    <polyline fill="none" stroke="#000000" points="229.6876,28.5125 229.3751,28.2031 229.0626,28.2031 228.7501,28.5125 229.3751,29.1312 228.7501,29.75 228.4376,29.75 228.1251,30.0593 227.5001,30.0593 227.1876,30.3687 226.8751,30.3687 226.5626,30.6781 225.9376,30.6781 225.3126,31.2968"/>
    <polyline fill="none" stroke="#000000" points="229.3751,29.1312 229.6876,29.4406 230.0001,29.1312"/>
    <polyline fill="none" stroke="#000000" points="230.0001,28.8218 229.6876,28.5125 229.6876,28.2031 230.0001,27.8937 230.3126,27.8937 230.6251,27.5843 230.9376,27.5843 231.2501,27.275 231.5626,27.275 231.8751,26.9656 232.5001,26.9656 232.8126,26.6562 233.1251,26.6562 233.4376,26.3468 233.7501,26.3468 234.0626,26.0375 234.3751,26.0375 234.6876,25.7281 235.0001,25.7281 235.3126,25.4187 235.9376,25.4187 236.2501,25.1093 236.5626,25.1093 236.8751,24.8 237.1876,24.8 237.5001,24.4906 238.1251,24.4906 238.4376,24.1812 238.7501,24.1812 239.0626,23.8718 239.3751,23.8718 239.6876,23.5625 240.0001,23.5625"/>
    <polyline fill="none" stroke="#000000" points="240.6251,24.1812 240.0001,23.5625 240.3126,23.2531 240.6251,23.2531 240.9376,22.9437 241.5626,22.9437 241.8751,22.6343 242.5001,22.6343 242.8126,22.325 243.1251,22.325 243.4376,22.0156 243.7501,22.325 244.3751,21.7062 244.6876,21.7062 245.0001,22.0156"/>
    <line x1="244.3751" x2="244.0626" y1="22.9437" y2="22.9437"/>
    <line x1="244.0626" x2="243.7501" y1="22.6343" y2="22.325"/>
    <polyline fill="none" stroke="#000000" points="230.3126,29.1312 230.0001,28.8218 230.0001,29.1312 230.3126,29.1312 230.6251,28.8218 230.9376,28.8218 231.2501,28.5125 231.5626,28.5125 231.8751,28.2031 232.5001,28.2031 232.8126,27.8937 233.1251,27.8937 233.4376,27.5843 233.7501,27.5843 234.0626,27.275 234.3751,27.275 234.6876,26.9656 235.3126,26.9656 235.6251,26.6562 235.9376,26.6562 236.2501,26.3468 236.5626,26.3468 236.8751,26.0375 237.5001,26.0375 237.8126,25.7281 238.1251,25.7281 238.4376,25.4187 238.7501,25.4187 239.0626,25.1093 239.3751,25.1093 239.6876,24.8 240.0001,24.8 240.6251,24.1812 240.9376,24.4906 241.2501,24.1812 241.5626,24.1812 241.8751,23.8718 242.5001,23.8718 242.8126,23.5625 243.1251,23.5625 243.4376,23.2531 243.7501,23.2531 244.0626,22.9437 244.0626,22.6343 244.3751,22.9437 244.6876,22.6343 244.6876,22.325 245.3126,21.7062 245.6251,21.7062 245.9376,21.3968 246.5626,21.3968 246.8751,21.0875 247.1876,21.0875 247.5001,20.7781 247.8126,20.7781 248.1251,20.4687 248.7501,20.4687 249.0626,20.1593 249.3751,20.1593 249.6876,19.85 250.0001,19.85 250.3126,19.5406 250.6251,19.5406 250.9376,19.2312 251.2501,19.2312 251.5626,18.9218 252.1876,18.9218 252.8126,18.3031 253.4376,18.3031 253.7501,17.9937 254.3751,17.9937 254.6876,17.6843 255.0001,17.6843 255.3126,17.375 255.6251,17.375 255.9376,17.0656 256.2501,17.0656 256.5626,16.7562 257.1876,16.7562 257.5001,16.4468 257.8126,16.4468 258.1251,16.1375 258.4376,16.1375 258.7501,15.8281 259.0626,15.8281 259.3751,15.5187 260.0001,15.5187 260.3126,15.2093 260.9376,15.2093 261.2501,14.9 261.5626,14.9 261.8751,14.5906 262.1876,14.5906 262.5001,14.2812 263.1251,14.2812 263.4376,13.9718 263.7501,13.9718 264.0626,13.6625 264.3751,13.6625 264.6876,13.3531 265.0001,13.3531 265.3126,13.0437 265.9376,13.0437 266.2501,12.7343 266.5626,12.7343 266.8751,12.425 267.1876,12.425 267.5001,12.1156 268.1251,12.1156 268.4376,11.8062 268.7501,11.8062 269.0626,11.4968 269.6876,11.4968 270.0001,11.1875 270.3126,11.1875 270.6251,10.8781 270.9376,10.8781 271.2501,10.5687 271.5626,10.5687 271.8751,10.2593 272.1876,10.2593 272.5001,9.95 272.8126,9.95 273.1251,9.6406 273.7501,9.6406 274.0626,9.3312 274.3751,9.3312 274.6876,9.0218 275.0001,9.0218 275.3126,8.7125 275.9376,8.7125 276.2501,8.4031 276.5626,8.4031 276.8751,8.0937 277.1876,8.0937 277.5001,7.7843 278.1251,7.7843 278.4376,7.475 278.7501,7.475 279.0626,7.1656 279.3751,7.1656 279.6876,6.8562 280.3126,6.8562 280.6251,6.5468"/>
    <line x1="281.2501" x2="281.5626" y1="6.5468" y2="6.2375"/>
    <polyline fill="none" stroke="#000000" points="281.5626,6.5468 280.6251,6.5468 280.3126,6.2375 280.3126,5.6187 280.0001,5.3093"/>
    <polyline fill="none" stroke="#000000" points="282.5001,5.3093 283.4377,5.3093 283.7502,5.0 284.0627,5.0 284.6877,5.6187 282.5001,7.7843"/>
    <line x1="282.5001" x2="282.8127" y1="7.475" y2="7.475"/>
    <polyline fill="none" stroke="#000000" points="284.3752,8.4031 285.3127,9.3312 286.2502,8.4031"/>
    <polyline fill="none" stroke="#000000" points="286.2502,8.0937 286.2502,8.4031 286.5627,8.4031"/>
    <line x1="238.7501" x2="238.4376" y1="36.5562" y2="36.5562"/>
    <polyline fill="none" stroke="#000000" points="238.7501,36.8656 238.4376,36.5562 237.8126,36.5562 237.5001,36.8656 237.5001,37.175"/>
    <line x1="237.1876" x2="236.8751" y1="37.4843" y2="37.4843"/>
    <polyline fill="none" stroke="#000000" points="237.1876,37.7937 236.8751,37.4843 236.2501,37.4843 235.9376,37.7937 235.9376,38.1031"/>
    <polyline fill="none" stroke="#000000" points="233.7501,39.65 232.8126,39.65 232.5001,39.9593 232.5001,40.2687"/>
    <line x1="233.4376" x2="233.7501" y1="39.65" y2="39.9593"/>
    <polyline fill="none" stroke="#000000" points="230.3126,41.8156 230.3126,42.125 229.6876,42.7437 229.0626,42.7437 228.4376,43.3625"/>
    <line x1="228.4376" x2="228.7501" y1="43.0531" y2="43.0531"/>
    <line x1="229.0626" x2="228.7501" y1="42.7437" y2="42.4343"/>
    <polyline fill="none" stroke="#000000" points="228.1251,42.7437 227.8126,42.7437 227.5001,43.0531 227.5001,43.3625 227.8126,43.6718"/>
    <polyline fill="none" stroke="#000000" points="227.5001,43.3625 227.1876,43.0531 227.5001,43.0531"/>
    <polyline fill="none" stroke="#000000" points="227.1876,43.0531 226.5626,43.6718 226.5626,43.9812"/>
    <line x1="211.5626" x2="211.2501" y1="36.2468" y2="36.2468"/>
    <polyline fill="none" stroke="#000000" points="211.2501,36.5562 211.2501,36.2468 210.9376,35.9375 210.6251,36.2468 210.6251,36.5562"/>
    <line x1="208.1251" x2="207.8126" y1="38.1031" y2="38.1031"/>
    <polyline fill="none" stroke="#000000" points="243.4376,78.3218 242.8126,78.9406 242.8126,79.5593 243.4376,80.1781 243.4376,80.4875"/>
    <line x1="243.4376" x2="243.7501" y1="80.1781" y2="80.1781"/>
    <line x1="244.3751" x2="244.0626" y1="79.25" y2="78.9406"/>
    <polyline fill="none" stroke="#000000" points="244.3751,78.9406 244.0626,78.9406 243.4376,78.3218 243.4376,78.0125 243.7501,77.7031 244.6876,78.6312"/>
    <line x1="244.6876" x2="244.3751" y1="78.3218" y2="78.3218"/>
    <polyline fill="none" stroke="#000000" points="245.3126,77.7031 245.0001,77.3937 245.3126,77.3937"/>
    <polyline fill="none" stroke="#000000" points="245.6251,76.775 245.3126,76.4656 245.6251,76.4656"/>
    <line x1="241.5626" x2="241.5626" y1="82.6531" y2="82.9625"/>
    <line x1="241.2501" x2="240.9376" y1="82.9625" y2="82.6531"/>
    <polyline fill="none" stroke="#000000" points="241.8751,83.2718 241.5626,82.9625 241.2501,82.9625 241.5626,82.6531 241.2501,82.3437 240.6251,82.9625 240.6251,83.2718 241.2501,83.8906"/>
    <polyline fill="none" stroke="#000000" points="230.9376,101.8344 230.6251,101.5251 230.0001,101.5251 229.6876,101.8344 230.6251,102.7626"/>
    <line x1="230.6251" x2="230.3126" y1="102.4532" y2="102.4532"/>
    <polyline fill="none" stroke="#000000" points="229.6876,104.3094 229.3751,104.3094 229.6876,104.6188"/>
    <polyline fill="none" stroke="#000000" points="221.2501,118.5407 220.6251,118.5407 220.3126,118.8501 220.3126,119.1594 220.0001,119.4688 220.0001,119.7782 220.3126,120.0876 220.3126,120.3969"/>
    <line x1="220.3126" x2="220.6251" y1="120.0876" y2="120.0876"/>
    <line x1="221.2501" x2="220.9376" y1="118.8501" y2="118.5407"/>
    <line x1="155.9376" x2="155.6251" y1="62.5437" y2="62.5437"/>
    <line x1="154.6876" x2="154.3751" y1="63.1625" y2="62.8531"/>
    <polyline fill="none" stroke="#000000" points="154.3751,63.1625 154.3751,62.8531 154.0626,62.5437"/>
    <line x1="153.4376" x2="153.1251" y1="63.4718" y2="63.1625"/>
    <line x1="152.5001" x2="152.1876" y1="63.4718" y2="63.4718"/>
    <line x1="150.9376" x2="150.6251" y1="65.0187" y2="65.0187"/>
    <line x1="150.6251" x2="150.3126" y1="64.7093" y2="64.4"/>
    <line x1="140.3126" x2="140.0001" y1="72.7531" y2="72.7531"/>
  </g>
</svg>
